<svg xmlns="http://www.w3.org/2000/svg" viewBox="0 0 213.15 198.89"><defs><style>.cls-1{opacity:0.79;}.cls-2{fill:#a7c652;}.cls-3{fill:#85af64;}.cls-4{fill:#b0d75c;}.cls-5{fill:#fef0d9;}.cls-6{fill:#1d1d1d;}.cls-7{fill:#fcf1d7;}</style></defs><g id="OBJECTS"><ellipse class="cls-1" cx="100" cy="179.01" rx="69.56" ry="16.6"/><path class="cls-2" d="M40,84.19c-2.11,2.41-1.29,4.59,1.75,5.3-.67,2.74-1,7.39,2.18,7.89,1.6.25,1.88-.87,2.47-2.09,1.06-2.2,1.45-4.06,3.39-5.78a8.37,8.37,0,0,1,7.23-2c3.87.6,9.17,2,11.44-2.42,1.91-3.75,1.79-8.4.85-12.62.15-3.94-1.8-8.38-6.36-6.54-2.25.91-3,2.61-3,5,0,1.55.35,3.14.32,4.68-.08,3-1.3,2.38-3.72,1.88-2.7-.55-5.55-1.14-8.25-.23-1.24.41-2.22,1.37-3.45,1.64-1.44.32-2.95-.16-4.4.32C37,80.37,37.82,82.88,40,84.19Z"/><path class="cls-2" d="M64.87,173c.31,3.1,4.36,3.4,6.53,4,5.59,1.47,11,2.71,16.83,2.76,3.08,0,6.47-.05,9-2.14,3.62-3,3.05-7.6,3.51-11.87a127.85,127.85,0,0,0,.77-14.25c0-4.5-1.35-8-4.77-10.79-.69-.57-1.42-1-2.13-1.54-2.79-2-3.27-3.78-1.11-6.61,1.72-2.26,3.64-4.33,5.37-6.57,5.48-7.11,11.56-16.94,11.23-26.51-.31-9.21-7.89-14.25-15.74-16a22.42,22.42,0,0,0-14,1,20.69,20.69,0,0,0-5.61,3.31,5.27,5.27,0,0,0-1.33,2.61c-2.36,3.64-3.61,8.15-4.84,12.28a122.78,122.78,0,0,0-3.92,20.16c-.61,5.14-.81,10.7,1.52,15.47,2.16,4.45,6.15,7.63,10.35,9.64,2.85,1.35,8.2,2.79,8.79,6.59a7.92,7.92,0,0,1-4.55,7.91c-4.28,1.74-8.07,1.43-11.88,4.55C67.3,168.36,64.62,170.48,64.87,173Z"/><path class="cls-3" d="M74.27,176.59c0,.15,0,.31,0,.46a7.52,7.52,0,0,1,6-2.65c3.1,0,5.73,1.58,6.64,3.77a6.21,6.21,0,0,1,6.22-4.32,6.64,6.64,0,0,1,5.35,2.53,7.32,7.32,0,0,1-1.2,1.23c-2.54,2.09-5.93,2.16-9,2.14C82.45,179.7,77,178.46,71.4,177c-2.17-.57-6.22-.87-6.53-4a3.73,3.73,0,0,1,.12-1.29,7.21,7.21,0,0,1,2.93-.62C71.43,171.11,74.27,173.57,74.27,176.59Z"/><path class="cls-4" d="M9.13,49.09a8.23,8.23,0,0,1,2.09,1.45c2.2,2.76.41,2.29,1,4.05.42,1.14.27,1.54,1.09,2.51a7.54,7.54,0,0,0,4.47,2.15c2.71.54,5.32.12,8,.13s5,1.57,7.75,2.1a25.86,25.86,0,0,0,9.36.4c2.75-.47,4.48-2,6.84-3.46,3.08-1.85,6.33-1.08,9.65-1.41,2.31,5.92.73,14,.15,19.65-.37,3.68.16,7.31-.37,11S57.76,95.24,58,99.12c.56,10.89,6,20.83,16.2,24.11,6,1.91,12.58,2,18.72,2.8,6.74.84,13.54.4,20.3.19,3.72-.11,7.44,0,11.15-.09,3.11-.08,6.15-.83,9.26-1,6.75-.3,13.55.57,20.29,0a21.3,21.3,0,0,0,3.38-.57l2.77-.06c11.78-.16,26-2.21,35.44-10.4,3.81-3.32,6.69-8.12,9.49-12.36,2.28-3.45,5.45-8.26,5.15-12.76-.19-2.91-3.15-3.57-5.11-1.87s-2.57,4.56-4,6.58a46.79,46.79,0,0,1-5.47,6.51c-4.72,4.53-11.08,7.6-17.51,6.43-3-2.51-6.84-3.94-10.07-6.17-3.6-2.48-6.74-5.58-10.39-8l-.32-.21a33.55,33.55,0,0,0-4.11-3.65,23.27,23.27,0,0,0-5.26-2.55c-.69-.41-1.38-.82-2.08-1.2-3.77-2-7.83-3.18-11.76-4.82-8.93-3.74-17.2-7.57-26.89-8.82-4.42-.57-9.06.06-13.46.7A71.42,71.42,0,0,0,86,73.63c-1.11.29-2.37.71-3.66,1.07a5.48,5.48,0,0,1-1.9-2.54c-1-2.52-1.58-5.27-2.58-7.82-1.44-3.69-2.86-7.59-2.33-11.65.43-3.29,2.31-6.06,3.28-9.2a30.79,30.79,0,0,0,1.24-7.58c.15-2.78.34-5.88-.56-8.54s-2.66-4.78-3.42-7.52c-1-3.6-1.86-10.06-5.63-11.8-.11-.05-.23-.08-.34-.12-.82-1.81-3.71-2.4-5.41-2.55a15.07,15.07,0,0,0-7.23,1.38c-4.46-2.18-9-4-13.84-1.57-1.18.58-2.21,1.64-3.37,2.19-1.33.62-2.85.6-4.22,1A6.59,6.59,0,0,0,33.6,9.5c-3.46,2.54-6.11,5.58-10.55,6.32-2.81.47-5,.2-7.64,1.71a13.65,13.65,0,0,0-5.3,5.12C7,28.42,7.16,35.69,5.22,41.77,4,45.61,6.28,47.26,9.13,49.09Z"/><path class="cls-5" d="M58,57.1a17.06,17.06,0,0,1,5.38-2.86c2.3-.55,2.79.66,3.13,2.88,1.23,8.12,0,16.44,1.65,24.53,1.8,8.82,6.18,18.85,12.68,24.89,7.64,7.1,16.47,8,26.16,7.74,9.92-.3,19.84-1.09,29.75-1.3a87.15,87.15,0,0,1,14.35.82c5.15.73,10.53,2,15.73,1.93,10.38-.1,21.71-3.63,29.33-11.43a64.45,64.45,0,0,0,9.38-12.18,53.36,53.36,0,0,0,2.71-5.71,2.79,2.79,0,0,1,1.83,2.64c.3,4.5-2.87,9.31-5.15,12.76-2.8,4.24-5.68,9-9.49,12.36-9.42,8.19-23.66,10.24-35.44,10.4l-2.77.06a21.3,21.3,0,0,1-3.38.57c-6.74.53-13.54-.34-20.29,0-3.11.14-6.15.89-9.26,1-3.71.09-7.43,0-11.15.09-6.76.21-13.56.65-20.3-.19-6.14-.76-12.77-.89-18.72-2.8C64,120,58.52,110,58,99.12c-.2-3.88.73-7.65,1.27-11.45s0-7.33.37-11C60.18,71,61.76,62.93,59.45,57,59,57.06,58.5,57.08,58,57.1Z"/><path class="cls-4" d="M91.6,181.51c.31,3.09,4.36,3.39,6.53,4A67.44,67.44,0,0,0,115,188.23c3.08,0,6.46,0,9-2.13,3.61-3,3-7.61,3.5-11.88a123,123,0,0,0,.77-14.25c0-4.49-1.34-7.95-4.77-10.79-.68-.56-1.41-1-2.13-1.53-2.79-2.05-3.27-3.79-1.11-6.62,1.72-2.25,3.65-4.32,5.38-6.57,5.47-7.11,11.55-16.93,11.23-26.5-.32-9.22-7.9-14.25-15.74-16a22.41,22.41,0,0,0-14,1,20.42,20.42,0,0,0-5.61,3.32,5.24,5.24,0,0,0-1.34,2.61c-2.36,3.64-3.6,8.14-4.83,12.28a121.63,121.63,0,0,0-3.92,20.15c-.62,5.14-.81,10.71,1.51,15.48a21.64,21.64,0,0,0,10.36,9.63c2.84,1.36,8.2,2.8,8.79,6.59a7.92,7.92,0,0,1-4.56,7.91c-4.28,1.74-8.06,1.44-11.87,4.55C94,176.85,91.34,179,91.6,181.51Z"/><path class="cls-4" d="M51.72,103.08c-2.11,2.4-1.3,4.58,1.75,5.29-.68,2.75-1,7.4,2.17,7.9,1.6.25,1.88-.87,2.47-2.09,1.07-2.21,1.46-4.07,3.4-5.78a8.32,8.32,0,0,1,7.23-2c3.86.6,9.17,2,11.44-2.42,1.9-3.76,1.79-8.41.85-12.63.14-3.93-1.81-8.37-6.36-6.54-2.25.91-3,2.61-3,5,0,1.56.36,3.14.32,4.69-.07,3-1.29,2.38-3.72,1.88-2.7-.56-5.55-1.14-8.24-.24-1.25.42-2.23,1.38-3.45,1.65-1.45.32-3-.17-4.4.31C48.67,99.26,49.5,101.76,51.72,103.08Z"/><path class="cls-3" d="M101,185.07a3.44,3.44,0,0,1,0,.46,7.56,7.56,0,0,1,6-2.65c3.11,0,5.73,1.59,6.65,3.78a6.2,6.2,0,0,1,6.21-4.32,6.66,6.66,0,0,1,5.36,2.53,8.17,8.17,0,0,1-1.2,1.23c-2.55,2.08-5.93,2.16-9,2.13a67.44,67.44,0,0,1-16.83-2.76c-2.17-.57-6.22-.87-6.53-4a3.27,3.27,0,0,1,.12-1.29,7,7,0,0,1,2.92-.62C98.15,179.6,101,182.05,101,185.07Z"/><path class="cls-6" d="M50,19.84A2.92,2.92,0,1,0,53,16.76,3,3,0,0,0,50,19.84Z"/><path class="cls-7" d="M44.32,42.33a15.32,15.32,0,0,0,4.26-1.75l.08,0a11,11,0,0,0-.31,3.58,1.23,1.23,0,0,1,0,.19A14.79,14.79,0,0,1,47.9,47a1.09,1.09,0,0,1-1.12.86c-.63-.07-1-.83-1.38-1.31A24.15,24.15,0,0,1,44.05,44a1.68,1.68,0,0,1-.28-1.51A5.35,5.35,0,0,0,44.32,42.33Z"/><path class="cls-7" d="M35.29,45.55A17,17,0,0,0,39.69,44l.09,0a8.56,8.56,0,0,0-.3,3.27l0,.17A11.92,11.92,0,0,1,39,49.82a1.09,1.09,0,0,1-1.15.77c-.66-.07-1.09-.76-1.44-1.21A20.66,20.66,0,0,1,35,47c-.27-.44-.54-.91-.3-1.37A5.72,5.72,0,0,0,35.29,45.55Z"/><path class="cls-7" d="M25.44,48a16.86,16.86,0,0,0,4.5-1.17l.09,0a8.79,8.79,0,0,0-.56,3.23l0,.17a12.11,12.11,0,0,1-.62,2.31,1.1,1.1,0,0,1-1.21.67c-.64-.13-1-.86-1.33-1.33a21.84,21.84,0,0,1-1.23-2.47c-.23-.47-.47-1-.18-1.4A5.48,5.48,0,0,0,25.44,48Z"/><path class="cls-3" d="M13.31,37.7c0,.9,1.4,1.64,3.12,1.64s3.11-.74,3.11-1.64-1.39-1.65-3.11-1.65S13.31,36.79,13.31,37.7Z"/><path class="cls-3" d="M95.3,78.75c0,2.12,3.26,3.83,7.27,3.83s7.26-1.71,7.26-3.83-3.25-3.83-7.26-3.83S95.3,76.64,95.3,78.75Z"/><path class="cls-3" d="M131.11,88.88a4.42,4.42,0,1,0,4.41-4.65A4.53,4.53,0,0,0,131.11,88.88Z"/><path class="cls-3" d="M129,108a4.66,4.66,0,1,0,4.41,4.65A4.54,4.54,0,0,0,129,108Z"/><path class="cls-3" d="M114.5,82.58c0,1.52,2,2.74,4.41,2.74s4.42-1.22,4.42-2.74-2-2.73-4.42-2.73S114.5,81.07,114.5,82.58Z"/><path class="cls-3" d="M144.08,95.45c0,1.36,2.21,2.46,4.93,2.46s4.93-1.1,4.93-2.46S151.74,93,149,93,144.08,94.09,144.08,95.45Z"/><path class="cls-3" d="M122.74,92.5a1.51,1.51,0,0,0,2.21,0,1.72,1.72,0,0,0,0-2.32,1.51,1.51,0,0,0-2.21,0A1.72,1.72,0,0,0,122.74,92.5Z"/><ellipse class="cls-3" cx="43.41" cy="9.78" rx="1.56" ry="1.64"/><path class="cls-3" d="M69.29,23a1.51,1.51,0,0,0,2.21,0,1.72,1.72,0,0,0,0-2.32,1.51,1.51,0,0,0-2.21,0A1.72,1.72,0,0,0,69.29,23Z"/><path class="cls-3" d="M117.1,108.86a3.12,3.12,0,1,0,3.11-3.29A3.2,3.2,0,0,0,117.1,108.86Z"/><path class="cls-3" d="M62.61,13.06a3.12,3.12,0,1,0,6.23,0,3.12,3.12,0,1,0-6.23,0Z"/><path class="cls-3" d="M104.64,87a2.6,2.6,0,1,0,2.6-2.73A2.68,2.68,0,0,0,104.64,87Z"/><path class="cls-3" d="M61.57,21.27a2.6,2.6,0,1,0,2.6-2.73A2.67,2.67,0,0,0,61.57,21.27Z"/><path class="cls-3" d="M48.6,9.23a2.6,2.6,0,1,0,5.19,0,2.6,2.6,0,1,0-5.19,0Z"/><path class="cls-3" d="M72,28.94a2.6,2.6,0,1,0,2.6-2.74A2.67,2.67,0,0,0,72,28.94Z"/><path class="cls-3" d="M117.36,122.54a3.9,3.9,0,1,0,3.89-4.1A4,4,0,0,0,117.36,122.54Z"/><path class="cls-3" d="M84.92,81.22a2.86,2.86,0,1,0,2.86-3A2.94,2.94,0,0,0,84.92,81.22Z"/></g></svg>