<svg xmlns="http://www.w3.org/2000/svg" viewBox="0 0 500 500"><g id="freepik--Clouds--inject-4"><g id="freepik--clouds--inject-4"><path d="M361.36,101.45a13.5,13.5,0,0,0-6.51,2.62c-3.06,2.26-5.15,5.68-8.35,7.73-5.5,3.54-12.65,2.19-19.18,2.56-3.67.21-7.3,1-11,.88-4.32-.15-8.88-1.54-12.82.26a28.06,28.06,0,0,0-4.19,2.76c-4.69,3.25-10.51,4.55-16.21,4.77a39.89,39.89,0,0,0-8.11.65c-1.32.32-2.88,1.44-2.34,2.69a2.46,2.46,0,0,0,1.95,1.16c8.58,1.7,17.48-1.73,26.15-.51,3.15.45,6.27,1.51,9.45,1.23,2.84-.24,5.47-1.53,8.24-2.23s6-.68,8.08,1.3c.73.71,1.25,1.6,1.94,2.34,2.46,2.66,6.48,2.86,10,3.63,2.95.64,5.58,2.67,8.41,3.24,2.35.47,4.36-.64,6.37-1.65,1.69-.85,3.41-1,5.07-1.73a6.52,6.52,0,0,0,1.91-1.83,6.34,6.34,0,0,1,7.32-1.35,33.74,33.74,0,0,1,3.77,2.8,8.8,8.8,0,0,0,9.75.34,14.55,14.55,0,0,1,4.78-1.34c3.34-.51,6.88.21,9.93-.91,4.91-1.8,7.93-.15,12.94.12,2.79.15,5.52-.75,8.17-1.64,1.59-.53,7.9-1.54,8.66-2.94a1.2,1.2,0,0,0-.4-1.53,2.18,2.18,0,0,0-.87-.25c-3.6-.43-7.06,1.14-10.63.94-2.53-.14-4.45-1.85-6.92-1.33-1.52.31-2.88,1.16-4.39,1.52a9.1,9.1,0,0,1-7.65-2.13,20,20,0,0,1-4.81-6.59c-1.07-2.12-2.72-4.72-5-4.23-1.34.28-2.27,1.58-3.59,2-2.54.75-4.63-2.07-5.66-4.52A13.9,13.9,0,0,0,361.36,101.45Z" style="fill:#f5f5f5"></path><g id="freepik--Sun--inject-4"><circle cx="316.16" cy="60.07" r="27.26" transform="translate(185.06 353.97) rotate(-76.72)" style="fill:#fafafa"></circle><circle cx="316.16" cy="60.07" r="21.25" style="fill:#f0f0f0"></circle><circle cx="316.16" cy="60.07" r="15.02" style="fill:#e0e0e0"></circle></g><path d="M141.77,60a38.35,38.35,0,0,1-18.72-1.53c.22-.95,1.44-1.2,2.42-1.26q7.72-.48,15.38-1.66c3-.47,6.27-1.13,8.46-3.3.95-.94,1.64-2.11,2.58-3,2.32-2.33,5.91-3,9.17-2.55s6.3,1.84,9.33,3.13a4.09,4.09,0,0,0,1.89.46c2-.16,2.59-2.71,3.77-4.31,2.2-3,7-2.62,10.08-.58s5.25,5.26,8.08,7.67a22.33,22.33,0,0,0,8,4.28,11.41,11.41,0,0,0,5.33.53A24.2,24.2,0,0,0,212,56.14c5.38-2.14,12-1.26,17.65-.61l28.29,3.26c.78.92-.95,1.88-2.16,1.87l-14-.1c-6.57-.05-13.36-.06-19.39,2.54-4.46,1.92-8.33,5.2-13,6.37-6.28,1.55-12.87-.93-18.41-4.26-3.78-2.27-7.91-5.07-12.2-4.07-1.34.3-2.57,1-3.89,1.33-5.95,1.59-11.59-3.27-17.66-4.31C152,57.28,146.89,59.15,141.77,60Z" style="fill:#f5f5f5"></path></g></g></svg>