<svg xmlns="http://www.w3.org/2000/svg" viewBox="0 0 750 500"><g id="freepik--Floor--inject-8"><path d="M713.35,463.22c0,.15-151.5.26-338.33.26s-338.37-.11-338.37-.26S188.12,463,375,463,713.35,463.08,713.35,463.22Z" style="fill:#263238"/></g><g id="freepik--Plants--inject-8"><path d="M83.72,368.74a2.28,2.28,0,0,1,0,.25l0,.73-.12,2.81c-.07,1.21-.11,2.7-.14,4.44l-.07,2.77v3.11a209,209,0,0,0,2.8,33.9c1.08,6.56,2.41,12.77,3.85,18.35S93,445.65,94.4,449.77s2.65,7.42,3.49,9.72a12.2,12.2,0,0,1,.64,2.75,5.19,5.19,0,0,1,0,.73.67.67,0,0,1,0,.25s0-.34-.12-1a13.53,13.53,0,0,0-.72-2.69c-.9-2.26-2.22-5.55-3.65-9.67s-3-9.1-4.48-14.67-2.82-11.8-3.91-18.38a198.17,198.17,0,0,1-2.65-34l0-3.12.11-2.77c0-1.74.13-3.23.23-4.45s.16-2.12.22-2.8l.06-.73A.68.68,0,0,1,83.72,368.74Z" style="fill:#263238"/><path d="M67.83,388.39a4.62,4.62,0,0,1,.15.8l.32,2.29c.13,1,.3,2.21.53,3.61s.45,3,.79,4.78c.6,3.53,1.47,7.72,2.57,12.33s2.54,9.62,4.24,14.82,3.6,10.06,5.42,14.43,3.65,8.24,5.27,11.44c.77,1.62,1.55,3,2.21,4.31s1.24,2.34,1.73,3.22l1.1,2a4.26,4.26,0,0,1,.35.72,4.62,4.62,0,0,1-.44-.67l-1.19-2c-.52-.86-1.14-1.93-1.81-3.18s-1.49-2.67-2.28-4.28c-1.66-3.19-3.5-7.06-5.38-11.42s-3.74-9.25-5.47-14.46-3.1-10.25-4.21-14.87-1.91-8.83-2.48-12.38c-.31-1.77-.51-3.38-.71-4.79s-.34-2.64-.44-3.64-.17-1.73-.22-2.3A6.05,6.05,0,0,1,67.83,388.39Z" style="fill:#263238"/><path d="M114.29,394.2a3.45,3.45,0,0,1-.19.7l-.63,1.94c-.29.84-.63,1.88-1,3.08s-.82,2.58-1.25,4.11c-.91,3-1.86,6.7-2.82,10.79s-1.83,8.63-2.59,13.42-1.29,9.38-1.69,13.56-.62,8-.74,11.13-.19,5.75-.21,7.53c0,.85,0,1.53,0,2.05a3,3,0,0,1,0,.71,3,3,0,0,1,0-.71c0-.52,0-1.2-.06-2.05,0-1.78,0-4.36,0-7.54s.29-7,.63-11.17.9-8.79,1.65-13.6,1.69-9.33,2.65-13.44,2-7.75,2.93-10.79c.45-1.53.92-2.89,1.32-4.09s.77-2.22,1.08-3.05.55-1.43.73-1.92A4.34,4.34,0,0,1,114.29,394.2Z" style="fill:#263238"/><path d="M423.56,392.67a4.68,4.68,0,0,1-.63.56l-1.85,1.51c-1.61,1.3-4,3.15-6.83,5.53a77.9,77.9,0,0,0-9.34,9,50.06,50.06,0,0,0-8.11,13.57,80.49,80.49,0,0,0-4.33,15.29c-.91,4.82-1.43,9.21-1.81,12.89s-.59,6.69-.77,8.76c-.08,1-.14,1.79-.19,2.38a4.36,4.36,0,0,1-.11.83s0-.29,0-.84.06-1.39.1-2.39c.11-2.07.27-5.07.6-8.77s.82-8.11,1.7-12.95a79.59,79.59,0,0,1,4.33-15.39,49.55,49.55,0,0,1,8.23-13.7,74.72,74.72,0,0,1,9.47-9c2.88-2.34,5.28-4.14,6.94-5.4l1.91-1.43A5.36,5.36,0,0,1,423.56,392.67Z" style="fill:#263238"/><path d="M410.06,429.34a9.86,9.86,0,0,1-1.26,1c-.41.3-.92.68-1.47,1.17s-1.23,1-1.89,1.62-1.43,1.31-2.17,2.1-1.52,1.65-2.33,2.57a47.32,47.32,0,0,0-8,13.62c-.41,1.15-.83,2.23-1.12,3.28s-.57,2-.78,2.92-.36,1.72-.5,2.44-.24,1.34-.31,1.86a10.78,10.78,0,0,1-.27,1.59,9,9,0,0,1,.07-1.62c0-.52.1-1.15.22-1.88s.21-1.57.43-2.47.41-1.91.73-3,.67-2.17,1.08-3.33a45,45,0,0,1,8.09-13.76c.82-.92,1.58-1.81,2.38-2.56s1.53-1.46,2.23-2.07,1.37-1.13,2-1.58a16.52,16.52,0,0,1,1.53-1.11A10.37,10.37,0,0,1,410.06,429.34Z" style="fill:#263238"/><path d="M368.2,366.31a.86.86,0,0,1,.11.24c.06.19.14.42.24.7l.9,2.74c.2.59.41,1.25.64,2s.43,1.53.67,2.38c.46,1.72,1.05,3.65,1.53,5.83s1.08,4.56,1.57,7.14,1,5.33,1.52,8.24c.94,5.83,1.82,12.27,2.61,19s1.54,13.2,2.21,19.07,1.43,11.12,2.14,15.52c.32,2.21.7,4.19,1,5.93s.59,3.25.84,4.47.41,2.14.55,2.82c0,.3.09.54.13.74a.94.94,0,0,1,0,.25,2.46,2.46,0,0,1-.07-.24l-.18-.73c-.16-.68-.38-1.61-.65-2.8s-.61-2.71-.93-4.45-.73-3.72-1.07-5.93c-.76-4.4-1.51-9.67-2.25-15.52s-1.45-12.31-2.25-19.07-1.66-13.19-2.58-19c-.49-2.9-.93-5.67-1.46-8.24s-1-5-1.51-7.13-1-4.12-1.45-5.84c-.22-.86-.42-1.66-.63-2.39s-.41-1.38-.59-2l-.81-2.75-.19-.72A1.46,1.46,0,0,1,368.2,366.31Z" style="fill:#263238"/><path d="M352.2,419.12a1.64,1.64,0,0,1,.49.2,9.4,9.4,0,0,1,1.32.74,17.53,17.53,0,0,1,4.08,3.77,51.88,51.88,0,0,1,4.49,6.91c1.53,2.68,3.14,5.68,4.75,8.87,3.21,6.38,5.79,12.32,7.52,16.66.87,2.17,1.53,4,2,5.18l.49,1.42a1.85,1.85,0,0,1,.14.51s-.1-.15-.24-.47l-.57-1.39c-.54-1.28-1.25-3-2.13-5.11-1.82-4.3-4.45-10.2-7.65-16.57-1.6-3.18-3.19-6.17-4.7-8.87a53.62,53.62,0,0,0-4.36-6.91,18.78,18.78,0,0,0-3.9-3.84C352.84,419.47,352.18,419.17,352.2,419.12Z" style="fill:#263238"/><path d="M614.2,417.42a2.37,2.37,0,0,1,.35.38l.91,1.14c.39.5.87,1.11,1.38,1.85s1.13,1.57,1.74,2.53c1.27,1.88,2.66,4.21,4.09,6.85a88,88,0,0,1,7.27,18.12c.8,2.9,1.4,5.54,1.79,7.78.22,1.11.35,2.13.48,3s.23,1.67.28,2.3l.14,1.46a2.82,2.82,0,0,1,0,.51,1.79,1.79,0,0,1-.12-.5c-.06-.39-.14-.87-.23-1.44s-.2-1.4-.36-2.28-.32-1.9-.56-3c-.44-2.22-1.08-4.84-1.89-7.72s-1.88-6-3.16-9.2-2.7-6.17-4.07-8.83-2.75-5-4-6.87c-.58-1-1.17-1.81-1.67-2.56s-.93-1.39-1.31-1.9-.6-.88-.83-1.2A2.55,2.55,0,0,1,614.2,417.42Z" style="fill:#263238"/><path d="M642.11,373.48a.82.82,0,0,1-.05.23l-.2.66-.81,2.53c-.71,2.19-1.75,5.36-2.87,9.33A126.69,126.69,0,0,0,635,400.31a95.66,95.66,0,0,0-1.19,17.63c.13,6.28.72,12.24,1.33,17.65s1.28,10.28,1.79,14.38.9,7.35,1.18,9.69q.2,1.66.3,2.64c0,.27,0,.5.07.69a.12.12,0,1,1-.06,0c0-.18-.07-.41-.11-.68-.1-.64-.23-1.52-.4-2.63-.32-2.33-.78-5.62-1.35-9.67s-1.24-8.94-1.89-14.36-1.25-11.4-1.38-17.7a93.86,93.86,0,0,1,1.24-17.72,122.4,122.4,0,0,1,3.34-14.11c1.18-3.95,2.27-7.11,3-9.29.39-1.05.69-1.88.91-2.49l.25-.65A2.28,2.28,0,0,1,642.11,373.48Z" style="fill:#263238"/><path d="M656.83,408.16a3,3,0,0,1-.29.51c-.23.38-.53.85-.9,1.42s-.88,1.36-1.38,2.27-1.13,1.9-1.7,3.08l-.92,1.82c-.32.64-.59,1.33-.91,2-.65,1.39-1.2,2.93-1.82,4.54a75.16,75.16,0,0,0-2.89,10.8,76,76,0,0,0-1.12,11.13c0,1.73,0,3.36.07,4.89,0,.77.06,1.51.13,2.21s.14,1.39.21,2c.1,1.3.32,2.46.47,3.48s.31,1.9.46,2.62.24,1.21.33,1.65a2.54,2.54,0,0,1,.07.58,2.85,2.85,0,0,1-.18-.56c-.11-.43-.24-1-.41-1.63s-.39-1.58-.56-2.61-.42-2.18-.55-3.49q-.12-1-.24-2c-.08-.71-.1-1.46-.16-2.23-.13-1.53-.11-3.18-.12-4.91a71.63,71.63,0,0,1,1.09-11.22,72.49,72.49,0,0,1,3-10.87c.63-1.62,1.2-3.17,1.88-4.55.32-.7.61-1.39.94-2l1-1.82c.58-1.17,1.24-2.17,1.77-3.06s1-1.64,1.46-2.23l1-1.37C656.69,408.3,656.81,408.15,656.83,408.16Z" style="fill:#263238"/></g></svg>