<svg xmlns="http://www.w3.org/2000/svg" viewBox="0 0 500 500"><g id="freepik--dinosaur-2--inject-4"><g id="freepik--Sauropod--inject-4"><g id="freepik--Tail--inject-4"><path d="M375.86,274.81c10.65-6.59,38.15-15.22,64,.94,6.88,4.31,13.44,11.75,14.57,20.06,1.88,13.82-1.93,27.86-13.42,36.93a60.84,60.84,0,0,1-17.16,9.59,47.23,47.23,0,0,1-11,2.41c-2.27.18-4.81.22-6-.63-1.91-1.36,5.81-2.68,6.5-2.88,10.28-2.86,16.41-7.19,22.06-14.35,10.85-13.75,7.86-29.23-2.44-36.84-7-5.16-26.11-12.22-41.2-4-4.25,2.32,0,3.36,0,3.36l-8.28,3Z" style="fill:#455a64"></path><path d="M448.56,318.9c.28-.4.31-.93.59-1.36.39-.6,1.43-1.4,1.68-2a16.23,16.23,0,0,0,.67-3.78c.12-1.15-.67-2-.67-2.9,0-2.77,3.4-6,1.85-9-1-2-3.45-1.42-2.9-4.31.19-1,.77-1.92.53-2.94a4.52,4.52,0,0,0-.66-1.51c-.28-.38-1-.61-.87-1.2s.74-.72.84-1.16-.25-.65-.56-.91a23.32,23.32,0,0,0-2.22-1.29c-.83-.53-.84-1-.78-1.93s-.88-1.68-1.68-2c-1-.42-2.17,0-3.19-.48s-.9-1.36-1.47-2.08a4.91,4.91,0,0,0-3.43-1.86c-.85-.11-2,.27-2.78,0-1.68-.64-.75-1.38-1.19-2.81-.54-1.77-2.88-2.57-4.79-2.82-4-.53-8.13-4.81-12.31-2.6a7,7,0,0,1-5,.45,3.22,3.22,0,0,0-1.74-.15c-.87.24-1.58.8-2.56.62s-2.09-1.1-3.05-1.61c-1.18-.63-2.17-1.1-3.4-.45a4.3,4.3,0,0,1-2.74.44,20.52,20.52,0,0,0-4.22-.38,29.62,29.62,0,0,0-9.15,2.44c-.59.24-7.69,3.29-7.52,3.69l2.16,5c2.14-.64,3.49-2.93,5.67-3.45a10.51,10.51,0,0,1,5.63.27,18.26,18.26,0,0,0,3.67.68c2.53.46,3.12.85,5.24-.56,1.09-.73,2.06-1.91,3.39-2.19,2.72-.58,4.89,3.65,7.89,2,.69-.39.82-1.36,1.67-1.47s1.92,1,2.56,1.45c1.45,1,3.19,2.4,5,2.62,2.1.26,5.08-1.76,6.93-.42.94.69.85,1.91,1.62,2.72,1.33,1.4,3.3,1,4.69,2.11,1.1.9.64,2,2.39,2.58,1.57.49,3,0,4.25,1.26.45.44.57,1.19,1.12,1.6s1.37.44,2,.81c1.63,1,1.24,1.53,1.17,3.27-.09,2.3.84,2.54,1.91,4.19.55.85.22,1.34.5,2.17a14.71,14.71,0,0,0,1.22,2.14c1.13,2.12,0,2.73-.4,4.76-.28,1.51.5,3.17.74,4.72a10,10,0,0,1,.36,2.16c-.08,1.3-.79,1.31-1.24,2.28-.84,1.83-.12,2.4-1.7,3.91-2.57,2.45-1.54,5.73-3.94,8.22-1.6,1.65-4.55,1.63-5.56,3.1-.23.34-.22,1.1-.52,1.56-.45.72-1.19,1-1.73,1.59a8.15,8.15,0,0,1-1.68,1.73c-.62.39-1.45.56-2.11,1-1.27.75-2.31,1.95-3.55,2.73a14.71,14.71,0,0,1-1.75.67,1.94,1.94,0,0,0-.75.43s-.39.66-.09.59c.72-.17,1.46-.56,2.2-.75a8.1,8.1,0,0,0,2.68-.91,22.09,22.09,0,0,1,4.48-2.79,9.27,9.27,0,0,0,2.55-1.14,14.84,14.84,0,0,0,1.85-2.26,5,5,0,0,1,1.92-1.44c.62-.23,1.26-.09,1.88-.38a6.52,6.52,0,0,0,2.09-2.27c.46-.62,1.06-1.08,1.56-1.64a6.5,6.5,0,0,0,1.07-2.27,15.55,15.55,0,0,1,1.84-4.59C447.16,320,448.14,319.49,448.56,318.9Z" style="fill:#37474f"></path><path d="M428,270l-6,14.69A40.33,40.33,0,0,1,433,290c.34.25.68.51,1,.78a74.57,74.57,0,0,0,7-14.31c-.38-.26-.76-.52-1.15-.76A61.09,61.09,0,0,0,428,270Z" style="opacity:0.15"></path></g><path d="M272.92,342.19a84.11,84.11,0,0,1,.44-10.18c.37-3.45,2.91-18.47,4.05-21.13,3.09-7.14,3.16-10.13.88-14.32-3.21-5.89-12-34.93-12.21-39.55s2.92-29.1-2.05-33.59-20-9.74-26.18-.63-6.14,19.42-6.9,35c-.62,12.76,23.13,34.28,25.64,38.77A24.26,24.26,0,0,1,260,311.7c-.51,6.41-5.18,15.78-6.88,19-1.49,2.79-6.75,6.23-6.28,10.61.19,1.73,2.43,1.1,2.43,1.1a6.12,6.12,0,0,0-.86,3.32c.06,1,1.36,1.75,2.22,1.71a22.8,22.8,0,0,0,2.45-.35,2.3,2.3,0,0,0,.18,2.19c.74.85,2.47,1.13,4.55.61a13.48,13.48,0,0,0,3.34-1.28,1.28,1.28,0,0,0,.29,1.41c.65.57,2.43,1,5.78-.83S272.68,345.83,272.92,342.19Z" style="fill:#37474f"></path><path d="M278.29,296.56c-3.21-5.89-12-34.93-12.21-39.55s2.92-29.1-2.05-33.59-20-9.74-26.18-.63-6.14,19.42-6.9,35c-.46,9.53,12.67,23.95,20.39,32.51a155.48,155.48,0,0,0,27.59,7.55C278.74,297.44,278.53,297,278.29,296.56Z" style="opacity:0.15"></path><path d="M257.79,349.88a13.48,13.48,0,0,0,3.34-1.28c.43-1.39,1.52-3.46,2.41-5.92a46.19,46.19,0,0,1-3.68,4.91,8.46,8.46,0,0,1-4.05,2.54A8.07,8.07,0,0,0,257.79,349.88Z" style="fill:#263238"></path><path d="M249.41,347.08a2.41,2.41,0,0,0,1.2.35,22.8,22.8,0,0,0,2.45-.35c.62-1.22,1.79-2.55,2.53-3.78a11.37,11.37,0,0,0,1.26-3,33.06,33.06,0,0,1-1.8,2.83C253.81,344.77,252.68,347.08,249.41,347.08Z" style="fill:#263238"></path><path d="M248.64,341.84a.8.8,0,0,1-1.1-.28c.24,1.72,1.71.84,1.71.84a24.5,24.5,0,0,0,2.73-5A20.42,20.42,0,0,1,248.64,341.84Z" style="fill:#263238"></path><path d="M262.16,347.09a6.2,6.2,0,0,0-3.06,4.46c-.09,1.81,1,.7,3.06-.41.29-.15.56-.27.83-.4a2,2,0,0,0,.38-3.36A1.77,1.77,0,0,0,262.16,347.09Z" style="fill:#f0f0f0"></path><path d="M263.37,347.38a1.51,1.51,0,0,0-.28-.15c.74.6.93,1.7-.51,2.56s-2.38,2.19-2.91,2.31c-.35.08-.49-.41-.54-.73a1.13,1.13,0,0,0,0,.18c-.09,1.8,1,.7,3.06-.41.29-.15.56-.27.83-.4A2,2,0,0,0,263.37,347.38Z" style="fill:#e0e0e0"></path><path d="M254.83,346.29a1.19,1.19,0,0,0-.71.28,7,7,0,0,0-2.47,5.22c.17,2,1.19.64,3.37-.91.47-.33.89-.58,1.38-.89a1.73,1.73,0,0,0,.64-2.2A2.41,2.41,0,0,0,254.83,346.29Z" style="fill:#f0f0f0"></path><path d="M255,350.88c.47-.33.89-.58,1.38-.89a1.73,1.73,0,0,0,.64-2.2,2.69,2.69,0,0,0-1.42-1.38c.92.64,1.21,1.71,0,2.76a15.68,15.68,0,0,0-2.59,2.32c-.66.91-1.36.74-1.37.3C251.82,353.83,252.84,352.43,255,350.88Z" style="fill:#e0e0e0"></path><path d="M250.29,343.45a1.82,1.82,0,0,0-1.77.61,7.44,7.44,0,0,0-1.9,5.42c.34,2.14,1.31.58,3.49-1.24.42-.35.81-.62,1.25-.95a2,2,0,0,0,.44-2.78A2.68,2.68,0,0,0,250.29,343.45Z" style="fill:#f0f0f0"></path><path d="M250.65,343.57a1.93,1.93,0,0,1,0,2.83c-.95,1.14-2,1.45-2.43,2.44s-1.2,1.7-1.59.64c.34,2.14,1.31.58,3.49-1.24.42-.35.81-.62,1.25-.95a2,2,0,0,0,.44-2.78A2.9,2.9,0,0,0,250.65,343.57Z" style="fill:#e0e0e0"></path><path d="M247.12,339.47c-1,.75-2.45,2.78-2.24,4.32s.93.43,2.52-.84c.32-.26.62-.46.95-.7a1.51,1.51,0,0,0,.51-1.83A1.38,1.38,0,0,0,247.12,339.47Z" style="fill:#f0f0f0"></path><path d="M248.86,340.42a2.27,2.27,0,0,0-.36-.58c.36.59,0,1.38-1,2.13s-1.74,2-2.2,1.9-.38-.95-.37-1.15a3,3,0,0,0-.09,1.07c.22,1.54.93.43,2.52-.84.32-.26.62-.46.95-.7A1.51,1.51,0,0,0,248.86,340.42Z" style="fill:#e0e0e0"></path><path d="M277.68,303.19c0,.47-.06,1.41.56,1.57s.6-.58.66-.9a8.25,8.25,0,0,0,.06-2.22c0-.13-.16-.09-.15,0a7.23,7.23,0,0,1-.1,1.61,2.23,2.23,0,0,1-.19.78c-.34.52-.34-.1-.35-.32a16.23,16.23,0,0,1,.18-3.19,7.37,7.37,0,0,1,.78-2.21c-.08-.21-.17-.42-.27-.64a7.88,7.88,0,0,0-1.07,3.2A16,16,0,0,0,277.68,303.19Z" style="fill:#455a64"></path><path d="M234.63,262.62c.8.34,1.61.66,2.43.94a34.8,34.8,0,0,0,10,1.91c.89,0,1.77,0,2.66,0,.41,0,.81,0,1.22-.08a2.48,2.48,0,0,0,1-.18c.5-.27.37-.83,0-1.17a6.57,6.57,0,0,0-2-1,31.87,31.87,0,0,0-11.5-1.83s0,0,0,0a51.63,51.63,0,0,1,8.66,1.33,21.23,21.23,0,0,1,4,1.46,1.5,1.5,0,0,1,.4.2c.33.4-.05.43-.27.47a9.05,9.05,0,0,1-1,.05c-.82,0-1.64,0-2.45,0a35.31,35.31,0,0,1-8.67-1.3,32,32,0,0,1-4.24-1.52c-.3-.13-.67-.25-.8-.57s.16-.63.47-.84a4.48,4.48,0,0,1,2-.66,30,30,0,0,1,10.24,1c.29.07.16-.39,0-.46a23,23,0,0,0-5.57-1.17,21,21,0,0,0-5.07,0c-.95.13-3.27.78-2.87,2.16C233.45,262.06,234.09,262.38,234.63,262.62Z" style="fill:#455a64"></path><path d="M271.66,304.78a22.25,22.25,0,0,1-7.58.49,19.94,19.94,0,0,1-3.51-.75c-.33-.1-.66-.23-1-.36.05.22.08.43.12.65l.47.16a19.08,19.08,0,0,0,3.95.86,17,17,0,0,0,7.59-.76C271.82,305,271.78,304.76,271.66,304.78Z" style="fill:#455a64"></path><path d="M277.79,307.27c-1.19-1-1.37-2.52-1.37-4,0-.08-.07-.06-.09,0a4.62,4.62,0,0,0,.84,3.82,3.49,3.49,0,0,0,1.35,1c.05-.13.09-.26.14-.38A3.22,3.22,0,0,1,277.79,307.27Z" style="fill:#455a64"></path><path d="M266.41,336.09a17.91,17.91,0,0,1-9.91-2,16.49,16.49,0,0,1-3.78-2.82c-.14.2-.29.41-.46.62a17.51,17.51,0,0,0,3.73,2.7,16,16,0,0,0,10.43,1.68C266.5,336.29,266.49,336.08,266.41,336.09Z" style="fill:#455a64"></path><path d="M257.67,298.65c.11.22.22.45.32.68a15.29,15.29,0,0,0,3.39,1,20,20,0,0,0,8.51-.27c.31-.08,0-.59-.27-.56-1.41.19-2.79.43-4.22.49a19.4,19.4,0,0,1-3.88-.22A15.69,15.69,0,0,1,257.67,298.65Z" style="fill:#455a64"></path><path d="M268.72,330.9c-1.62-.07-3.21.09-4.82-.09a19.47,19.47,0,0,1-4.13-.94,19.27,19.27,0,0,1-3.81-1.81c-.39-.24-.77-.51-1.14-.78-.1.21-.2.4-.3.6.33.23.66.45,1,.66a19.17,19.17,0,0,0,4.14,2,19.54,19.54,0,0,0,4.46,1,10.81,10.81,0,0,0,4.67-.29C268.91,331.15,268.83,330.9,268.72,330.9Z" style="fill:#455a64"></path><path d="M273.84,300.57a29.64,29.64,0,0,1-5,1.61,21.86,21.86,0,0,1-5.17.37,24.71,24.71,0,0,1-4.68-.69c.08.25.16.49.23.74a26.35,26.35,0,0,0,4.62.6,20.19,20.19,0,0,0,5.26-.43,13.14,13.14,0,0,0,4.84-1.92C274,300.78,274,300.52,273.84,300.57Z" style="fill:#455a64"></path><path d="M268.05,332.92c-.94,0-1.88.07-2.82,0a29,29,0,0,1-3.36-.39c-1.95-.32-4.19-.64-5.64-2.09-.07-.07-.12.09-.08.14a5.39,5.39,0,0,0,2.32,1.54,18.79,18.79,0,0,0,3.21.95,15.66,15.66,0,0,0,3.27.29,13.1,13.1,0,0,0,3.13-.24C268.17,333.14,268.15,332.92,268.05,332.92Z" style="fill:#455a64"></path><path d="M250.17,266.56a36.3,36.3,0,0,1-4.3.19,41.18,41.18,0,0,1-4.44-.28c-.81-.09-1.61-.22-2.42-.35a19.8,19.8,0,0,0-2.31-.35c-.07,0-.1.14,0,.17a17.51,17.51,0,0,0,4.8,1.08,39.84,39.84,0,0,0,4.62.32,36.13,36.13,0,0,0,4.65-.24,5,5,0,0,0,3.45-1.4c.09-.1,0-.37-.16-.29A10.65,10.65,0,0,1,250.17,266.56Z" style="fill:#455a64"></path><path d="M353.76,283.33c.94,3.56,1.81,5.08,1.81,9.29-.24,3.63-2.75,6.18-6.11,8s-5.35,1.05-6,.47a1.3,1.3,0,0,1-.29-1.41,13.49,13.49,0,0,1-3.34,1.29c-2.07.52-3.8.23-4.55-.61a2.3,2.3,0,0,1-.18-2.19,23.86,23.86,0,0,1-2.44.34c-.87,0-2.17-.74-2.23-1.7a6.18,6.18,0,0,1,.87-3.33s-2.24.63-2.43-1.09c-.48-4.38,4.74-8.1,5.64-11.13,1.39-4.63-4.36-18.82-6.73-24.36-3.45-8.07-3.92-9.41-3.14-16.33s1.43-9.46,2.35-15.63c1.66-11.17-7.28-29.62-9.56-34.68-2.84-6.33,2-19.68,17.74-15.94s18.93,17.93,19,29.89c.07,19.94-8,41.17-7.81,43s.9,2.57,2.16,6.55C351.37,262.86,352.83,279.78,353.76,283.33Z" style="fill:#37474f"></path><path d="M339.83,301a13.27,13.27,0,0,0,3.34-1.28c.43-1.38,1.52-3.46,2.41-5.92a46.26,46.26,0,0,1-3.67,4.92,8.65,8.65,0,0,1-4.06,2.54A8,8,0,0,0,339.83,301Z" style="fill:#263238"></path><path d="M331.46,298.17a2.26,2.26,0,0,0,1.2.35,23.86,23.86,0,0,0,2.44-.34c.63-1.22,1.79-2.55,2.53-3.79a11,11,0,0,0,1.26-3s-1,1.83-1.8,2.84C335.86,295.87,334.73,298.18,331.46,298.17Z" style="fill:#263238"></path><path d="M330.69,292.94a.81.81,0,0,1-1.11-.28c.24,1.72,1.72.83,1.72.83a23.47,23.47,0,0,0,2.72-5.05A20.21,20.21,0,0,1,330.69,292.94Z" style="fill:#263238"></path><path d="M344.21,298.19a6.22,6.22,0,0,0-3.07,4.45c-.09,1.81,1,.7,3.07-.4.29-.15.55-.28.83-.4a2,2,0,0,0,.37-3.37A1.74,1.74,0,0,0,344.21,298.19Z" style="fill:#f0f0f0"></path><path d="M345.41,298.47l-.27-.14c.74.6.93,1.7-.52,2.56s-2.38,2.19-2.9,2.3c-.36.08-.49-.4-.55-.72a1.22,1.22,0,0,1,0,.17c-.09,1.81,1,.7,3.07-.4.29-.15.55-.28.83-.4A2,2,0,0,0,345.41,298.47Z" style="fill:#e0e0e0"></path><path d="M336.88,297.38a1.18,1.18,0,0,0-.71.29,7,7,0,0,0-2.47,5.22c.17,2,1.18.64,3.37-.91.46-.34.88-.58,1.37-.89a1.74,1.74,0,0,0,.65-2.2A2.44,2.44,0,0,0,336.88,297.38Z" style="fill:#f0f0f0"></path><path d="M337.07,302c.46-.34.88-.58,1.37-.89a1.74,1.74,0,0,0,.65-2.2,2.71,2.71,0,0,0-1.43-1.38c.92.64,1.21,1.71,0,2.76a14.75,14.75,0,0,0-2.58,2.32c-.67.91-1.36.74-1.37.3C333.87,304.93,334.88,303.53,337.07,302Z" style="fill:#e0e0e0"></path><path d="M332.34,294.54a1.83,1.83,0,0,0-1.77.62,7.4,7.4,0,0,0-1.9,5.42c.34,2.14,1.3.58,3.48-1.24.43-.35.82-.62,1.25-.95a2,2,0,0,0,.44-2.78A2.72,2.72,0,0,0,332.34,294.54Z" style="fill:#f0f0f0"></path><path d="M332.7,294.67a1.93,1.93,0,0,1,0,2.83c-.95,1.14-2,1.45-2.42,2.44s-1.2,1.69-1.59.64c.34,2.14,1.3.58,3.48-1.24.43-.35.82-.62,1.25-.95a2,2,0,0,0,.44-2.78A2.79,2.79,0,0,0,332.7,294.67Z" style="fill:#e0e0e0"></path><path d="M329.16,290.56c-1,.76-2.45,2.78-2.23,4.32s.93.44,2.51-.84c.33-.26.62-.45,1-.7a1.51,1.51,0,0,0,.51-1.82A1.4,1.4,0,0,0,329.16,290.56Z" style="fill:#f0f0f0"></path><path d="M330.91,291.52a2.13,2.13,0,0,0-.37-.58c.37.58,0,1.38-1,2.12s-1.73,2-2.19,1.9-.38-.94-.37-1.14a2.78,2.78,0,0,0-.09,1.06c.21,1.54.93.44,2.51-.84.33-.26.62-.45,1-.7A1.51,1.51,0,0,0,330.91,291.52Z" style="fill:#e0e0e0"></path><path d="M337.72,245.72a23,23,0,0,0-5.6-.9,10,10,0,0,0-5.41.71c-.51.27-1.45.78-1.47,1.45s.6,1,1.08,1.19a16,16,0,0,0,2.8.81,9.59,9.59,0,0,0,3,.32c.19,0,0-.36-.08-.39-.75-.16-1.53-.2-2.28-.34a18.73,18.73,0,0,1-2.21-.54,11.18,11.18,0,0,1-1.11-.38c-.13-.06-.46-.19-.53-.33s.16-.53.31-.66a5.51,5.51,0,0,1,2.18-1.08,13.45,13.45,0,0,1,4.2-.22,25.35,25.35,0,0,1,5.07.59C337.8,246,337.82,245.75,337.72,245.72Z" style="fill:#455a64"></path><path d="M326.84,244c0,.18.17.52.38.38a13,13,0,0,1,1.35-1,5.22,5.22,0,0,1,1.54-.49,15.91,15.91,0,0,1,3.65-.09,17.06,17.06,0,0,1,7.64,2c.15.09.18-.21.07-.28a16.7,16.7,0,0,0-8.23-2.44,13.71,13.71,0,0,0-3.73.17C328.62,242.47,327.06,243,326.84,244Z" style="fill:#455a64"></path><path d="M344.24,281.08a20.17,20.17,0,0,0-5-.87,24.05,24.05,0,0,0-4.57.18,5.88,5.88,0,0,1-.14.79l.14,0a26,26,0,0,1,4.75-.25,19.71,19.71,0,0,1,9.35,2.69c.07,0,.11-.13.05-.17A17.76,17.76,0,0,0,344.24,281.08Z" style="fill:#455a64"></path><path d="M348.76,286.41c.1,0,.11-.15.06-.2a13.65,13.65,0,0,0-6.14-3.14,15,15,0,0,0-7.22-.17c-.1,0-.07.26,0,.25a28.69,28.69,0,0,1,3.34-.13,18.16,18.16,0,0,1,3.51.53,18.57,18.57,0,0,1,3.22,1.11C346.67,285.17,347.69,285.83,348.76,286.41Z" style="fill:#455a64"></path><path d="M341.32,278.35a20.44,20.44,0,0,1,3,.75c1.16.38,2.25.95,3.41,1.32.24.08.17-.3,0-.38a11.6,11.6,0,0,0-2.92-1.36,20.46,20.46,0,0,0-3.46-.9,12.71,12.71,0,0,0-6.72.58s0,.07,0,.11A18.08,18.08,0,0,1,341.32,278.35Z" style="fill:#455a64"></path><path d="M338.13,250.78a21.33,21.33,0,0,0,3.71-2c.1-.07.06-.36-.09-.32-2.45.7-4.45,2.52-7.08,2.64a16.31,16.31,0,0,1-7.69-1.35c-.11-.06-.13.2,0,.25a16.51,16.51,0,0,0,7.58,1.65A7.94,7.94,0,0,0,338.13,250.78Z" style="fill:#455a64"></path><path d="M334.62,247.25a12.56,12.56,0,0,1-2.6.12,21.65,21.65,0,0,1-4.81-.56s-.08.11,0,.13a14.49,14.49,0,0,0,5.39.92,11,11,0,0,0,2.29-.09,3.07,3.07,0,0,0,2-.94c.08-.11,0-.4-.2-.34A11.38,11.38,0,0,1,334.62,247.25Z" style="fill:#455a64"></path><path d="M390.23,290.29c13.93-6.89,21-14.85,21.18-25.57.35-17.6-15.93-22.81-17.1-22.66s-11.24,6.3-21.74,20.16-15.91,22.83-41.27,31.27-52.7,3-66.06-3.2C246,281.41,240,276.83,223,270.13c-20.18-7.95-40.83-18.61-51.59-47.76-23.51-63.67,17.29-118.92,46.07-125.22,11-2.42,18.47,0,22.78,4.24,3,3,4.45,5.5,6.63,7.8s3.49,1.26,5.67,2.12,2.62,3.11,2.24,4.94-1.57,5.78-.92,7.74,2.35,8.83,1.94,11.64a6.6,6.6,0,0,1-2.49,4.24,4.48,4.48,0,0,1-1,3.27c-1.26,1.49-3,2.13-5.79,2.41s-4.88-2.47-6.2-5.49a18.74,18.74,0,0,0-6.16-7.55c-2.74-1.77-3.64-3.84-4.9-8.22s-.77-8-3.44-8.86-7.49,0-12,4.52c-28.38,28.23-29.15,63.54-22.06,83.32,3.56,9.92,14.76,18.87,24.59,20.57,11.59,2,25.68-5.2,40.91-16.27,16.23-11.8,42.5-27.82,67.85-36.53,17.38-6,33-7,52.14-.31,23.9,8.35,35.8,18.15,47.71,39.17s16.57,50.63,7.19,72-26.26,25.89-38.42,26.63c-14.48.89-32.77-9.45-25.5-25.49,5.35-11.83,18.38-13.26,18.38-13.26Z" style="fill:#455a64"></path><path d="M436.73,248.14c-.14-1.58-.33-3.17-.55-4.76-.12-.79-.24-1.58-.37-2.37a96.82,96.82,0,0,0-10.9-31.11c-7.82-13.8-15.63-22.76-26.83-29.65a87.15,87.15,0,0,0-8.62-4.61c-3.72-1.73-7.78-3.34-12.26-4.91h0c-1.11-.39-2.2-.74-3.28-1.08l-.39-.12c-1-.3-2-.58-3-.84l-.64-.17q-1.38-.36-2.73-.66l-.85-.18c-.84-.18-1.67-.34-2.5-.48l-1-.17c-.7-.12-1.39-.22-2.08-.31l-1.44-.17-1.41-.14-2.11-.15-1-.06-2.57-.06h-.66c-1.1,0-2.19,0-3.28.09h0a23.48,23.48,0,0,0,.85,2.88c.78,2.32,1,4.17-1.89,4.64s-3.35-2.38-5.54-3.46c-.84-.42-2.24-1.13-3.23-.77-1.5.56-.17.78-.88,1.72-1.42,1.86-5-1-6.51-1.58l-.7-.27h0c-1.54.45-3.1.93-4.68,1.46,1.37.29,4.3.83,4.18,2-.17,1.67-3.5.26-.66,2.26,1.31.91,2.95,2.52.15,2.76s-6-1-8.55-2a24.84,24.84,0,0,0-4.95-1.37l-3.38,1.41-.45.19-3.3,1.45a18,18,0,0,1,4.21,1c2.38.87,7.51,1.88,7.74,4.89-2.63,1-4.31.05-6.71-.89-3.24-1.26-5.53-1.36-9-1.36-1.18,0-2.41,0-3.65-.09l-3.32,1.66-.45.23c-1.12.57-2.23,1.14-3.34,1.73h0c2.21.15,3.88.71,3.78,2.09-.13,1.86-3.48,2.6-4.94,2.66-1.62.06-3.18-1.15-4.69-1.59h0c-3.33,1.85-6.57,3.73-9.69,5.62,1.55,0,3.1,0,4.57.15a25.15,25.15,0,0,1,7.39,1.53c1.55.67,5,3.65,1.28,4.08-2.15.25-4.56-.41-6.64-.89-1.85-.43-3.72-.73-5.57-1.13s-3.43-1.63-5.12-1.24l-1,.62c.73.73,2.18,1.4,2,2.61a19.6,19.6,0,0,1-5.26-.52h0q-3,1.91-5.7,3.77c1.16.69,2.2,1.45,2.26,2.71s-.82,1.31-1.11,2.11c-.51,1.45.19.67.79,1.85,2.09,4.11-8.66,1.89-10.19,2.1.59,1.1,2.55,1.73,2.56,3-2.6.2-4.75-1.12-7.15-1.91l-.85-.31c-1.27.84-2.52,1.64-3.77,2.41h0c1.77,1,4,2.48,2.91,4s-3.46-.59-4.83,0c-.09,1.65,4.79,3.36,1.65,4.18-2.95.77-6.54-1.75-9.59-1.6,1.71,4.69-4.54,2.68-6.73,1.36h0c-.59.19-1.17.36-1.75.51l-.27.08c-1.13.29-2.26.54-3.36.72l-.31.05c-.54.09-1.07.16-1.61.21h0c-.54,0-1.06.09-1.59.11l-.34,0c-.51,0-1,0-1.52,0h0c-.51,0-1,0-1.51-.09l-.36,0c-.5-.05-1-.11-1.48-.19s-1.28-.26-1.93-.43c-.17,0-.34-.1-.51-.15-.48-.14-1-.28-1.45-.45l-.51-.19c-.49-.18-1-.37-1.48-.58l-.43-.2c-.52-.23-1-.47-1.56-.74l-.32-.17c-.56-.29-1.11-.6-1.67-.93l-.19-.12c-.6-.36-1.18-.73-1.76-1.13l-.09-.06c-.61-.42-1.21-.85-1.79-1.31l0,0c-.6-.47-1.19-1-1.77-1.46h0c.1.22.2.43.28.65.52,1.37.11,3.06,1.47,4,.62.44,1.33.24,1.94.51,1.28.57,1.8,1.8,2.82,2.63,1.41,1.13,2.73.61,4.12,2l.45.49a5.93,5.93,0,0,1,1.21,2.66c.24.89.93,3.59,2.16,3.66.43,0,1.49-1.08,1.68-1.39.72-1.18.27-1.42.2-2.69-.23-4,4.47-.05,6.27.85a7.72,7.72,0,0,1,3.76,3.53c1.15,2.59,1.13,7.25,5.26,6.63.49-2-2.28-3.51-1.22-5.79,2.89,1.52,5.59,8.5,9.45,7.72.33-4.09-5.21-5.25-4.77-9.69a23.87,23.87,0,0,1,13.6,3.42c3.21,1.88,7.28,7.71,11,7.75,2-3.95-4.55-6.92-6.79-9.16-1.4-1.4-2.36-3.46-4-4.66,9-2.49,17.61,2.37,25.2,6.42a13.39,13.39,0,0,1,5.35,4.38c1,1.28,2.4,4.57,3.93,4.19.78-4.9-3.56-14.69-7.61-17.85-2.4-1.88-5.88-2.81-7.1-5.95-.28-.74-.61-2-.11-2.72.8-1.14,2.53-.7,3.66-.35,1.85.57,3.11,1.58,5.19.95.34-1.9-2.85-3.93-.57-5.23,1.58-.91,4.54.09,6.08.65a13.63,13.63,0,0,1,6.17,4.35c1.09,1.5,3.48,6.68,5.44,6.37-.32-1.68.11-3.24-.79-4.81a23,23,0,0,0-2.74-3.9c-.52-.56-2.3-1.55-2-2.58s3-.27,3.87-.35c-.12-1.71-4.54-2.19-5.87-2.81-3.47-1.63,1.35-1.58,2.65-1.33a31.76,31.76,0,0,1,8.18,2.51c4.86,2.35,9.86,6.32,11.3,11.77.64,2.41,1.39,7.21,4.84,4,2.52-2.34-.36-5.39-1.09-7.59-.64-1.9-.13-3.75-2.24-5.76-1.08-1-10.6-7.47-8.46-8.68.58-.34,1.53.41,2,.63a8.4,8.4,0,0,0,4.53,1.11c0-2.2-4.16-2.72-5-4.35-.91-1.83,3.77-1.16,4.56-1a25.36,25.36,0,0,1,7.94,3.21c4.37,2.57,5.54,7.72,9.1,10.67,4.44-2.31-1.05-7-2.24-9.26-.46-.89-.52-2.45-1-3.49a38.4,38.4,0,0,0-2-3.53c5.7-.89,5.83,7.43,9.19,6.44.2-3.75-.61-6.4-3.61-9-1.08-.93-6.66-3.21-4.5-5.11,1.12-1,3.79-.05,5,.3a36.37,36.37,0,0,1,10.14,4.42,12.86,12.86,0,0,1,4.3,4.13c1,1.86.08,6.41,2.88,7,3.27.69,3.25-5.08,2.72-6.86-.45-1.52-2-2.68-3.2-3.57-1.37-1-1.7-1.46.47-1.77,1.34-.19,4,.46,3-1.46s-3.49-1.3-5-1.44a5.46,5.46,0,0,1-2.66-1.46c-1.29-1-5.33-2.07-5.44-3.87,2.62-.11,4.58,1.45,7.24,1a16.27,16.27,0,0,1,2.7-.64c4.53,0,6.42,3.93,9.23,6.65,2.62,2.52,3.85,3.33,4.29-.93.25-2.47-1.14-5.67-2.54-7.66-1.87-2.65-6.52-2.27-8.32-4.82a9.47,9.47,0,0,1,8.24,1.26c3.87,3,9.23,2.3,11.53,7.2.7,1.49,1.87,6.37,4.6,4.84,3.84-2.16-.62-8.16-1.26-10.67-.3-1.15-.15-2.27-.62-3.43-.93-2.28-3.09-3.87-4.43-5.89,3.79-.37,5.94,3.43,7.79,6.07,1.34,1.92,3.41,1.78,5.22,2.85a15.79,15.79,0,0,1,4.86,5.47c1.73,3.26.88,7.14,1.52,10.64.78,4.3,3.64,8.18,4.14,1.23.24-3.25-.88-6.73-1.54-9.89-.17-.78-1.49-5.24.52-4.77,2.85.67,2,7,5,7.14.53-3-2.9-6.06-1.78-9,2.64.24,2.31,3.82,3.71,5.32.85.92,2.16,1,3.13,1.79a6.35,6.35,0,0,1,1.95,2.58c.8,1.93.59,4.2.82,6.24.2,1.88.34,4.26,2.49,3.28,1.84-.84,1.5-4.24,1.18-5.79-.18-.91-1.14-1.33-1.22-2.44,0-.55-.47-5.18-.69-5.15,4.36-.66,4.53,6.73,5.41,9.23s2.34,3.56,2.11,6.47c-.21,2.67-1.56,5.06-1.28,7.87,5.35,1.13,1.54-12.17,7.2-12.76,4.13-.44,2.27,9.09,1.7,11.43a3,3,0,0,0,3.35-1.56c1.42,1.34.69,4.62.57,6.58-.07,1.28-.62,2.82,0,4,.89,1.7,4.1,1.67,5,3.3,1.48,2.6-1,5.8-.33,8.39.28,1,1.86,1.54,2.29,2.83a12.55,12.55,0,0,1,0,3.62c-.12,4.09-1.57,5.83.91,8.92,1.57,1.95,3.69,4.86,3.4,7.6-.16,1.5-1.39,2.48-1.35,4,0,.87,1.11,2,1.34,3.1.53,2.53-.26,4.92-.92,7.11-1.39,4.62-.56,10-4.62,13.21-1.15.91-5.14.68-6,2.29s1.37,4.29.59,6.46c-1.54,4.28-10.82,11.87-15.48,10.22-2.15-.76-3.3-1.93-5.81-1.46s-3.89,1.09-6.74.8c-1.89-.2-3.93.47-5.74-.15-1.34-.46-4-1.09-4.91-2.26-.8-1-.1-2.37-.62-3.48-.62-1.3-2-1.43-3.32-1-1.09.34-3.17,1.84-4.2.64-.75-.86-.13-2.85-.36-3.92s-1.22-1.84-1.48-2.94a5.54,5.54,0,0,1,.86-3.89c1.49-2.1,4.34-3.15,6-5.17a3.8,3.8,0,0,0,1.09-2.85,5.62,5.62,0,0,1,.88-3.24c.68-.77,2.05-.61,1.94-1.75-4.2,1.22-11.53,4.43-15.21,12.58-3.38,7.45-1.24,13.66,3.47,18.1l.44.4.27.23c.22.19.44.38.67.56s.27.21.41.31l.5.38.83.57.2.14a32.28,32.28,0,0,0,18.71,4.8h0c12.16-.74,29-5.27,38.42-26.63a63.81,63.81,0,0,0,5-24.26A86.26,86.26,0,0,0,436.73,248.14Z" style="fill:#37474f"></path><path d="M171.89,146.14c1-1.6,3.56-2.4,4.82-3.88s1-.89.93-2.9c0-.75-.35-2.05,0-2.73,1.08-2.25,2.33.48,3.88-.85s.19-3.79.72-5.48c1-3.14,4.28-5.41,6.41-7.51,1.08-1.06,1.08-2.15,1.74-3.47.37-.75,1.14-1.36,1.47-2.08.5-1.1.5-3.74,3-2.83,2,.73.67,3.36,3.2,2.37,1-.4,1.21-1.27,1.73-2,.11-.17.78-1.42.85-1.6.56-1.42.4-3.55,2.14-4.09s3.4.49,5.14,0c1.41-.43,1.58-1.37,2.37-1.9s2.55-.82,3.26-1.7c1.66-2.09-.24-3.17,3.38-3.22-.44,2.39,1.7,2.72,3.47,2.14,2.28-.75,3.08-3,5.4-3.74,1.12-.35,3.65-1.36,4.69-.19s-.52,1.24-1.39,2.08c-.27.27-.71.32-1,.58s.07,1-.28,1.37c-1,1-3.52.79-2.24,3.1a5.79,5.79,0,0,0,2-.19c1.26-.25,1.9-1.49,2.59-1.74,1.29-.47,0-.1,1.67.22.36.07,1.36.44,1.74.53.57.13,1.73-1.06,2.29.65.15.48-.88,2.25-.87,3,0,3.88,2.53,1.47,4.72,1.87a4.18,4.18,0,0,1,2.85,1.5c.66,1,.58,2.2,1.12,3.23.31.59,1.15,1,1.11,1.73,0,.47-.47,1.05-.36,1.52.2.82,1.35.72,1.84,1.24.13.14.16.33.28.47a2,2,0,0,0,.62.37,1.79,1.79,0,0,1,1,.83c.21.54,0,1,.47,1.49.26.26.7.34.93.58s0,.57.2.85c.36.53.56-.19.58-.52a12,12,0,0,1,0-1.58c.11-.5.44-1,.09-1.44s-1.2-.9-1.25-1.68c-.07-1,.62-1.35.87-2.14a5.72,5.72,0,0,0,.44-2.69c-.12-.77-.79-1.55-.6-2.31.24-1,1.48-1.24,1.69-2.16,0,0,0-.09-.06-.17-1.59-.3-2.8.08-4.59-1.82-2.18-2.3-3.61-4.83-6.63-7.8-4.31-4.24-11.75-6.66-22.78-4.24C193.05,102.49,160,143,164.86,194c0-.76,0-1.52.07-2.28.21-3.76-.64-6.93.26-10.68.73-3.05.82-6.16,1.65-9.07.33-1.13,1-2.16,1.32-3.27.44-1.69-.11-1.66-.47-3.33-1.17-5.47,4-8.11,5.4-12.9C173.94,149.56,170.3,148.74,171.89,146.14Z" style="fill:#37474f"></path><g id="freepik--Face--inject-4"><path d="M240,120.25a2.6,2.6,0,0,0-2.19-3.34s-1,1.65-.37,2.62A2.14,2.14,0,0,0,240,120.25Z" style="fill:#263238"></path><path d="M238.75,120.83c-.15,0-.29,0-.43,0a3.11,3.11,0,0,1-.44-.08,3.6,3.6,0,0,1-.92-.41,3.45,3.45,0,0,1-.67-.54,3.92,3.92,0,0,1-.27-.33s-.07-.11-.11-.15a.47.47,0,0,1-.14-.14s0,0,0,0,0,.2.06.29a.94.94,0,0,0,.12.22,2.7,2.7,0,0,0,.27.39,3.19,3.19,0,0,0,.74.68,3.06,3.06,0,0,0,.86.4,3.88,3.88,0,0,0,.49.11,2.31,2.31,0,0,0,.52.06C239,121.37,239,120.84,238.75,120.83Z" style="opacity:0.25"></path><path d="M241.65,117.37a3.52,3.52,0,0,0-.93-1.49,3.57,3.57,0,0,0-1.53-.88,11.45,11.45,0,0,0-1.83-.3c-.14,0-.24.3-.07.33a4.94,4.94,0,0,1,1.63.48,5.67,5.67,0,0,1,1.41,1,3.22,3.22,0,0,1,.7,1.11c.17.44.1.91.27,1.35,0,.07.09.13.16.09C242,118.73,241.81,117.85,241.65,117.37Z" style="opacity:0.25"></path><path d="M238.73,118.31a.46.46,0,0,1-.6.26.47.47,0,0,1,.33-.87A.48.48,0,0,1,238.73,118.31Z" style="fill:#fafafa"></path><path d="M249.38,132.69a2.52,2.52,0,0,0-.23-2.37c-.42-.83-.34-1.81-.94-1.52s-.6,1.33-.49,2c.18,1.2.24,2.63.78,2.67C248.84,133.49,249.13,133.22,249.38,132.69Z" style="fill:#263238"></path><path d="M252.41,131.88a3,3,0,0,1-.32-2.41c.21-.9.07-1.25.5-1.6s.86,1,1,1.83c.21,1.19.35,2.32-.27,2.79C253.05,132.7,252.77,132.34,252.41,131.88Z" style="fill:#263238"></path><path d="M253.3,139.87c-1.91,1.85-2.77,2.19-5,1.32a7.22,7.22,0,0,1-4.39-3.72c-1-2.12,0-2.65-2.2-4.24s-4.62-3-5.14-5.22c-.13,1.81.76,2.77,2.12,4.05s3.4,2.11,3.92,4.81,4.48,5.33,6.11,5.91,3,0,4.59-1.9Z" style="fill:#263238"></path></g><path d="M415,239.75a19.35,19.35,0,0,0,0-3.57c-.42-1.76-1.81-2.14-2.8-3.56-1.17-1.67-1.65-2.27-3.79-2.64-1.44-.25-2.11-.43-2.86-1.89-.83-1.62.23-4-.9-5.35-1.34-1.66-4.35-1-6.2-1.32-2.52-.39-4.14-2.07-6.46-3a43.92,43.92,0,0,0-8.18-2.42,20.57,20.57,0,0,0-16.1,3.5c-2.8,2.08-6.22,6.21-7.12,9.54-.51,1.84-.07,3-1.53,4.54s-2.39,1.07-3.23,3.17c-1.34,3.33-1.47,7.66-3.56,10.7-1.76,2.54-6,2.89-8.79,3.43-4.56.88-6.17,2.43-8.73,6.18a34.46,34.46,0,0,1-6,6.07c-4.08,3.6-11.21,6.58-16.75,5.36-2.52-.56-3-2-4.82-3.49-2.17-1.79-4.71-2.24-7.36-2.67a54.72,54.72,0,0,1-8.36-1.77c-1.61-.52-3.24-1.4-5-1.34-1,0-2.36,1-2.82,1-4.13.13-9-5.06-12.58-7a31,31,0,0,0-9.63-3.25c-2.82-.46-6.37-.93-9.12.06-1,.37-2,1.12-3.16,1.21-1.31.1-2.4-.6-3.76-.22-2.65.73-4.58,2.88-7.37,3.37-2.61.46-4.17-1.75-6.63-1.95-2.13-.17-4.52.15-6.53-.7a14.24,14.24,0,0,1-5.32-4.66c-.55-1-.2-2.08-.66-3.1-1.69-3.69-6.38-1.44-9.08-2.78-2.05-1-2.43-3.44-3.13-5.34s-1.7-2.63-3.68-3.43c-2.16-.87-5.25-3.19-6.24-5.55-.78-1.86.56-3.62.32-5.55a32.27,32.27,0,0,0-1.53-5.06c-2.6-.37-2.65-4.5-3.2-6.4-1.09-3.79-1.15-7.73-2.14-11.54C184.91,178,187.6,146,213.77,120c4.55-4.53,9.37-5.33,12-4.52a2.68,2.68,0,0,1,1.2.75c-2.15-4.76-8.66-4.8-13-2.53-1.85,1-3.07,2.54-4.74,3.8-2.47,1.86-4.91,2.56-7,5-1.65,1.9-2.13,3.83-3.39,6-1.68,2.9-4.43,3.47-6.57,5.8-1,1-1.44,2.52-2.55,3.56s-2.79,1.84-4,3c-2.61,2.68-3.23,6.58-4.55,9.94s-1.46,6-2.19,9.54c-.54,2.59-2.44,3.83-3.48,6-1.26,2.7.56,3.51,1.06,6,.66,3.22-.41,7.12-1.57,10a27.9,27.9,0,0,0-1.57,7.34,22.23,22.23,0,0,0-.4,6.07c.3,2.86-.51,5.8-.75,8.63-.35,4.06,1.41,7.56,1.24,11.65-.25,5.57-.61,10.82,2,15.89A70.81,70.81,0,0,0,184,244.69a74.59,74.59,0,0,0,20.86,17.07A144.32,144.32,0,0,0,223,270.13c17,6.7,23,11.28,42.27,20.16,13.36,6.17,40.7,11.65,66.06,3.2s30.78-17.41,41.27-31.27,20.56-20,21.74-20.16,17.45,5.06,17.1,22.66c-.19,9.51-5.76,16.85-16.74,23.2,2.33.59,6.26-.76,8.08-1.41a27.9,27.9,0,0,0,5.94-2.89c1.37-.9,2.29-2.24,3.6-3.29.88-.72,2.36-1.81,2.7-2.89.4-1.26,0-1.32.86-2.39,1.85-2.22,3.12-4.73,2.73-7.61a4,4,0,0,1,0-2.3c.36-.69,1.25-.78,1.68-1.39.83-1.22.27-3.26,0-4.63-.45-2.67-2.53-5.16-2-7.82.44-2.41,1.29-5.23-.2-7.44-.75-1.11-2.48-1.8-2.89-3.1A3.68,3.68,0,0,1,415,239.75Z" style="fill:#e0e0e0"></path><g style="opacity:0.15"><path d="M270.6,273.64A45.1,45.1,0,0,0,276,262.3c0-.11-.09-.3-.16-.13a53.49,53.49,0,0,1-5.11,9.74,33.9,33.9,0,0,1-7.05,7.87,29.36,29.36,0,0,1-9.79,5.06l1.26.62a29.86,29.86,0,0,0,8-4A31.7,31.7,0,0,0,270.6,273.64Z"></path><path d="M214.34,119.41a4.6,4.6,0,0,1-1.26-.44,12.33,12.33,0,0,1-1.35-1c-.12-.09-.22,0-.23.16,0,.6.72,1.16,1.16,1.43a5,5,0,0,0,1.06.47s0,0,.05,0Z"></path><path d="M383.54,248.28a22.32,22.32,0,0,0-6.14-11.88,32.8,32.8,0,0,0-7.09-5.3c-.18-.1-.18.25-.06.33,4,2.85,7.84,6,10.16,10.39a22.4,22.4,0,0,1,2.44,8.82c.31-.29.61-.58.91-.85C383.7,249.28,383.63,248.78,383.54,248.28Z"></path><path d="M417.92,264.63c.23.07.21-.32,0-.38a13.16,13.16,0,0,0-4.52-.92,12.72,12.72,0,0,0-2,.14c0,.27,0,.54,0,.82A14,14,0,0,1,417.92,264.63Z"></path><path d="M362.74,274.72c.51-.57,1-1.15,1.51-1.73l.09-.51a39.62,39.62,0,0,0-.07-10,49.16,49.16,0,0,0-1.78-9.07,36.83,36.83,0,0,0-4.61-9.71c-.08-.1-.15.07-.11.15,3.12,5.29,4.59,11.5,5.3,17.56a46.59,46.59,0,0,1,.35,9.66A21.69,21.69,0,0,1,362.74,274.72Z"></path><path d="M408.12,252.09c.07-.08.14-.17.22-.25,2-2,4.67-3.05,7.36-3.88.21-.07,0-.49-.18-.47a13.35,13.35,0,0,0-7.92,3.8C407.78,251.55,408,251.82,408.12,252.09Z"></path><path d="M402.31,245.86a18.85,18.85,0,0,1,.51-3.08,19.25,19.25,0,0,1,2.23-5.24,20.72,20.72,0,0,1,1.67-2.3c.56-.67,1.18-1.28,1.7-2,.08-.12,0-.42-.18-.32a11,11,0,0,0-3.41,3.42,19.45,19.45,0,0,0-2.23,4.17,18.43,18.43,0,0,0-1.14,4.74C401.75,245.45,402,245.65,402.31,245.86Z"></path><path d="M406.41,283.4c.19.11.18-.26.11-.35a7.92,7.92,0,0,0-2.7-1.85l-.56.55.15.05A23.34,23.34,0,0,1,406.41,283.4Z"></path><path d="M414.49,275.46a11.88,11.88,0,0,0-4.49-2l-.48-.11c-.11.24-.23.48-.34.71l1,.22a23,23,0,0,1,4.19,1.67C414.71,276.07,414.65,275.59,414.49,275.46Z"></path><path d="M251.87,263.82a38.16,38.16,0,0,0,2.72-4.39c.75-1.39,1.88-3,1.61-4.65,0-.15-.22-.21-.21,0a4.08,4.08,0,0,1-.76,2.2c-.4.69-.83,1.36-1.25,2-.78,1.26-1.54,2.52-2.4,3.72a25.34,25.34,0,0,1-5.36,5.58,27.83,27.83,0,0,1-14.57,5.46l1.64.75a30.09,30.09,0,0,0,5.46-1.26A26.73,26.73,0,0,0,251.87,263.82Z"></path><path d="M207.33,248.5a38.33,38.33,0,0,0,4.49-5c.05-.06,0-.24-.08-.14a32.47,32.47,0,0,1-8.78,7.38,27.43,27.43,0,0,1-9.38,3.41l.94.73c.77-.16,1.53-.33,2.27-.54A26.52,26.52,0,0,0,207.33,248.5Z"></path><path d="M224.05,260.23a16,16,0,0,0,3.91-5.94c0-.11-.09-.3-.15-.13a14.36,14.36,0,0,1-4,5.13,35.32,35.32,0,0,1-4.63,3.73,32.36,32.36,0,0,1-5.82,3.07l1.19.54A29.64,29.64,0,0,0,224.05,260.23Z"></path><path d="M340.86,288.59a19.14,19.14,0,0,0,4.2-8.58,42,42,0,0,0,.82-11,41,41,0,0,0-2.55-12.34c-.05-.1-.12,0-.11.1.41,1.87,1,3.69,1.22,5.6.23,1.73.45,3.48.54,5.23a46.53,46.53,0,0,1-.66,10.8,19.87,19.87,0,0,1-3.87,9,22.75,22.75,0,0,1-5.18,4.71c1.16-.42,2.28-.85,3.35-1.28A23.57,23.57,0,0,0,340.86,288.59Z"></path><path d="M326.8,280.12A32.25,32.25,0,0,0,328,269c0-.15-.17-.15-.17,0a34.17,34.17,0,0,1-5.38,18.23,33.1,33.1,0,0,1-10.35,10.22l2.16-.23c.71-.5,1.4-1,2.07-1.57A32.73,32.73,0,0,0,326.8,280.12Z"></path><path d="M288.44,289.82a31,31,0,0,0,6.94-7.11,46.35,46.35,0,0,0,5-9.87c.79-2,1.5-4.06,2.11-6.14a10.29,10.29,0,0,0,.61-3.65l-.44-.13a14.84,14.84,0,0,1-1.08,4.15q-.92,2.69-2,5.31a49.43,49.43,0,0,1-5,9.61,31.11,31.11,0,0,1-15.29,11.48,27.69,27.69,0,0,1-2.83.81c.64.18,1.3.35,2,.51A31.82,31.82,0,0,0,288.44,289.82Z"></path><path d="M198.69,132.12a7.29,7.29,0,0,0,2.46.34,8.38,8.38,0,0,0,2.23-.24l.47-.64c.09-.13.17-.25.27-.38a10.33,10.33,0,0,1-2.3.47,8.13,8.13,0,0,1-1.48,0,7.66,7.66,0,0,1-1.42-.24,6.09,6.09,0,0,1-.88-.31.16.16,0,0,0-.14,0l-.16,0c-.11,0-.32,0-.42.08C197.33,131.65,198.36,132,198.69,132.12Z"></path><path d="M182.84,150.84a5.2,5.2,0,0,0,.8.74c.23.4,1.22.74,1.7.92a10,10,0,0,0,2.87.53,16,16,0,0,0,4.52-.3c.11-.31.22-.62.34-.93l-.57.15a14.16,14.16,0,0,1-3.83.29,13.24,13.24,0,0,1-2.34-.36,13.86,13.86,0,0,1-2.19-.77,14.21,14.21,0,0,1-1.35-.68c-.11-.06-.18,0-.15.09A2.14,2.14,0,0,0,182.84,150.84Z"></path><path d="M207.12,123.69a3,3,0,0,0-1-.25c-.1.4.95.72,1.21.84a4.57,4.57,0,0,0,2.17.25l.68-.75a5.85,5.85,0,0,1-1.91.17A6.16,6.16,0,0,1,207.12,123.69Z"></path><path d="M180.53,164.67a12.05,12.05,0,0,0,3.08.63,17.86,17.86,0,0,0,5.79-.31c0-.22.09-.45.14-.67s0-.16,0-.24c-.34.08-.69.17-1,.23a16.39,16.39,0,0,1-4.58.2,15.44,15.44,0,0,1-2.77-.55,15.6,15.6,0,0,1-2.58-1c-.19-.09-.37-.2-.55-.3l-.31.47c.29.21.59.41.92.62A5.11,5.11,0,0,0,180.53,164.67Z"></path><path d="M200.16,234.64c.16-.12-.08-.55-.26-.43a29.46,29.46,0,0,1-12.9,4.94,26.77,26.77,0,0,1-7.21-.12c.19.29.4.58.6.86a27.75,27.75,0,0,0,12.49-1.27A25.3,25.3,0,0,0,200.16,234.64Z"></path><path d="M174.49,192.09a17.79,17.79,0,0,0,3.5.82,21.49,21.49,0,0,0,10.22-.95l.64-.26c0-.27-.09-.54-.13-.81a22.08,22.08,0,0,1-2.83.89c-.56.13-1.13.24-1.69.33a20.25,20.25,0,0,1-6.07,0,20,20,0,0,1-3.64-.91c-.4-.14-.78-.31-1.17-.48,0,.3-.08.59-.12.86C173.64,191.77,174.1,192,174.49,192.09Z"></path><path d="M177.31,223.67a25.52,25.52,0,0,0,12.74-1,24.51,24.51,0,0,0,3.27-1.43,22.45,22.45,0,0,0,2.24-1.38l-.12-.62a28,28,0,0,1-8.54,3.47c-.7.15-1.4.27-2.11.37a24.77,24.77,0,0,1-11.4-1.24c0,.28,0,.56,0,.85A25,25,0,0,0,177.31,223.67Z"></path><path d="M188.5,207a22.54,22.54,0,0,0,2.89-1.26l-.12-.8a24.7,24.7,0,0,1-5.51,2c-.63.14-1.26.26-1.9.35a22.47,22.47,0,0,1-6.8-.1,23,23,0,0,1-4.08-1.1l-.7-.28c0,.3,0,.6.07.91l1,.36A20.93,20.93,0,0,0,177,208,23.56,23.56,0,0,0,188.5,207Z"></path><path d="M176.91,177.93a14.77,14.77,0,0,0,3.29.73,19.67,19.67,0,0,0,7.79-.55c0-.29,0-.58,0-.87-.26.07-.52.15-.79.21a15,15,0,0,1-1.48.31,18.25,18.25,0,0,1-5.32.09,17.92,17.92,0,0,1-3.21-.72c-.21-.07-.42-.17-.63-.25,0,.3-.1.59-.16.88Z"></path><path d="M190.82,140.54a11.06,11.06,0,0,1-1.11-.5.1.1,0,0,0-.15.05c0,.06,0,.12,0,.17a1.29,1.29,0,0,0,.2.41c.11.4,1.12.74,1.53.9A10,10,0,0,0,194,142a10.42,10.42,0,0,0,3.6-.32l.21-.38.33-.63-.49.15a12.38,12.38,0,0,1-3.08.39,11.13,11.13,0,0,1-1.91-.18A11.28,11.28,0,0,1,190.82,140.54Z"></path></g><path d="M402.05,282.8c-.95.81-2,1.6-3.08,2.37-.35.25-.71.5-1.09.75l-.77.51-1.59,1-.46.27c-.63.37-1.28.74-1.94,1.1l-.6.32c-.74.4-1.5.79-2.29,1.18l-.05-.3,1.59-.58s-4.25-1,0-3.36A30.94,30.94,0,0,1,402,282.67a67.51,67.51,0,0,0-3.28-9.61,13.25,13.25,0,0,1-1.46-5.71,66.28,66.28,0,0,0-10.68,2.6l0-.19h-.14l-.16,0-.14,0-.24,0-.19,0-.46.1h-.08l-.65.15-.18.05-.61.16-.2.05-.28.09a25.16,25.16,0,0,0-11.07,6.58c2,3.43,5.66,10.06,7,14.32,1.26,4.09-1.53,9.65-3.41,12.75a32.32,32.32,0,0,0,18,4.36,56.45,56.45,0,0,0,7.26-.91l.63-.12.72-.17c.32-.07.63-.13.94-.21,1.68-.41,2.64-2.71,3-4.25.6-2.8-.17-5.61-.89-8.29q-1.14-4.28-2.34-8.52A20.13,20.13,0,0,1,402.05,282.8Z" style="opacity:0.15"></path><path d="M413.39,242.06c-1.7-11.54-4.78-17.56-12.16-28.18s-30.87-22.11-35.12-10.61.5,27,1.49,33.88,1.48,13.49-3,22c-5.34,10.21-16.86,20.91-28.15,23.4s-14.48-3.78-16.1-11.34-3.06-16.34-3.06-16.34-11.86,27.54-25.62,18.93-6.73-32.87-4.4-35.31c-13.06,6.65-12.87,26.92-30.45,34.24-9.88,4.12-26.37.28-36.76-3.73,1,.39,1.92.78,2.88,1.15,17,6.7,23,11.28,42.27,20.16,13.36,6.17,40.7,11.65,66.06,3.2s30.78-17.41,41.27-31.27,20.56-20,21.74-20.16,17.45,5.06,17.1,22.66a21.68,21.68,0,0,1-2.81,10.4v0C415.07,267.44,414.81,251.67,413.39,242.06Z" style="opacity:0.15"></path><path d="M213.77,120c4.55-4.53,9.37-5.33,12-4.52a2.88,2.88,0,0,1,1.87,1.87c-1.11-3-3.58-9.67-9.69-7.17,3,1.35,4.42,1.72-.54,5.11-4.25,2.9-9.87,10-10.91,12.77h0A94,94,0,0,1,213.77,120Z" style="opacity:0.15"></path><polygon points="227.81 117.67 227.81 117.67 227.81 117.66 227.81 117.67"></polygon><path d="M324,358.73c0-4.2-1.43-6.9-1.81-9.28-.53-3.42-1.13-18.36-1-21.25.38-6.29,3.73-9.84,2.26-14.26-2.11-6.38-6.75-35.09-6.93-39.71s2.91-29.11-2.05-33.59-23.38-8.84-29.52.27-8.14,20.33-6.67,33,21,35.51,23.47,40a24.34,24.34,0,0,1,3.4,15.13c-.52,6.41-1.7,15.21-2.25,18.32s-6.12,6.74-5.64,11.12c.19,1.73,2.43,1.1,2.43,1.1a6.13,6.13,0,0,0-.87,3.33c.06.95,1.36,1.74,2.23,1.7a22.89,22.89,0,0,0,2.44-.35,2.3,2.3,0,0,0,.18,2.19c.75.85,2.48,1.13,4.55.61a13.27,13.27,0,0,0,3.34-1.28,1.3,1.3,0,0,0,.29,1.41c.65.58,2.65,1.36,6-.47S323.74,362.37,324,358.73Z" style="fill:#455a64"></path><path d="M308.24,367.09a13.27,13.27,0,0,0,3.34-1.28c.44-1.38,1.52-3.46,2.41-5.92a45.13,45.13,0,0,1-3.67,4.91,8.6,8.6,0,0,1-4.05,2.55A8,8,0,0,0,308.24,367.09Z" style="fill:#37474f"></path><path d="M299.87,364.29a2.26,2.26,0,0,0,1.2.35,22.89,22.89,0,0,0,2.44-.35c.63-1.22,1.79-2.55,2.53-3.78a11,11,0,0,0,1.26-3,31.65,31.65,0,0,1-1.8,2.84C304.27,362,303.14,364.29,299.87,364.29Z" style="fill:#37474f"></path><path d="M299.1,359.05a.8.8,0,0,1-1.11-.28c.24,1.72,1.72.84,1.72.84a24,24,0,0,0,2.72-5.05A19.92,19.92,0,0,1,299.1,359.05Z" style="fill:#37474f"></path><path d="M322.58,318.05a2.94,2.94,0,0,1-.48,1,2.24,2.24,0,0,1-.34.42c-.08.08-.15.15-.23.1s-.06-.16-.07-.21a8.8,8.8,0,0,1-.21-2.35c0-.73.07-1.46.13-2.19a7.7,7.7,0,0,1,.14-1.06c.08-.37.23-.73.33-1.11,0-.16-.2-.44-.35-.28a4.09,4.09,0,0,0-.73,2.61,18.89,18.89,0,0,0,0,3.19c0,.55.11,1.94.91,2,.38,0,.61-.43.75-.71a3.89,3.89,0,0,0,.34-1.38C322.74,318,322.61,317.92,322.58,318.05Z" style="fill:#37474f"></path><path d="M306.92,317a27.84,27.84,0,0,1-3.94-.72h0c.13.3.27.59.4.89a24.92,24.92,0,0,0,3.74.61,23.4,23.4,0,0,0,8.92-1c.09,0,.08-.23,0-.21A30.14,30.14,0,0,1,306.92,317Z" style="fill:#37474f"></path><path d="M302.83,347.73a10.81,10.81,0,0,0,.89.9,14.55,14.55,0,0,0,3.49,2.14c2.79,1.28,6,2.38,9,1.08.11-.05.06-.32-.07-.27-2.79,1.13-6.15-.23-8.7-1.42a13.4,13.4,0,0,1-3.11-1.91,8.61,8.61,0,0,1-1.22-1.27l-.09-.14c0,.19-.07.38-.1.55S302.86,347.62,302.83,347.73Z" style="fill:#37474f"></path><path d="M314.25,354.93c.05,0,.06-.14,0-.14a15.19,15.19,0,0,1-12-5.71q-.15.26-.33.51A15,15,0,0,0,314.25,354.93Z" style="fill:#37474f"></path><path d="M281.92,277.34a25.34,25.34,0,0,1,19.94.45,30.4,30.4,0,0,1,4.92,2.9c.11.07.15-.15.08-.21-5-4.79-12.83-6.46-19.51-5.24a20.25,20.25,0,0,0-4.63,1.45c-.29.12-.58.25-.86.4C281.76,277.14,281.8,277.4,281.92,277.34Z" style="fill:#37474f"></path><path d="M319.22,318.64c0-.15-.15-.24-.18-.06-.16.85-1.1,1.1-1.8,1.34a20.86,20.86,0,0,1-2.19.6,19.31,19.31,0,0,1-4.48.4,28.65,28.65,0,0,1-4.62-.51c-.52-.09-1-.2-1.53-.31.09.31.17.63.24.95l1.28.23a27.89,27.89,0,0,0,5.31.47,17.3,17.3,0,0,0,5-.79C317.35,320.6,319,320,319.22,318.64Z" style="fill:#37474f"></path><path d="M317.06,348.1c-.73.06-1.44.23-2.17.27a17.3,17.3,0,0,1-2.16,0,15.2,15.2,0,0,1-4.05-.83,15,15,0,0,1-3.56-1.82,14.2,14.2,0,0,1-1.7-1.48c0,.29-.09.58-.13.85.46.39.95.75,1.38,1.05a14.46,14.46,0,0,0,3.93,2,14.72,14.72,0,0,0,4.27.79,10.63,10.63,0,0,0,1.95-.1,8.51,8.51,0,0,0,2.24-.53C317.11,348.25,317.14,348.09,317.06,348.1Z" style="fill:#37474f"></path><path d="M286.35,279.54c.67-.09,1.35-.11,2-.14,1.47-.07,2.94,0,4.41-.07.35,0,.12-.51-.13-.54a31.46,31.46,0,0,0-4.45-.07c-.71,0-1.44,0-2.14.14a2.55,2.55,0,0,0-1.38.55c-.89.89.49,1.51,1.25,1.64a35,35,0,0,0,4.09.33,17.85,17.85,0,0,0,8-1.11c.37-.17,1-.36,1-.87s-.51-.73-.88-.9a18.55,18.55,0,0,0-4.13-1.24,18.14,18.14,0,0,0-9.35.8s0,0,0,0a21.23,21.23,0,0,1,10.85,0,15,15,0,0,1,2.59.9c.27.13.63.28.28.51a4,4,0,0,1-.68.26c-.46.16-.92.31-1.38.43a20,20,0,0,1-5.51.56c-1,0-2-.09-3-.17l-1.47-.14a2.19,2.19,0,0,1-1.06-.32A1.51,1.51,0,0,1,286.35,279.54Z" style="fill:#37474f"></path><path d="M295.16,285.51a32.39,32.39,0,0,0,5.21-.3c.87-.13,1.74-.29,2.61-.49a9.6,9.6,0,0,0,2.52-.79c.17-.1,0-.47-.16-.44-.89.12-1.78.43-2.65.63s-1.74.36-2.62.48a31.6,31.6,0,0,1-5.5.3,40.37,40.37,0,0,1-10-1.88c-.14,0-.14.24,0,.29A27,27,0,0,0,295.16,285.51Z" style="fill:#37474f"></path><path d="M308.7,319.4c1.12.05,2.23,0,3.34,0a26,26,0,0,0,3.53-.24c.17,0,.08-.37-.07-.38-1.07-.06-2.15,0-3.21.06s-2.26,0-3.38,0-2.24-.14-3.35-.29c-.55-.07-1.14-.13-1.71-.22,0,.13.09.27.14.4a10.89,10.89,0,0,0,1.42.34A25.81,25.81,0,0,0,308.7,319.4Z" style="fill:#37474f"></path><path d="M312.62,364.3a6.2,6.2,0,0,0-3.06,4.46c-.1,1.81,1,.7,3.06-.41.29-.15.55-.27.83-.4a2,2,0,0,0,.37-3.36A1.8,1.8,0,0,0,312.62,364.3Z" style="fill:#f0f0f0"></path><path d="M313.82,364.59a1.17,1.17,0,0,0-.27-.15c.74.61.93,1.71-.52,2.56s-2.38,2.19-2.9,2.31c-.36.08-.49-.41-.55-.73,0,.06,0,.12,0,.18-.1,1.81,1,.7,3.06-.41.29-.15.55-.27.83-.4A2,2,0,0,0,313.82,364.59Z" style="fill:#e0e0e0"></path><path d="M305.29,363.5a1.23,1.23,0,0,0-.71.28,7,7,0,0,0-2.47,5.22c.17,2,1.19.64,3.37-.91.46-.33.88-.57,1.38-.89a1.73,1.73,0,0,0,.64-2.2A2.41,2.41,0,0,0,305.29,363.5Z" style="fill:#f0f0f0"></path><path d="M305.48,368.09c.46-.33.88-.57,1.38-.89a1.73,1.73,0,0,0,.64-2.2,2.73,2.73,0,0,0-1.43-1.37c.92.64,1.21,1.7,0,2.75a15.12,15.12,0,0,0-2.58,2.33c-.67.9-1.36.73-1.37.29C302.28,371,303.3,369.64,305.48,368.09Z" style="fill:#e0e0e0"></path><path d="M300.75,360.66a1.82,1.82,0,0,0-1.77.61,7.4,7.4,0,0,0-1.9,5.42c.34,2.14,1.3.58,3.49-1.23.42-.36.81-.63,1.25-.95a2,2,0,0,0,.43-2.79A2.65,2.65,0,0,0,300.75,360.66Z" style="fill:#f0f0f0"></path><path d="M301.11,360.79a1.93,1.93,0,0,1,0,2.83c-.94,1.13-2,1.44-2.42,2.43s-1.2,1.7-1.59.64c.34,2.14,1.3.58,3.49-1.23.42-.36.81-.63,1.25-.95a2,2,0,0,0,.43-2.79A2.77,2.77,0,0,0,301.11,360.79Z" style="fill:#e0e0e0"></path><path d="M297.58,356.68c-1,.76-2.46,2.78-2.24,4.32s.93.43,2.51-.84c.33-.26.62-.46,1-.7a1.51,1.51,0,0,0,.51-1.82A1.38,1.38,0,0,0,297.58,356.68Z" style="fill:#f0f0f0"></path><path d="M299.32,357.64a1.92,1.92,0,0,0-.37-.58c.37.58,0,1.37-1,2.12s-1.73,2-2.19,1.9-.38-.94-.37-1.15a2.83,2.83,0,0,0-.09,1.07c.22,1.54.93.43,2.51-.84.33-.26.62-.46,1-.7A1.51,1.51,0,0,0,299.32,357.64Z" style="fill:#e0e0e0"></path><path d="M401.86,303.4c.92,3.51,1.81,5.08,1.81,9.28-.24,3.64-2.76,6.19-6.11,8s-5.35,1.05-6,.47a1.28,1.28,0,0,1-.29-1.41,13.48,13.48,0,0,1-3.34,1.28c-2.08.53-3.81.24-4.55-.61a2.3,2.3,0,0,1-.18-2.19,22.8,22.8,0,0,1-2.45.35c-.86,0-2.16-.75-2.22-1.7a6.18,6.18,0,0,1,.86-3.33s-2.24.63-2.43-1.1c-.47-4.38,4.75-8.09,5.65-11.12,1.38-4.64-4.36-18.82-6.73-24.36-3.45-8.07-3.93-9.42-3.14-16.33s.11-11.2-.89-17.35c-2.17-13.31-5-17.47-6.32-33-.58-6.91,2-19.68,17.74-15.94s18.93,17.93,19,29.88c.07,19.95-8,41.18-7.82,43s.9,2.57,2.16,6.55C399.46,282.92,400.94,299.9,401.86,303.4Z" style="fill:#455a64"></path><path d="M387.93,321a13.48,13.48,0,0,0,3.34-1.28c.43-1.38,1.52-3.46,2.41-5.92a46.53,46.53,0,0,1-3.68,4.91A8.55,8.55,0,0,1,386,321.3,8.11,8.11,0,0,0,387.93,321Z" style="fill:#37474f"></path><path d="M379.55,318.24a2.31,2.31,0,0,0,1.2.35,22.8,22.8,0,0,0,2.45-.35c.62-1.22,1.79-2.55,2.52-3.78a11.22,11.22,0,0,0,1.27-3s-1,1.83-1.8,2.84C384,315.94,382.82,318.24,379.55,318.24Z" style="fill:#37474f"></path><path d="M378.78,313a.79.79,0,0,1-1.1-.28c.24,1.72,1.71.84,1.71.84a24.5,24.5,0,0,0,2.73-5.05A20,20,0,0,1,378.78,313Z" style="fill:#37474f"></path><path d="M392.3,318.26a6.18,6.18,0,0,0-3.06,4.45c-.09,1.81,1,.7,3.06-.4.29-.16.56-.28.83-.4a2,2,0,0,0,.38-3.37A1.77,1.77,0,0,0,392.3,318.26Z" style="fill:#f0f0f0"></path><path d="M393.51,318.54l-.28-.15c.74.61.93,1.71-.51,2.57s-2.38,2.19-2.91,2.3c-.35.08-.49-.4-.54-.73a1.13,1.13,0,0,0,0,.18c-.09,1.81,1,.7,3.06-.4.29-.16.56-.28.83-.4A2,2,0,0,0,393.51,318.54Z" style="fill:#e0e0e0"></path><path d="M385,317.45a1.26,1.26,0,0,0-.71.28,7.05,7.05,0,0,0-2.47,5.22c.17,2,1.19.64,3.37-.91.47-.33.89-.57,1.38-.89a1.73,1.73,0,0,0,.64-2.2A2.41,2.41,0,0,0,385,317.45Z" style="fill:#f0f0f0"></path><path d="M385.16,322c.47-.33.89-.57,1.38-.89a1.73,1.73,0,0,0,.64-2.2,2.67,2.67,0,0,0-1.42-1.37c.92.64,1.21,1.7,0,2.76a14.83,14.83,0,0,0-2.59,2.32c-.66.9-1.36.74-1.37.29C382,325,383,323.59,385.16,322Z" style="fill:#e0e0e0"></path><path d="M380.43,314.61a1.83,1.83,0,0,0-1.77.62,7.42,7.42,0,0,0-1.9,5.41c.34,2.15,1.31.58,3.49-1.23.42-.35.81-.63,1.25-1a2,2,0,0,0,.44-2.79A2.77,2.77,0,0,0,380.43,314.61Z" style="fill:#f0f0f0"></path><path d="M380.79,314.74a1.93,1.93,0,0,1,0,2.83c-.95,1.14-2,1.44-2.43,2.44s-1.2,1.69-1.59.63c.34,2.15,1.31.58,3.49-1.23.42-.35.81-.63,1.25-1a2,2,0,0,0,.44-2.79A2.8,2.8,0,0,0,380.79,314.74Z" style="fill:#e0e0e0"></path><path d="M377.26,310.63c-1,.76-2.45,2.78-2.24,4.32s.93.44,2.52-.84c.32-.26.62-.45.95-.7a1.5,1.5,0,0,0,.51-1.82A1.38,1.38,0,0,0,377.26,310.63Z" style="fill:#f0f0f0"></path><path d="M379,311.59a2.11,2.11,0,0,0-.36-.58c.36.58,0,1.38-1,2.12s-1.74,2-2.2,1.9-.38-.94-.37-1.14A3,3,0,0,0,375,315c.22,1.54.93.44,2.52-.84.32-.26.62-.45.95-.7A1.5,1.5,0,0,0,379,311.59Z" style="fill:#e0e0e0"></path><path d="M385.82,265.79a23.14,23.14,0,0,0-5.61-.9,10,10,0,0,0-5.41.71c-.5.27-1.45.78-1.47,1.45s.6,1,1.09,1.19a16,16,0,0,0,2.8.81,9.53,9.53,0,0,0,3,.32c.19,0,0-.36-.08-.39-.74-.16-1.52-.2-2.28-.34a18.58,18.58,0,0,1-2.2-.54,10.36,10.36,0,0,1-1.11-.38c-.14-.06-.47-.19-.54-.34s.16-.52.32-.65a5.54,5.54,0,0,1,2.17-1.08,13.22,13.22,0,0,1,4.21-.22,25.43,25.43,0,0,1,5.07.59C385.89,266.05,385.91,265.82,385.82,265.79Z" style="fill:#37474f"></path><path d="M374.93,264.07c0,.18.18.52.39.37a11.92,11.92,0,0,1,1.35-1,5.13,5.13,0,0,1,1.54-.49,15.83,15.83,0,0,1,3.64-.09,17.06,17.06,0,0,1,7.64,2c.16.09.18-.21.07-.29a16.66,16.66,0,0,0-8.23-2.43,13.73,13.73,0,0,0-3.73.17C376.71,262.54,375.15,263,374.93,264.07Z" style="fill:#37474f"></path><path d="M392.33,301.15a20.09,20.09,0,0,0-5-.87,24.12,24.12,0,0,0-4.57.18,4.63,4.63,0,0,1-.14.79l.15,0a26,26,0,0,1,4.75-.25,19.71,19.71,0,0,1,9.35,2.69c.07,0,.1-.13,0-.17A17.45,17.45,0,0,0,392.33,301.15Z" style="fill:#37474f"></path><path d="M396.86,306.48c.09,0,.11-.15.06-.2a13.65,13.65,0,0,0-6.14-3.14,15,15,0,0,0-7.23-.18c-.09,0-.07.27,0,.26a26.5,26.5,0,0,1,3.34-.13,17.93,17.93,0,0,1,3.5.52,18.87,18.87,0,0,1,3.22,1.12C394.76,305.24,395.79,305.9,396.86,306.48Z" style="fill:#37474f"></path><path d="M389.42,298.42a20.31,20.31,0,0,1,3,.75c1.16.38,2.26.95,3.42,1.32.24.08.16-.3.05-.39a12,12,0,0,0-2.93-1.36,21.58,21.58,0,0,0-3.45-.89,12.74,12.74,0,0,0-6.73.58.37.37,0,0,1,0,.11A18.14,18.14,0,0,1,389.42,298.42Z" style="fill:#37474f"></path><path d="M386.22,270.85a21.42,21.42,0,0,0,3.72-2c.09-.07.06-.36-.09-.32-2.46.7-4.46,2.52-7.08,2.64a16.19,16.19,0,0,1-7.69-1.36c-.12-.05-.13.21,0,.26a16.54,16.54,0,0,0,7.58,1.65A7.91,7.91,0,0,0,386.22,270.85Z" style="fill:#37474f"></path><path d="M382.72,267.32a12,12,0,0,1-2.61.11,20.91,20.91,0,0,1-4.8-.55c-.06,0-.09.11,0,.13a14.55,14.55,0,0,0,5.4.92,10.86,10.86,0,0,0,2.28-.09,3.07,3.07,0,0,0,2-.94c.07-.11,0-.4-.2-.34A12,12,0,0,1,382.72,267.32Z" style="fill:#37474f"></path></g></g></svg>