<svg xmlns="http://www.w3.org/2000/svg" xmlns:xlink="http://www.w3.org/1999/xlink" viewBox="0 0 500 500"><defs><clipPath id="freepik--clip-path--inject-7"><path d="M402,358.85s-.35,5.94,2.45,7,6.64,1.05,6.64,5.59-5.25,21.32-7,26.56,1.05,13.29-5.25,17.83-15.72,5.24-18.87,2.1,4.2-7.34,4.89-11.89,6.3-23.76,6.3-26.21-6.3-3.49-14-11.53-8-12.59-8-12.59Z" style="fill:#8758FF;stroke:#263238;stroke-linecap:round;stroke-linejoin:round"></path></clipPath><clipPath id="freepik--clip-path-2--inject-7"><path d="M446.46,298.93c3.15,9.46,2.8,31.51,2.8,31.51s.7,7-2.1,18.91-2.1,8.4-1.05,12.6,1.05,30.81,1.05,39.56-1.75,18.91-7,20.31-14,2.8-17.51,1.4-3.5-4.55-2.1-7.35,3.85-2.8,6.65-10.15S429,383.31,429,383.31a13.85,13.85,0,0,1-9.8-5.95C415.3,371.75,416,356,416,356l-10.5,4.2c-21,7.7-41.32,3.5-41.32,3.5a58,58,0,0,1-26.25-8.4C325,347.25,319.37,328,319.37,328l-5.6-9.8s-8.75-20.31-8-38.51,3.15-53.22,0-75.63-22.06-48.66-22.06-48.66-1.4,2.1-6.3,3.85-14.71.35-20-2.1A38,38,0,0,0,243.05,154a1.65,1.65,0,0,1-1.75-2.45s-5.61-.7-5.26-4.56,4.21-11.9,11.56-13.3a43.34,43.34,0,0,0,12.25-4.2s11.2-5.6,21.36-3.5,27.31,16.1,38.16,38.86,18.21,43.06,21.36,61.62,7.7,41.31,7.7,41.31l4.9-7a1.3,1.3,0,0,1,1.75-.37l3.5,2.16,2.39-8a2.7,2.7,0,0,1,3.32-1.83l3.75,1,5.27-9.44a2.61,2.61,0,0,1,3.72-.9l4,2.64,5.52-7.27a1.64,1.64,0,0,1,2.46-.16l4.62,4.62,7.42-5.83a2.39,2.39,0,0,1,3.65.89l2.59,5.65,7.06-2.72a2.18,2.18,0,0,1,2.82,1.26l2,5.31,3.82-.51a1.86,1.86,0,0,1,2,1.14l1.9,4.62,3.09.44a2.3,2.3,0,0,1,2,2.08l.55,6.58h1.59a1.88,1.88,0,0,1,1.84,1.53l.77,4.07,2.42.22a2.05,2.05,0,0,1,1.8,1.51l.68,2.47.43.08a2.33,2.33,0,0,1,1.93,1.95l.79,5s2.1,9.8,1.75,14" style="fill:#8758FF;stroke:#263238;stroke-linecap:round;stroke-linejoin:round"></path></clipPath><clipPath id="freepik--clip-path-3--inject-7"><path d="M258.1,151.19a97,97,0,0,1,0,11.37c-.35,7,3,.88,3,.88s.87,8.4,2.45,6.13.17-11.73.17-11.73,2.1,5.43,2.28,1.75a9.41,9.41,0,0,0-2.28-6.3Z" style="fill:#8758FF;stroke:#263238;stroke-linecap:round;stroke-linejoin:round"></path></clipPath><clipPath id="freepik--clip-path-4--inject-7"><path d="M292.46,379.81a169.29,169.29,0,0,1-17.5-2.1c-7-1.4-21.36-2.1-27,2.45s-12.61,14.35-24.16,17.51-38.86,0-49.71-2.81-35.37-21.7-42-27.65-16.1-11.56-22.4-9.11S82.4,366.16,64.54,363s-41-14-52.51-30.46,0-2.8,9.45,2.46,28.36,15.05,45.86,10.85,44.82-28.71,64.42-36.41,29.06-9.11,42-5.95,16.1,4.55,16.1,4.55,26.61,1.75,35,7.7,18.91,14.7,18.91,14.7,2.1,9.46,16.45,21,14.36,12.6,21,16.11S292.09,374.77,292.46,379.81Z" style="fill:#8c8c8c;stroke:#263238;stroke-linecap:round;stroke-linejoin:round"></path></clipPath><clipPath id="freepik--clip-path-5--inject-7"><path d="M167.56,341s16.28,26.79,13.39,41.49a32.84,32.84,0,0,1-14.7,21.27s2.17,17,3.41,18.38c4.87,5.44,10.12,5.05,10.9,7.41a14.41,14.41,0,0,0,1.36,3.2s-6.48-.37-11.21-.37-7.09-.78-7.61-2.62-2.63-4.47-4.73-4.73-3.68,3.68-3.94,1.31,1-9.71,1-9.71-2.1-3.94-3.67-7.88-.27-6.83,1.05-12.08-.53-11.81-6.31-16.54-14.7-15.23-16.54-25.73" style="fill:#8c8c8c;stroke:#263238;stroke-linecap:round;stroke-linejoin:round"></path></clipPath></defs><g id="freepik--Dinosaur-2--inject-7"><ellipse cx="385.33" cy="424" rx="89" ry="9" style="fill:#263238"></ellipse><path d="M443.88,330.19s10.14,3.15,11.54,19.57S441.79,373.88,425,376.33s-50.33-9.09-72-14-53.47-6.64-72-2.8-35.3,15.38-35.3,18.17,10.49-7,30.41-10.48,66.76,1.05,82.83,3.49S410,391,427.11,391s27.61-2.1,40.89-14.33,16.43-25.87,16.08-34.95c-.23-6-.47-9.41-.6-11a3.18,3.18,0,0,0-.94-2l-2.31-2.31-.28-6.19a2.75,2.75,0,0,0-1.37-2.26l-2.89-1.69-.91-3.16a3.3,3.3,0,0,0-2.21-2.26l-2.82-.87-1.45-6.34a2.52,2.52,0,0,0-1.6-1.82l-2.55-.93-1.82-4.16a2.64,2.64,0,0,0-2.17-1.57l-2.3-.21-.76-2.1a3.13,3.13,0,0,0-2.47-2l-2.71-.42s-1.4-3.85-2.44-6.64-3.85-.7-3.85-.7-8.39,0-14,2.1" style="fill:#8758FF;stroke:#263238;stroke-linecap:round;stroke-linejoin:round"></path><path d="M402,358.85s-.35,5.94,2.45,7,6.64,1.05,6.64,5.59-5.25,21.32-7,26.56,1.05,13.29-5.25,17.83-15.72,5.24-18.87,2.1,4.2-7.34,4.89-11.89,6.3-23.76,6.3-26.21-6.3-3.49-14-11.53-8-12.59-8-12.59Z" style="fill:#8758FF"></path><g style="clip-path:url(#freepik--clip-path--inject-7)"><path d="M402,358.85s-.35,5.94,2.45,7,6.64,1.05,6.64,5.59-5.25,21.32-7,26.56,1.05,13.29-5.25,17.83-15.72,5.24-18.87,2.1,4.2-7.34,4.89-11.89,6.3-23.76,6.3-26.21-6.3-3.49-14-11.53-8-12.59-8-12.59Z" style="opacity:0.5"></path></g><path d="M402,358.85s-.35,5.94,2.45,7,6.64,1.05,6.64,5.59-5.25,21.32-7,26.56,1.05,13.29-5.25,17.83-15.72,5.24-18.87,2.1,4.2-7.34,4.89-11.89,6.3-23.76,6.3-26.21-6.3-3.49-14-11.53-8-12.59-8-12.59Z" style="fill:none;stroke:#263238;stroke-linecap:round;stroke-linejoin:round"></path><path d="M314.41,316.18s-1.87,18,3.41,28.24,15.21,21.42,15.83,31.66-2.8,28.56-4.35,33.21-7.14,9-6.2,11.79,12.41,3.11,18.31,2.8,10.24-2.8,10.86-9.31,2.17-32.9,3.1-39.42,2.18-15.83-1.55-19.86-23-19.56-25.14-24.21-1.24-2.17-3.41-6.52S318.13,314,316.89,314,314.41,316.18,314.41,316.18Z" style="fill:#8758FF;stroke:#263238;stroke-linecap:round;stroke-linejoin:round"></path><path d="M446.46,298.93c3.15,9.46,2.8,31.51,2.8,31.51s.7,7-2.1,18.91-2.1,8.4-1.05,12.6,1.05,30.81,1.05,39.56-1.75,18.91-7,20.31-14,2.8-17.51,1.4-3.5-4.55-2.1-7.35,3.85-2.8,6.65-10.15S429,383.31,429,383.31a13.85,13.85,0,0,1-9.8-5.95C415.3,371.75,416,356,416,356l-10.5,4.2c-21,7.7-41.32,3.5-41.32,3.5a58,58,0,0,1-26.25-8.4C325,347.25,319.37,328,319.37,328l-5.6-9.8s-8.75-20.31-8-38.51,3.15-53.22,0-75.63-22.06-48.66-22.06-48.66-1.4,2.1-6.3,3.85-14.71.35-20-2.1A38,38,0,0,0,243.05,154a1.65,1.65,0,0,1-1.75-2.45s-5.61-.7-5.26-4.56,4.21-11.9,11.56-13.3a43.34,43.34,0,0,0,12.25-4.2s11.2-5.6,21.36-3.5,27.31,16.1,38.16,38.86,18.21,43.06,21.36,61.62,7.7,41.31,7.7,41.31l4.9-7a1.3,1.3,0,0,1,1.75-.37l3.5,2.16,2.39-8a2.7,2.7,0,0,1,3.32-1.83l3.75,1,5.27-9.44a2.61,2.61,0,0,1,3.72-.9l4,2.64,5.52-7.27a1.64,1.64,0,0,1,2.46-.16l4.62,4.62,7.42-5.83a2.39,2.39,0,0,1,3.65.89l2.59,5.65,7.06-2.72a2.18,2.18,0,0,1,2.82,1.26l2,5.31,3.82-.51a1.86,1.86,0,0,1,2,1.14l1.9,4.62,3.09.44a2.3,2.3,0,0,1,2,2.08l.55,6.58h1.59a1.88,1.88,0,0,1,1.84,1.53l.77,4.07,2.42.22a2.05,2.05,0,0,1,1.8,1.51l.68,2.47.43.08a2.33,2.33,0,0,1,1.93,1.95l.79,5s2.1,9.8,1.75,14" style="fill:#8758FF"></path><g style="clip-path:url(#freepik--clip-path-2--inject-7)"><path d="M418.44,344.92c-17.51,6.94-74.34.33-82.6-22.14s-6.28-54.51-6.28-54.51,3.31-2-5.94-50.55S287,152,287,152l-4.63,4.63v.08a6.61,6.61,0,0,0,1.34-1.29s18.9,26.26,22.06,48.66.7,57.42,0,75.63,8,38.51,8,38.51l5.6,9.8s5.6,19.26,18.56,27.31a58,58,0,0,0,26.25,8.4s20.31,4.2,41.32-3.5L416,356c25.64-20.3,23.91-38.5,23.91-38.5S436,338,418.44,344.92Z" style="fill:#fff"></path></g><path d="M446.46,298.93c3.15,9.46,2.8,31.51,2.8,31.51s.7,7-2.1,18.91-2.1,8.4-1.05,12.6,1.05,30.81,1.05,39.56-1.75,18.91-7,20.31-14,2.8-17.51,1.4-3.5-4.55-2.1-7.35,3.85-2.8,6.65-10.15S429,383.31,429,383.31a13.85,13.85,0,0,1-9.8-5.95C415.3,371.75,416,356,416,356l-10.5,4.2c-21,7.7-41.32,3.5-41.32,3.5a58,58,0,0,1-26.25-8.4C325,347.25,319.37,328,319.37,328l-5.6-9.8s-8.75-20.31-8-38.51,3.15-53.22,0-75.63-22.06-48.66-22.06-48.66-1.4,2.1-6.3,3.85-14.71.35-20-2.1A38,38,0,0,0,243.05,154a1.65,1.65,0,0,1-1.75-2.45s-5.61-.7-5.26-4.56,4.21-11.9,11.56-13.3a43.34,43.34,0,0,0,12.25-4.2s11.2-5.6,21.36-3.5,27.31,16.1,38.16,38.86,18.21,43.06,21.36,61.62,7.7,41.31,7.7,41.31l4.9-7a1.3,1.3,0,0,1,1.75-.37l3.5,2.16,2.39-8a2.7,2.7,0,0,1,3.32-1.83l3.75,1,5.27-9.44a2.61,2.61,0,0,1,3.72-.9l4,2.64,5.52-7.27a1.64,1.64,0,0,1,2.46-.16l4.62,4.62,7.42-5.83a2.39,2.39,0,0,1,3.65.89l2.59,5.65,7.06-2.72a2.18,2.18,0,0,1,2.82,1.26l2,5.31,3.82-.51a1.86,1.86,0,0,1,2,1.14l1.9,4.62,3.09.44a2.3,2.3,0,0,1,2,2.08l.55,6.58h1.59a1.88,1.88,0,0,1,1.84,1.53l.77,4.07,2.42.22a2.05,2.05,0,0,1,1.8,1.51l.68,2.47.43.08a2.33,2.33,0,0,1,1.93,1.95l.79,5s2.1,9.8,1.75,14" style="fill:none;stroke:#263238;stroke-linecap:round;stroke-linejoin:round"></path><path d="M422.58,418.07a3,3,0,0,0-3.09,1.62c-1.07,2.45.22,4,2,3.93s3.24-3.5,2.14-4.89A1.8,1.8,0,0,0,422.58,418.07Z" style="fill:#8c8c8c;stroke:#263238;stroke-linecap:round;stroke-linejoin:round"></path><path d="M427.24,418.9a3,3,0,0,0-3.09,1.62c-1.07,2.45.22,4,2,3.93s3.24-3.5,2.15-4.89A1.75,1.75,0,0,0,427.24,418.9Z" style="fill:#8c8c8c;stroke:#263238;stroke-linecap:round;stroke-linejoin:round"></path><path d="M432,419.44a2.93,2.93,0,0,0-3,1.58c-1,2.39.21,3.87,1.93,3.84s3.16-3.42,2.09-4.78A1.74,1.74,0,0,0,432,419.44Z" style="fill:#8c8c8c;stroke:#263238;stroke-linecap:round;stroke-linejoin:round"></path><path d="M324.85,417.05a3.27,3.27,0,0,0-3.37,1.77c-1.16,2.67.24,4.32,2.17,4.29s3.53-3.82,2.34-5.34A1.92,1.92,0,0,0,324.85,417.05Z" style="fill:#8c8c8c;stroke:#263238;stroke-linecap:round;stroke-linejoin:round"></path><path d="M329.94,418a3.29,3.29,0,0,0-3.37,1.77c-1.17,2.68.24,4.33,2.16,4.29s3.54-3.82,2.34-5.34A1.89,1.89,0,0,0,329.94,418Z" style="fill:#8c8c8c;stroke:#263238;stroke-linecap:round;stroke-linejoin:round"></path><path d="M335.14,418.54a3.23,3.23,0,0,0-3.29,1.73c-1.14,2.61.23,4.22,2.11,4.19s3.45-3.73,2.29-5.21A2,2,0,0,0,335.14,418.54Z" style="fill:#8c8c8c;stroke:#263238;stroke-linecap:round;stroke-linejoin:round"></path><path d="M241.3,151.54a23.72,23.72,0,0,1,14.17-.9c8.08,1.88,7.27,2.69,10.5,2.69" style="fill:none;stroke:#263238;stroke-linecap:round;stroke-linejoin:round"></path><path d="M265.44,150.91s-.27,2.69,3.5,4.31" style="fill:none;stroke:#263238;stroke-linecap:round;stroke-linejoin:round"></path><path d="M283.66,155.39s7.1-5.83,2.79-13.91" style="fill:none;stroke:#263238;stroke-linecap:round;stroke-linejoin:round"></path><path d="M241.39,141.78c.33.75,1.59.92,2.82.38s1.95-1.58,1.62-2.33-1.59-.92-2.81-.38S241.06,141,241.39,141.78Z" style="fill:none;stroke:#263238;stroke-linecap:round;stroke-linejoin:round"></path><path d="M270.52,134.5s.92-3.08-3.07-2.46-2.15,3.68-2.15,3.68Z" style="fill:#fff;stroke:#263238;stroke-linecap:round;stroke-linejoin:round"></path><path d="M265.6,137s5.53,2.46,8.3-.61" style="fill:none;stroke:#263238;stroke-linecap:round;stroke-linejoin:round"></path><path d="M267.35,132.06a2.32,2.32,0,0,1,1,1.91,2.4,2.4,0,0,1-.27,1.11l-2.75.64S263.49,132.71,267.35,132.06Z" style="fill:#263238;stroke:#263238;stroke-linecap:round;stroke-linejoin:round"></path><path d="M388.89,330.15s-.93,13,1.24,21.41,6.21,6.83,5.28,20.8-5.59,25.14-5.59,35.69,2.49,17.07,0,21.72-18,5.28-23.89,3.42S362.2,426.36,365,418s5.28-34.45,3.42-41.28-3.11-14.58-4.35-17.07-19.55-16.14-20.17-28.24,4-16.14,4-16.14" style="fill:#8758FF;stroke:#263238;stroke-linecap:round;stroke-linejoin:round"></path><path d="M366.4,427.16a3.81,3.81,0,0,0-3.91,2c-1.36,3.12.27,5,2.51,5s4.11-4.44,2.72-6.21A2.25,2.25,0,0,0,366.4,427.16Z" style="fill:#8c8c8c;stroke:#263238;stroke-linecap:round;stroke-linejoin:round"></path><path d="M372.31,428.21a3.83,3.83,0,0,0-3.92,2.05c-1.35,3.12.28,5,2.52,5s4.11-4.44,2.72-6.21A2.25,2.25,0,0,0,372.31,428.21Z" style="fill:#8c8c8c;stroke:#263238;stroke-linecap:round;stroke-linejoin:round"></path><path d="M378.35,428.9a3.72,3.72,0,0,0-3.82,2c-1.32,3,.27,4.9,2.45,4.87s4-4.33,2.66-6.06A2.21,2.21,0,0,0,378.35,428.9Z" style="fill:#8c8c8c;stroke:#263238;stroke-linecap:round;stroke-linejoin:round"></path><path d="M348.43,267.77a73.21,73.21,0,0,0,4.59,14" style="fill:none;stroke:#263238;stroke-linecap:round;stroke-linejoin:round"></path><ellipse cx="370.37" cy="273.72" rx="8.09" ry="5.45" style="fill:#fff"></ellipse><path d="M377.47,261.66c0,1.64,2.29,3,5.12,3s5.12-1.33,5.12-3-2.29-3-5.12-3S377.47,260,377.47,261.66Z" style="fill:#fff"></path><path d="M394,270.42c0,1.55,2.59,2.8,5.78,2.8s5.78-1.25,5.78-2.8-2.59-2.81-5.78-2.81S394,268.86,394,270.42Z" style="fill:#fff"></path><path d="M395,257.53c0,1.92,2.66,3.47,5.95,3.47s5.94-1.55,5.94-3.47-2.66-3.47-5.94-3.47S395,255.61,395,257.53Z" style="fill:#fff"></path><ellipse cx="414.14" cy="267.28" rx="2.97" ry="2.31" style="fill:#fff"></ellipse><path d="M423.59,274.64c-.51,1.56.77,3.38,2.85,4.05s4.18,0,4.69-1.6-.77-3.38-2.85-4S424.09,273.08,423.59,274.64Z" style="fill:#fff"></path><path d="M417.78,260.36c-.4,1.24,1,2.81,3.2,3.52s4.26.27,4.66-1-1-2.81-3.2-3.52S418.18,259.12,417.78,260.36Z" style="fill:#fff"></path><path d="M456.64,306.53c-.74,1.07.18,3,2.05,4.29s4,1.48,4.74.41-.18-3-2.05-4.29S457.38,305.46,456.64,306.53Z" style="fill:#fff"></path><path d="M460.41,314.22c-.45.66.11,1.83,1.27,2.63s2.45.91,2.9.25-.11-1.83-1.26-2.63S460.87,313.56,460.41,314.22Z" style="fill:#fff"></path><path d="M470.43,321.22c-.45.66.11,1.83,1.27,2.63s2.45.91,2.9.25-.11-1.83-1.26-2.63S470.89,320.56,470.43,321.22Z" style="fill:#fff"></path><path d="M460.19,321.22c-.45.66.11,1.83,1.26,2.63s2.46.91,2.91.25-.11-1.83-1.26-2.63S460.65,320.56,460.19,321.22Z" style="fill:#fff"></path><path d="M338.39,253.18c-1.26.32-1.85,2.36-1.3,4.58s2,3.76,3.28,3.45,1.85-2.36,1.3-4.58S339.66,252.87,338.39,253.18Z" style="fill:#fff"></path><path d="M342,264.09c-1.27.31-1.85,2.36-1.3,4.57s2,3.76,3.27,3.45,1.85-2.36,1.3-4.58S343.29,263.77,342,264.09Z" style="fill:#fff"></path><path d="M334.43,221.47c-1.27.31-1.85,2.36-1.3,4.57s2,3.76,3.28,3.45,1.84-2.36,1.29-4.58S335.69,221.16,334.43,221.47Z" style="fill:#fff"></path><path d="M336.13,261.45c-.78.19-1.13,1.44-.8,2.8s1.24,2.31,2,2.12,1.14-1.45.8-2.81S336.91,261.25,336.13,261.45Z" style="fill:#fff"></path><path d="M336,237.25c-.78.19-1.13,1.44-.8,2.8s1.24,2.31,2,2.12,1.14-1.45.8-2.81S336.73,237.05,336,237.25Z" style="fill:#fff"></path><path d="M340.77,244.35c-.78.19-1.13,1.45-.8,2.81s1.24,2.3,2,2.11,1.14-1.45.8-2.81S341.54,244.16,340.77,244.35Z" style="fill:#fff"></path><path d="M450.17,298.36c-.45.66.11,1.84,1.26,2.63s2.46.91,2.91.25-.11-1.83-1.26-2.63S450.63,297.7,450.17,298.36Z" style="fill:#fff"></path><path d="M258.1,151.19a97,97,0,0,1,0,11.37c-.35,7,3,.88,3,.88s.87,8.4,2.45,6.13.17-11.73.17-11.73,2.1,5.43,2.28,1.75a9.41,9.41,0,0,0-2.28-6.3Z" style="fill:#8758FF"></path><g style="clip-path:url(#freepik--clip-path-3--inject-7)"><path d="M258.1,151.19a97,97,0,0,1,0,11.37c-.35,7,3,.88,3,.88s.87,8.4,2.45,6.13.17-11.73.17-11.73,2.1,5.43,2.28,1.75a9.41,9.41,0,0,0-2.28-6.3Z" style="fill:#fff;opacity:0.4"></path></g><path d="M258.1,151.19a97,97,0,0,1,0,11.37c-.35,7,3,.88,3,.88s.87,8.4,2.45,6.13.17-11.73.17-11.73,2.1,5.43,2.28,1.75a9.41,9.41,0,0,0-2.28-6.3Z" style="fill:none;stroke:#263238;stroke-linecap:round;stroke-linejoin:round"></path></g></svg>