<svg xmlns="http://www.w3.org/2000/svg" xmlns:xlink="http://www.w3.org/1999/xlink" viewBox="0 0 500 500"><defs><clipPath id="freepik--clip-path--inject-7"><path d="M402,358.85s-.35,5.94,2.45,7,6.64,1.05,6.64,5.59-5.25,21.32-7,26.56,1.05,13.29-5.25,17.83-15.72,5.24-18.87,2.1,4.2-7.34,4.89-11.89,6.3-23.76,6.3-26.21-6.3-3.49-14-11.53-8-12.59-8-12.59Z" style="fill:#8758FF;stroke:#263238;stroke-linecap:round;stroke-linejoin:round"></path></clipPath><clipPath id="freepik--clip-path-2--inject-7"><path d="M446.46,298.93c3.15,9.46,2.8,31.51,2.8,31.51s.7,7-2.1,18.91-2.1,8.4-1.05,12.6,1.05,30.81,1.05,39.56-1.75,18.91-7,20.31-14,2.8-17.51,1.4-3.5-4.55-2.1-7.35,3.85-2.8,6.65-10.15S429,383.31,429,383.31a13.85,13.85,0,0,1-9.8-5.95C415.3,371.75,416,356,416,356l-10.5,4.2c-21,7.7-41.32,3.5-41.32,3.5a58,58,0,0,1-26.25-8.4C325,347.25,319.37,328,319.37,328l-5.6-9.8s-8.75-20.31-8-38.51,3.15-53.22,0-75.63-22.06-48.66-22.06-48.66-1.4,2.1-6.3,3.85-14.71.35-20-2.1A38,38,0,0,0,243.05,154a1.65,1.65,0,0,1-1.75-2.45s-5.61-.7-5.26-4.56,4.21-11.9,11.56-13.3a43.34,43.34,0,0,0,12.25-4.2s11.2-5.6,21.36-3.5,27.31,16.1,38.16,38.86,18.21,43.06,21.36,61.62,7.7,41.31,7.7,41.31l4.9-7a1.3,1.3,0,0,1,1.75-.37l3.5,2.16,2.39-8a2.7,2.7,0,0,1,3.32-1.83l3.75,1,5.27-9.44a2.61,2.61,0,0,1,3.72-.9l4,2.64,5.52-7.27a1.64,1.64,0,0,1,2.46-.16l4.62,4.62,7.42-5.83a2.39,2.39,0,0,1,3.65.89l2.59,5.65,7.06-2.72a2.18,2.18,0,0,1,2.82,1.26l2,5.31,3.82-.51a1.86,1.86,0,0,1,2,1.14l1.9,4.62,3.09.44a2.3,2.3,0,0,1,2,2.08l.55,6.58h1.59a1.88,1.88,0,0,1,1.84,1.53l.77,4.07,2.42.22a2.05,2.05,0,0,1,1.8,1.51l.68,2.47.43.08a2.33,2.33,0,0,1,1.93,1.95l.79,5s2.1,9.8,1.75,14" style="fill:#8758FF;stroke:#263238;stroke-linecap:round;stroke-linejoin:round"></path></clipPath><clipPath id="freepik--clip-path-3--inject-7"><path d="M258.1,151.19a97,97,0,0,1,0,11.37c-.35,7,3,.88,3,.88s.87,8.4,2.45,6.13.17-11.73.17-11.73,2.1,5.43,2.28,1.75a9.41,9.41,0,0,0-2.28-6.3Z" style="fill:#8758FF;stroke:#263238;stroke-linecap:round;stroke-linejoin:round"></path></clipPath><clipPath id="freepik--clip-path-4--inject-7"><path d="M292.46,379.81a169.29,169.29,0,0,1-17.5-2.1c-7-1.4-21.36-2.1-27,2.45s-12.61,14.35-24.16,17.51-38.86,0-49.71-2.81-35.37-21.7-42-27.65-16.1-11.56-22.4-9.11S82.4,366.16,64.54,363s-41-14-52.51-30.46,0-2.8,9.45,2.46,28.36,15.05,45.86,10.85,44.82-28.71,64.42-36.41,29.06-9.11,42-5.95,16.1,4.55,16.1,4.55,26.61,1.75,35,7.7,18.91,14.7,18.91,14.7,2.1,9.46,16.45,21,14.36,12.6,21,16.11S292.09,374.77,292.46,379.81Z" style="fill:#8c8c8c;stroke:#263238;stroke-linecap:round;stroke-linejoin:round"></path></clipPath><clipPath id="freepik--clip-path-5--inject-7"><path d="M167.56,341s16.28,26.79,13.39,41.49a32.84,32.84,0,0,1-14.7,21.27s2.17,17,3.41,18.38c4.87,5.44,10.12,5.05,10.9,7.41a14.41,14.41,0,0,0,1.36,3.2s-6.48-.37-11.21-.37-7.09-.78-7.61-2.62-2.63-4.47-4.73-4.73-3.68,3.68-3.94,1.31,1-9.71,1-9.71-2.1-3.94-3.67-7.88-.27-6.83,1.05-12.08-.53-11.81-6.31-16.54-14.7-15.23-16.54-25.73" style="fill:#8c8c8c;stroke:#263238;stroke-linecap:round;stroke-linejoin:round"></path></clipPath></defs><g id="freepik--background-simple--inject-7"><path d="M162.3,74s-75.76,38.6-113.55,98.09-34.81,136,11.12,192.79,133.69,49.34,207.18,85.31,154.57,28.58,189.32-47.66-17.65-104.71-26.66-192.93S341.18-7.77,162.3,74Z" style="fill:#8758FF"></path><path d="M162.3,74s-75.76,38.6-113.55,98.09-34.81,136,11.12,192.79,133.69,49.34,207.18,85.31,154.57,28.58,189.32-47.66-17.65-104.71-26.66-192.93S341.18-7.77,162.3,74Z" style="fill:#fff;opacity:0.8"></path></g><g id="freepik--Clouds--inject-7"><path d="M413.21,91.37c-6.29-3.43-9.14-.57-11.43-3.43s6.29-10.29-10.86-17.72c0,0-1.14-16-24.58-16.58s-17.15,16-23.44,20-8-2.29-14.29,1.71-3.43,12-8.58,13.15-12-5.14-18.29-1.14-6.29,7.43-9.15,7.43-8.57-2.29-12,0-7.43,5.15-7.43,5.15H417.79S419.5,94.8,413.21,91.37Z" style="fill:none;stroke:#263238;stroke-linecap:round;stroke-linejoin:round"></path><path d="M327.66,89a21,21,0,0,1-2.56,1.21" style="fill:none;stroke:#263238;stroke-linecap:round;stroke-linejoin:round"></path><path d="M358.6,62.32a9.76,9.76,0,0,0-5.59,7c-1,5.23-3.48,8.72-6.28,9.07s-13.25-.7-15,3.14a15.09,15.09,0,0,0-1,3.5" style="fill:none;stroke:#263238;stroke-linecap:round;stroke-linejoin:round"></path><path d="M431.61,124.57c-2.46-1.34-3.58-.23-4.47-1.34s2.46-4-4.24-6.93c0,0-.45-6.25-9.61-6.47s-6.7,6.25-9.16,7.81-3.12-.89-5.58.67-1.34,4.69-3.35,5.14-4.69-2-7.15-.45-2.45,2.91-3.57,2.91-3.35-.9-4.69,0-2.91,2-2.91,2h56.51S434.06,125.91,431.61,124.57Z" style="fill:none;stroke:#263238;stroke-linecap:round;stroke-linejoin:round"></path><path d="M398.18,123.65a8,8,0,0,1-1,.47" style="fill:none;stroke:#263238;stroke-linecap:round;stroke-linejoin:round"></path><path d="M410.27,113.22a3.79,3.79,0,0,0-2.18,2.72c-.41,2-1.37,3.41-2.46,3.55s-5.18-.28-5.86,1.22a6.11,6.11,0,0,0-.38,1.37" style="fill:none;stroke:#263238;stroke-linecap:round;stroke-linejoin:round"></path><path d="M105.71,287.26c-2.46-1.34-3.57-.22-4.47-1.34s2.46-4-4.24-6.92c0,0-.45-6.25-9.6-6.48s-6.7,6.26-9.16,7.82-3.13-.89-5.59.67-1.34,4.69-3.35,5.14-4.69-2-7.14-.45-2.46,2.9-3.58,2.9-3.35-.89-4.69,0-2.9,2-2.9,2H107.5S108.17,288.6,105.71,287.26Z" style="fill:none;stroke:#263238;stroke-linecap:round;stroke-linejoin:round"></path><path d="M72.28,286.35a7.8,7.8,0,0,1-1,.47" style="fill:none;stroke:#263238;stroke-linecap:round;stroke-linejoin:round"></path><path d="M84.37,275.91a3.81,3.81,0,0,0-2.18,2.73c-.41,2-1.36,3.41-2.45,3.54s-5.18-.27-5.86,1.23a6.2,6.2,0,0,0-.39,1.37" style="fill:none;stroke:#263238;stroke-linecap:round;stroke-linejoin:round"></path></g><g id="freepik--Trees--inject-7"><path d="M227.69,295.89s7.7-4.49,12.51-4.81,17.64,2.56,17.64,2.56,1-3.2-1.92-9.62a110.68,110.68,0,0,0-7.06-12.83l2.57-.32S245,262.53,228.65,258s-27.91,7.06-33.36,15.4-3.21,21.5-3.21,21.5,21.81-5.14,28.23,1.6a8.86,8.86,0,0,0,4.17,1.61C226.4,298.14,227.69,295.89,227.69,295.89Z" style="fill:#8758FF"></path><path d="M227.69,295.89s7.7-4.49,12.51-4.81,17.64,2.56,17.64,2.56,1-3.2-1.92-9.62a110.68,110.68,0,0,0-7.06-12.83l2.57-.32S245,262.53,228.65,258s-27.91,7.06-33.36,15.4-3.21,21.5-3.21,21.5,21.81-5.14,28.23,1.6a8.86,8.86,0,0,0,4.17,1.61C226.4,298.14,227.69,295.89,227.69,295.89Z" style="fill:#fff;opacity:0.4"></path><polygon points="207.48 284.34 219.67 291.4 209.08 290.44 220.95 293.32 222.55 298.14 219.03 408.81 226.72 408.81 224.48 298.14 229.61 289.47 236.67 286.91 230.25 286.27 232.5 282.1 224.16 295.57 225.76 284.34 228.33 279.21 225.12 280.17 224.48 273.43 222.55 292.68 218.06 282.1 218.7 289.15 207.48 284.34" style="fill:#263238"></polygon><path d="M431.55,213.28s13.34-7.77,21.67-8.33,30.55,4.45,30.55,4.45,1.67-5.56-3.33-16.67a192.19,192.19,0,0,0-12.22-22.22l4.44-.55s-11.11-14.44-39.44-22.22S384.89,160,375.45,174.4s-5.55,37.22-5.55,37.22,37.77-8.89,48.88,2.78c0,0,3.89,2.77,7.22,2.77S431.55,213.28,431.55,213.28Z" style="fill:#8758FF"></path><path d="M431.55,213.28s13.34-7.77,21.67-8.33,30.55,4.45,30.55,4.45,1.67-5.56-3.33-16.67a192.19,192.19,0,0,0-12.22-22.22l4.44-.55s-11.11-14.44-39.44-22.22S384.89,160,375.45,174.4s-5.55,37.22-5.55,37.22,37.77-8.89,48.88,2.78c0,0,3.89,2.77,7.22,2.77S431.55,213.28,431.55,213.28Z" style="fill:#fff;opacity:0.4"></path><polygon points="396.56 193.29 417.67 205.51 399.34 203.84 419.89 208.84 422.67 217.17 416.56 408.81 429.89 408.81 426 217.17 434.89 202.18 447.11 197.73 436 196.62 439.89 189.4 425.44 212.73 428.22 193.29 432.67 184.4 427.11 186.07 426 174.4 422.67 207.73 414.89 189.4 416 201.62 396.56 193.29" style="fill:#263238"></polygon><path d="M121,268.83s9.54-5.57,15.51-6S158.42,266,158.42,266s1.19-4-2.39-11.93a137.47,137.47,0,0,0-8.75-15.9l3.19-.4s-8-10.34-28.24-15.91S87.63,230.65,80.87,241s-4,26.65-4,26.65,27.05-6.37,35,2c0,0,2.78,2,5.17,2S121,268.83,121,268.83Z" style="fill:#8758FF"></path><path d="M121,268.83s9.54-5.57,15.51-6S158.42,266,158.42,266s1.19-4-2.39-11.93a137.47,137.47,0,0,0-8.75-15.9l3.19-.4s-8-10.34-28.24-15.91S87.63,230.65,80.87,241s-4,26.65-4,26.65,27.05-6.37,35,2c0,0,2.78,2,5.17,2S121,268.83,121,268.83Z" style="fill:#fff;opacity:0.4"></path><polygon points="95.98 254.51 111.09 263.26 97.97 262.07 112.69 265.65 114.67 271.61 110.3 408.81 119.84 408.81 117.06 271.61 123.42 260.87 132.17 257.69 124.22 256.9 127 251.73 116.66 268.43 118.65 254.51 121.83 248.15 117.86 249.34 117.06 240.99 114.67 264.85 109.11 251.73 109.9 260.48 95.98 254.51" style="fill:#263238"></polygon><path d="M173.14,78.53l6.71,1s-7.67-7.67-2.87-5.27A89.14,89.14,0,0,1,186.56,80s-6.71-9.58-1.44-9.58,12.95,13.9,12.95,13.9-2.4-17.26,3.35-13.43,5.28,23,5.28,23,10.54-9.58,16.29-9.58-5.27,13.42-5.27,13.42,17.74.48,17.26,2.87-9.11,3.84-9.11,3.84,18.69,2.4,16.3,4.79a7.43,7.43,0,0,1-4.8,2.4s30.68,21.57,37.87,61.84c0,0-.95,3.83-2.39,0a29.91,29.91,0,0,0-4.8-7.67s3.84,22.53,0,35.47-3.83,11-10.54,6.71-19.18-3.83-19.18-3.83,9.11,3.35,5.28,4.31-23.49-1.44-42.19,4.32a85.92,85.92,0,0,0-31.16,17.73s-3.83-8.15-37.39-18.69-50.81,9.58-50.81,9.58L90.21,208s-10.07,7.67-9.59,3.84,11-15.34,11-15.34S70.08,213.71,67.2,206s-5.27-18.69,1-44.58,24-42.66,24-42.66-8.63,6.71-9.11,4.31S87.33,107.78,99.8,102,124.72,92,124.72,92s-12.94,2.39-9.1-1,27.8-8.63,27.8-8.63S132.87,80,138.15,79s19.65-1,19.65-1-2.88-4.79,1.44-4.79,11,5.27,11,5.27Z" style="fill:#8758FF"></path><path d="M173.14,78.53l6.71,1s-7.67-7.67-2.87-5.27A89.14,89.14,0,0,1,186.56,80s-6.71-9.58-1.44-9.58,12.95,13.9,12.95,13.9-2.4-17.26,3.35-13.43,5.28,23,5.28,23,10.54-9.58,16.29-9.58-5.27,13.42-5.27,13.42,17.74.48,17.26,2.87-9.11,3.84-9.11,3.84,18.69,2.4,16.3,4.79a7.43,7.43,0,0,1-4.8,2.4s30.68,21.57,37.87,61.84c0,0-.95,3.83-2.39,0a29.91,29.91,0,0,0-4.8-7.67s3.84,22.53,0,35.47-3.83,11-10.54,6.71-19.18-3.83-19.18-3.83,9.11,3.35,5.28,4.31-23.49-1.44-42.19,4.32a85.92,85.92,0,0,0-31.16,17.73s-3.83-8.15-37.39-18.69-50.81,9.58-50.81,9.58L90.21,208s-10.07,7.67-9.59,3.84,11-15.34,11-15.34S70.08,213.71,67.2,206s-5.27-18.69,1-44.58,24-42.66,24-42.66-8.63,6.71-9.11,4.31S87.33,107.78,99.8,102,124.72,92,124.72,92s-12.94,2.39-9.1-1,27.8-8.63,27.8-8.63S132.87,80,138.15,79s19.65-1,19.65-1-2.88-4.79,1.44-4.79,11,5.27,11,5.27Z" style="fill:#fff;opacity:0.4"></path><path d="M183.21,244.87l1.91-21.09,54.17-35-22,10.06,1.44-11L211,203.17l-25.89,13.9s1.34-4.62,3.26-11.33,18.32-25.58,18.32-25.58L186.56,197.9l1.46-13L181.2,206.1l-6.43,1.15-.67-23.74-3.84-10.06-.95,10.06V220.9l-23.25-28.79,3.59-18.66-9.33,15.43L119,175.37s29.34,28.54,37.49,40l-30.12-14.35-7.85-14.68,3.84,12.46-18.7,2.88,19.84,1.14,36.27,20.63c2.3,7.79,2.73,15.64,3.33,22.33,1,10.55-7.45,146.69-7.45,146.69s-1.44,7.67-12,16.29h57s-4.32-8.15-9.11-19.17S183.21,244.87,183.21,244.87Z" style="fill:#263238"></path></g><g id="freepik--Plants--inject-7"><path d="M139.42,408.17a22.64,22.64,0,0,0-1.81-8.86c-2.63-6.9-7.23,6.89-7.23,6.89s0-1.64-4.92-6.89-9.2,3.94-9.2,3.94,2.3-22-3.28-20.36-4.93,20.36-4.93,20.36-3.94-13.8-9.19-13.8-6.57,9.86-6.57,9.86S91,381.9,85.72,381.57,74.56,396,74.56,396s1.64-19.7-3.61-20.69-7.23,7.23-7.23,7.23-4.6-27.26-13.46-24S49,392.08,49,392.08s-8.87-21-16.1-16.09c-6.56,4.48,1.79,27.95,3.37,32.18Z" style="fill:#8758FF"></path><path d="M33.51,407.83s-3.94-12.48-2-14.45S42.05,400,42.05,400s-6.24-21,3.61-23.65,11.49,20.36,11.49,20.36,7.23-10.5,8.87-6.56a21.85,21.85,0,0,1,1.64,7.55s3.61-28.57,11.82-27.26.66,29.56.66,29.56,4.6-9.85,9.85-8.87,7.23,7.23,7.23,7.23,2.29-5.59,3.94-5.59,3.61,9.85,3.61,9.85,2-15.1,5.58-14.44,11.17,13.46,11.17,13.46-1.32-7.22,2.62-7.55,6.24,11.16,6.24,11.16,5.26-10.83,8.54-8.86,1.64,12.47,1.64,12.47" style="fill:none;stroke:#263238;stroke-linecap:round;stroke-linejoin:round"></path><line x1="51.57" y1="407.83" x2="48.29" y2="393.05" style="fill:none;stroke:#263238;stroke-linecap:round;stroke-linejoin:round"></line><line x1="71.6" y1="407.17" x2="73.24" y2="397.98" style="fill:none;stroke:#263238;stroke-linecap:round;stroke-linejoin:round"></line><line x1="113.96" y1="407.83" x2="111.01" y2="399.62" style="fill:none;stroke:#263238;stroke-linecap:round;stroke-linejoin:round"></line><line x1="87.69" y1="407.5" x2="91.31" y2="400.93" style="fill:none;stroke:#263238;stroke-linecap:round;stroke-linejoin:round"></line><line x1="50.59" y1="401.59" x2="53.21" y2="396.34" style="fill:none;stroke:#263238;stroke-linecap:round;stroke-linejoin:round"></line><line x1="71.6" y1="404.22" x2="69.3" y2="399.62" style="fill:none;stroke:#263238;stroke-linecap:round;stroke-linejoin:round"></line><line x1="89.34" y1="403.89" x2="87.69" y2="400.93" style="fill:none;stroke:#263238;stroke-linecap:round;stroke-linejoin:round"></line><line x1="112.65" y1="403.56" x2="113.63" y2="400.28" style="fill:none;stroke:#263238;stroke-linecap:round;stroke-linejoin:round"></line><path d="M342.85,408.17a22.64,22.64,0,0,0-1.81-8.86c-2.63-6.9-7.23,6.89-7.23,6.89s0-1.64-4.92-6.89-9.2,3.94-9.2,3.94,2.3-22-3.28-20.36-4.93,20.36-4.93,20.36-3.94-13.8-9.19-13.8-6.57,9.86-6.57,9.86-1.31-17.41-6.56-17.74S278,396,278,396s1.64-19.7-3.61-20.69-7.23,7.23-7.23,7.23-4.59-27.26-13.46-24-1.31,33.49-1.31,33.49-8.87-21-16.09-16.09c-6.57,4.48,1.79,27.95,3.36,32.18Z" style="fill:#8758FF"></path><path d="M236.94,407.83s-3.94-12.48-2-14.45S245.48,400,245.48,400s-6.24-21,3.61-23.65,11.5,20.36,11.5,20.36,7.22-10.5,8.86-6.56a21.85,21.85,0,0,1,1.64,7.55s3.62-28.57,11.83-27.26.65,29.56.65,29.56,4.6-9.85,9.85-8.87,7.23,7.23,7.23,7.23,2.3-5.59,3.94-5.59,3.61,9.85,3.61,9.85,2-15.1,5.58-14.44S325,401.59,325,401.59s-1.32-7.22,2.62-7.55,6.24,11.16,6.24,11.16,5.26-10.83,8.54-8.86S344,408.81,344,408.81" style="fill:none;stroke:#263238;stroke-linecap:round;stroke-linejoin:round"></path><line x1="255" y1="407.83" x2="251.72" y2="393.05" style="fill:none;stroke:#263238;stroke-linecap:round;stroke-linejoin:round"></line><line x1="275.03" y1="407.17" x2="276.68" y2="397.98" style="fill:none;stroke:#263238;stroke-linecap:round;stroke-linejoin:round"></line><line x1="317.4" y1="407.83" x2="314.44" y2="399.62" style="fill:none;stroke:#263238;stroke-linecap:round;stroke-linejoin:round"></line><line x1="291.13" y1="407.5" x2="294.74" y2="400.93" style="fill:none;stroke:#263238;stroke-linecap:round;stroke-linejoin:round"></line><line x1="254.02" y1="401.59" x2="256.65" y2="396.34" style="fill:none;stroke:#263238;stroke-linecap:round;stroke-linejoin:round"></line><line x1="275.03" y1="404.22" x2="272.74" y2="399.62" style="fill:none;stroke:#263238;stroke-linecap:round;stroke-linejoin:round"></line><line x1="292.77" y1="403.89" x2="291.13" y2="400.93" style="fill:none;stroke:#263238;stroke-linecap:round;stroke-linejoin:round"></line><line x1="316.08" y1="403.56" x2="317.07" y2="400.28" style="fill:none;stroke:#263238;stroke-linecap:round;stroke-linejoin:round"></line><path d="M240.18,407.86a22.48,22.48,0,0,0-1.81-8.86c-2.62-6.9-7.22,6.89-7.22,6.89s0-1.64-4.93-6.89-9.19,3.94-9.19,3.94,2.3-22-3.28-20.36-4.93,20.36-4.93,20.36-3.94-13.79-9.19-13.79-6.57,9.85-6.57,9.85-1.32-17.41-6.57-17.73-11.16,14.44-11.16,14.44S177,376,171.71,375s-7.22,7.22-7.22,7.22-4.6-27.25-13.46-24-1.32,33.49-1.32,33.49-8.86-21-16.09-16.09c-6.56,4.48,1.79,27.95,3.37,32.18Z" style="fill:#8758FF"></path><path d="M134.28,407.52s-3.94-12.48-2-14.45,10.51,6.57,10.51,6.57-6.24-21,3.61-23.64,11.49,20.36,11.49,20.36,7.23-10.51,8.87-6.57a21.85,21.85,0,0,1,1.64,7.55s3.61-28.57,11.82-27.25.66,29.55.66,29.55,4.6-9.85,9.85-8.87S198,398,198,398s2.3-5.58,3.94-5.58,3.62,9.85,3.62,9.85,2-15.11,5.58-14.45,11.16,13.46,11.16,13.46-1.31-7.22,2.63-7.55,6.24,11.16,6.24,11.16,5.25-10.83,8.54-8.86,1.64,12.48,1.64,12.48" style="fill:none;stroke:#263238;stroke-linecap:round;stroke-linejoin:round"></path><line x1="152.34" y1="407.52" x2="149.06" y2="392.74" style="fill:none;stroke:#263238;stroke-linecap:round;stroke-linejoin:round"></line><line x1="172.37" y1="406.86" x2="174.01" y2="397.67" style="fill:none;stroke:#263238;stroke-linecap:round;stroke-linejoin:round"></line><line x1="214.73" y1="407.52" x2="211.78" y2="399.31" style="fill:none;stroke:#263238;stroke-linecap:round;stroke-linejoin:round"></line><line x1="188.46" y1="407.19" x2="192.07" y2="400.62" style="fill:none;stroke:#263238;stroke-linecap:round;stroke-linejoin:round"></line><line x1="151.35" y1="401.28" x2="153.98" y2="396.03" style="fill:none;stroke:#263238;stroke-linecap:round;stroke-linejoin:round"></line><line x1="172.37" y1="403.91" x2="170.07" y2="399.31" style="fill:none;stroke:#263238;stroke-linecap:round;stroke-linejoin:round"></line><line x1="190.1" y1="403.58" x2="188.46" y2="400.62" style="fill:none;stroke:#263238;stroke-linecap:round;stroke-linejoin:round"></line><line x1="213.42" y1="403.25" x2="214.4" y2="399.97" style="fill:none;stroke:#263238;stroke-linecap:round;stroke-linejoin:round"></line><line x1="16.87" y1="408.81" x2="487.63" y2="408.81" style="fill:none;stroke:#263238;stroke-linecap:round;stroke-linejoin:round"></line></g></svg>