<svg xmlns="http://www.w3.org/2000/svg" viewBox="0 0 750 500"><g id="freepik--dinosaur-2--inject-8"><path d="M440.86,330.52c.52,1,18.95,25.43,18.95,25.43s-4.67,3.64-4.67,5.72-4.8,29.59-4.8,29.59L465.52,412l14.28-1.3s5.19-8,3.89-10.38-5.71,3.12-5.71,3.12,6.23-7.27,3.9-8.83-4.42-3.37-5.46.78-2.33,5.45-2.33,5.45l-10.38-14.79-3.64-4.42s12.2-17.13,12.2-22.84-8.3-23.62-8.3-23.62Z" style="fill:#455a64"></path><path d="M729.42,133.66c-3.49.38-54.08,5.82-80.21,40.5s-39.72,56.46-46.72,74.76-21,32.32-23.76,33.87-7,1.95-12.07,1.95-36.21-12.85-65.8-14.41a103,103,0,0,0-17,.45h0s-20.42,2.54-40.33-7.87c-6.87-3.6-16.58-11.95-19.5-17.5s-1.46-16.34-3.5-25.81-11.68-13.88-21-18-27.15.3-27.15.3a14.76,14.76,0,0,0-8.46-3.51c-5.55-.58-15.47,8.47-15.47,8.47s-18.68,7.29-24.22,10.5-8.76,3.21-11.68,5.84-5.25,10.22-5.25,14.59,2.34,2.63,2.34,2.63l-.3,3.5c-.29,3.51,5,5.26,7.88,7.3s37.26.69,37.26.69L366,256.78l37.36,15.47,13.3,22s13.73,27.44,19.58,35.62,10.9,12.85,28.42,16.35,45.94,20.64,52.56,24.14,28.82,0,28.82,0,37.38-3.11,49.45-20.64,16-45.94,17.52-52.95,16.74-58.41,22.58-69.31,39.72-86.44,95.79-90.33C731.37,137.17,732.93,133.28,729.42,133.66Z" style="fill:#455a64"></path><path d="M430,278.21c-5.78,0-9.76-5.48-13.71-9.71a43.65,43.65,0,0,0-16.53-11,14.4,14.4,0,0,1-4.33-2.11c-2.15-1.8-2.81-4.86-2.75-7.67,0-1.22.06-2.66-.93-3.36-.58-.4-1.35-.42-1.95-.77-1.05-.61-1.31-2-2-3-1.71-2.5-5.45-2.12-8.4-1.45a12,12,0,0,0-.63-12.3,14.53,14.53,0,0,0-10.9-6.17,9.6,9.6,0,0,0-4.26.51,15.84,15.84,0,0,0-4.13,2.84c-3.79,3.14-8.44,5.79-13.33,5.33-2.57-.24-5.16-1.32-7.66-.68-2.77.71-4.63,3.35-7.27,4.46-6.44,2.7-14.13-4.59-20.36-1.45a7.52,7.52,0,0,0-3.25,3.35,19.22,19.22,0,0,0-.31,3.18c0,4.38,2.34,2.63,2.34,2.63l-.3,3.5c-.29,3.51,5,5.26,7.88,7.3s37.26.29,37.26.29L366,257.18l37.36,15.47,6.9,11.43c2.62,1.54,5.31,3,8,4.4a9,9,0,0,0,3.61,1.3,6.77,6.77,0,0,0,3.76-1.11c3.61-2.16,6.06-6.6,4.94-10.65Z" style="fill:#e0e0e0"></path><path d="M413.68,211a3.41,3.41,0,0,0,1-1c-4.09-3.55-9.64-6.06-15.09-8.45-9.34-4.08-27.15.3-27.15.3a14.76,14.76,0,0,0-8.46-3.51c-5.55-.58-15.47,8.47-15.47,8.47l-3.68,1.46a3,3,0,0,0-.14,1.3c2.61,1.59,6,.84,8.79-.37s5.56-2.84,8.61-2.91a4.88,4.88,0,0,1,2.38.46c1.78.92,2.66,3.32,4.3,4.21a3.28,3.28,0,0,1,1,.32h0a3.23,3.23,0,0,1,1.6,1.75,3.29,3.29,0,0,1-1.49,3.88c2.38,1.17,5.43-.44,6.56-2.85s.78-5.24,0-7.78c-.16-.51-.32-1.13.05-1.53a1.57,1.57,0,0,1,.85-.37l7.14-1.41c1-.21,2.69.25,2.26,1.22-.19.43-.7.57-1.12.77-3.62,1.78-.68,8.64-4.11,10.74,1.9.17,3.53-1.4,4.42-3.09s1.35-3.61,2.45-5.16a7.36,7.36,0,0,1,12.22.27,1.39,1.39,0,0,1,.28,1.24c-.21.48-.81.61-1.3.78-4.06,1.46-3,8.58-6.95,10.36,3.84,0,6.35-3.9,9.63-5.9,2.68-1.63,5.92-2,9-2.47A6.41,6.41,0,0,0,413.68,211Z" style="fill:#263238"></path><path d="M520.22,426.88c-2.15-1.68-9.56-9.32-9.56-9.32s.24-17.44-3.34-21.26-4.78-3.82-4.78-3.82l18.15-22.93-14.8-18.08H480.4s-9.15,30.26-7.72,36.71-1.53,16.66,7.12,22.54,24.81,21.08,24.81,21.08l-16.15,17.83L467,449.09a9.74,9.74,0,0,0-3.8.77c-2.39,1-5.84,3-4.95,5.92l8.68.13s-9.3,4-8.83,7.31h49.39c-.72,0-2.74-7.92-.13-13.41s15.51-13.86,16.23-17S522.37,428.55,520.22,426.88Z" style="fill:#455a64"></path><path d="M578.89,431.8l-14.76,21.3-15.84,1.78-7.12,1s-6.72,2.91-8.83,7.31l49.39,0c-.86-3.59-2.74-7.89-.13-13.38s15.52-13.86,16.23-17" style="fill:#455a64"></path><path d="M506.75,284.23c-.68.56-1.47,1.2-2.34,1a1.88,1.88,0,0,1-1.11-2.48,4.2,4.2,0,0,1,2.14-2.11,57.66,57.66,0,0,1,6.68-2.52c2.23-.86,4.43-2.18,5.49-4.31-5.05.27-9.77,2.76-13.6,6.07s-6.88,7.41-9.89,11.47a30,30,0,0,0-4.3,7.07c-2.38,6.31-.29,13.34,1.8,19.76l8.59,8.71c-1.36-5.68-3.11-17.3-3-22.87s2.12-11.31,6.34-14.94c6.15-5.28,15.6-5.18,21.78-10.42A25.44,25.44,0,0,0,506.75,284.23Z" style="fill:#263238"></path><path d="M510.11,313.33l-.75-11.2a7.85,7.85,0,0,1,.18-2.9,7.07,7.07,0,0,1,2.7-3.17c2.13-1.63,4.48-3.13,5.93-5.39a32.41,32.41,0,0,1,2.29-3.86,10.71,10.71,0,0,1,3-2.23,89.58,89.58,0,0,1,17-7.14L549.4,280c-4.41,1.57-9.71,4-14,6a15.36,15.36,0,0,0-4.65,2.92,14.13,14.13,0,0,0-2.54,3.95,54.23,54.23,0,0,0-4.74,15.69C521,303,522.23,296.51,524.72,291l-8.57,7.28a12.46,12.46,0,0,0-2.56,2.67,12.23,12.23,0,0,0-1.33,3.45c-.78,2.87-1.56,5.76-2.32,8.64" style="fill:#263238"></path><path d="M365.2,211.23a3.83,3.83,0,0,0-2.74-2.25,11.07,11.07,0,0,0-3.68-.12,15.79,15.79,0,0,0-3.87.62l-2,1.08c-1.09,1.25-2.23,3.36-1.77,5a10.34,10.34,0,0,0,2.64,4.15,2.76,2.76,0,0,0,1,.75,3,3,0,0,0,2-.17,19,19,0,0,0,5.53-2.52,7.1,7.1,0,0,0,3.09-5A3.64,3.64,0,0,0,365.2,211.23Z" style="fill:#e0e0e0"></path><path d="M356.6,216.16a47.7,47.7,0,0,0-1.28-6.68L353,211.12a17.9,17.9,0,0,0,2.44,8,2.76,2.76,0,0,0,.88,1A8.47,8.47,0,0,0,356.6,216.16Z" style="fill:#263238"></path><path d="M354.74,207.13c.05.05-.22.42-.72,1a3.83,3.83,0,0,1-2.61,1.43,2.81,2.81,0,0,1-2.57-1.49c-.36-.74-.17-1.26-.12-1.23s0,.47.44,1a2.64,2.64,0,0,0,2.23,1.16,4,4,0,0,0,2.38-1.17C354.32,207.36,354.69,207.08,354.74,207.13Z" style="fill:#455a64"></path><path d="M357.48,204.93s-.17.37-.65.79a3.15,3.15,0,0,1-1,.58,2.08,2.08,0,0,1-1.45-.05,2.54,2.54,0,0,1-1.53-2c-.09-.66.12-1,.18-1s0,.4.18.94a2.4,2.4,0,0,0,1.36,1.57,2.08,2.08,0,0,0,2-.34C357.11,205.1,357.43,204.87,357.48,204.93Z" style="fill:#455a64"></path><path d="M361.4,204c0,.06-.32.31-1,.51a2.61,2.61,0,0,1-1.28.09,2.34,2.34,0,0,1-1.31-.91,3,3,0,0,1-.39-2.73c.24-.69.6-1,.64-.94s-.16.4-.29,1a2.93,2.93,0,0,0,.46,2.32,2,2,0,0,0,1,.76,2.63,2.63,0,0,0,1.08,0C361,204.08,361.38,204,361.4,204Z" style="fill:#455a64"></path><path d="M365.12,204.88c0,.07-.52.08-1.32-.11a5.24,5.24,0,0,1-.65-.2,1.5,1.5,0,0,1-.76-.46,3.2,3.2,0,0,1-.45-1.8,5,5,0,0,1,1.16-3c.61-.64,1.22-.64,1.21-.58s-.48.2-.93.82a5.39,5.39,0,0,0-.92,2.81,2.89,2.89,0,0,0,.34,1.53c0,.09.32.23.51.31a5.24,5.24,0,0,0,.59.24A5.9,5.9,0,0,1,365.12,204.88Z" style="fill:#455a64"></path><path d="M367.92,207.2c0,.05-.62-.12-1.24-.86a3.74,3.74,0,0,1,1.94-6.07,2.07,2.07,0,0,1,1.52,0c0,.09-.59,0-1.41.33a3.57,3.57,0,0,0-1.76,5.5C367.46,206.84,368,207.13,367.92,207.2Z" style="fill:#455a64"></path><path d="M366.28,228.89c0,.06-.83.08-2.3.29a28,28,0,0,0-6.06,1.69c-2.49.95-5.33,2.39-8.54,3.9-1.61.74-3.31,1.5-5.14,2.15a28.63,28.63,0,0,1-5.84,1.39c-4.13.44-8-.21-11.53-.59a33,33,0,0,0-9.31-.06,17.72,17.72,0,0,0-5.95,1.93c-1.3.73-1.91,1.3-1.94,1.25s.13-.16.43-.42a10,10,0,0,1,1.41-1,17.07,17.07,0,0,1,6-2.11,32.69,32.69,0,0,1,9.42-.06c3.52.36,7.39,1,11.42.55a36.38,36.38,0,0,0,10.84-3.46c3.21-1.48,6.08-2.89,8.61-3.8A25.6,25.6,0,0,1,364,229a14,14,0,0,1,1.73-.1A3.46,3.46,0,0,1,366.28,228.89Z" style="fill:#263238"></path><path d="M367.57,231a9.45,9.45,0,0,0-1.76-2.42,10.25,10.25,0,0,0-2.66-1.39c0-.06.36-.12,1,0a4.58,4.58,0,0,1,3.36,2.89C367.65,230.6,367.64,231,367.57,231Z" style="fill:#e0e0e0"></path><path d="M371.26,230.53c-.15,0-.23-.86-.86-1.66s-1.42-1.1-1.38-1.25,1.06,0,1.79.94S371.4,230.57,371.26,230.53Z" style="fill:#263238"></path><path d="M387.71,219.68a2.23,2.23,0,0,0-.91,0,3.14,3.14,0,0,0-1.77,1.8,6.52,6.52,0,0,0-.5,1.82,15.59,15.59,0,0,0-.2,2.27c0,1.63.15,3.49.32,5.56a19.87,19.87,0,0,1-.33,6.8,14,14,0,0,1-4.23,6.55,13,13,0,0,1-3.47,2.49,18,18,0,0,1-4.35.9l-9.12,1.33c-6.25.94-12.22,1.82-17.66,2.45s-10.38,1-14.52,1.14c-2.08.06-4,.1-5.6.07-.83,0-1.59,0-2.3,0s-1.35-.13-1.92-.21l-2.64-.42a9.27,9.27,0,0,1-.92-.16.73.73,0,0,1,.24,0l.69,0c.61.06,1.5.19,2.65.33.58.06,1.21.13,1.91.16s1.47,0,2.29,0c1.64,0,3.51-.06,5.58-.15,4.13-.19,9.05-.6,14.48-1.25s11.39-1.54,17.64-2.48l9.13-1.33a17.55,17.55,0,0,0,4.22-.85,12.39,12.39,0,0,0,3.34-2.38,13.6,13.6,0,0,0,4.14-6.31,19.82,19.82,0,0,0,.39-6.66,54.44,54.44,0,0,1-.25-5.6,15.78,15.78,0,0,1,.24-2.3,6.72,6.72,0,0,1,.57-1.87,3.16,3.16,0,0,1,1.93-1.81,1.47,1.47,0,0,1,.7,0A.74.74,0,0,1,387.71,219.68Z" style="fill:#263238"></path><path d="M421.08,222.4c-2.94.15-4.47,4-7.34,3.39-.7-.15-1.33-.58-2-.71-1.55-.27-2.93.94-4.06,2-2.82,2.76-6,5.52-9.85,6.21q2.5-3.69,5-7.39a5,5,0,0,1,2.13-2.06,5.85,5.85,0,0,0,1.75-.61,3.47,3.47,0,0,0,.82-1.29,5.67,5.67,0,0,1,4.37-3.07,1.69,1.69,0,0,0,1-.32,1.81,1.81,0,0,0,.34-1.18c.22-2,2.55-4.2,4.59-3.95a14.37,14.37,0,0,1,2.32,4.53C420.71,220.3,421.08,222.4,421.08,222.4Z" style="fill:#263238"></path><path d="M422.37,238.75l-4-1.38a2.84,2.84,0,0,0-1.37-.23c-1.09.18-1.56,1.47-2.4,2.2a9,9,0,0,1-2.26,1.12c-5,2.26-5.75,9.21-9.89,12.79a38.8,38.8,0,0,1,.66-10.09,8.3,8.3,0,0,1,.72-2.28,9.25,9.25,0,0,1,1.62-2l6.08-6.12a14.93,14.93,0,0,1,3.61-2.93,10.52,10.52,0,0,1,6.63.07Z" style="fill:#263238"></path><path d="M429.84,252.55a8.48,8.48,0,0,1-8.86.58,12.4,12.4,0,0,0-2.18-.95c-1.82-.43-3.67.6-5.11,1.8s-2.77,2.64-4.53,3.29c-.31.11-.83.07-.8-.27a.54.54,0,0,1,.08-.21l2.4-4.24a27.77,27.77,0,0,1,3.6-5.36A9.35,9.35,0,0,1,420,244.1a7,7,0,0,1,3.77.62,33.09,33.09,0,0,0,2.57,4C427.39,250,429.84,252.55,429.84,252.55Z" style="fill:#263238"></path><path d="M436.23,329.91c5.84,8.17,10.9,12.85,28.42,16.35s45.94,20.64,52.56,24.14,28.82,0,28.82,0,37.38-3.11,49.45-20.64,16-45.94,17.52-52.95c1-4.29,7-25.16,12.89-43.24h0s-5-8.42-6.72-6.8,0,7.34,0,7.34,1.74,5.85,1.61,7.84-2.36,1.5-2.36,1.5a36,36,0,0,0-5.06-6.1c-2.45-2.12-2.44-.26-2.44-.26-1.57,8,4,17.69,0,22.79-1.18-1.13-3-2.61-5-2.73a4.55,4.55,0,0,0-4.3,3.38,8.44,8.44,0,0,0,.65,5.74c1.13,2.57,3,5,2.84,7.83s-4.3,5.08-5.75,2.67c-.57-.94-.46-2.22-1.19-3-1.13-1.27-3.47-.29-4,1.32s.15,3.37,1,4.86,1.75,3,1.79,4.72c.06,3-2.75,5.28-5.59,6.2s-5.93.94-8.72,2c-5.53,2.11-8.72,7.72-12.55,12.24-8.33,9.84-21.06,15.32-33.9,16.59s-25.8-1.37-38-5.65c-8.21-2.88-16.66-6.58-25.26-5.25-2.68.41-5.4,1.31-8,.69a11.62,11.62,0,0,1-5.71-3.93c-5.23-5.89-7.88-13.57-10.41-21l-5.82-17.17c-.56-1.67-1.19-3.43-2.57-4.53s-3.75-1.12-4.64.4c-1.38,2.39,1.62,6.47-.83,7.76-1.54.8-3.2-.91-3.86-2.52a14.14,14.14,0,0,1,1.62-13.33,4.9,4.9,0,0,0,1.28-2.58c0-2-2.85-2.83-4.5-1.74s-2.28,3.16-2.79,5.07l-23.29-5.61,13.3,22S430.38,321.73,436.23,329.91Z" style="fill:#e0e0e0"></path><path d="M520.23,371.27a2.55,2.55,0,0,1-.58,0,9.33,9.33,0,0,1-1.6-.43,48.86,48.86,0,0,1-5.53-2.47c-4.57-2.29-10.71-5.75-17.57-9.43a191.41,191.41,0,0,0-17.9-8.7,55.22,55.22,0,0,0-5.69-2c-1.37-.39-2.15-.52-2.14-.57a2,2,0,0,1,.57.06,16.49,16.49,0,0,1,1.62.32,44.12,44.12,0,0,1,5.77,1.82,162.92,162.92,0,0,1,18,8.58c6.86,3.68,13,7.2,17.49,9.56,2.26,1.19,4.11,2.09,5.43,2.61a15.47,15.47,0,0,0,1.55.52A2.12,2.12,0,0,1,520.23,371.27Z" style="fill:#263238"></path><path d="M328,215.47a4.56,4.56,0,0,1,2.28,2.37c.65,1.28,1.48,2.8,2.91,2.86.86,0,1.88-.48,2.52.11a1.89,1.89,0,0,1,.42,1.23l.42,4.49a7.69,7.69,0,0,0,1.55-9,17,17,0,0,1-1.22-2.26,4.59,4.59,0,0,1,.66-4C334.27,212.67,330.79,214.17,328,215.47Z" style="fill:#263238"></path><path d="M318.87,222.35a5.79,5.79,0,0,1,1.66.49,2.91,2.91,0,0,1,1,1.41,15.9,15.9,0,0,1,1.17,7.18c1.17.44,2.25-1,2.32-2.23s-.38-2.53,0-3.73c.21-.74.71-1.37.93-2.11.43-1.4-.2-2.87-.44-4.31a4.25,4.25,0,0,1,.29-2.47c-.57.29-1.08.56-1.5.8a51,51,0,0,1-7.6,3.45A4.63,4.63,0,0,0,318.87,222.35Z" style="fill:#263238"></path><path d="M369.42,208.66a10.62,10.62,0,0,0-1.94-1.66c-1.32-.86-3.11-2.32-5.51-2.45a9.35,9.35,0,0,0-5.76,1.62c-1.32.88-2,1.62-2,1.55a6.1,6.1,0,0,1,1.84-1.85,9,9,0,0,1,6-1.84,7.64,7.64,0,0,1,3.36,1.05,22.93,22.93,0,0,1,2.33,1.63C369,207.66,369.5,208.63,369.42,208.66Z" style="fill:#455a64"></path><path d="M365.55,211.89c-.22.05-.53-1-1.91-1.79a5.72,5.72,0,0,0-2.62-.69,20.86,20.86,0,0,0-3.56.25,8.52,8.52,0,0,0-3.24,1,6.15,6.15,0,0,0-1.91,1.93c-.86,1.38-1.13,2.45-1.37,2.4s-.32-1.18.4-2.92a6.18,6.18,0,0,1,2.09-2.61,8.66,8.66,0,0,1,3.81-1.35,16.71,16.71,0,0,1,3.91-.13,5.93,5.93,0,0,1,3.12,1.21,3.78,3.78,0,0,1,1.31,1.85C365.72,211.57,365.65,211.87,365.55,211.89Z" style="fill:#263238"></path><path d="M338,233.57c.06,0,.26.19.43.63a3.45,3.45,0,0,1,.15,1.84,3.61,3.61,0,0,1-.79,1.68c-.32.35-.59.48-.63.44a11.72,11.72,0,0,0,.91-2.21A11,11,0,0,0,338,233.57Z" style="fill:#263238"></path><path d="M343.14,232.36a3.29,3.29,0,0,1,.41,2.9,3.32,3.32,0,0,1-1.63,2.42,13.79,13.79,0,0,0,1.12-2.54A13.05,13.05,0,0,0,343.14,232.36Z" style="fill:#263238"></path><path d="M462.38,298.65c-.1.92-9.32,11.27,0,22.92s18.19,9.42,28,19.59l3.14,4.43s-5.36,11.09-7,15.71-10.63,15.34-10.63,15.34l-3.05,5.18s-6.47,20.88-5.91,23.84,3.14,6.07,5.73,6.36c0,0,3.88,8.06,6.47,8.42s3.69,1.48,4.8,0,6.84-9.61,6.84-9.61-2.4-2.21-3.88-1.84-5.18,1.47-5.18,1.47l-.55-14.41,2.12,8s7.86,7.32,10.26,6.58,7-8.32,6.1-10.72-8.13.74-8.13.74L487,394.2l.37-17s24.21-24,25.14-27.54a17.5,17.5,0,0,0,0-7.39l-15.16-18.86-8.31-6.84-1.3-13.12-17.93-14.23Z" style="fill:#455a64"></path><path d="M489.08,316.57l.55.43,1.6,1.29,6.22,5h0l15.21,18.81,0,0v0a19,19,0,0,1,.4,4.74,12.51,12.51,0,0,1-.33,2.47,6.13,6.13,0,0,1-1.24,2.25c-2.07,2.75-4.5,5.4-7,8.17-5.1,5.51-10.79,11.34-16.93,17.49l.06-.15c-.11,5.36-.23,11.09-.36,17l0-.13,4.44,6.46-.29-.08a27.82,27.82,0,0,1,3.86-1.31,11.54,11.54,0,0,1,2.05-.34,3,3,0,0,1,2.14.48,1.21,1.21,0,0,1,.37.49,2.73,2.73,0,0,1,.09,1.67,9.77,9.77,0,0,1-.61,2.06,21,21,0,0,1-2,3.76,12.81,12.81,0,0,1-2.92,3.24,2,2,0,0,1-.51.28,1.35,1.35,0,0,1-.61.17,3.35,3.35,0,0,1-1.15-.21,11,11,0,0,1-2-1,50.68,50.68,0,0,1-7-5.48l-.05-.05,0-.07c-.67-2.52-1.4-5.26-2.13-8l.5-.07c.18,4.57.37,9.46.56,14.41l-.33-.23,4.63-1.33c.2-.05.39-.12.61-.16a1.89,1.89,0,0,1,.71,0,4.12,4.12,0,0,1,1.25.43,11.49,11.49,0,0,1,2.11,1.49l.17.15L491,411l-2.59,3.65-3.43,4.81-.85,1.2a1.88,1.88,0,0,1-1.42.81,5.48,5.48,0,0,1-1.52-.27c-.47-.13-.93-.26-1.4-.36-.23-.05-.46-.08-.7-.12a2.68,2.68,0,0,1-.76-.3,2.84,2.84,0,0,1-.63-.44,4.49,4.49,0,0,1-.55-.51,15.92,15.92,0,0,1-1.83-2.3,45.51,45.51,0,0,1-2.88-5l.21.15a6.35,6.35,0,0,1-3.81-2.29,9.51,9.51,0,0,1-2.05-3.88,4.21,4.21,0,0,1-.12-1.13c0-.38.07-.73.1-1.1.12-.71.23-1.42.38-2.11.28-1.4.61-2.77,1-4.14,1.39-5.45,2.94-10.74,4.52-15.89v0l0,0,3-5.17v0h0q3.06-3.71,5.81-7.46,1.38-1.87,2.61-3.79a22.86,22.86,0,0,0,2.14-3.94c1.05-2.82,2.28-5.5,3.47-8.13s2.41-5.18,3.61-7.67l0,.22-3.14-4.44,0,0a33.57,33.57,0,0,0-7.6-5.94c-2.71-1.57-5.51-2.77-8.16-4.07a36.68,36.68,0,0,1-7.22-4.54,32.15,32.15,0,0,1-5.41-5.7,16.77,16.77,0,0,1-3.55-12.8,19.81,19.81,0,0,1,1.66-5.41c.38-.79.78-1.54,1.19-2.24s.88-1.36,1.16-2l0-.05,5.62-7,1.43-1.76c.32-.4.49-.59.49-.59s-.14.21-.45.62l-1.4,1.79-5.54,7.07v0a21.93,21.93,0,0,1-1.16,2,24.43,24.43,0,0,0-1.17,2.23,19.82,19.82,0,0,0-1.61,5.35,16.56,16.56,0,0,0,3.55,12.58,32.62,32.62,0,0,0,5.38,5.62,36.39,36.39,0,0,0,7.16,4.46c2.64,1.29,5.46,2.49,8.2,4.07a34,34,0,0,1,7.7,6h0v0l3.15,4.43.07.1-.06.12q-1.79,3.74-3.59,7.67c-1.18,2.63-2.4,5.31-3.44,8.1a23.42,23.42,0,0,1-2.17,4c-.83,1.28-1.71,2.56-2.63,3.81q-2.75,3.78-5.82,7.49l0,0L473,381.94l0-.05c-1.57,5.14-3.12,10.43-4.5,15.87-.34,1.36-.67,2.73-.95,4.11-.15.69-.26,1.39-.37,2.08,0,.35-.08.7-.1,1a3.74,3.74,0,0,0,.1,1,9.07,9.07,0,0,0,1.95,3.67,5.87,5.87,0,0,0,3.48,2.12h.14l.06.13a45.17,45.17,0,0,0,2.84,4.95,15.91,15.91,0,0,0,1.77,2.23,3.79,3.79,0,0,0,.51.47,2.9,2.9,0,0,0,.55.39,2.26,2.26,0,0,0,.59.23c.24.05.49.08.73.14a22,22,0,0,0,2.78.61c.85,0,1.29-1,1.89-1.8q1.69-2.4,3.42-4.81l2.59-3.64,0,.35a10.13,10.13,0,0,0-2-1.41,3.57,3.57,0,0,0-1.09-.39,1.51,1.51,0,0,0-.52,0c-.19,0-.4.11-.59.17l-4.61,1.31-.32.09,0-.33c-.19-5-.37-9.85-.55-14.41l-.09-2.32.6,2.24c.73,2.77,1.45,5.51,2.12,8l-.07-.12a49.22,49.22,0,0,0,6.9,5.42,9.84,9.84,0,0,0,1.89.95,2.69,2.69,0,0,0,1,.19,1.16,1.16,0,0,0,.43-.12,1.72,1.72,0,0,0,.43-.25,12.2,12.2,0,0,0,2.79-3.1,21,21,0,0,0,2-3.67,9.17,9.17,0,0,0,.58-1.94c.11-.64.14-1.38-.29-1.73a2.74,2.74,0,0,0-1.8-.36,11.1,11.1,0,0,0-2,.33,26.27,26.27,0,0,0-3.78,1.28l-.18.07-.11-.16-4.43-6.47,0-.06v-.08c.13-5.91.26-11.63.38-17v-.09l.06-.06c6.15-6.13,11.85-12,17-17.44,2.54-2.76,5-5.4,7-8.11a6,6,0,0,0,1.19-2.13,13.32,13.32,0,0,0,.34-2.41,19.23,19.23,0,0,0-.38-4.65l0,.06-15.11-18.89h0l-6.17-5.12L489.6,317C489.25,316.74,489.08,316.57,489.08,316.57Z" style="fill:#263238"></path><path d="M575,384.62c-.34-3.92-.33-9-4-10.33-1.88-.67-4.07,0-5.93-.69-2.13-.86-3.14-3.44-2.93-5.73s1.34-4.38,2.38-6.43c4.6-9,7.87-19,7.51-29.14s-4.76-20.44-13-26.32-20.55-6.29-28.23.34C518.78,331.46,515.25,359.25,523,386c1.37,4.75,3.23,9.68,7.15,12.7,8.47,6.55,21.64,1,31,6.15,5.51,3.06,11.13,24.49,19.52,29l17.19-1C593.54,425,575.74,393.58,575,384.62Z" style="fill:#455a64"></path><path d="M558.29,403.63s-1.39-4.48,6.49-8.57,10.71-3.15,10.71-3.15a8.23,8.23,0,0,1-3.62,3c-2.36,1-10.16,5.1-9.68,10.77A17.85,17.85,0,0,0,558.29,403.63Z" style="fill:#263238"></path><path d="M568.14,415.44s4.38-4.93,8.57-4.55,10.87,2.79,10.87,2.79-4.36,0-6.63,1.11-7.56,5.52-8.71,8.72C570.71,420.61,569.3,417.87,568.14,415.44Z" style="fill:#263238"></path><path d="M579.07,396.68c-3.79,1.74-15.55,10-15.55,10l3.07,5.27s7.68-8.67,14.41-11.05Z" style="fill:#263238"></path><path d="M525.81,393.53s5.25-9.09,14.34-10a90.43,90.43,0,0,1,16.79,0,16.54,16.54,0,0,0-9.45-3.49c-5.24,0-14,1.92-15.73,2.8s-7.17,8-7.17,8Z" style="fill:#263238"></path><path d="M522.06,382.67c0-.52,9.77-8.63,10.82-8.81s13.29-3.67,19.59,0,10.66,12.94,10.66,12.94-2.44-9.27-5.94-13.29-11.19-4.72-18.54-4.37-18.1,6.57-18.1,6.57Z" style="fill:#263238"></path><path d="M524.15,364.45c.53-.7,4.37-5.59,10-6.64s23.43-.35,26.58,1.39c0,0-8.05.53-14.34.7s-13.29,3.85-15.74,4.55-9.79,6.82-9.79,6.82Z" style="fill:#263238"></path><path d="M522.69,343.74c.56,1.3,9.86-5.67,25.44-2.71,13.59,2.57,20.71,10.44,20.71,10.44l2.2-8.27s-10.72-10.56-22.68-14.15S516.51,332,516.51,332s-2.93.75,2.77,1.31,13.37-3.68,24.69-.94,20.59,10.22,20.59,10.22-16.12-5.85-23.48-5.94S521.79,341.65,522.69,343.74Z" style="fill:#263238"></path><path d="M533.74,400.72a9.93,9.93,0,0,0,5.68.45,58.88,58.88,0,0,0,11.11-3.5,23.51,23.51,0,0,0,5.9-3.39,10.37,10.37,0,0,0,3.62-5.63,32.2,32.2,0,0,0-8.46,4.68,14.83,14.83,0,0,1-2.12,1.69,7.09,7.09,0,0,1-5,.5,6,6,0,0,0-2.53-.27c-1.19.28-2,1.38-2.84,2.22a7.66,7.66,0,0,1-9.43.65,2.44,2.44,0,0,0,.86.91A14.6,14.6,0,0,0,533.74,400.72Z" style="fill:#263238"></path><path d="M560.7,350a10.86,10.86,0,0,0-3.08-.92,29.57,29.57,0,0,0-8.1-.84,17.16,17.16,0,0,1-4.46.2c-.85-.16-1.67-.52-2.53-.65-2.34-.35-4.54,1.05-6.63,2.17a32.08,32.08,0,0,1-7.06,2.74,77.1,77.1,0,0,1,25.54-.49,22.81,22.81,0,0,1,4.24.95c2.8,1,5.17,2.9,7.49,4.77l1.42-3.37C564.74,354.48,563.16,351.27,560.7,350Z" style="fill:#263238"></path><path d="M558.91,309.19c-3.64-1-7.47-1.09-11.24-1.46a68.69,68.69,0,0,1-11.89-2.25c2.5,3.45,6.92,5,11.14,5.5s8.56.32,12.71,1.27,8.33,3.4,9.74,7.42a2.17,2.17,0,0,1,0,1.71c-1.22-2.11-3.95-2.7-6.36-3.09a46.71,46.71,0,0,0-8.82-.83c-2,.07-4,.4-6,.38a59.78,59.78,0,0,1-6.92-.77,41.57,41.57,0,0,0-9-.1c-4.53.46-9.5,2.07-11.53,6.15,5.45-4.17,13-4.1,19.77-2.78a37.75,37.75,0,0,0,6.66,1c3,0,5.94-.84,8.92-1.25,5.18-.72,11.21.38,14.05,4.77l4.45-5.88C569.87,315,564.91,310.87,558.91,309.19Z" style="fill:#263238"></path><path d="M537,297.79a27.38,27.38,0,0,1,20-10.08,15.9,15.9,0,0,0,5-.57,29,29,0,0,0,2.71-1.4A10.74,10.74,0,0,1,572,285a11.73,11.73,0,0,1-6.39,6.7c-6.69,2.82-15.15-.87-21.27,3-2.3,1.46-4.34,4-7,3.71a.62.62,0,0,1,.22-.92" style="fill:#263238"></path><path d="M587,292.61c-.71-1.17-1.59-2.23-2.3-3.4a14.65,14.65,0,0,1-1.87-10c-1.95,2-3.87,3.73-5.62,4.39-.24,3-.3,6.47,2,8.45a17.15,17.15,0,0,0,2.52,1.57,12.21,12.21,0,0,1,5.76,11.53,2.73,2.73,0,0,0,1.43-2.27A14.77,14.77,0,0,0,587,292.61Z" style="fill:#263238"></path><path d="M597.26,275.72a4.59,4.59,0,0,0,1.93-.29,13.82,13.82,0,0,1,9.69.9c-.86-1.83-3-2.6-5-3s-4.14-.57-5.69-1.86c-2.14-1.8-1.84-4.81-4.37-6l-6.19,8.36a14,14,0,0,0,5.33,7.46c1.84,1.29,4.13,2.26,5,4.3s.42,4.72,2.22,5.89c.88-4.62-1.09-9.47-4.33-12.88-1.62-1.7-3.68-3.4-3.75-5.75l3.79,2.27A3.94,3.94,0,0,0,597.26,275.72Z" style="fill:#263238"></path><path d="M608.25,260a10.36,10.36,0,0,1-1-2.14c-.52-2,.79-4.05.61-6.1s-2.41-5.94-3.33-7.69L600,254.65a6.07,6.07,0,0,0,3.61,5.36,4.2,4.2,0,0,1,1.46.74,2.86,2.86,0,0,1,.58,1c1.15,2.93,2,6.22,4.4,8.22C610.1,266.54,609.9,263,608.25,260Z" style="fill:#263238"></path><path d="M623.64,235.42c-3.16-3.72-7.48-9.08-7.42-14l-6.16,11.18a35.94,35.94,0,0,0,20.38,9.52A37.72,37.72,0,0,1,623.64,235.42Z" style="fill:#263238"></path><path d="M636.15,217.36a8.83,8.83,0,0,0-2.16-4.12c-1.12-1.21-2.58-2.08-3.64-3.34a10.87,10.87,0,0,1-2.24-6.64,9.6,9.6,0,0,0,1,11,8.62,8.62,0,0,1,2,2.67,8.93,8.93,0,0,1-.05,3.49,8.59,8.59,0,0,0,4.19,7.9l2.94-6.11C636.56,221.33,636.53,219.13,636.15,217.36Z" style="fill:#263238"></path><path d="M643.37,200c-.61-1.35-1.57-2.52-2.06-3.91a11.61,11.61,0,0,1-.5-3.47,66.07,66.07,0,0,1,.18-7.45l-5.06,7.4a18.45,18.45,0,0,0,4.08,9.64,14.74,14.74,0,0,1,1.92,2.54c.39.78.64,1.71,1.38,2.17A8.43,8.43,0,0,0,643.37,200Z" style="fill:#263238"></path><path d="M655,181.8c-1.7-2-5.07-2.31-6.14-4.7-.26,1.44-.49,3,.24,4.28a11.77,11.77,0,0,0,1.22,1.52,6.72,6.72,0,0,1,1.49,3.44c.15,1.18,0,2.39.21,3.55a5.48,5.48,0,0,0,2.7,3.7l3.19-4.6C656.35,186.91,656.71,183.78,655,181.8Z" style="fill:#263238"></path><path d="M481.4,308.59a30.56,30.56,0,0,0-7.1,4.13c-2.12,1.65-4.28,3.7-7,3.74a2.86,2.86,0,0,1-1.74-.45,2.78,2.78,0,0,1-.51-3.51,9.4,9.4,0,0,1,2.72-2.72,21.44,21.44,0,0,0,5.09-5.32c.86-1.38,1.48-2.9,2.31-4.3a16.35,16.35,0,0,1,5-5.26c-4.45.43-7.46,4.59-9.88,8.34a11.29,11.29,0,0,1-3.85,4.17c-1.2.63-2.63.82-3.74,1.59a5.66,5.66,0,0,0-2.18,4.2,25.77,25.77,0,0,0,.69,6c2,3.73,4.73,5.91,8.08,9q.06-3.26.13-6.52a5.48,5.48,0,0,1,.28-1.93c.57-1.4,2.14-2.05,3.5-2.71a22.44,22.44,0,0,0,9.27-8.32C482.35,308.34,481.79,308.43,481.4,308.59Z" style="fill:#263238"></path><path d="M479.26,289.43l5.36,2.45c1.42-4.39,3-9,6.36-12.12a31.86,31.86,0,0,0,2.49-2.29,7.28,7.28,0,0,0,1-7.62,10.31,10.31,0,0,1-4.42.75,12.87,12.87,0,0,1-3.85,7.52c-1.36,1.3-3,2.29-4.28,3.67a10.06,10.06,0,0,0-2.52,8.07" style="fill:#263238"></path><path d="M465.61,273.36a13,13,0,0,0-2.38,4.09c-1.29,2.87-3.05,5.73-5.84,7.18-1.33.69-2.83,1-4.22,1.59a13.74,13.74,0,0,0-8,9.83l2.58,7.36a11.5,11.5,0,0,1,4.65-10.11c3.87-2.77,9.51-3.17,12.16-7.12,1.18-1.76,1.52-3.92,2.16-5.94a20.61,20.61,0,0,1,6.06-9.3C470.24,271.19,467.45,271.53,465.61,273.36Z" style="fill:#263238"></path><path d="M436.8,280.5c1.45-2,4.33-2.43,6.81-2.12s4.93,1.16,7.42.92a8.7,8.7,0,0,0,5.71-3c.93-1.1,1.58-2.41,2.54-3.48a15.7,15.7,0,0,1,4.27-3,38.65,38.65,0,0,1-5.06-1.28l-9.58-2.92a8.26,8.26,0,0,1,.54,2.69,1.07,1.07,0,0,1-.92,1.28c-3.62,1.17-8-.63-11.13,1.53,3.23.62,6.55,1.24,9.77.62a11.17,11.17,0,0,1,2.91-.41,2.42,2.42,0,0,1,2.26,1.59,2.34,2.34,0,0,1-1.64,2.56,6.81,6.81,0,0,1-3.3.07l-4.55-.65a10,10,0,0,0-3.31-.09c-2.67.54-4.46,3.27-4.75,6,.33.71,1.53.51,2-.32" style="fill:#263238"></path><path d="M432.4,254.93c0,1.17-1.13,2.22-2.1,2.89a16.93,16.93,0,0,1-3.17,1.47,11.38,11.38,0,0,0-3.93,2.58,6.44,6.44,0,0,0-1.82,4.25,7.92,7.92,0,0,1,6.37-2.22c1.3.15,2.62.62,3.88.27,1.43-.38,2.41-1.72,3.77-2.31,1.75-.77,3.82.64,5.16-.72Z" style="fill:#263238"></path><path d="M483.83,366.28A37.51,37.51,0,0,1,497,361.63a5.42,5.42,0,0,0,3.14-1.13A2.71,2.71,0,0,0,498,360l-8.17.5a5.32,5.32,0,0,0-2.17.43,5.49,5.49,0,0,0-2.14,2.55l-1.43,2.65" style="fill:#263238"></path><path d="M489.42,355.62c1.43-.09,2.87.28,4.3.14,1.6-.16,3.07-1,4.64-1.31s3.52-.05,4.29,1.36c.42.07.49-.59.32-1a4.28,4.28,0,0,0-2.69-2.32,17.19,17.19,0,0,0-3.87-.16,8.38,8.38,0,0,1-4-1.21c-.55-.33-1.17-.74-1.77-.52" style="fill:#263238"></path><path d="M507.85,336.55a4.66,4.66,0,0,1-3.29,6.68,16,16,0,0,0-3.11.46c-1.35.55-2.08,2-3.08,3a6.94,6.94,0,0,1-3.54,2,7.86,7.86,0,0,0,6.38-.8,9.18,9.18,0,0,1,2.87-1.57c1.4-.26,2.84.54,4.24.29a3.88,3.88,0,0,0,2.57-2.11,11.07,11.07,0,0,0,.95-3.3" style="fill:#263238"></path><path d="M487.72,338.42a7,7,0,0,0,4.91,1.51c1.95-.17,3.84-1.16,5.78-.86.81.13,1.56.48,2.37.64a2.49,2.49,0,0,0,2.29-.52c-1.14-.17-2-1.14-3-1.71-3-1.66-6.86.33-10-1-1.19-.49-2.16-1.42-3.36-1.87s-2.89-.16-3.26,1.07a19.35,19.35,0,0,1,4.89,3.19" style="fill:#263238"></path><path d="M496.39,323a5.31,5.31,0,0,1-3.14,7.53c-3.44,1.06-7.1-1.49-10.64-.86l8.09,2.6c1.52.49,3.2,1,4.67.38a6.87,6.87,0,0,0,2.38-1.95l2.07-2.29c.28-.31.58-.77.35-1.12" style="fill:#263238"></path><path d="M473.75,330.9a18,18,0,0,1,.54-3.57,6.48,6.48,0,0,1,1.17-2.57,5.39,5.39,0,0,1,2.18-1.48,8.38,8.38,0,0,1,3.25-.57,9.11,9.11,0,0,0,2.95-.06,8.47,8.47,0,0,0,2.82-2.08.47.47,0,0,1,.21-.11.34.34,0,0,1,.3.15,1.79,1.79,0,0,1,.28,1.68,4.07,4.07,0,0,1-1,1.47,5.3,5.3,0,0,1-2.12,1.52c-1,.33-2.05.22-3,.53a3.74,3.74,0,0,0-2.54,3.67c0,.6.22,1.19.25,1.79a1.8,1.8,0,0,1-.65,1.6" style="fill:#263238"></path><path d="M452.41,378l.75.34c2-1.17,2.24-4,3.71-5.77s4.22-2.36,6.5-3.27c.67-.27,1.42-.71,1.47-1.44a26.57,26.57,0,0,0-4.37,0,6.34,6.34,0,0,0-2.36.53,7.63,7.63,0,0,0-2.33,2.06c-.86,1-1.71,2-2.56,3" style="fill:#263238"></path><path d="M468.62,368.17a7.05,7.05,0,0,0-.39-3.94,3.51,3.51,0,0,0-3.12-2.14,23.12,23.12,0,0,1-2.7.47c-1.16-.09-2.08-1.07-3.21-1.34a5.58,5.58,0,0,0-2.56.18,5.6,5.6,0,0,1,5.56-2.29,11.63,11.63,0,0,0,1.74.34c1.15.05,2.21-.61,3.34-.86a5,5,0,0,1,5,1.88" style="fill:#263238"></path><path d="M456.45,351.46a2.67,2.67,0,0,0,2.13.1c.7-.21,1.36-.56,2.07-.73a4.38,4.38,0,0,1,4,1.1c.34.34.68.75,1.15.77.71,0,1.25-.9,1.94-.74-1.22-.2-1.76-1.6-2.53-2.58-1.23-1.57-3.33-2.15-5.3-2.51s-4.05-.64-5.63-1.87a3.66,3.66,0,0,0-1.37-.85c-.53-.1-1.2.32-1.08.85a1.16,1.16,0,0,0,.18.37l1.49,2.29a19.78,19.78,0,0,0,3.06,3.92" style="fill:#263238"></path><path d="M493.58,370.69a5.45,5.45,0,0,0-4.83-.37c-2.44,1-3.84,3.66-6.16,4.93a26.88,26.88,0,0,1-3.23,1.24,4.79,4.79,0,0,0-2.65,2.11,19.36,19.36,0,0,0,8.91-2,10.63,10.63,0,0,1,3.85-1.45" style="fill:#263238"></path><path d="M460.39,393.69l-2.68,1a6.55,6.55,0,0,1-2.29.54,2.17,2.17,0,0,1-1.95-1.1,2.39,2.39,0,0,1,.86-2.65c.76-.65,1.72-1,2.53-1.6a6.09,6.09,0,0,0,2.53-5.24c-.75,1.78-2.68,2.71-4.46,3.45s-3.73,1.59-4.57,3.32l6.08,8.45c1.51-.58,1.93-2.52,3.06-3.67s2.69-1.39,3.86-2.34C462.7,393,461.39,393.32,460.39,393.69Z" style="fill:#263238"></path><path d="M665.32,170.79a22,22,0,0,1,.14-2.68,18.38,18.38,0,0,0-1.63-7.2,1.14,1.14,0,0,0-.49-.69,1,1,0,0,0-.7.05,2.4,2.4,0,0,0-1.41,1.82c-.17,1.23.64,2.37.81,3.59.2,1.39-.42,2.75-.75,4.11a10.37,10.37,0,0,0,3.18,10l3.63-4.41C666.76,174,665.47,172.76,665.32,170.79Z" style="fill:#263238"></path><path d="M679.11,156.17A8.18,8.18,0,0,1,678,154.7a4.72,4.72,0,0,1,.48-4.22,1.68,1.68,0,0,0,.17-1L674.24,152a3.56,3.56,0,0,0,.35,3.6c.66,1.05,1.61,1.9,2.29,2.93a7.15,7.15,0,0,1,1.15,4.31,2.84,2.84,0,0,0,.37,1.28l3.3-3.15A15.76,15.76,0,0,0,679.11,156.17Z" style="fill:#263238"></path><path d="M693.76,142.58l-3.16,1.22c-.6,1.2-.05,1.47.56,2.66a22.31,22.31,0,0,0,3.65,4.07l2.61-1.7A39.32,39.32,0,0,1,693.76,142.58Z" style="fill:#263238"></path><path d="M451.81,342.7l-.34-.11-1-.37a19.34,19.34,0,0,1-3.64-1.83,41.1,41.1,0,0,1-10.64-10.46,127.36,127.36,0,0,1-11.31-19.08c-3.7-7.47-8.31-15.41-13.17-23.72-2.94-5-5.84-9.82-8.59-14.35l.12.11L368.34,258l-10.18-4.4-2.72-1.2-.7-.32-.23-.12a1,1,0,0,1,.25.08l.72.28,2.75,1.12,10.23,4.26,35,14.75.07,0,.05.07c2.76,4.52,5.65,9.35,8.59,14.35,4.87,8.31,9.47,16.26,13.16,23.76a128.83,128.83,0,0,0,11.18,19.08A41.78,41.78,0,0,0,447,340.22a21.39,21.39,0,0,0,3.57,1.91l1,.41A1.41,1.41,0,0,1,451.81,342.7Z" style="fill:#263238"></path><path d="M549.5,301.88a4.37,4.37,0,0,1,.81.11l1,.17,1.3.36a21.22,21.22,0,0,1,7.41,4.19,31.34,31.34,0,0,1,7.66,10,43.15,43.15,0,0,1,4.14,14.91,47.49,47.49,0,0,1-1,15.45,46.18,46.18,0,0,1-4.52,11.82c-.86,1.59-1.74,3-2.42,4.21a20.53,20.53,0,0,0-1.53,3.3,17.33,17.33,0,0,0-.72,3,.67.67,0,0,1,0-.21c0-.14,0-.34,0-.6a11.67,11.67,0,0,1,.49-2.28,21.34,21.34,0,0,1,1.47-3.37c.66-1.27,1.52-2.66,2.36-4.24A47.23,47.23,0,0,0,570.31,347a47.77,47.77,0,0,0,1-15.3,43.21,43.21,0,0,0-4-14.75,31.41,31.41,0,0,0-7.47-10,21.52,21.52,0,0,0-7.24-4.27l-1.26-.41-1-.22A6.24,6.24,0,0,1,549.5,301.88Z" style="fill:#263238"></path><path d="M628.45,245.9l-.09.37c-.08.27-.19.63-.32,1.09-.3,1-.72,2.37-1.25,4.15-1.11,3.64-2.69,8.85-4.65,15.27s-4.27,14.14-6.73,22.7c-1.22,4.28-2.52,8.78-3.65,13.48s-2.14,9.63-3.28,14.64a147,147,0,0,1-4,14.51,67.63,67.63,0,0,1-5.74,12.77A49.39,49.39,0,0,1,591.08,355a37.4,37.4,0,0,1-8.89,6.55,42.86,42.86,0,0,1-8.54,3.16L567,366.44l-4.2,1.1-1.09.27-.38.08a1.5,1.5,0,0,1,.36-.13l1.09-.32,4.17-1.2,6.61-1.86a43.84,43.84,0,0,0,8.45-3.21,37,37,0,0,0,8.76-6.53,49.12,49.12,0,0,0,7.59-10A68.31,68.31,0,0,0,604.05,332,148,148,0,0,0,608,317.49c1.14-5,2.15-9.93,3.29-14.65s2.46-9.21,3.69-13.49c2.49-8.56,4.85-16.23,6.84-22.67s3.65-11.64,4.8-15.23l1.35-4.12.36-1.07A2.11,2.11,0,0,1,628.45,245.9Z" style="fill:#263238"></path><path d="M313.32,222.89a5,5,0,0,1-.68,2.19c-.51,1.16-1,2-1.16,2a5,5,0,0,1,.68-2.19A5.36,5.36,0,0,1,313.32,222.89Z" style="fill:#263238"></path><path d="M312.4,239.3c0,.07-.29.19-.82.18a2.85,2.85,0,0,1-1.88-.76,2.5,2.5,0,0,1-.78-1.9c0-.54.26-.81.31-.78s0,.32.06.77a2.57,2.57,0,0,0,.77,1.53C311.09,239.29,312.41,239.14,312.4,239.3Z" style="fill:#263238"></path><path d="M316.09,237.84c0,.13-.93-.16-1.55-1.08s-.58-1.84-.45-1.83.33.76.88,1.54S316.16,237.7,316.09,237.84Z" style="fill:#263238"></path><path d="M325.19,241c0-.16,1.31,0,2.35-1a2.55,2.55,0,0,0,.76-1.52c.06-.45,0-.75.06-.78s.27.25.31.79a2.44,2.44,0,0,1-.78,1.89,2.87,2.87,0,0,1-1.88.77C325.48,241.14,325.18,241,325.19,241Z" style="fill:#263238"></path><path d="M321.7,240c-.07-.14.59-.59,1.12-1.37s.72-1.56.87-1.54.19.93-.44,1.83S321.74,240.12,321.7,240Z" style="fill:#263238"></path><path d="M704,139c.11.28,2.21,4.93,2.21,4.93l2.7-1.23-1.78-4.61Z" style="fill:#263238"></path><polygon points="714.56 140.57 715.11 136.13 715.81 135.97 716.3 140.01 714.56 140.57" style="fill:#263238"></polygon></g></svg>