<svg xmlns="http://www.w3.org/2000/svg" viewBox="0 0 500 500"><g id="freepik--Floor--inject-4"><g id="freepik--Grass--inject-4"><ellipse id="freepik--grass--inject-4" cx="250" cy="342.69" rx="242.14" ry="139.8" style="fill:#8758FF"></ellipse><ellipse id="freepik--grass--inject-4" cx="250" cy="342.69" rx="242.14" ry="139.8" style="fill:#fff;opacity:0.7000000000000001"></ellipse></g></g><g id="freepik--Shadows--inject-4"><path id="freepik--Shadow--inject-4" d="M140.76,449.41c-18.13-5.3-35.11-15.17-47.28-29.27-5.82-6.74-8.66-15.67-14.8-22a99.84,99.84,0,0,0-21.07-16.93c-8.79-5.26-18-9.85-26.71-15.23-4.91-3-9.82-6.26-13.52-10.69-.67-.8-1.33-1.84-1-2.82.59-1.72,3.14-1.23,4.76-.42,21.8,10.92,44.63,21.9,69,22.15,9.25.1,18.44-1.37,27.68-1.81a74.75,74.75,0,0,1,15.1.64c4.7.75,8.43,2.5,12.69,4.32,4.68,2,10.52,2.48,15.43,4s9.77,3.25,14.62,5A236.7,236.7,0,0,1,202.11,397c3.34,1.66,7,2.09,10.43,3.72a46.31,46.31,0,0,1,11.2,7.16c5.11,4.62,8.53,10.68,12.49,16.23,1.27,1.78,2.58,3.55,3.91,5.29a17.15,17.15,0,0,0,3.91,4.24,22.6,22.6,0,0,1,3.28,2.15A10.73,10.73,0,0,1,249,438a32.72,32.72,0,0,1,2.54,4.65,16.9,16.9,0,0,1,1.45,4.5c.27,3.08-2.39,4.17-4.92,4.47-4.28.51-8.75,1-12.78-.52-3.49-1.32-6.37-4.05-10-5.06-2.88-.8-5.89-.41-8.78.11s-5.73.79-8.57,1.47c-5.95,1.44-11.71,4.14-17.71,5a127.12,127.12,0,0,1-19,1.37A112.73,112.73,0,0,1,140.76,449.41Z" style="opacity:0.05"></path><path id="freepik--shadow--inject-4" d="M196.5,307.75c-4.22-4.28-11.6-7.37-17.34-3.52-5.9,4-5.35,14.59-4.81,20.64.88,9.93,2.6,20.08,7.72,28.64,6,10,18.67,20.69,30.23,23.31,28.54,6.46,58.82,6.1,87.54.86a253,253,0,0,0,49.46-14.12c16.11-6.51,31.58-15,45-26,2.9-2.39,5.7-4.9,8.37-7.53,2.92-2.87,5.94-5.4,8.16-8.94a33.73,33.73,0,0,1,2.86-4.45c1.8-2.09,4.38-3.31,6.76-4.7a45.82,45.82,0,0,0,12.79-11,1.09,1.09,0,0,1,.48-.4c.4-.11.75.28,1,.63a25.14,25.14,0,0,1,4,16.29c-.62,9.34-4.37,18.33-12.14,23.93a42.73,42.73,0,0,1-4.8,2.93,31.71,31.71,0,0,1-10.31,3.85c-2.11.3-4.28.26-6.38.67-.49.1-1.08.34-1.12.84s.52.82,1,1c5.48,2,11.6,1.52,17.17-.19,12.74-3.93,24.36-12.17,30.29-24.33,4.77-9.8,5.1-22.11-.8-31.28s-16.9-13.9-27.71-15.21-21.73.3-32.59,1.08c-23.95,1.73-48.13-.53-71.93,2.6a160.56,160.56,0,0,0-62.49,22.06c-9.41,5.75-18.41,12.55-28.94,15.83-5.6,1.74-11.53,2.38-16.49-1A99,99,0,0,1,196.5,307.75Z" style="opacity:0.05"></path></g><g id="freepik--Trees--inject-4"><g id="freepik--Tree--inject-4"><path d="M104.17,173.91a7.37,7.37,0,0,1,4,.73c2.4,1.16,4.39,3,6.52,4.61s4.56,3,7.23,3.12,5.54-1.57,6-4.19a4,4,0,0,1,.35-1.34,2,2,0,0,1,2.27-.59,12.08,12.08,0,0,1,2.2,1.27c2.7,1.59,6.07,1.23,9.17.78,2.58-.37,5.84-1.51,5.83-4.12,0-1.7-1.49-3-2.66-4.19s-2.12-3.21-1.05-4.53a3.07,3.07,0,0,1,1.49-.91c3.22-1.05,7.17.35,9.89-1.67a5.69,5.69,0,0,0,1.43-6.82,8.65,8.65,0,0,0-5.81-4.43c-2.16-.55-4.91-.8-5.72-2.89-.7-1.82.71-3.8,2.32-4.92s3.53-1.91,4.65-3.52a5.59,5.59,0,0,0,.15-5.77,7,7,0,0,0-4.86-3.33,10.73,10.73,0,0,1-2.94-.65,2,2,0,0,1-1.09-2.48c.29-.53.9-.81,1.26-1.3.68-1,.09-2.38-.87-3.07a12.39,12.39,0,0,0-3.3-1.26c-2.33-.78-4.6-3-3.91-5.41s4.08-3.26,5.08-5.62c.88-2.09-.52-4.53-2.4-5.81s-4.15-1.8-6.2-2.77-4-2.68-4.21-5,1.57-4.27,3-6.11,2.62-4.42,1.38-6.39-3.83-2-6-2.68a9.7,9.7,0,0,1-5.88-5.3c-.57-1.31-.84-2.74-1.52-4-2.11-3.9-7.42-5.61-11.54-5.13-2.15.25-2.87,1.08-3.92,2.66a6.33,6.33,0,0,0-1.44,2.7c-.31,1.89.69,4.29-1.09,5.73-2.7,2.18-6.84-.76-6.69,4.13a20.61,20.61,0,0,0,.91,6.09c.73,2.06,2.21,3,1,5.25-1.58,3-2.62,3-5.81,3-2.3,0-4.22-.13-5.91,1.62-3,3.07-1.21,5.85,1.43,8.22,3,2.69,1.41,3.87,1,7.35-.19,1.68.19,2.2-1.31,3.31-2.83,2.11-4.42,1.4-3.62,5.53.73,3.76-.4,2.47-3.66,3.88-2.9,1.24-4.81,4.36-7.15,6.3-1.51,1.25-3.81,2.22-3.95,4.42-.27,4.19,4.95,3.28,7.43,4.28,4.06,1.64,2.85,7-.31,9-3.36,2.11-8.25,2.89-8.52,7.7-.21,3.69,1.89,4.51,4.75,5.74,2.29,1,2,1.27,2,4,0,5.5,1.85,7.06,7.28,6.16,1.48-.24,3.75-.87,5.23-.42,2.07.62,1.37,1.13,1.43,2.86.15,4.45,5.32,3.2,7.51,1.29C97.57,176.79,100.74,174.25,104.17,173.91Z" style="fill:#8758FF"></path><path d="M104.17,173.91a7.37,7.37,0,0,1,4,.73c2.4,1.16,4.39,3,6.52,4.61s4.56,3,7.23,3.12,5.54-1.57,6-4.19a4,4,0,0,1,.35-1.34,2,2,0,0,1,2.27-.59,12.08,12.08,0,0,1,2.2,1.27c2.7,1.59,6.07,1.23,9.17.78,2.58-.37,5.84-1.51,5.83-4.12,0-1.7-1.49-3-2.66-4.19s-2.12-3.21-1.05-4.53a3.07,3.07,0,0,1,1.49-.91c3.22-1.05,7.17.35,9.89-1.67a5.69,5.69,0,0,0,1.43-6.82,8.65,8.65,0,0,0-5.81-4.43c-2.16-.55-4.91-.8-5.72-2.89-.7-1.82.71-3.8,2.32-4.92s3.53-1.91,4.65-3.52a5.59,5.59,0,0,0,.15-5.77,7,7,0,0,0-4.86-3.33,10.73,10.73,0,0,1-2.94-.65,2,2,0,0,1-1.09-2.48c.29-.53.9-.81,1.26-1.3.68-1,.09-2.38-.87-3.07a12.39,12.39,0,0,0-3.3-1.26c-2.33-.78-4.6-3-3.91-5.41s4.08-3.26,5.08-5.62c.88-2.09-.52-4.53-2.4-5.81s-4.15-1.8-6.2-2.77-4-2.68-4.21-5,1.57-4.27,3-6.11,2.62-4.42,1.38-6.39-3.83-2-6-2.68a9.7,9.7,0,0,1-5.88-5.3c-.57-1.31-.84-2.74-1.52-4-2.11-3.9-7.42-5.61-11.54-5.13-2.15.25-2.87,1.08-3.92,2.66a6.33,6.33,0,0,0-1.44,2.7c-.31,1.89.69,4.29-1.09,5.73-2.7,2.18-6.84-.76-6.69,4.13a20.61,20.61,0,0,0,.91,6.09c.73,2.06,2.21,3,1,5.25-1.58,3-2.62,3-5.81,3-2.3,0-4.22-.13-5.91,1.62-3,3.07-1.21,5.85,1.43,8.22,3,2.69,1.41,3.87,1,7.35-.19,1.68.19,2.2-1.31,3.31-2.83,2.11-4.42,1.4-3.62,5.53.73,3.76-.4,2.47-3.66,3.88-2.9,1.24-4.81,4.36-7.15,6.3-1.51,1.25-3.81,2.22-3.95,4.42-.27,4.19,4.95,3.28,7.43,4.28,4.06,1.64,2.85,7-.31,9-3.36,2.11-8.25,2.89-8.52,7.7-.21,3.69,1.89,4.51,4.75,5.74,2.29,1,2,1.27,2,4,0,5.5,1.85,7.06,7.28,6.16,1.48-.24,3.75-.87,5.23-.42,2.07.62,1.37,1.13,1.43,2.86.15,4.45,5.32,3.2,7.51,1.29C97.57,176.79,100.74,174.25,104.17,173.91Z" style="opacity:0.15"></path><path d="M145.53,164.55c2.47-.81,5.37-.18,7.82-.75a29.69,29.69,0,0,0-4.38-.69,12.42,12.42,0,0,0-9.46,3.75,8.54,8.54,0,0,1,1.9,5.67c-6.14,1.67-12.19-6.57-18-4.06.36,3,0,7-2.88,7.62-1.7.38-3.41-.75-4.47-2.15s-1.7-3.05-2.76-4.44a9.42,9.42,0,0,0-12.5-1.82c-1.47,1.06-5.52,3.87-6.31.41a5.17,5.17,0,0,0-.58-2.21,6.89,6.89,0,0,0-1-.85,2.41,2.41,0,0,1-.45-2.88,9.86,9.86,0,0,0,8.88-1.77,2.46,2.46,0,0,0,.93-1.24c.35-1.4-1.45-2.77-.89-4.09a5.18,5.18,0,0,1,.83-1.05c1-1.29.55-3.22-.4-4.54-.69-1-1.66-2-1.27-3.1a3,3,0,0,1,1.53-1.42c2.41-1.33,4.93-2.69,7.68-2.91a26.67,26.67,0,0,0,3.35-.21,3.23,3.23,0,0,0,2.55-1.95c.48-1.53-.81-3.07-2.22-3.82a8.27,8.27,0,0,0-5.21-.84c-1.22.21-2.53.69-3.65.14s-1.62-2.07-2.71-2.8-2.92-.49-4.33-1a3.83,3.83,0,0,1-1.38-6.5c.36-.33.81-.64.85-1.12a1.18,1.18,0,0,0-.89-1.09c-.47-.17-1-.17-1.47-.33-1.61-.52-2.14-2.46-2.25-4-.14-2,1.43-2.93,1.92-4.75,1-3.8-2.42-7.41-6-9A22.68,22.68,0,0,1,84.09,103l-.13-.1c.09,1.72,1.37,3.31,3,4.76,3,2.69,1.41,3.87,1,7.35-.19,1.68.19,2.2-1.31,3.31-2.83,2.11-4.42,1.4-3.62,5.53.73,3.76-.4,2.47-3.66,3.88-2.9,1.24-4.81,4.36-7.15,6.3-1.51,1.25-3.81,2.22-3.95,4.42-.27,4.19,4.95,3.28,7.43,4.28,4.06,1.64,2.85,7-.31,9-3.36,2.11-8.25,2.89-8.52,7.7-.21,3.69,1.89,4.51,4.75,5.74,2.29,1,2,1.27,2,4,0,5.5,1.85,7.06,7.28,6.16,1.48-.24,3.75-.87,5.23-.42,2.07.62,1.37,1.13,1.43,2.86.15,4.45,5.32,3.2,7.51,1.29,2.52-2.19,5.69-4.73,9.12-5.07a7.37,7.37,0,0,1,4,.73c2.4,1.16,4.39,3,6.52,4.61s4.56,3,7.23,3.12,5.54-1.57,6-4.19a4,4,0,0,1,.35-1.34,2,2,0,0,1,2.27-.59,12.08,12.08,0,0,1,2.2,1.27c2.7,1.59,6.07,1.23,9.17.78,2.58-.37,5.84-1.51,5.83-4.12,0-1.7-1.49-3-2.66-4.19s-2.12-3.21-1.05-4.53A3.07,3.07,0,0,1,145.53,164.55Z" style="opacity:0.15"></path><path d="M95.71,128.6,110.51,158V144.44L112,86.93l2.19,57.51v9.09l16.27-28.44L114.2,160v90.45a.92.92,0,0,1-.54.75,2.86,2.86,0,0,1-2.61,0,.92.92,0,0,1-.54-.75v-85Z" style="fill:#8758FF"></path><path d="M95.71,128.6,110.51,158V144.44L112,86.93l2.19,57.51v9.09l16.27-28.44L114.2,160v90.45a.92.92,0,0,1-.54.75,2.86,2.86,0,0,1-2.61,0,.92.92,0,0,1-.54-.75v-85Z" style="opacity:0.45"></path></g><g id="freepik--tree--inject-4"><path d="M456.06,167.08a7.13,7.13,0,0,0-3.85.7c-2.32,1.12-4.24,2.9-6.29,4.45s-4.41,2.93-7,3-5.35-1.51-5.81-4.05a3.72,3.72,0,0,0-.33-1.28,1.88,1.88,0,0,0-2.2-.57,12.5,12.5,0,0,0-2.12,1.22c-2.6,1.54-5.86,1.19-8.85.76-2.49-.37-5.63-1.47-5.62-4,0-1.64,1.44-2.85,2.57-4s2-3.1,1-4.37a3,3,0,0,0-1.44-.89c-3.11-1-6.92.34-9.55-1.61a5.49,5.49,0,0,1-1.38-6.58,8.38,8.38,0,0,1,5.61-4.27c2.09-.53,4.74-.78,5.52-2.79.68-1.76-.69-3.66-2.23-4.75s-3.42-1.84-4.49-3.39a5.36,5.36,0,0,1-.15-5.57,6.8,6.8,0,0,1,4.69-3.22,10.08,10.08,0,0,0,2.84-.62,1.9,1.9,0,0,0,1.05-2.4c-.28-.51-.87-.77-1.21-1.25a2.27,2.27,0,0,1,.84-3,11.46,11.46,0,0,1,3.17-1.22c2.26-.75,4.45-2.94,3.78-5.22s-3.94-3.14-4.9-5.42c-.85-2,.5-4.38,2.31-5.61s4-1.74,6-2.67,3.9-2.59,4.06-4.78-1.52-4.12-2.89-5.9-2.53-4.26-1.33-6.16,3.7-1.94,5.76-2.59A9.33,9.33,0,0,0,439.3,74c.55-1.27.82-2.65,1.47-3.86,2-3.77,7.17-5.42,11.14-5,2.08.24,2.77,1,3.78,2.57a6,6,0,0,1,1.39,2.6c.3,1.82-.66,4.14,1.05,5.53,2.61,2.11,6.6-.73,6.46,4a19.9,19.9,0,0,1-.88,5.88c-.71,2-2.13,2.84-.95,5.06,1.54,2.87,2.54,2.86,5.61,2.85,2.22,0,4.07-.12,5.71,1.57,2.86,3,1.16,5.64-1.39,7.93-2.89,2.59-1.35,3.73-1,7.1.18,1.61-.19,2.11,1.26,3.19,2.74,2,4.27,1.35,3.5,5.33-.7,3.63.38,2.39,3.53,3.74,2.79,1.2,4.64,4.21,6.9,6.09,1.46,1.21,3.68,2.14,3.81,4.26.26,4-4.78,3.16-7.17,4.13-3.92,1.58-2.75,6.72.3,8.64,3.24,2,8,2.79,8.22,7.43.2,3.56-1.82,4.35-4.59,5.54-2.2,1-1.92,1.23-1.92,3.86,0,5.31-1.78,6.81-7,5.95-1.44-.24-3.62-.85-5.05-.42-2,.6-1.33,1.1-1.38,2.77C472,175,467,173.81,464.86,172,462.43,169.86,459.37,167.4,456.06,167.08Z" style="fill:#8758FF"></path><path d="M456.06,167.08a7.13,7.13,0,0,0-3.85.7c-2.32,1.12-4.24,2.9-6.29,4.45s-4.41,2.93-7,3-5.35-1.51-5.81-4.05a3.72,3.72,0,0,0-.33-1.28,1.88,1.88,0,0,0-2.2-.57,12.5,12.5,0,0,0-2.12,1.22c-2.6,1.54-5.86,1.19-8.85.76-2.49-.37-5.63-1.47-5.62-4,0-1.64,1.44-2.85,2.57-4s2-3.1,1-4.37a3,3,0,0,0-1.44-.89c-3.11-1-6.92.34-9.55-1.61a5.49,5.49,0,0,1-1.38-6.58,8.38,8.38,0,0,1,5.61-4.27c2.09-.53,4.74-.78,5.52-2.79.68-1.76-.69-3.66-2.23-4.75s-3.42-1.84-4.49-3.39a5.36,5.36,0,0,1-.15-5.57,6.8,6.8,0,0,1,4.69-3.22,10.08,10.08,0,0,0,2.84-.62,1.9,1.9,0,0,0,1.05-2.4c-.28-.51-.87-.77-1.21-1.25a2.27,2.27,0,0,1,.84-3,11.46,11.46,0,0,1,3.17-1.22c2.26-.75,4.45-2.94,3.78-5.22s-3.94-3.14-4.9-5.42c-.85-2,.5-4.38,2.31-5.61s4-1.74,6-2.67,3.9-2.59,4.06-4.78-1.52-4.12-2.89-5.9-2.53-4.26-1.33-6.16,3.7-1.94,5.76-2.59A9.33,9.33,0,0,0,439.3,74c.55-1.27.82-2.65,1.47-3.86,2-3.77,7.17-5.42,11.14-5,2.08.24,2.77,1,3.78,2.57a6,6,0,0,1,1.39,2.6c.3,1.82-.66,4.14,1.05,5.53,2.61,2.11,6.6-.73,6.46,4a19.9,19.9,0,0,1-.88,5.88c-.71,2-2.13,2.84-.95,5.06,1.54,2.87,2.54,2.86,5.61,2.85,2.22,0,4.07-.12,5.71,1.57,2.86,3,1.16,5.64-1.39,7.93-2.89,2.59-1.35,3.73-1,7.1.18,1.61-.19,2.11,1.26,3.19,2.74,2,4.27,1.35,3.5,5.33-.7,3.63.38,2.39,3.53,3.74,2.79,1.2,4.64,4.21,6.9,6.09,1.46,1.21,3.68,2.14,3.81,4.26.26,4-4.78,3.16-7.17,4.13-3.92,1.58-2.75,6.72.3,8.64,3.24,2,8,2.79,8.22,7.43.2,3.56-1.82,4.35-4.59,5.54-2.2,1-1.92,1.23-1.92,3.86,0,5.31-1.78,6.81-7,5.95-1.44-.24-3.62-.85-5.05-.42-2,.6-1.33,1.1-1.38,2.77C472,175,467,173.81,464.86,172,462.43,169.86,459.37,167.4,456.06,167.08Z" style="opacity:0.15"></path><path d="M416.15,158c-2.39-.78-5.18-.17-7.55-.72a29,29,0,0,1,4.23-.67,12,12,0,0,1,9.13,3.62,8.21,8.21,0,0,0-1.84,5.48c5.93,1.61,11.77-6.34,17.42-3.93-.35,2.87,0,6.73,2.78,7.36,1.64.37,3.29-.73,4.31-2.07s1.64-3,2.67-4.29a9.08,9.08,0,0,1,12.06-1.75c1.66,1.2,4.49,3,6.37,1.21a6.39,6.39,0,0,0,1.51-3.43,3.83,3.83,0,0,0,0-2.25c-.36-.84-1.31-1.56-1.06-2.44a1.43,1.43,0,0,1,1.42-.9,6.38,6.38,0,0,1,1.76.43,7,7,0,0,0,5.5-.4,4.75,4.75,0,0,0,2.42-4.74c-.55-3-4.16-4.3-6.22-6.61a7.58,7.58,0,0,1-1.68-6.73,12.49,12.49,0,0,0,.44-1.88c.15-2.17-1.83-4.14-1.45-6.28.42-2.33,3.41-3.57,3.68-5.91.18-1.47-.8-2.8-1.72-4-2-2.53-4.67-5.72-4.85-9.16s3.09-6.31,6-7.56a21.06,21.06,0,0,0,4-1.84l.13-.09c-.09,1.66-1.32,3.2-2.87,4.59-2.89,2.59-1.35,3.73-1,7.1.18,1.61-.19,2.11,1.26,3.19,2.74,2,4.27,1.35,3.5,5.33-.7,3.63.38,2.39,3.53,3.74,2.79,1.2,4.64,4.21,6.9,6.09,1.46,1.21,3.68,2.14,3.81,4.26.26,4-4.78,3.16-7.17,4.13-3.92,1.58-2.75,6.72.3,8.64,3.24,2,8,2.79,8.22,7.43.2,3.56-1.82,4.35-4.59,5.54-2.2,1-1.92,1.23-1.92,3.86,0,5.31-1.78,6.81-7,5.95-1.44-.24-3.62-.85-5.05-.42-2,.6-1.33,1.1-1.38,2.77C472,175,467,173.81,464.86,172c-2.43-2.11-5.49-4.57-8.8-4.89a7.13,7.13,0,0,0-3.85.7c-2.32,1.12-4.24,2.9-6.29,4.45s-4.41,2.93-7,3-5.35-1.51-5.81-4.05a3.72,3.72,0,0,0-.33-1.28,1.88,1.88,0,0,0-2.2-.57,12.5,12.5,0,0,0-2.12,1.22c-2.6,1.54-5.86,1.19-8.85.76-2.49-.37-5.63-1.47-5.62-4,0-1.64,1.44-2.85,2.56-4s2.05-3.1,1-4.37A3,3,0,0,0,416.15,158Z" style="opacity:0.15"></path><path d="M464.22,123.36l-14.28,28.32v-13l-1.45-55.5-2.11,55.5v8.77L430.68,120l15.7,33.68V268a.87.87,0,0,0,.52.72,2.8,2.8,0,0,0,2.52,0,.87.87,0,0,0,.52-.72V158.9Z" style="fill:#8758FF"></path><path d="M464.22,123.36l-14.28,28.32v-13l-1.45-55.5-2.11,55.5v8.77L430.68,120l15.7,33.68V268a.87.87,0,0,0,.52.72,2.8,2.8,0,0,0,2.52,0,.87.87,0,0,0,.52-.72V158.9Z" style="opacity:0.45"></path></g><g id="freepik--tree--inject-4"><path d="M51.64,152.73a8.8,8.8,0,0,1,4.79.87c2.88,1.39,5.26,3.6,7.82,5.53s5.47,3.64,8.66,3.74,6.65-1.88,7.23-5a4.61,4.61,0,0,1,.41-1.6,2.34,2.34,0,0,1,2.73-.7,14.47,14.47,0,0,1,2.63,1.52c3.23,1.91,7.28,1.47,11,.93,3.09-.45,7-1.81,7-4.93,0-2-1.79-3.55-3.19-5s-2.54-3.85-1.26-5.43a3.74,3.74,0,0,1,1.79-1.1c3.86-1.25,8.59.42,11.86-2,2.42-1.79,3-5.44,1.71-8.17a10.37,10.37,0,0,0-7-5.31c-2.6-.66-5.89-1-6.86-3.46-.85-2.19.85-4.56,2.78-5.9s4.23-2.29,5.57-4.22a6.67,6.67,0,0,0,.19-6.92,8.45,8.45,0,0,0-5.83-4,12.66,12.66,0,0,1-3.53-.78c-1.08-.54-1.89-1.91-1.31-3,.35-.64,1.09-1,1.51-1.56.82-1.16.11-2.86-1-3.68A14.37,14.37,0,0,0,95.37,91c-2.8-.94-5.52-3.65-4.69-6.49s4.89-3.91,6.09-6.74c1.06-2.51-.62-5.43-2.87-7s-5-2.15-7.44-3.31-4.84-3.22-5-5.93S83.3,56.46,85,54.25s3.14-5.3,1.66-7.66-4.6-2.4-7.16-3.21a11.61,11.61,0,0,1-7-6.35c-.68-1.57-1-3.29-1.82-4.79-2.53-4.68-8.9-6.73-13.84-6.16-2.58.31-3.44,1.3-4.7,3.2-.72,1.12-1.46,1.69-1.72,3.23-.37,2.27.82,5.14-1.31,6.87-3.24,2.62-8.2-.91-8,4.95a24.8,24.8,0,0,0,1.09,7.31c.88,2.46,2.65,3.53,1.18,6.28-1.9,3.58-3.15,3.56-7,3.55-2.77,0-5.07-.15-7.1,1.94-3.56,3.68-1.44,7,1.72,9.86,3.6,3.22,1.69,4.63,1.22,8.82-.22,2,.23,2.63-1.56,4-3.41,2.53-5.31,1.68-4.35,6.63.87,4.51-.47,3-4.39,4.65-3.47,1.49-5.76,5.23-8.57,7.56-1.81,1.5-4.56,2.66-4.73,5.29-.33,5,5.93,3.93,8.91,5.13,4.86,2,3.41,8.35-.38,10.73-4,2.53-9.89,3.47-10.21,9.23-.25,4.43,2.27,5.41,5.7,6.89C15.36,143.34,15,143.68,15,147c0,6.6,2.22,8.47,8.72,7.39,1.78-.29,4.5-1.05,6.28-.51,2.48.75,1.64,1.36,1.71,3.44.18,5.32,6.38,3.82,9,1.54C43.74,156.18,47.54,153.14,51.64,152.73Z" style="fill:#8758FF"></path><path d="M101.23,141.5c3-1,6.44-.2,9.37-.89a34.88,34.88,0,0,0-5.25-.83A14.9,14.9,0,0,0,94,144.28a10.18,10.18,0,0,1,2.28,6.8c-7.36,2-14.62-7.88-21.63-4.88.42,3.57,0,8.36-3.46,9.14-2,.46-4.09-.9-5.35-2.57s-2-3.67-3.32-5.33a11.29,11.29,0,0,0-15-2.18c-1.9,1.38-4.28,3.47-6.19,2.09s-.79-5.49-3-6.61c-1.49-.75-3.6.44-4.85-.67a3.39,3.39,0,0,1-.86-1.84c-.89-3.76-1.67-8.12.7-11.17,2.11-2.73,6.58-4.4,6.1-7.81-.41-2.92-4.12-3.8-7-4.14s-6.63-1.72-6.48-4.66,4.05-4.27,4.63-7.1c.24-1.21-.17-2.56.39-3.66.83-1.66,3.21-1.73,4.6-3,2.5-2.21.56-6.35,1.27-9.62.5-2.3,2.37-4.11,3-6.39C41,76.16,36.85,71.83,32.51,70a27,27,0,0,1-4.93-2.29c-.06,0-.1-.08-.16-.11.11,2.06,1.64,4,3.56,5.7,3.6,3.22,1.69,4.63,1.22,8.82-.22,2,.23,2.63-1.57,4-3.4,2.53-5.3,1.68-4.34,6.63.87,4.51-.47,3-4.39,4.65-3.47,1.49-5.76,5.23-8.57,7.56-1.81,1.5-4.56,2.66-4.73,5.29-.33,5,5.93,3.93,8.91,5.13,4.86,2,3.41,8.35-.38,10.73-4,2.53-9.89,3.47-10.21,9.23-.25,4.43,2.27,5.41,5.7,6.89C15.36,143.34,15,143.68,15,147c0,6.6,2.22,8.47,8.72,7.39,1.78-.29,4.5-1.05,6.28-.51,2.48.75,1.64,1.36,1.71,3.44.18,5.32,6.38,3.82,9,1.54,3-2.63,6.83-5.67,10.93-6.08a8.8,8.8,0,0,1,4.79.87c2.88,1.39,5.26,3.6,7.82,5.53s5.47,3.64,8.66,3.74,6.65-1.88,7.23-5a4.61,4.61,0,0,1,.41-1.6,2.34,2.34,0,0,1,2.73-.7,14.47,14.47,0,0,1,2.63,1.52c3.23,1.91,7.28,1.47,11,.93,3.09-.45,7-1.81,7-4.93,0-2-1.79-3.55-3.19-5s-2.54-3.85-1.26-5.43A3.74,3.74,0,0,1,101.23,141.5Z" style="opacity:0.15"></path><path d="M41.5,98.42l17.75,35.17V117.4l1.8-68.95,2.63,69v10.89L83.18,94.2l-19.5,41.85V279a1.11,1.11,0,0,1-.65.91,3.45,3.45,0,0,1-3.13,0,1.09,1.09,0,0,1-.65-.91V142.57Z" style="fill:#8758FF"></path><path d="M41.5,98.42l17.75,35.17V117.4l1.8-68.95,2.63,69v10.89L83.18,94.2l-19.5,41.85V279a1.11,1.11,0,0,1-.65.91,3.45,3.45,0,0,1-3.13,0,1.09,1.09,0,0,1-.65-.91V142.57Z" style="opacity:0.4"></path></g></g><g id="freepik--Rocks--inject-4"><g id="freepik--rocks--inject-4"><polygon id="freepik--shadow--inject-4" points="349.73 418.97 355.22 423.09 359.36 430.1 363.95 429.52 369.51 432.79 376.98 427.96 384.44 427.6 393.01 429.06 396.23 433.26 402.33 435.61 411.95 431.8 421.94 422.31 409.28 420.33 389.03 421.79 397.06 419.51 402.27 414.76 404.21 408.21 395.03 402.29 383.47 401.64 350.58 403.78 349.73 418.97" style="opacity:0.1"></polygon><g id="freepik--Rock--inject-4"><polygon points="393.77 398.82 394.36 405.85 388.23 403.28 380.31 406.54 376.54 410.5 373.18 418.62 369.51 430.1 366.64 419.71 373.18 410.5 379.34 404.66 387.83 402.48 393.77 398.82" style="fill:#263238"></polygon><polygon points="383.47 424.56 394.96 416.44 391.1 407.93 383.47 424.56" style="fill:#263238"></polygon><polygon points="381.89 388.23 393.77 398.82 387.83 402.48 379.34 404.66 373.18 410.5 376.94 403.28 382.98 397.24 381.89 388.23" style="fill:#37474f"></polygon><polygon points="373.18 387.14 358.03 395.36 352.59 401.79 361.79 403.97 373.18 410.5 376.94 403.28 372.19 395.36 373.18 387.14" style="fill:#37474f"></polygon><polygon points="388.23 403.28 380.31 406.54 376.54 410.5 373.18 418.62 374.86 426.54 383.47 424.56 391.1 407.93 388.23 403.28" style="fill:#37474f"></polygon><polygon points="358.03 395.36 347.54 400.8 343.28 402.29 342.39 405.45 346.75 409.41 366.05 417.73 368.06 415.69 361.69 408.82 356.55 408.82 352.59 401.79 358.03 395.36" style="fill:#37474f"></polygon><polygon points="352.59 401.79 356.55 408.82 361.69 408.82 361.79 403.97 352.59 401.79" style="fill:#263238"></polygon><polygon points="344.57 417.24 348.73 418.62 351 416.44 360.11 417.93 346.94 412.58 344.57 417.24" style="fill:#263238"></polygon><polygon points="363.91 418.96 360.11 417.93 356.05 421.99 359.42 427.23 363.91 418.96" style="fill:#37474f"></polygon><polygon points="394.36 405.85 398.82 412.98 394.96 416.44 391.1 407.93 388.23 403.28 394.36 405.85" style="fill:#455a64"></polygon><polygon points="369.51 430.1 374.86 426.54 373.18 418.62 369.51 430.1" style="fill:#455a64"></polygon><polygon points="373.18 410.5 368.06 415.69 361.69 408.82 361.79 403.97 373.18 410.5" style="fill:#455a64"></polygon><polygon points="373.18 387.14 381.89 388.23 382.98 397.24 376.94 403.28 372.19 395.36 373.18 387.14" style="fill:#455a64"></polygon><polygon points="338.92 405.55 336.35 411.19 344.57 417.24 346.94 412.58 338.92 405.55" style="fill:#455a64"></polygon><polygon points="369.51 430.1 359.42 427.23 363.91 418.96 366.64 419.71 369.51 430.1" style="fill:#455a64"></polygon><polygon points="348.73 418.62 356.05 421.99 360.11 417.93 351 416.44 348.73 418.62" style="fill:#455a64"></polygon><polygon points="364.34 391.94 358.63 397.53 357.14 400.8 362.29 401.49 373.18 410.5 361.79 403.97 352.59 401.79 358.03 395.36 364.34 391.94" style="fill:#455a64"></polygon><polygon points="381.89 388.23 381 396.64 375.7 401.22 376.94 403.28 382.98 397.24 381.89 388.23" style="fill:#455a64"></polygon><polygon points="366.64 419.71 360.11 417.93 346.94 412.58 338.92 405.55 342.39 401.22 347.54 400.8 343.28 402.29 342.39 405.45 346.75 409.41 366.05 417.73 373.18 410.5 366.64 419.71" style="fill:#455a64"></polygon><g style="opacity:0.1"><polygon points="364.34 391.94 358.63 397.53 357.14 400.8 362.29 401.49 373.18 410.5 361.79 403.97 352.59 401.79 358.03 395.36 364.34 391.94" style="fill:#fff"></polygon><polygon points="381.89 388.23 381 396.64 375.7 401.22 376.94 403.28 382.98 397.24 381.89 388.23" style="fill:#fff"></polygon><polygon points="366.64 419.71 360.11 417.93 346.94 412.58 338.92 405.55 342.39 401.22 347.54 400.8 343.28 402.29 342.39 405.45 346.75 409.41 366.05 417.73 373.18 410.5 366.64 419.71" style="fill:#fff"></polygon></g></g><g id="freepik--rock--inject-4"><polygon points="415.69 415.57 416.02 419.44 412.64 418.02 408.27 419.82 406.2 422 404.35 426.47 402.33 432.79 400.75 427.07 404.35 422 407.74 418.78 412.42 417.58 415.69 415.57" style="fill:#263238"></polygon><polygon points="410.02 429.74 416.34 425.27 414.22 420.58 410.02 429.74" style="fill:#263238"></polygon><polygon points="409.15 409.74 415.69 415.57 412.42 417.58 407.74 418.78 404.35 422 406.42 418.02 409.75 414.69 409.15 409.74" style="fill:#37474f"></polygon><polygon points="404.35 409.13 396.01 413.66 393.01 417.2 398.08 418.4 404.35 422 406.42 418.02 403.81 413.66 404.35 409.13" style="fill:#37474f"></polygon><polygon points="412.64 418.02 408.27 419.82 406.2 422 404.35 426.47 405.28 430.83 410.02 429.74 414.22 420.58 412.64 418.02" style="fill:#37474f"></polygon><polygon points="396.01 413.66 390.23 416.66 387.89 417.48 387.4 419.22 389.79 421.4 400.43 425.98 401.54 424.86 398.03 421.07 395.19 421.07 393.01 417.2 396.01 413.66" style="fill:#37474f"></polygon><polygon points="393.01 417.2 395.19 421.07 398.03 421.07 398.08 418.4 393.01 417.2" style="fill:#263238"></polygon><polygon points="388.6 425.71 390.88 426.47 392.14 425.27 397.15 426.09 389.9 423.14 388.6 425.71" style="fill:#263238"></polygon><polygon points="399.25 426.66 397.15 426.09 394.92 428.32 396.77 431.21 399.25 426.66" style="fill:#37474f"></polygon><polygon points="416.02 419.44 418.47 423.36 416.34 425.27 414.22 420.58 412.64 418.02 416.02 419.44" style="fill:#455a64"></polygon><polygon points="402.33 432.79 405.28 430.83 404.35 426.47 402.33 432.79" style="fill:#455a64"></polygon><polygon points="404.35 422 401.54 424.86 398.03 421.07 398.08 418.4 404.35 422" style="fill:#455a64"></polygon><polygon points="404.35 409.13 409.15 409.74 409.75 414.69 406.42 418.02 403.81 413.66 404.35 409.13" style="fill:#455a64"></polygon><polygon points="385.49 419.27 384.07 422.38 388.6 425.71 389.9 423.14 385.49 419.27" style="fill:#455a64"></polygon><polygon points="402.33 432.79 396.77 431.21 399.25 426.66 400.75 427.07 402.33 432.79" style="fill:#455a64"></polygon><polygon points="390.88 426.47 394.92 428.32 397.15 426.09 392.14 425.27 390.88 426.47" style="fill:#455a64"></polygon><polygon points="399.48 411.78 396.34 414.86 395.52 416.66 398.35 417.04 404.35 422 398.08 418.4 393.01 417.2 396.01 413.66 399.48 411.78" style="fill:#455a64"></polygon><polygon points="409.15 409.74 408.66 414.37 405.74 416.89 406.42 418.02 409.75 414.69 409.15 409.74" style="fill:#455a64"></polygon><polygon points="400.75 427.07 397.15 426.09 389.9 423.14 385.49 419.27 387.4 416.89 390.23 416.66 387.89 417.48 387.4 419.22 389.79 421.4 400.43 425.98 404.35 422 400.75 427.07" style="fill:#455a64"></polygon><g style="opacity:0.1"><polygon points="399.48 411.78 396.34 414.86 395.52 416.66 398.35 417.04 404.35 422 398.08 418.4 393.01 417.2 396.01 413.66 399.48 411.78" style="fill:#fff"></polygon><polygon points="409.15 409.74 408.66 414.37 405.74 416.89 406.42 418.02 409.75 414.69 409.15 409.74" style="fill:#fff"></polygon><polygon points="400.75 427.07 397.15 426.09 389.9 423.14 385.49 419.27 387.4 416.89 390.23 416.66 387.89 417.48 387.4 419.22 389.79 421.4 400.43 425.98 404.35 422 400.75 427.07" style="fill:#fff"></polygon></g></g></g></g><g id="freepik--Plants--inject-4"><g id="freepik--Bush--inject-4"><path id="freepik--bush--inject-4" d="M44.23,282c7.24,1.16,13.73-.84,14.84-8.68a69.72,69.72,0,0,0,0-19.41c-.33-2.33-1.16-5.08-3.43-5.68-1.87-.5-3.83.87-4.66,2.62a12.58,12.58,0,0,0-.8,5.7c-1.14-2.54-2.85-5.48-5.63-5.54C42,251,40,253.68,40,256.25s1.15,5,2.36,7.26c-2-.26-4.16-.4-5.65.88-1.77,1.54-1.57,4.52-.2,6.43s3.56,3,5.67,4.06a2.55,2.55,0,0,0-3.44,1.69,3.88,3.88,0,0,0,1.47,3.89A8.46,8.46,0,0,0,44.23,282Z" style="fill:#455a64"></path><g id="freepik--bush--inject-4"><path id="freepik--bush--inject-4" d="M56.8,285.11s14.07-8.11,17.3-10a13.79,13.79,0,0,0,3.76-3.54A9.82,9.82,0,0,0,80,267.1a2.34,2.34,0,0,0-.18-1.71c-.62-.91-2.1-.59-2.93.15s-1.48,1.39-2.35,2.32a26.23,26.23,0,0,0,.33-6,2.67,2.67,0,0,0-.73-2,2.24,2.24,0,0,0-2.42.05c-2.26,1.23-3.23,3.92-4,6.38a20.67,20.67,0,0,0-.23-7.64c-.6-2.73-3.73-3.8-4.79-1.19a15.35,15.35,0,0,0-.92,4.35c-.13,1.22-.1,4.61.39,5.75a18.06,18.06,0,0,0-4.61-6.39c-.74-.66-1.74-1.29-2.66-.93-1.1.42-1.29,1.88-1.17,3a16.5,16.5,0,0,0,2.35,7A14.38,14.38,0,0,0,50.19,268a1.75,1.75,0,0,0-1.83.6,2.34,2.34,0,0,0,.4,2.4,14.42,14.42,0,0,0,4.65,4.32,15.3,15.3,0,0,0-5.67-.59,2,2,0,0,0-1.51.64c-.49.72.08,1.68.71,2.29A17,17,0,0,0,51,280.05a5.71,5.71,0,0,0-2.5.42,2,2,0,0,0-1.19,2,2.54,2.54,0,0,0,1.83,1.61C52.5,285.28,53.44,285.66,56.8,285.11Z" style="fill:#8758FF"></path><path id="freepik--bush--inject-4" d="M56.8,285.11s14.07-8.11,17.3-10a13.79,13.79,0,0,0,3.76-3.54A9.82,9.82,0,0,0,80,267.1a2.34,2.34,0,0,0-.18-1.71c-.62-.91-2.1-.59-2.93.15s-1.48,1.39-2.35,2.32a26.23,26.23,0,0,0,.33-6,2.67,2.67,0,0,0-.73-2,2.24,2.24,0,0,0-2.42.05c-2.26,1.23-3.23,3.92-4,6.38a20.67,20.67,0,0,0-.23-7.64c-.6-2.73-3.73-3.8-4.79-1.19a15.35,15.35,0,0,0-.92,4.35c-.13,1.22-.1,4.61.39,5.75a18.06,18.06,0,0,0-4.61-6.39c-.74-.66-1.74-1.29-2.66-.93-1.1.42-1.29,1.88-1.17,3a16.5,16.5,0,0,0,2.35,7A14.38,14.38,0,0,0,50.19,268a1.75,1.75,0,0,0-1.83.6,2.34,2.34,0,0,0,.4,2.4,14.42,14.42,0,0,0,4.65,4.32,15.3,15.3,0,0,0-5.67-.59,2,2,0,0,0-1.51.64c-.49.72.08,1.68.71,2.29A17,17,0,0,0,51,280.05a5.71,5.71,0,0,0-2.5.42,2,2,0,0,0-1.19,2,2.54,2.54,0,0,0,1.83,1.61C52.5,285.28,53.44,285.66,56.8,285.11Z" style="opacity:0.25"></path></g></g><g id="freepik--bush--inject-4"><path id="freepik--bush--inject-4" d="M96.36,253.88c7.24,1.15,13.73-.85,14.84-8.68a69.79,69.79,0,0,0,0-19.42c-.33-2.32-1.16-5.07-3.43-5.67-1.87-.5-3.83.87-4.66,2.62a12.56,12.56,0,0,0-.8,5.69c-1.14-2.54-2.85-5.47-5.63-5.53-2.58-.06-4.52,2.65-4.61,5.22s1.15,5,2.36,7.26c-2-.27-4.16-.41-5.65.88-1.77,1.54-1.57,4.51-.21,6.43s3.57,3,5.68,4.06a2.55,2.55,0,0,0-3.44,1.68,3.89,3.89,0,0,0,1.47,3.9A8.57,8.57,0,0,0,96.36,253.88Z" style="fill:#455a64"></path><g id="freepik--bush--inject-4"><path id="freepik--bush--inject-4" d="M108.93,257l17.3-10a13.93,13.93,0,0,0,3.76-3.54A9.92,9.92,0,0,0,132.1,239a2.33,2.33,0,0,0-.18-1.71c-.63-.92-2.1-.6-2.93.14s-1.48,1.4-2.35,2.33a26.29,26.29,0,0,0,.33-6,2.65,2.65,0,0,0-.73-2,2.24,2.24,0,0,0-2.42.05c-2.26,1.22-3.23,3.92-4,6.37a20.61,20.61,0,0,0-.23-7.63c-.6-2.73-3.73-3.8-4.79-1.2a15.42,15.42,0,0,0-.92,4.36c-.13,1.21-.1,4.6.39,5.75a18,18,0,0,0-4.61-6.39c-.75-.66-1.74-1.29-2.67-.93-1.09.42-1.28,1.88-1.16,3a16.41,16.41,0,0,0,2.35,7,14.51,14.51,0,0,0-5.85-2.27,1.73,1.73,0,0,0-1.83.6,2.32,2.32,0,0,0,.4,2.4,14.53,14.53,0,0,0,4.65,4.32,15.09,15.09,0,0,0-5.67-.59,1.91,1.91,0,0,0-1.51.63c-.5.72.08,1.69.71,2.3a16.69,16.69,0,0,0,4.05,2.41,6,6,0,0,0-2.5.42,2,2,0,0,0-1.19,2.05,2.5,2.5,0,0,0,1.83,1.61C104.63,257.13,105.57,257.52,108.93,257Z" style="fill:#8758FF"></path><path id="freepik--bush--inject-4" d="M108.93,257l17.3-10a13.93,13.93,0,0,0,3.76-3.54A9.92,9.92,0,0,0,132.1,239a2.33,2.33,0,0,0-.18-1.71c-.63-.92-2.1-.6-2.93.14s-1.48,1.4-2.35,2.33a26.29,26.29,0,0,0,.33-6,2.65,2.65,0,0,0-.73-2,2.24,2.24,0,0,0-2.42.05c-2.26,1.22-3.23,3.92-4,6.37a20.61,20.61,0,0,0-.23-7.63c-.6-2.73-3.73-3.8-4.79-1.2a15.42,15.42,0,0,0-.92,4.36c-.13,1.21-.1,4.6.39,5.75a18,18,0,0,0-4.61-6.39c-.75-.66-1.74-1.29-2.67-.93-1.09.42-1.28,1.88-1.16,3a16.41,16.41,0,0,0,2.35,7,14.51,14.51,0,0,0-5.85-2.27,1.73,1.73,0,0,0-1.83.6,2.32,2.32,0,0,0,.4,2.4,14.53,14.53,0,0,0,4.65,4.32,15.09,15.09,0,0,0-5.67-.59,1.91,1.91,0,0,0-1.51.63c-.5.72.08,1.69.71,2.3a16.69,16.69,0,0,0,4.05,2.41,6,6,0,0,0-2.5.42,2,2,0,0,0-1.19,2.05,2.5,2.5,0,0,0,1.83,1.61C104.63,257.13,105.57,257.52,108.93,257Z" style="opacity:0.25"></path></g></g><g id="freepik--plants--inject-4"><path d="M478.15,236.17l-14.12,5,12.43-1.27a21.33,21.33,0,0,1-4.54,8.08s-8.42,1.65-13.49,4.38l10.77-.48a11.5,11.5,0,0,1-1.69,5.11c-.12.21-.26.43-.4.65-.95,1.44-2.5,4.25-4.71,7.47h0A55.15,55.15,0,0,1,455.9,273a38.16,38.16,0,0,1-3.81,3.31l-.25.19,0-.05a18,18,0,0,1-4.45-13.87,77,77,0,0,1,1.26-7.76c5-22.35,25.54-29.12,40.05-28.77A41.17,41.17,0,0,0,478.15,236.17Z" style="fill:#8758FF"></path><path d="M478.15,236.17l-14.12,5,12.43-1.27a21.33,21.33,0,0,1-4.54,8.08s-8.42,1.65-13.49,4.38l10.77-.48a11.5,11.5,0,0,1-1.69,5.11c-.12.21-.26.43-.4.65-.95,1.44-2.5,4.25-4.71,7.47h0A55.15,55.15,0,0,1,455.9,273a38.16,38.16,0,0,1-3.81,3.31l-.25.19,0-.05a18,18,0,0,1-4.45-13.87,77,77,0,0,1,1.26-7.76c5-22.35,25.54-29.12,40.05-28.77A41.17,41.17,0,0,0,478.15,236.17Z" style="opacity:0.30000000000000004"></path><path d="M467.51,233.79a17.39,17.39,0,0,0-4.1,2.92,35.26,35.26,0,0,0-3.34,3.78,46.07,46.07,0,0,0-5.17,8.64,42.83,42.83,0,0,0-4.06,19.51h0a.32.32,0,0,1-.31.34.33.33,0,0,1-.35-.31h0A43.22,43.22,0,0,1,454.61,249a46.19,46.19,0,0,1,5.33-8.6,34.63,34.63,0,0,1,3.42-3.74A17.15,17.15,0,0,1,467.51,233.79Z" style="fill:#fafafa"></path><path d="M410.83,239.07h0c.28.36,4.67,4.17,11.42,15.56L435.89,258l-11.07,1,5.12,8.88,11.63,2.83-9.2,1.17s2.22,9,8.64,13c3.54,2.19,5.29,2.56,6.41,1.57.79-.69,1.12-5,1.88-8.77s1-10-2.3-17.63a23.17,23.17,0,0,0-3.55-5.64C435.13,244.47,418.93,239.24,410.83,239.07Z" style="fill:#8758FF"></path><path d="M410.83,239.07h0c.28.36,4.67,4.17,11.42,15.56L435.89,258l-11.07,1,5.12,8.88,11.63,2.83-9.2,1.17s2.22,9,8.64,13c3.54,2.19,5.29,2.56,6.41,1.57.79-.69,1.12-5,1.88-8.77s1-10-2.3-17.63a23.17,23.17,0,0,0-3.55-5.64C435.13,244.47,418.93,239.24,410.83,239.07Z" style="opacity:0.15"></path><path d="M444.48,264h0a35.88,35.88,0,0,1,2.38,9.94h0a105.28,105.28,0,0,1-.12,12.92,2.12,2.12,0,0,0,.67-.38c.79-.69,1.12-5,1.88-8.77s1-10-2.3-17.63a23.17,23.17,0,0,0-3.55-5.64c-8.32-9.95-24.52-15.18-32.62-15.35,12.35,2.47,25.42,11.21,31.68,21.06A24.65,24.65,0,0,1,444.48,264Z" style="opacity:0.1"></path><path d="M423.14,243.4a48.57,48.57,0,0,1,16.15,12,32.06,32.06,0,0,1,5.37,8.62,30.6,30.6,0,0,1,2.24,9.86s0,0,0,0a0,0,0,0,1,0,0,40.26,40.26,0,0,0-2.79-9.62,37,37,0,0,0-5.17-8.53,42.11,42.11,0,0,0-7.24-6.94,56.1,56.1,0,0,0-8.53-5.36s0,0,0,0S423.13,243.39,423.14,243.4Z" style="fill:#fafafa"></path><path d="M491.93,260h0a25.88,25.88,0,0,0-2.88-.85A48.42,48.42,0,0,0,477.31,258c-1.46,0-2.95.13-4.43.3-.75.08-1.49.18-2.23.3a33.35,33.35,0,0,0-10.47,3.4,20.75,20.75,0,0,0-4.25,3c-.16.15-.33.29-.49.45h0q-.62.62-1.17,1.23a28.81,28.81,0,0,0-7.06,12.47c-1,3.27-1.18,7.34-.76,8.17a1.61,1.61,0,0,0,.21.3c.72.91,2.3,1.07,5.56.49C458.76,287,463.6,280,463.6,280l-7.17-3.93,10.46,1.44,6.13-4.83-6.86-3.86,10.47,1.91A156.1,156.1,0,0,1,491.91,260h0Z" style="fill:#8758FF"></path><path d="M489.05,259.13A48.42,48.42,0,0,0,477.31,258c-1.46,0-2.95.13-4.43.3-.75.08-1.49.18-2.23.3a33.35,33.35,0,0,0-10.47,3.4,20.75,20.75,0,0,0-4.25,3c-.16.15-.33.29-.49.45h0q-.62.62-1.17,1.23a28.81,28.81,0,0,0-7.06,12.47c-1,3.27-1.18,7.34-.76,8.17a1.61,1.61,0,0,0,.21.3,1.76,1.76,0,0,0,.53.44c1.05-5.24,7.91-17.08,13.45-21,5.76-4.09,17.69-8.78,31.28-7.12h0A25.89,25.89,0,0,0,489.05,259.13Z" style="opacity:0.05"></path><path d="M447.14,288.11a45.59,45.59,0,0,1,4.56-10.83,37.63,37.63,0,0,1,7.31-9.22,25.81,25.81,0,0,1,4.9-3.33,37.89,37.89,0,0,1,5.41-2.4,43.81,43.81,0,0,1,11.51-2.41s0,0,0,0,0,0,0,0a57.65,57.65,0,0,0-11.3,3,49.62,49.62,0,0,0-5.33,2.36,25.6,25.6,0,0,0-4.86,3.15,37.43,37.43,0,0,0-7.37,9,45.21,45.21,0,0,0-4.77,10.67,0,0,0,1,1-.07,0Z" style="fill:#fafafa"></path></g><g id="freepik--grass--inject-4"><path d="M329.18,327.06c-5.92,14.22-6,33.83-6,33.83l-2.8-2.49C322.41,337.16,329.18,327.06,329.18,327.06Z" style="fill:#8758FF"></path><path d="M329.18,327.06c-5.92,14.22-6,33.83-6,33.83l-2.8-2.49C322.41,337.16,329.18,327.06,329.18,327.06Z" style="opacity:0.15"></path><path d="M321.8,359.45v.17l-1.38-1.22c2-21.24,8.76-31.34,8.76-31.34C325.22,333.73,321.84,351.06,321.8,359.45Z" style="opacity:0.15"></path><path d="M323.22,360.89s4.06-13.16,11.48-23.7,14.85-14.4,14.85-14.4-8.52,2-17.43,13.09a81.53,81.53,0,0,0-12.58,21.74Z" style="fill:#8758FF"></path><path d="M321.29,359.17h0l-1.75-1.55a81.53,81.53,0,0,1,12.58-21.74c8.91-11.13,17.43-13.09,17.43-13.09C341,326.13,327.57,340.08,321.29,359.17Z" style="opacity:0.1"></path><path d="M323.22,360.89s4.48-10.59,20.06-17c0,0-14,2.34-22.86,14.49Z" style="fill:#8758FF"></path><path d="M321.8,359.45l-.07.11-1.31-1.16c8.88-12.15,22.86-14.49,22.86-14.49C336.16,346.28,327.13,351,321.8,359.45Z" style="opacity:0.1"></path></g><g id="freepik--grass--inject-4"><path d="M243,312c5,12,5,28.44,5,28.44l2.36-2.09C248.73,320.51,243,312,243,312Z" style="fill:#8758FF"></path><path d="M243,312c5,12,5,28.44,5,28.44l2.36-2.09C248.73,320.51,243,312,243,312Z" style="opacity:0.15"></path><path d="M249.24,339.26v.14l1.16-1C248.73,320.51,243,312,243,312,246.37,317.63,249.2,332.19,249.24,339.26Z" style="opacity:0.15"></path><path d="M248,340.46s-3.41-11.06-9.65-19.92-12.48-12.11-12.48-12.11,7.16,1.65,14.65,11a68.69,68.69,0,0,1,10.58,18.28Z" style="fill:#8758FF"></path><path d="M249.67,339h0l1.47-1.31a68.69,68.69,0,0,0-10.58-18.28c-7.49-9.35-14.65-11-14.65-11C233.13,311.24,244.39,323,249.67,339Z" style="opacity:0.1"></path><path d="M248,340.46s-3.77-8.9-16.86-14.28c0,0,11.75,2,19.22,12.19Z" style="fill:#8758FF"></path><path d="M249.24,339.26l.06.09,1.1-1c-7.47-10.21-19.22-12.19-19.22-12.19C237.16,328.18,244.76,332.12,249.24,339.26Z" style="opacity:0.1"></path></g><g id="freepik--grass--inject-4"><path d="M187.52,425.19c-1.38,7.19.49,16.32.49,16.32l-1.55-.88C185.35,430.55,187.52,425.19,187.52,425.19Z" style="fill:#8758FF"></path><path d="M187.52,425.19c-1.38,7.19.49,16.32.49,16.32l-1.55-.88C185.35,430.55,187.52,425.19,187.52,425.19Z" style="opacity:0.15"></path><path d="M187.21,441s0,.05,0,.07l-.77-.43c-1.11-10.08,1.06-15.44,1.06-15.44C186.32,428.68,186.42,437.07,187.21,441Z" style="opacity:0.15"></path><path d="M188,441.52a46,46,0,0,1,3.06-12.14,22.56,22.56,0,0,1,5.53-8.14s-3.78,1.73-6.85,7.77A38.79,38.79,0,0,0,186,440.35Z" style="fill:#8758FF"></path><path d="M186.94,440.9h0l-1-.55A38.79,38.79,0,0,1,189.75,429c3.07-6,6.85-7.77,6.85-7.77C192.92,423.62,188,431.41,186.94,440.9Z" style="opacity:0.1"></path><path d="M188,441.52s1.07-5.36,7.71-9.85a18.6,18.6,0,0,0-9.26,9Z" style="fill:#8758FF"></path><path d="M187.21,441l0,.05-.73-.41a18.6,18.6,0,0,1,9.26-9C192.63,433.47,188.87,436.52,187.21,441Z" style="opacity:0.1"></path></g><g id="freepik--Leaves--inject-4"><g id="freepik--Leave--inject-4"><path d="M355.45,417.53c-2.16-1.58-7.59-2.42-7.4-3.51s2.37-1.82,5.55-.3,6.2,4.25,6.29,6.94c0,0,1.93-4.1-2.47-8.6s-8-4.26-10.16-3.11c-1.82.94-3.43,2.44-4.76,2.52h0a1.64,1.64,0,0,1-.79-.15.85.85,0,0,1-.53-.62h0c-.12-.91,1.59-2.32,2.72-4.26,1.43-2.47,3.11-7.63-6.55-11,0,0,4.22,4.64,2.52,7.38s-2.32-1.67-3.59-3.83a12.88,12.88,0,0,0-5-5.07s-5.4.6-8.33,4.71c0,0,6.81,1.32,11.49,6.12s-.73,2.21-2.2.37-7.23-4.74-10.53-4.35c0,0-2,.81-4.13,4.85a27.09,27.09,0,0,1,10.29,1.76c5.38,2.06,4.39,4.12.73,2.87a36.36,36.36,0,0,0-12.75-1.68s-3.14,3.74-2.85,8a51.84,51.84,0,0,0,5.93-1.15c2.86-.76,7.74-2,8.22-.17s-2.3,1.31-4.52,1.55-6.28,2.7-9.79,2.32c0,0,.19,3.08.54,4.93,0,0,7.27-3.58,8.71-2.69s-.94,1.2-3,2.29a45,45,0,0,0-4.78,3.14s-.42,4.69,1.83,8.19c0,0,1.17-1.08,3.86-.61a15.26,15.26,0,0,0,5.07,0,9,9,0,0,0,2.48-5c.22-2.84,1.09-3.22,1.79-.62s-1.57,6.67-1.57,6.67a21.71,21.71,0,0,0,5.62-.42s1.75-4,1.41-6.59.73-3.91,1.88-1-1.16,7.1-1.16,7.1,3.5,0,5-.68a10.94,10.94,0,0,0,.71-8.24c-1.38-4.8-.45-4.89,1.89-2.5s.83,9.73.83,9.73a24,24,0,0,0,5.21-2s1.93-4.86-1-8.74-1.81-4.63.76-2.45,4.17,6.82,3.15,9.7c0,0,4.25-2.59,5.47-4.7S357.61,419.11,355.45,417.53Zm-8.55-4.8c.42.22.49.81-.11.76C346,413.42,346.09,412.32,346.9,412.73ZM340,404.09c.27.18.21.62.16.89s-.2,1.19-.54,1.41-.48-.45-.52-.76-.24-.9,0-1.28A.69.69,0,0,1,340,404.09Zm-3,4a1.13,1.13,0,0,1,.77,1.07c-.15.55-.52.17-.72-.08S336.23,408.06,337,408.11Zm-3.77,2.1c.45.11,1.49.68,1.36,1.27s-1.15.08-1.51,0-1.11-.46-.67-1A.72.72,0,0,1,333.24,410.21Zm-4.68,15.68c-.78.38-.95-1.25-1.1-1.67-.09-.25-.16-.85.08-1.06.41-.34.74.31.87.61C328.61,424.24,329.22,425.56,328.56,425.89Zm6.45-1.32c-.59-.07-.93-1-1.14-1.44s-.29-.63-.41-.95-.55-.91-.35-1.23c.42-.7,1.45.53,1.7.84S336.45,424.74,335,424.57Zm5.5-4.19c-.6.17-1.3-1-1.65-1.36s-.93-.88-.68-1.26c.52-.76,1.79.65,2.1.95S341.28,420.17,340.51,420.38Zm3.31-3.28c-.33-.21-1.47-1-1-1.4.8-.7,3.17.84,2.54,1.79C345,418,344.14,417.31,343.82,417.1Z" style="fill:#8758FF"></path><path d="M355.45,417.53c-2.16-1.58-7.59-2.42-7.4-3.51s2.37-1.82,5.55-.3,6.2,4.25,6.29,6.94c0,0,1.93-4.1-2.47-8.6s-8-4.26-10.16-3.11c-1.82.94-3.43,2.44-4.76,2.52h0a1.64,1.64,0,0,1-.79-.15.85.85,0,0,1-.53-.62h0c-.12-.91,1.59-2.32,2.72-4.26,1.43-2.47,3.11-7.63-6.55-11,0,0,4.22,4.64,2.52,7.38s-2.32-1.67-3.59-3.83a12.88,12.88,0,0,0-5-5.07s-5.4.6-8.33,4.71c0,0,6.81,1.32,11.49,6.12s-.73,2.21-2.2.37-7.23-4.74-10.53-4.35c0,0-2,.81-4.13,4.85a27.09,27.09,0,0,1,10.29,1.76c5.38,2.06,4.39,4.12.73,2.87a36.36,36.36,0,0,0-12.75-1.68s-3.14,3.74-2.85,8a51.84,51.84,0,0,0,5.93-1.15c2.86-.76,7.74-2,8.22-.17s-2.3,1.31-4.52,1.55-6.28,2.7-9.79,2.32c0,0,.19,3.08.54,4.93,0,0,7.27-3.58,8.71-2.69s-.94,1.2-3,2.29a45,45,0,0,0-4.78,3.14s-.42,4.69,1.83,8.19c0,0,1.17-1.08,3.86-.61a15.26,15.26,0,0,0,5.07,0,9,9,0,0,0,2.48-5c.22-2.84,1.09-3.22,1.79-.62s-1.57,6.67-1.57,6.67a21.71,21.71,0,0,0,5.62-.42s1.75-4,1.41-6.59.73-3.91,1.88-1-1.16,7.1-1.16,7.1,3.5,0,5-.68a10.94,10.94,0,0,0,.71-8.24c-1.38-4.8-.45-4.89,1.89-2.5s.83,9.73.83,9.73a24,24,0,0,0,5.21-2s1.93-4.86-1-8.74-1.81-4.63.76-2.45,4.17,6.82,3.15,9.7c0,0,4.25-2.59,5.47-4.7S357.61,419.11,355.45,417.53Zm-8.55-4.8c.42.22.49.81-.11.76C346,413.42,346.09,412.32,346.9,412.73ZM340,404.09c.27.18.21.62.16.89s-.2,1.19-.54,1.41-.48-.45-.52-.76-.24-.9,0-1.28A.69.69,0,0,1,340,404.09Zm-3,4a1.13,1.13,0,0,1,.77,1.07c-.15.55-.52.17-.72-.08S336.23,408.06,337,408.11Zm-3.77,2.1c.45.11,1.49.68,1.36,1.27s-1.15.08-1.51,0-1.11-.46-.67-1A.72.72,0,0,1,333.24,410.21Zm-4.68,15.68c-.78.38-.95-1.25-1.1-1.67-.09-.25-.16-.85.08-1.06.41-.34.74.31.87.61C328.61,424.24,329.22,425.56,328.56,425.89Zm6.45-1.32c-.59-.07-.93-1-1.14-1.44s-.29-.63-.41-.95-.55-.91-.35-1.23c.42-.7,1.45.53,1.7.84S336.45,424.74,335,424.57Zm5.5-4.19c-.6.17-1.3-1-1.65-1.36s-.93-.88-.68-1.26c.52-.76,1.79.65,2.1.95S341.28,420.17,340.51,420.38Zm3.31-3.28c-.33-.21-1.47-1-1-1.4.8-.7,3.17.84,2.54,1.79C345,418,344.14,417.31,343.82,417.1Z" style="opacity:0.30000000000000004"></path><path d="M343.89,406.44c1.43-2.47,3.11-7.63-6.55-11,0,0,4.22,4.64,2.52,7.38s-2.32-1.67-3.59-3.83a12.88,12.88,0,0,0-5-5.07s-5.4.6-8.33,4.71c0,0,6.81,1.32,11.49,6.12s-.73,2.21-2.2.37-7.23-4.74-10.53-4.35c0,0-2,.81-4.13,4.85a27.09,27.09,0,0,1,10.29,1.76c5.38,2.06,4.39,4.12.73,2.87a36.36,36.36,0,0,0-12.75-1.68s-3.14,3.74-2.85,8a51.84,51.84,0,0,0,5.93-1.15c2.86-.76,7.74-2,8.22-.17s-2.3,1.31-4.52,1.55-6.28,2.7-9.79,2.32c0,0,.19,3.08.54,4.93,0,0,7.27-3.58,8.71-2.69s-.94,1.2-3,2.29a45,45,0,0,0-4.78,3.14s-.42,4.69,1.83,8.19c6.85-19.18,25-24.22,25-24.22C341.05,409.79,342.76,408.38,343.89,406.44Zm-10.8,5c-.47-.16-1.11-.46-.67-1a.72.72,0,0,1,.82-.19c.45.11,1.49.68,1.36,1.27S333.45,411.56,333.09,411.44Zm4-2.34c-.21-.24-.83-1-.05-1a1.13,1.13,0,0,1,.77,1.07C337.63,409.73,337.26,409.35,337.06,409.1Zm2.6-2.71c-.43.29-.48-.45-.52-.76s-.24-.9,0-1.28a.69.69,0,0,1,.88-.26c.27.18.21.62.16.89S340,406.17,339.66,406.39Z" style="opacity:0.1"></path><path d="M316.18,434.92c6.85-19.18,25-24.22,25-24.22h0a.85.85,0,0,0,.53.62,1.64,1.64,0,0,0,.79.15C324.54,417.48,316.18,434.92,316.18,434.92Z" style="fill:#8758FF"></path><path d="M337.13,404.12a30.68,30.68,0,0,0-3.35-4.11,8.85,8.85,0,0,0-3.77-2.75h0a19.87,19.87,0,0,1,6.21,6.33,15.33,15.33,0,0,1,2.29,4.66,12.72,12.72,0,0,1,.16,3.54c0,.19.34.54.45.23C340,409.42,338.54,406.27,337.13,404.12Z" style="fill:#8758FF"></path><path d="M332.7,407.32a27.3,27.3,0,0,0-9.16-3.76c-.06,0-.12.11-.05.13a36.75,36.75,0,0,1,8.09,3.57c2.05,1.22,4.4,3,4.83,5.54,0,.19.28.24.33,0C337.24,410.64,334.27,408.33,332.7,407.32Z" style="fill:#8758FF"></path><path d="M331.84,415.33A17.19,17.19,0,0,0,318,411.67s-.06.07,0,.07a21.65,21.65,0,0,1,7.38.68,22.24,22.24,0,0,1,6.34,3.24C331.91,415.77,332,415.43,331.84,415.33Z" style="fill:#8758FF"></path><path d="M326.9,419.65c-3.73-1.29-7.3,0-10.83,1.21,0,0,0,0,0,0,3.46-.95,7.15-1.8,10.66-.65C327.16,420.37,327.3,419.79,326.9,419.65Z" style="fill:#8758FF"></path><path d="M322.17,424.69a12.52,12.52,0,0,0-5.74,4.86s0,.1,0,.05a16.64,16.64,0,0,1,5.88-4.39C322.64,425.1,322.43,424.6,322.17,424.69Z" style="fill:#8758FF"></path><path d="M323.61,423.83c0-.11-.13,0-.15.05-.3,1.22.07,2.61,0,3.86a11.1,11.1,0,0,1-1.24,4.59c0,.09,0,.26.12.14A10.47,10.47,0,0,0,323.61,423.83Z" style="fill:#8758FF"></path><path d="M332.62,425.94c-.16-2.77-.89-6.19-3.14-8a.24.24,0,0,0-.36.31c.49.9,1.19,1.64,1.6,2.59a17.7,17.7,0,0,1,1.07,3.71c.57,3,.77,6.17-.66,8.95-.05.1.06.27.14.13C332.58,431.36,332.77,428.47,332.62,425.94Z" style="fill:#8758FF"></path><path d="M339.26,430.49c.81-5-1.17-12.33-6.05-14.75-.36-.17-.55.3-.26.52a16.52,16.52,0,0,1,6.2,14.25C339.14,430.61,339.25,430.56,339.26,430.49Z" style="fill:#8758FF"></path><path d="M346.68,425.47a19.13,19.13,0,0,0-4.74-8.25c-1.5-1.57-3.87-3.77-6.17-3.74-.26,0-.13.43,0,.49a17.58,17.58,0,0,1,10.78,11.57C346.6,425.61,346.69,425.52,346.68,425.47Z" style="fill:#8758FF"></path><path d="M353.26,420.49c-1.18-2.23-3.88-3.67-6-4.92a29.17,29.17,0,0,0-8.47-3.43c-.36-.09-.28.44,0,.54,1.17.52,2.45.67,3.65,1.12a37.12,37.12,0,0,1,4.48,2.08,20.85,20.85,0,0,1,6.29,4.67S353.27,420.52,353.26,420.49Z" style="fill:#8758FF"></path></g><g id="freepik--leave--inject-4"><path d="M428,423.29s0,0,0,0h0Z" style="fill:#8758FF"></path><path d="M428,423.26c-.5-.69-10.56-14.7-26.89-19.78h0a2.88,2.88,0,0,0,.75-.45c.18-.15.19-.45.12-.84C402,402.18,420.53,410.08,428,423.26Z" style="fill:#8758FF"></path><path d="M392.69,409.25s-1.32-5.07,1.3-5.53c2.29-.4,5.19.54,7.09-.25a2.88,2.88,0,0,0,.75-.45c.18-.15.19-.45.12-.84-.38-1.88-3-6-.88-7.6,2.57-1.89,4.23-2,7.3-3.19a6.51,6.51,0,0,1,5.87,1c-.18,0-1.82-.29-4,2.23-2.33,2.68-.39,4.08,1,2a13.45,13.45,0,0,1,3.88-3.6c3.17.83,6,5.1,6,5.1s-4.49-.88-7.8,1.26-1,2.93,1.12,1.73,6.14-2,8.16-.19,3.47,6.34,3.47,6.34-4.34-2.78-7-2.71-3.86,1.55.53,2a10.67,10.67,0,0,1,6.91,3.66,23.23,23.23,0,0,1,.94,4.65c-4.28-3.58-4.92-1.52-2.75-.21a15.21,15.21,0,0,1,3.55,3,49.86,49.86,0,0,1-.27,5.76h0s0,0,0,0c-3-2.91-7.76-1.28-7.76-1.28a34.32,34.32,0,0,1-4.26-6c-1.14-2.43-2.81-1.81-1.37,1.64a14.62,14.62,0,0,0,3.26,5.08,19.93,19.93,0,0,1-7.2,1.15c-4-3.85-3.46-7.47-3.58-11.23s-3-.32-2.54,3.83a16.74,16.74,0,0,0,2.52,7,21.85,21.85,0,0,1-7.61-2.16c-.87-2.68.79-6.07,1.39-8.09s-2.4-1.83-3,1.5a12,12,0,0,0,.73,6.31c-5.67-2.65-7.31-10.49-7.31-10.49Z" style="fill:#8758FF"></path><path d="M392.69,409.25s-1.32-5.07,1.3-5.53c2.29-.4,5.19.54,7.09-.25a2.88,2.88,0,0,0,.75-.45c.18-.15.19-.45.12-.84-.38-1.88-3-6-.88-7.6,2.57-1.89,4.23-2,7.3-3.19a6.51,6.51,0,0,1,5.87,1c-.18,0-1.82-.29-4,2.23-2.33,2.68-.39,4.08,1,2a13.45,13.45,0,0,1,3.88-3.6c3.17.83,6,5.1,6,5.1s-4.49-.88-7.8,1.26-1,2.93,1.12,1.73,6.14-2,8.16-.19,3.47,6.34,3.47,6.34-4.34-2.78-7-2.71-3.86,1.55.53,2a10.67,10.67,0,0,1,6.91,3.66,23.23,23.23,0,0,1,.94,4.65c-4.28-3.58-4.92-1.52-2.75-.21a15.21,15.21,0,0,1,3.55,3,49.86,49.86,0,0,1-.27,5.76h0s0,0,0,0c-3-2.91-7.76-1.28-7.76-1.28a34.32,34.32,0,0,1-4.26-6c-1.14-2.43-2.81-1.81-1.37,1.64a14.62,14.62,0,0,0,3.26,5.08,19.93,19.93,0,0,1-7.2,1.15c-4-3.85-3.46-7.47-3.58-11.23s-3-.32-2.54,3.83a16.74,16.74,0,0,0,2.52,7,21.85,21.85,0,0,1-7.61-2.16c-.87-2.68.79-6.07,1.39-8.09s-2.4-1.83-3,1.5a12,12,0,0,0,.73,6.31c-5.67-2.65-7.31-10.49-7.31-10.49Z" style="opacity:0.30000000000000004"></path><path d="M391.23,410.6s1.64,7.84,7.31,10.49a12,12,0,0,1-.73-6.32c.61-3.32,3.61-3.52,3-1.49s-2.26,5.41-1.39,8.09a21.85,21.85,0,0,0,7.61,2.16,16.66,16.66,0,0,1-2.52-7c-.49-4.15,2.43-7.59,2.55-3.83s-.41,7.38,3.57,11.23a19.93,19.93,0,0,0,7.2-1.15,14.53,14.53,0,0,1-3.25-5.08c-1.45-3.46.22-4.07,1.36-1.64a34.32,34.32,0,0,0,4.26,6s4.74-1.63,7.76,1.28v0h0c-.49-.69-10.55-14.71-26.88-19.78h0c-1.9.79-4.8-.15-7.09.25-2.62.46-1.3,5.53-1.3,5.53Z" style="opacity:0.1"></path><path d="M428,423.29s0,0,0,0h0Z" style="fill:#8758FF"></path><path d="M428,423.26c-.5-.69-10.56-14.7-26.89-19.78h0a2.88,2.88,0,0,0,.75-.45c.18-.15.19-.45.12-.84C402,402.18,420.53,410.08,428,423.26Z" style="fill:#8758FF"></path><path d="M404.22,404c-4.77.75-9.4,4.23-9.76,9.4,0,0,.09.15.1.08a9.43,9.43,0,0,1,3.45-5.89c1.92-1.62,4.24-2.19,6.51-3.22C404.8,404.23,404.41,403.94,404.22,404Z" style="fill:#8758FF"></path><path d="M408.05,405.88c-2.31,0-4.08,2.83-4.89,4.65a15,15,0,0,0-.74,10s.06.08.06,0c.06-1.7-.43-3.33-.13-5a24.63,24.63,0,0,1,.88-3.43c.83-2.46,2.46-5.1,5-5.9C408.5,406.15,408.22,405.88,408.05,405.88Z" style="fill:#8758FF"></path><path d="M411.92,408.57a11.47,11.47,0,0,0-1.4,6.88,11.82,11.82,0,0,0,2.78,6.28c.09.08.14,0,.07-.1-3.07-3.78-2.8-9.33-.76-12.79C412.84,408.45,412.12,408.25,411.92,408.57Z" style="fill:#8758FF"></path><path d="M416.74,411.83a18.34,18.34,0,0,0,4.44,6.84c.08.09.17,0,.08-.07a21,21,0,0,1-4.1-6.78C417.09,411.62,416.65,411.57,416.74,411.83Z" style="fill:#8758FF"></path><path d="M414.62,409.94c-.27.17.33.53.54.45a11.73,11.73,0,0,1,8.74,0s0-.06,0-.07C420.93,409.05,417.23,408.38,414.62,409.94Z" style="fill:#8758FF"></path><path d="M421.33,415.37c-.36,0-.18.42.13.42,1.82,0,3.49,1.09,5.06,2.13.06,0,0-.06,0-.09C425,416.62,423.19,415.38,421.33,415.37Z" style="fill:#8758FF"></path><path d="M419.69,402.42a13.64,13.64,0,0,0-9.26,4.54c-.23.28.23.54.46.39,1.15-.71,2.06-1.73,3.17-2.5a16.09,16.09,0,0,1,5.71-2.29C419.84,402.54,419.75,402.42,419.69,402.42Z" style="fill:#8758FF"></path><path d="M415.92,395.76a17.74,17.74,0,0,0-5.74,3.66c-1.48,1.33-3.29,3.24-3.26,5.49,0,.43.65.32.74,0a15.12,15.12,0,0,1,8.42-9C416.18,395.92,416,395.73,415.92,395.76Z" style="fill:#8758FF"></path><path d="M405.94,394.08a6.06,6.06,0,0,0-2.28,4.63c-.11,1.34-.14,4.27,1,5.44.17.17.6.19.57-.1-.15-1.62-.9-3.16-.91-4.83a6.83,6.83,0,0,1,1.81-4.93C406.23,394.21,406,394,405.94,394.08Z" style="fill:#8758FF"></path></g></g></g><g id="freepik--dinosaur-3--inject-4"><g id="freepik--Pterodactyl--inject-4"><path d="M406.91,48.66c-2.21-3-8.69-10.55-10.82-13s-2.14-2.45-4.19-3-9.09-.45-14,.24c2.33.76,7.64,1.12,8.73,3.14a5.25,5.25,0,0,1,.74,3.46,6.3,6.3,0,0,1,6.46,1c3.18,2.58,2.46,7.11,6.48,8.79S406.68,49.11,406.91,48.66Z" style="fill:#e0e0e0"></path><path d="M387.43,55.43c.26.1,7.49-6.13,7.49-6.13a4.28,4.28,0,0,1-.46,2.24c-.77,1.63-2.9,4.88-2.71,5.18s1.1-.95,3.42-3.77,2.77-2.14,3.93-2.35,2.77,2.79,5.74,5.11,7.54,1.16,9.54,1.34,4.13,2.46,5.16,3.56a2.1,2.1,0,0,0,1.93.86c.71.79,1.81.15,1.81.15s1.29.34,1.61-.15a1.32,1.32,0,0,0-1-1.79c-1-.22-.45.41-1,.61s-2.58-1.81-5.16-3.89-.9-6.11.71-10.69,7.35-6.19,7.35-6.19-.07-1.48,2.06-4.44,14.25-3.21,14.25-3.21-3-1.82-12.83-.93S416.12,35,415,36.3s-1.93,5.55-3.42,7.53a26,26,0,0,1-5.41,5.11c-1.16.72-4.26,0-5.09-.32a3,3,0,0,1-1.94-2.71c-.07-.56,1.74-3.29,3.22-5a7.16,7.16,0,0,0,1.55-3.65c-1.61,3.32-5.8,4.46-7.5,5.55s-2.56,2-2.68,3.19-.91.78-2.84,3.62S387.17,55.32,387.43,55.43Z" style="fill:#f0f0f0"></path></g></g></svg>