<svg xmlns="http://www.w3.org/2000/svg" viewBox="0 0 750 500"><g id="freepik--Dinosaur1--inject-8"><path d="M180.88,234.58l-1.37,1.61a7.82,7.82,0,0,0-1.46-1.47,3.6,3.6,0,0,1-1.34,1.17.46.46,0,0,1-.7-.17l-.83-1-1.74,1.49c.11-.81-1.07-1.32-1.75-.87-.49.33-1,1-1.52.65s-.28-.94-.68-1.16c-.68-.35-1.26,1.13-2,.85-.49-.19-.56-1.09-1.08-1s-.45.57-.72.84a.9.9,0,0,1-1.15,0,2.65,2.65,0,0,1-.71-1,3.33,3.33,0,0,1-1.07,1,1.11,1.11,0,0,1-1.34-.22c-.2-.29-.3-.75-.65-.75a.65.65,0,0,0-.37.16l-1.46,1a1.23,1.23,0,0,0-1.71-1.29c-.32.18-.68.52-1,.33a.69.69,0,0,1-.26-.43c-.24-.7-.73-1.53-1.47-1.43s-1.28.73-1.69.28c-.26-.27-.12-.78-.41-1-.5-.42-1.24.61-1.83.32s-.27-1.08-.71-1.39-1.05.17-1.52,0-.57-1.41-1.22-1.4c-.38,0-.69.48-1.06.38s-.32-.76-.5-1.17a.8.8,0,0,0-1.26-.24c0-.7-.66-1.21-1.27-1.54s-1.14-.66-1.09-1.24a1,1,0,0,1,.91-.81,3,3,0,0,1,1.28.24,181.88,181.88,0,0,0,23.94,6.56,31.59,31.59,0,0,0,5.88.78,17.25,17.25,0,0,0,3.13-.26" style="fill:#e0e0e0"></path><path d="M149.47,236.89c3.15-.3,8.85-.65,11.86.3,1.39.44,2.74,1,4.15,1.35,4.47,1.08,9.17-.15,13.74.3a5.72,5.72,0,0,1-2.25,1.47,40.41,40.41,0,0,1-17.36,3.29" style="fill:#8758FF"></path><g style="opacity:0.30000000000000004"><path d="M149.47,236.89c3.15-.3,8.85-.65,11.86.3,1.39.44,2.74,1,4.15,1.35,4.47,1.08,9.17-.15,13.74.3a5.72,5.72,0,0,1-2.25,1.47,40.41,40.41,0,0,1-17.36,3.29"></path></g><path d="M139.91,346.38c.72.91,23.62,21.18,23.62,21.18s-3.86,4.49-3.45,6.52,1.15,30,1.15,30l19,17.34,13.74-4.1s3.49-8.91,1.76-10.94-5,4.18-5,4.18,4.67-8.36,2.07-9.42-5-2.44-5.19,1.84-1.21,5.81-1.21,5.81l-13.1-12.45-4.44-3.61s8.57-19.2,7.43-24.8-12.82-21.51-12.82-21.51Z" style="fill:#8758FF"></path><path d="M160.64,390.63l.8.19c1.73-1.55,1.4-4.35,2.49-6.39s3.67-3.15,5.72-4.5c.61-.39,1.25-1,1.16-1.7a28.48,28.48,0,0,0-4.28.87,6.78,6.78,0,0,0-2.21,1,7.62,7.62,0,0,0-1.88,2.49L160.53,386" style="fill:#263238"></path><path d="M174.58,377.79a7.16,7.16,0,0,0-1.16-3.79,3.49,3.49,0,0,0-3.49-1.47,24.85,24.85,0,0,1-2.55,1c-1.16.14-2.25-.64-3.41-.68a5.55,5.55,0,0,0-2.47.68,5.58,5.58,0,0,1,5-3.34,13.06,13.06,0,0,0,1.77,0c1.14-.19,2.05-1,3.11-1.51a5,5,0,0,1,5.28.85" style="fill:#263238"></path><path d="M159.34,363.82a2.68,2.68,0,0,0,2.11-.33c.64-.35,1.22-.82,1.88-1.12a4.35,4.35,0,0,1,4.14.29c.4.26.82.6,1.28.52.7-.12,1.05-1.12,1.76-1.11-1.24.05-2-1.22-3-2-1.52-1.3-3.69-1.45-5.69-1.41s-4.11.17-5.9-.72a3.56,3.56,0,0,0-1.51-.56c-.54,0-1.11.54-.89,1a1.19,1.19,0,0,0,.26.33c.63.65,1.27,1.3,1.91,1.94a19.36,19.36,0,0,0,3.77,3.24" style="fill:#263238"></path><path d="M171.57,404.43l-2.44,1.51a6.35,6.35,0,0,1-2.13,1,2.18,2.18,0,0,1-2.13-.69,2.39,2.39,0,0,1,.32-2.77c.61-.79,1.48-1.34,2.17-2.07a6.07,6.07,0,0,0,1.43-5.63c-.37,1.89-2.09,3.18-3.68,4.26s-3.34,2.3-3.83,4.16l7.64,7.08c1.36-.87,1.39-2.85,2.27-4.2s2.36-1.9,3.32-3.06C173.7,403.32,172.47,403.87,171.57,404.43Z" style="fill:#263238"></path><g style="opacity:0.30000000000000004"><path d="M139.91,346.38c.72.91,23.62,21.18,23.62,21.18s-3.86,4.49-3.45,6.52,1.15,30,1.15,30l19,17.34,13.74-4.1s3.49-8.91,1.76-10.94-5,4.18-5,4.18,4.67-8.36,2.07-9.42-5-2.44-5.19,1.84-1.21,5.81-1.21,5.81l-13.1-12.45-4.44-3.61s8.57-19.2,7.43-24.8-12.82-21.51-12.82-21.51Z"></path></g><path d="M233.93,374.73l-11.83,3.64s10.16,3.41,11.83,7.56S239,404.08,239,404.08l11,15.11v5.3s-25.33-.38-33.64,5.29-17.39,15.12-17.39,15.12-7.56-2.65-3.78-9.83l-7.55.75A38.69,38.69,0,0,1,196.3,426c5.67-4.54,35.15-13.23,35.15-13.23s-28-15.88-32.13-24.57a116.4,116.4,0,0,0-8.69-15.12S193.27,363.63,202,361,233.93,374.73,233.93,374.73Z" style="fill:#8758FF"></path><g style="opacity:0.30000000000000004"><path d="M233.93,374.73l-11.83,3.64s10.16,3.41,11.83,7.56S239,404.08,239,404.08l11,15.11v5.3s-25.33-.38-33.64,5.29-17.39,15.12-17.39,15.12-7.56-2.65-3.78-9.83l-7.55.75A38.69,38.69,0,0,1,196.3,426c5.67-4.54,35.15-13.23,35.15-13.23s-28-15.88-32.13-24.57a116.4,116.4,0,0,0-8.69-15.12S193.27,363.63,202,361,233.93,374.73,233.93,374.73Z"></path></g><path d="M116,312.1c6.14,8,11.67,14.74,11.67,14.74a63.43,63.43,0,0,0,3.68,12.28c2.46,5.52,12.28,16.57,31.93,19.64s70.61,16,70.61,16l41.14-30.09s30.7-10.44,44.21-30.7,45.44-84.73,54-97,37.46-49.74,64.48-55.26c0,0-31.93-3.69-59,30.7s-41.75,64.47-59.56,79.82S283.67,302.27,272,301.66s-23.94-6.36-35-5.63c-7.74.5-43.33-3.42-65.22-5.82a54.62,54.62,0,0,1-30-13.12c-1.39-1.22-2.78-2.41-4.07-3.5A63.12,63.12,0,0,1,127.12,264c-6.23-6.75,2.33-11.15,2.33-11.15,11.15-2.08,29,4.15,37.6,4.92s8.81-7.52,8.81-7.52a41,41,0,0,0-8.55-3.37c-5.45-1.55-14.26-9.33-18.93-12.44s-7.26-9.86-7.26-9.86c.78,2.34,13.74,9.34,19.19,9.34s21,.78,21,.78.78-7.26,0-12.19-23.86-18.15-23.86-18.15-5.44-9.6-10.37-9.6-9.07-2.85-27.48-4.14-18.41,1.55-28.27,7S82,218.1,82.78,240.4s29.75,66.33,29.75,66.33Z" style="fill:#8758FF"></path><path d="M127.71,326.84s-5.53-6.76-11.67-14.74l-3.51-5.37a326.62,326.62,0,0,1-21.22-38.18c1.8.08,3.59.15,5,.19,5,.14,3.82,14.79,3.82,14.79,4.78.4,10.76,1.84,11.57,6.57.49,2.83-1,6.51,1.37,8.16,1.53,1.09,3.72.37,5.47,1.05,5.36,2.09.41,12.42,5.39,15.29.89-1.59,3.16-2,4.86-1.27a11.64,11.64,0,0,1,4.14,3.52l6.63,7.76a17.65,17.65,0,0,0,4.87,4.42c2.56,1.36,5.58,1.36,8.46,1.7a34.92,34.92,0,0,1,14.36,5c2.61,1.63,5.08,3.63,8,4.45,6.29,1.75,12.58-2.21,18.95-3.63a25.35,25.35,0,0,1,26.4,11.15l19-14.61c4.67-3.59,9.74-7.34,15.63-7.63,5.63-.28,11,2.7,16.62,2.71s10.72-2.88,15.51-5.76q14.43-8.67,28.28-18.22c2.24-1.55,4.57-3.22,5.73-5.69,2-4.16.13-9.51,2.54-13.43,1.1-1.79,3-3.07,3.82-5,1.34-3.18-.66-6.88.05-10.26,1.34-6.38,10-6.94,15.85-9.89,8.87-4.51,11.56-15.8,18.21-23.2h0c-13.25,24.42-32.79,62.49-42.61,77.21-13.51,20.26-44.21,30.7-44.21,30.7l-41.14,30.09s-51-12.9-70.61-16-29.47-14.12-31.93-19.64A63.43,63.43,0,0,1,127.71,326.84Z" style="fill:#e0e0e0"></path><path d="M141.26,318.17c-.1.92-9.32,11.27,0,22.92s18.2,9.42,28,19.59l3.14,4.43s-5.36,11.09-7,15.71-10.62,15.34-10.62,15.34l-3.06,5.18s-6.46,20.88-5.91,23.84,3.14,6.07,5.73,6.36c0,0,3.88,8.06,6.47,8.43s3.7,1.47,4.8,0,6.84-9.61,6.84-9.61-2.4-2.22-3.88-1.85-5.17,1.48-5.17,1.48L160,415.57l2.13,8s7.85,7.31,10.25,6.57,7-8.32,6.1-10.72-8.13.74-8.13.74l-4.43-6.47.37-17s24.21-24,25.13-27.54a17.5,17.5,0,0,0,0-7.39l-15.15-18.86L168,336.1,166.66,323l-17.92-14.23Z" style="fill:#8758FF"></path><path d="M168,336.1s.19.13.55.42l1.6,1.29,6.22,5.06h0l15.2,18.81,0,0v0a19.47,19.47,0,0,1,.41,4.74,13.21,13.21,0,0,1-.34,2.47,6.13,6.13,0,0,1-1.24,2.25c-2.06,2.75-4.49,5.4-7,8.17-5.1,5.51-10.78,11.34-16.93,17.49l.06-.15c-.11,5.37-.23,11.09-.35,17l0-.14,4.44,6.47-.29-.09a27.68,27.68,0,0,1,3.85-1.31,12.71,12.71,0,0,1,2-.34,3,3,0,0,1,2.14.48,1.3,1.3,0,0,1,.38.49,4,4,0,0,1,.14.57,4.1,4.1,0,0,1-.05,1.11,10.11,10.11,0,0,1-.61,2,21.7,21.7,0,0,1-2,3.76,12.44,12.44,0,0,1-2.92,3.24,2.11,2.11,0,0,1-.51.29,1.48,1.48,0,0,1-.6.16,3.37,3.37,0,0,1-1.16-.21,10.9,10.9,0,0,1-2-1,49.43,49.43,0,0,1-7-5.48l-.05,0,0-.07c-.67-2.51-1.39-5.26-2.13-8l.51-.08c.17,4.57.36,9.46.55,14.42l-.33-.24,4.63-1.33.61-.16a1.89,1.89,0,0,1,.71,0,4,4,0,0,1,1.25.44,10.68,10.68,0,0,1,2.11,1.48l.17.16-.14.19c-.81,1.15-1.7,2.39-2.59,3.64-1.14,1.61-2.29,3.21-3.42,4.81l-.86,1.2a1.88,1.88,0,0,1-1.42.81,5.62,5.62,0,0,1-1.52-.27c-.47-.13-.93-.26-1.39-.35-.24-.06-.47-.09-.71-.13a2.68,2.68,0,0,1-.76-.3,3.09,3.09,0,0,1-.63-.44A4.43,4.43,0,0,1,156,439a16.06,16.06,0,0,1-1.83-2.3,44.62,44.62,0,0,1-2.87-5l.2.14a6.37,6.37,0,0,1-3.81-2.29,9.51,9.51,0,0,1-2-3.88,4.21,4.21,0,0,1-.12-1.13c0-.38.07-.73.11-1.09.11-.72.22-1.42.37-2.12.29-1.4.62-2.77,1-4.14,1.39-5.45,2.94-10.73,4.52-15.88v-.06l3.06-5.17v0h0c2-2.47,4-4.95,5.81-7.45.92-1.25,1.79-2.52,2.62-3.79a24.32,24.32,0,0,0,2.13-3.94c1-2.83,2.28-5.5,3.47-8.13s2.41-5.19,3.61-7.68l0,.22c-1.09-1.55-2.12-3-3.14-4.44l0,0a33.86,33.86,0,0,0-7.6-5.94c-2.71-1.57-5.51-2.77-8.16-4.07a37,37,0,0,1-7.22-4.54,32.44,32.44,0,0,1-5.41-5.69,16.83,16.83,0,0,1-3.55-12.81,19.58,19.58,0,0,1,1.67-5.41c.37-.79.77-1.54,1.18-2.24s.89-1.36,1.16-2l0-.05,5.62-7,1.43-1.77c.32-.4.5-.59.5-.59l-.46.62-1.39,1.8q-1.89,2.38-5.55,7.07l0-.05c-.32.75-.78,1.33-1.17,2.05a23.28,23.28,0,0,0-1.16,2.23,19.47,19.47,0,0,0-1.62,5.35A16.6,16.6,0,0,0,141,340.39a32.62,32.62,0,0,0,5.38,5.62,36.18,36.18,0,0,0,7.17,4.46c2.63,1.29,5.45,2.49,8.19,4.07a34,34,0,0,1,7.7,6h0v0l3.15,4.43.07.1,0,.12q-1.8,3.74-3.59,7.67c-1.19,2.63-2.41,5.31-3.45,8.11a23.7,23.7,0,0,1-2.17,4q-1.24,1.94-2.62,3.81-2.76,3.78-5.83,7.49l0,0c-1,1.7-2,3.43-3.05,5.17l0,0c-1.57,5.14-3.12,10.43-4.5,15.87-.34,1.36-.67,2.73-1,4.11-.15.69-.26,1.39-.37,2.08,0,.35-.08.7-.1,1a3.83,3.83,0,0,0,.11,1,8.89,8.89,0,0,0,1.94,3.66,5.93,5.93,0,0,0,3.48,2.12l.14,0,.06.12a44.25,44.25,0,0,0,2.84,4.95,15.91,15.91,0,0,0,1.77,2.23,4.51,4.51,0,0,0,.51.47,2.9,2.9,0,0,0,.55.39,2.06,2.06,0,0,0,.59.23c.24.05.49.08.73.14a20.47,20.47,0,0,0,2.79.61c.84,0,1.28-1,1.88-1.8,1.14-1.59,2.28-3.2,3.42-4.81l2.59-3.63,0,.34a10.19,10.19,0,0,0-2-1.41,3.48,3.48,0,0,0-1.09-.39,1.29,1.29,0,0,0-.52,0c-.19,0-.39.1-.59.16l-4.61,1.31-.32.1V430c-.19-5-.38-9.85-.56-14.42l-.08-2.32.59,2.24c.73,2.77,1.46,5.51,2.12,8l-.07-.12a50.05,50.05,0,0,0,6.9,5.43,10.17,10.17,0,0,0,1.9.94,2.6,2.6,0,0,0,1,.19,1,1,0,0,0,.43-.12,1.52,1.52,0,0,0,.43-.24,12.23,12.23,0,0,0,2.79-3.11,20.64,20.64,0,0,0,2-3.66,9.29,9.29,0,0,0,.59-1.95c.1-.63.13-1.38-.3-1.72a2.67,2.67,0,0,0-1.8-.37,11.1,11.1,0,0,0-2,.33,25.73,25.73,0,0,0-3.77,1.28l-.19.07-.11-.16-4.43-6.47,0-.06v-.07c.14-5.92.27-11.64.39-17v-.08l.06-.07c6.16-6.13,11.86-11.95,17-17.44,2.53-2.76,5-5.4,7-8.11a6.15,6.15,0,0,0,1.2-2.13,13.3,13.3,0,0,0,.33-2.41,18.74,18.74,0,0,0-.38-4.65l0,.06C185,354,179.83,347.53,176.21,343h0l-6.17-5.12-1.57-1.32Z" style="fill:#263238"></path><path d="M160.28,328.11a30.29,30.29,0,0,0-7.09,4.13c-2.12,1.66-4.28,3.7-7,3.74a2.93,2.93,0,0,1-1.74-.44A2.8,2.8,0,0,1,144,332a9.31,9.31,0,0,1,2.72-2.73,21.44,21.44,0,0,0,5.09-5.32c.87-1.38,1.49-2.9,2.32-4.3a16.32,16.32,0,0,1,5-5.26c-4.45.43-7.46,4.59-9.88,8.35-1,1.6-2.15,3.28-3.85,4.16-1.2.63-2.62.82-3.74,1.59a5.69,5.69,0,0,0-2.18,4.2,25.78,25.78,0,0,0,.7,6c2,3.74,4.72,5.91,8.08,9,0-2.17.08-4.34.12-6.52a5.72,5.72,0,0,1,.28-1.93c.57-1.4,2.14-2,3.5-2.71a22.4,22.4,0,0,0,9.28-8.32C161.23,327.86,160.67,328,160.28,328.11Z" style="fill:#263238"></path><path d="M162.71,385.8a37.51,37.51,0,0,1,13.21-4.65,5.48,5.48,0,0,0,3.15-1.13,2.74,2.74,0,0,0-2.15-.49l-8.16.5a5.34,5.34,0,0,0-2.18.43,5.55,5.55,0,0,0-2.14,2.55L163,385.66" style="fill:#263238"></path><path d="M168.3,375.14c1.43-.09,2.87.28,4.3.14,1.61-.16,3.07-1,4.65-1.31s3.52-.05,4.29,1.36c.41.07.49-.58.31-1a4.26,4.26,0,0,0-2.69-2.32,17.73,17.73,0,0,0-3.86-.16,8.38,8.38,0,0,1-4-1.21c-.54-.33-1.17-.74-1.76-.51" style="fill:#263238"></path><path d="M186.74,356.07a4.69,4.69,0,0,1-3.3,6.69,16,16,0,0,0-3.11.45c-1.35.55-2.08,2-3.08,3a6.9,6.9,0,0,1-3.54,2,7.85,7.85,0,0,0,6.38-.79,9,9,0,0,1,2.88-1.58c1.4-.26,2.83.55,4.23.29a3.89,3.89,0,0,0,2.58-2.11,11.36,11.36,0,0,0,.94-3.3" style="fill:#263238"></path><path d="M166.6,357.94a7,7,0,0,0,4.91,1.51c2-.17,3.85-1.16,5.78-.86.81.13,1.57.48,2.37.64a2.49,2.49,0,0,0,2.29-.52c-1.14-.17-2-1.14-3-1.71-2.95-1.66-6.86.33-10-1-1.18-.49-2.15-1.42-3.36-1.87s-2.89-.15-3.26,1.08a19,19,0,0,1,4.89,3.18" style="fill:#263238"></path><path d="M175.28,342.49a5.31,5.31,0,0,1-3.15,7.53c-3.44,1.05-7.1-1.5-10.64-.87l8.1,2.61c1.52.48,3.19,1,4.67.37a7,7,0,0,0,2.37-1.94l2.07-2.3c.29-.31.59-.77.35-1.12" style="fill:#263238"></path><path d="M152.63,350.43a17.8,17.8,0,0,1,.54-3.57,6.47,6.47,0,0,1,1.18-2.58,5.36,5.36,0,0,1,2.17-1.48,8.38,8.38,0,0,1,3.25-.57,9.39,9.39,0,0,0,2.95-.05,8.9,8.9,0,0,0,2.83-2.08.38.38,0,0,1,.21-.12.35.35,0,0,1,.29.15,1.74,1.74,0,0,1,.28,1.68,4,4,0,0,1-1,1.47,5.23,5.23,0,0,1-2.12,1.52c-1,.33-2.05.22-3,.53a3.73,3.73,0,0,0-2.53,3.67c0,.6.22,1.19.24,1.79a1.76,1.76,0,0,1-.65,1.6" style="fill:#263238"></path><path d="M172.46,390.21a5.41,5.41,0,0,0-4.83-.36c-2.44,1-3.84,3.66-6.16,4.92a28,28,0,0,1-3.23,1.25,4.77,4.77,0,0,0-2.65,2.1,19.36,19.36,0,0,0,8.91-2,10.81,10.81,0,0,1,3.85-1.45" style="fill:#263238"></path><path d="M124.73,258.88a1.93,1.93,0,0,1-.44-.19,5.31,5.31,0,0,1-1.08-.84,11,11,0,0,1-2.4-4.39c-.64-2-1.33-4.42-2.13-7.08s-1.66-5.61-2.4-8.74a48.89,48.89,0,0,1-1.37-9,29.12,29.12,0,0,1,.54-7.41A21.47,21.47,0,0,1,117,216.5c.26-.54.47-.94.63-1.21s.25-.4.27-.39-.27.6-.72,1.68a24.3,24.3,0,0,0-1.38,4.74,30.3,30.3,0,0,0-.42,7.31,51.06,51.06,0,0,0,1.39,8.89c.75,3.11,1.6,6,2.36,8.72s1.44,5.06,2,7.11a11.46,11.46,0,0,0,2.19,4.36A9.66,9.66,0,0,0,124.73,258.88Z" style="fill:#263238"></path><path d="M159.76,256.22s-.75-.56-2.16-1.51a38.17,38.17,0,0,0-6.25-3.48,37.67,37.67,0,0,0-10.18-2.88c-1-.13-2-.23-3-.28s-2.11,0-3.23-.11a4.93,4.93,0,0,1-3.18-1.29,19.31,19.31,0,0,1-2.1-2.78l-3.81-5.59c-.62-.9-1.22-1.79-1.81-2.67a6.6,6.6,0,0,1-1.21-2.92c-.21-2.11.5-4,.76-5.7a45.91,45.91,0,0,0,.61-4.91,46.85,46.85,0,0,0-.05-7.17c-.07-.84-.14-1.5-.19-1.94a3.24,3.24,0,0,1,0-.69,3.22,3.22,0,0,1,.15.67c.09.44.19,1.09.29,1.94a42.45,42.45,0,0,1,.22,7.21,43.54,43.54,0,0,1-.56,5c-.24,1.77-.92,3.63-.7,5.57a6.19,6.19,0,0,0,1.14,2.71c.59.87,1.2,1.75,1.82,2.65,1.23,1.81,2.51,3.68,3.82,5.59a19.62,19.62,0,0,0,2,2.7,4.43,4.43,0,0,0,2.87,1.15c1.06.08,2.15.06,3.2.12s2.09.16,3.09.3a37.41,37.41,0,0,1,10.27,3,35.44,35.44,0,0,1,6.22,3.65c.69.51,1.2.92,1.54,1.22A3.77,3.77,0,0,1,159.76,256.22Z" style="fill:#263238"></path><path d="M143.36,225.24c-.12.11-.92-.7-2.21-1.08a19.88,19.88,0,0,0-2.44-.32,2.92,2.92,0,0,1,2.59-.18C142.76,224.09,143.48,225.18,143.36,225.24Z" style="fill:#263238"></path><path d="M152.52,204.41c-1.61-1.45-2.92-1.81-5.14-2.28-3,.69-4.53,3.29-6.27,5.56a1.52,1.52,0,0,0-.37.75,1.36,1.36,0,0,0,.27.81A20,20,0,0,0,148,216a3.55,3.55,0,0,0,3.16.58,3.41,3.41,0,0,0,1-.84c1.45-1.59,2.91-3.35,3.15-5.4C155.52,208.14,154.27,206,152.52,204.41Z" style="fill:#e0e0e0"></path><path d="M149.79,203.57a29.39,29.39,0,0,1,.61,5.84,5.92,5.92,0,0,0,.6,3.29,4.23,4.23,0,0,0,.84-2c.31-1.4.56-2.8.75-4.22a3.38,3.38,0,0,0,0-1.52,3.59,3.59,0,0,0-1.55-1.7c-.47-.33-1.14-.64-1.54-.24l.07.27" style="fill:#263238"></path><path d="M273.77,313.78c0,2.17,3.26,23.38,0,35.89S267.24,378,267.24,378s5.08,1.63,8,8.7,12.14,18,17,20.13,13.05,3.8,13.05,3.8v52.76l-33-.12h-9.39s-4.4-2.67,14.51-5.13c7.57-1,12.11-11.61,12.11-11.61l1.09-23.93s-30.46-14.69-38.62-22.3-18.08-25.52-18.08-25.52L222.1,319.21Z" style="fill:#8758FF"></path><path d="M210.57,306.41a3,3,0,0,1-2.34,1,1.88,1.88,0,0,1-1.11-2.48,4.29,4.29,0,0,1,2.15-2.11,56.31,56.31,0,0,1,6.68-2.52c2.22-.86,4.42-2.18,5.48-4.31-5.05.27-9.77,2.77-13.6,6.08s-6.88,7.4-9.89,11.46a30.19,30.19,0,0,0-4.3,7.07c-2.38,6.32-1.44,9.54.65,16l8.57-.29c-1.35-5.68-1.94-4.49-1.8-10.06s2.12-11.31,6.34-15c6.15-5.28,15.61-5.18,21.78-10.42A25.45,25.45,0,0,0,210.57,306.41Z" style="fill:#263238"></path><path d="M219.71,333.18c-.25-3.73-.49-7.46-.74-11.2a7.38,7.38,0,0,1,.18-2.89,7.08,7.08,0,0,1,2.69-3.18c2.14-1.63,4.48-3.12,5.93-5.38a32.6,32.6,0,0,1,2.3-3.87,11.06,11.06,0,0,1,3-2.23,89.54,89.54,0,0,1,17-7.13l9.55,2.34c-4.41,1.57-10.36,4.24-14.61,6.21a15.61,15.61,0,0,0-4.66,2.92,14.18,14.18,0,0,0-2.54,4,54.57,54.57,0,0,0-4.74,15.68c-2.47-5.52-1.28-12,1.21-17.55l-8.57,7.28a12.41,12.41,0,0,0-2.56,2.66,12.79,12.79,0,0,0-1.33,3.45q-1.17,4.32-2.32,8.65" style="fill:#263238"></path><path d="M119.06,246.86c-3.86.18-6.61,4.57-10.39,3.83-.93-.18-1.75-.69-2.69-.84-2-.32-3.86,1.11-5.34,2.42-3.71,3.27-7.86,6.53-13,7.35l6.57-8.74a6.2,6.2,0,0,1,2.81-2.45,8.22,8.22,0,0,0,2.3-.71,4.2,4.2,0,0,0,1.07-1.53,7.5,7.5,0,0,1,5.76-3.63,2.36,2.36,0,0,0,1.36-.38,2,2,0,0,0,.46-1.4c.29-2.42,5.39-5.55,8.08-5.25,0,0,.49,2.45,1.24,5.17S119.06,246.86,119.06,246.86Z" style="fill:#263238"></path><path d="M125.1,260.75l-4-1.38a2.85,2.85,0,0,0-1.37-.24c-1.09.18-1.56,1.47-2.4,2.2a8.7,8.7,0,0,1-2.26,1.13c-5,2.25-5.75,9.2-9.88,12.78a38.29,38.29,0,0,1,.65-10.08,8.09,8.09,0,0,1,.72-2.28,9,9,0,0,1,1.62-2l6.08-6.13a14.66,14.66,0,0,1,3.61-2.92c1.38-.7,8.77,1.19,10.14,1.92C125.47,255.73,124.43,258,125.1,260.75Z" style="fill:#263238"></path><path d="M136.9,273a10.19,10.19,0,0,1-9.59,2,11.71,11.71,0,0,0-2.26-.74c-1.86-.26-3.6.93-4.93,2.26s-2.5,2.89-4.19,3.7c-.31.15-.82.15-.83-.19a.56.56,0,0,1,.06-.21q1-2.22,2-4.45a27.31,27.31,0,0,1,3.09-5.67,9.35,9.35,0,0,1,5.22-3.6,7.37,7.37,0,0,1,4,.27s2.18,2,3.36,3.2S136.9,273,136.9,273Z" style="fill:#263238"></path><path d="M256.93,404.87s-1.43-3.17,4-6.9,7.61-3.3,7.61-3.3a6.1,6.1,0,0,1-2.4,2.54c-1.65.91-7,4.67-6.15,8.8A12.94,12.94,0,0,0,256.93,404.87Z" style="fill:#263238"></path><path d="M275.8,414.77s.9-4.82,3.71-6.18a42.55,42.55,0,0,1,8-2.38,15.4,15.4,0,0,0-3.79,3.24c-1,1.55-2.7,6.4-2.2,8.88C279.42,417.07,277.47,415.86,275.8,414.77Z" style="fill:#263238"></path><path d="M278.05,395.51c-1.74,2.56-10,14.58-10,14.58l4,2.18s1.57-8.45,4.94-12.55Z" style="fill:#263238"></path><path d="M241.39,386.92s4-6.71,10.7-7.31a67.27,67.27,0,0,1,12.46.1,12.27,12.27,0,0,0-7-2.65,42,42,0,0,0-11.69,2c-1.31.63-5.37,5.86-5.37,5.86Z" style="fill:#263238"></path><path d="M237.21,380.31c-.07-.38,5.48-6.9,6.22-7.17s9.19-4.51,14.28-2.71,9.57,8,9.57,8-3.07-6.41-6.17-8.86-8.81-1.9-14.12-.63-12.29,7.29-12.29,7.29Z" style="fill:#263238"></path><path d="M238.08,366.77c.4-.52,3.28-4.13,7.44-4.87s17.39-.12,19.71,1.19c0,0-6,.34-10.64.44s-9.89,2.77-11.71,3.28-7.3,5-7.3,5Z" style="fill:#263238"></path><path d="M237.62,351.23c.41,1,7.35-4.15,18.9-1.87a28.27,28.27,0,0,1,15.28,8.19l1.7-6.44s-7.89-7.9-16.75-10.63-23.65,2-23.65,2-2.18.54,2.05,1,9.94-2.65,18.32-.55a44.11,44.11,0,0,1,15.22,7.71s-11.92-4.44-17.38-4.55S237,349.67,237.62,351.23Z" style="fill:#263238"></path><path d="M247.68,393.17a7.47,7.47,0,0,0,4.21.36,43.3,43.3,0,0,0,8.27-2.53,17.32,17.32,0,0,0,4.4-2.48,7.76,7.76,0,0,0,2.72-4.16,23.81,23.81,0,0,0-6.31,3.43,10.4,10.4,0,0,1-1.59,1.23,5.23,5.23,0,0,1-3.7.35,4.34,4.34,0,0,0-1.88-.21c-.88.19-1.45,1-2.11,1.62a5.7,5.7,0,0,1-7,.43,1.89,1.89,0,0,0,.64.68A11.45,11.45,0,0,0,247.68,393.17Z" style="fill:#263238"></path><path d="M266.15,355.72a8.62,8.62,0,0,0-2.46-.61,23.1,23.1,0,0,0-6.42-.33,13.56,13.56,0,0,1-3.52.33c-.68-.09-1.33-.34-2-.41-1.86-.18-3.54,1-5.15,2a24.79,24.79,0,0,1-5.46,2.45,61.15,61.15,0,0,1,20.13-1.41,17.56,17.56,0,0,1,3.39.59,20.89,20.89,0,0,1,6.1,3.46l.71-2.72C269.24,359.13,268.15,356.66,266.15,355.72Z" style="fill:#263238"></path><path d="M262.18,326.25c-3.64-1-7.47-1.08-11.24-1.46a67.48,67.48,0,0,1-11.88-2.25c2.49,3.45,6.91,5,11.14,5.5s8.55.33,12.71,1.27,8.32,3.4,9.73,7.43a2.19,2.19,0,0,1,.05,1.7c-1.23-2.11-4-2.7-6.37-3.08a45.91,45.91,0,0,0-8.82-.84c-2,.07-4,.4-6,.39a62.34,62.34,0,0,1-6.92-.78,40.94,40.94,0,0,0-9-.09c-4.53.45-6.27,2.38-8.29,6.45,5.45-4.17,9.79-4.4,16.53-3.09a37.75,37.75,0,0,0,6.66,1c3,0,5.94-.83,8.92-1.25,5.18-.72,12.56,1.15,15.41,5.54l.23-9C270.28,329.68,268.18,327.94,262.18,326.25Z" style="fill:#263238"></path><path d="M244.57,320.66a27.36,27.36,0,0,1,17.8-13.51,16,16,0,0,0,4.78-1.47,27.26,27.26,0,0,0,2.42-1.86,10.77,10.77,0,0,1,7.06-2.1,11.72,11.72,0,0,1-5.07,7.75c-6.06,4-15.05,1.88-20.37,6.81-2,1.85-3.55,4.7-6.26,4.93C244.65,321,244.27,320.86,244.57,320.66Z" style="fill:#263238"></path><path d="M294.54,307.91c-.71-1.17-1.58-2.23-2.29-3.4a13.66,13.66,0,0,1-1.83-9.68c-2.3,1.4-6.2,3.52-6.2,3.52-.24,3,.24,7,2.5,9a16.63,16.63,0,0,0,2.52,1.57A12.22,12.22,0,0,1,295,320.45a2.75,2.75,0,0,0,1.44-2.26A14.8,14.8,0,0,0,294.54,307.91Z" style="fill:#263238"></path><path d="M306.51,294.27a4.49,4.49,0,0,0,1.93.27,13.88,13.88,0,0,1,9,3.64c-.3-2-2.16-3.36-4-4.28s-3.8-1.73-4.91-3.41c-1.54-2.33-.53-5.24-2.61-7.11l-8.18,6.35a13.93,13.93,0,0,0,3,8.67c1.39,1.76,3.3,3.34,3.6,5.57s-.95,4.64.45,6.27c2.16-4.17,1.66-9.38-.47-13.57-1.06-2.1-2.56-4.32-1.95-6.59l3,3.25A3.84,3.84,0,0,0,306.51,294.27Z" style="fill:#263238"></path><path d="M322.37,283.08a10.07,10.07,0,0,1-.19-2.38c.25-2,2.22-3.47,2.81-5.44s-.06-6.41-.27-8.38l-8.25,7.72a7.05,7.05,0,0,0,1.57,6.83,4.2,4.2,0,0,1,1.09,1.22,2.8,2.8,0,0,1,.17,1.15c0,3.15-.46,6.51,1.07,9.26C321.67,289.89,322.79,286.49,322.37,283.08Z" style="fill:#263238"></path><path d="M342.93,257.35c-1.77-2.08-4-5.6-3.94-8.33l-4.82,6.62c3,2.9,8.42,5,12.57,5.48A21.24,21.24,0,0,1,342.93,257.35Z" style="fill:#263238"></path><path d="M354.15,244.68a6.4,6.4,0,0,0-1.56-3c-.82-.88-1.87-1.51-2.64-2.42a7.86,7.86,0,0,1-1.61-4.8,7,7,0,0,0,.69,7.94,6.09,6.09,0,0,1,1.45,1.92,6.48,6.48,0,0,1,0,2.52,6.22,6.22,0,0,0,3,5.72l2.57-4.8A4.21,4.21,0,0,1,354.15,244.68Z" style="fill:#263238"></path><path d="M359.09,233.3c-.45-1-1.18-1.91-1.55-3a8.84,8.84,0,0,1-.38-2.62,53.65,53.65,0,0,1,.24-5.81l-3.93,5.78a14,14,0,0,0,3.08,7.28A10.37,10.37,0,0,1,358,236.9c.3.58.49,1.29,1.05,1.63A6.36,6.36,0,0,0,359.09,233.3Z" style="fill:#263238"></path><path d="M366.14,221c-1.13-1.32-3.37-1.53-4.08-3.12a4.27,4.27,0,0,0,.15,2.85,7.78,7.78,0,0,0,.82,1,4.63,4.63,0,0,1,1,2.29c.1.79,0,1.59.14,2.37a4.73,4.73,0,0,0,1.76,3l2.16-3.61C367,224.37,367.27,222.29,366.14,221Z" style="fill:#263238"></path><path d="M184.82,312.91a10,10,0,0,1,2.52-8.06c1.27-1.38,2.92-2.37,4.28-3.67,2.08-2,3.31-5.59,3.7-8.43l4.71.49a6.73,6.73,0,0,1-1.19,7.28,28.26,28.26,0,0,1-2.48,2.29c-3.39,3.14-4.94,7.74-6.37,12.13-1,1.56-4,7-5.75,8.05Z" style="fill:#263238"></path><path d="M180.3,294.33a13.13,13.13,0,0,0-2.37,4.09c-1.3,2.87-3.05,5.73-5.84,7.18-1.34.69-2.83,1-4.22,1.59a13.76,13.76,0,0,0-8,9.83l2.58,7.36a11.45,11.45,0,0,1,4.65-10.11c3.86-2.77,9.5-3.17,12.15-7.12,1.19-1.75,1.53-3.92,2.16-5.94a20.78,20.78,0,0,1,6.06-9.3C184.94,292.16,182.14,292.51,180.3,294.33Z" style="fill:#263238"></path><path d="M145.85,301.74c1.45-2,4.33-2.43,6.81-2.11s4.93,1.15,7.41.91a8.7,8.7,0,0,0,5.71-3c.94-1.09,1.59-2.4,2.55-3.47a23.52,23.52,0,0,1,5.23-3.69c-1.72-.27-4.37-.47-6.07-.84-3.72-.81-6.34-1.71-9.53-2.68a8.25,8.25,0,0,1,.54,2.68,1.42,1.42,0,0,1-.14.79,1.46,1.46,0,0,1-.79.5c-3.61,1.16-8-.63-11.12,1.53,3.23.61,6.55,1.23,9.77.61a11.61,11.61,0,0,1,2.91-.41,2.46,2.46,0,0,1,2.26,1.59,2.36,2.36,0,0,1-1.64,2.56,6.94,6.94,0,0,1-3.3.08l-4.55-.65a10,10,0,0,0-3.31-.09c-2.67.53-4.47,3.27-4.76,6,.34.71,1.53.51,2-.32" style="fill:#263238"></path><path d="M141.15,276.5c0,1.17-1.22,2.36-2.18,3a18,18,0,0,1-3.18,1.48,11.2,11.2,0,0,0-3.92,2.58,6.38,6.38,0,0,0-1.83,4.24,8,8,0,0,1,6.37-2.21c1.3.14,2.62.61,3.88.27,1.43-.39,2.41-1.72,3.77-2.32,1.76-.76,4.18.54,5.52-.83Z" style="fill:#263238"></path><path d="M372.53,212a15.5,15.5,0,0,1,.11-1.93,13.53,13.53,0,0,0-1.18-5.19.8.8,0,0,0-.35-.49.63.63,0,0,0-.5,0,1.68,1.68,0,0,0-1,1.3c-.12.89.46,1.71.58,2.59a7.9,7.9,0,0,1-.54,3,8.51,8.51,0,0,0,2.28,7.79l2.62-3.74C373.57,214.27,372.64,213.4,372.53,212Z" style="fill:#263238"></path><path d="M386.66,192.08a8.18,8.18,0,0,1-1.08-1.47,4.72,4.72,0,0,1,.48-4.22,9.16,9.16,0,0,0,.15-2.39l-3.52,3.75c-.66,1.06-1.21,2.74-.55,3.79s1.61,1.9,2.29,2.93a7.18,7.18,0,0,1,1.15,4.32,6.67,6.67,0,0,0,.15,2.06l3.52-3.94A15.76,15.76,0,0,0,386.66,192.08Z" style="fill:#263238"></path><path d="M279.82,458.94s-5.95-4.8-6.78-4.8-11.27,1.69-11.27,1.69.7,1.41,6.77,3.11,6.63,1.55,6.63,1.55l6.47-1.27" style="fill:#8758FF"></path><path d="M141.66,201.47c0-.09.44-.15,1.06-.37a1.7,1.7,0,0,0,.86-.64,2.54,2.54,0,0,0,.37-1.28,3.67,3.67,0,0,0-.77-2.37c-.41-.53-.78-.76-.74-.83s.48.06,1,.58a3.59,3.59,0,0,1,1,2.64,2.85,2.85,0,0,1-.5,1.54,2.36,2.36,0,0,1-2.31.73Z" style="fill:#263238"></path><path d="M135.81,204.67a1.72,1.72,0,0,0,.78-.17c.46-.22,1-.85,1.76-1.44a11.29,11.29,0,0,1,7.29-2.05,15,15,0,0,1,9,4,2.5,2.5,0,0,1,.56.63c-.06.07-.94-.76-2.57-1.77a15.06,15.06,0,0,0-7-2.34,11.59,11.59,0,0,0-7.05,1.83,14.51,14.51,0,0,1-1.89,1.33C136.12,204.91,135.78,204.69,135.81,204.67Z" style="fill:#263238"></path><path d="M147.21,201.08c0-.08.39-.17.87-.59a3.45,3.45,0,0,0,1.12-2.12,5.15,5.15,0,0,0-.07-2.46c-.23-.58-.61-.79-.57-.85s.52,0,.9.69a4.31,4.31,0,0,1,.25,2.71,3.38,3.38,0,0,1-1.41,2.33C147.68,201.18,147.21,201.14,147.21,201.08Z" style="fill:#263238"></path><path d="M150.6,202.34c0-.07.35.13.86.1a1.38,1.38,0,0,0,.79-.28,3.35,3.35,0,0,0,.7-.85,2.62,2.62,0,0,0,.36-1.93c-.16-.51-.23-.92-.13-.92s.21.26.48.8a2.62,2.62,0,0,1-.26,2.31,3.31,3.31,0,0,1-.87,1,1.63,1.63,0,0,1-1.08.26C150.8,202.73,150.55,202.38,150.6,202.34Z" style="fill:#263238"></path><path d="M153.44,204.19c0-.08.27-.05.63,0a2,2,0,0,0,1.23-.31,1.68,1.68,0,0,0,.65-1.06c.06-.33,0-.57.1-.59s.23.18.26.61a1.66,1.66,0,0,1-.71,1.46,1.85,1.85,0,0,1-1.59.25C153.62,204.4,153.42,204.25,153.44,204.19Z" style="fill:#263238"></path><path d="M135.51,198.2c-.06,0,.15-.56.94-.92a2.83,2.83,0,0,1,1.47-.21,3,3,0,0,1,1.64.8,4,4,0,0,1,1.2,3c0,.85-.43,1.28-.47,1.23a10.41,10.41,0,0,0,.1-1.23,4.11,4.11,0,0,0-1.19-2.58,2.65,2.65,0,0,0-2.62-.63C135.87,197.84,135.57,198.26,135.51,198.2Z" style="fill:#263238"></path><path d="M134.15,199.71a5.36,5.36,0,0,0-.44,1,3.78,3.78,0,0,0,0,1.18,9.32,9.32,0,0,0,.26,1.46,1.38,1.38,0,0,0,.91.87,2.55,2.55,0,0,0,1.15.08c.68-.1,1.12-.24,1.14-.16s-.34.32-1.07.52a2.57,2.57,0,0,1-1.36,0,1.83,1.83,0,0,1-1.27-1.16,8.3,8.3,0,0,1-.24-1.59,3.22,3.22,0,0,1,.16-1.32C133.63,199.88,134.12,199.65,134.15,199.71Z" style="fill:#263238"></path><path d="M143.57,195c0,.15-.71.21-1.5.47s-1.4.59-1.49.48.43-.7,1.33-1S143.59,194.83,143.57,195Z" style="fill:#263238"></path><path d="M138.12,210.1c-.16-.12.52-1.34,2-3.06a31.66,31.66,0,0,1,2.73-2.83c.55-.5,1.14-1,1.77-1.51.32-.25.64-.5,1-.75a3.07,3.07,0,0,1,1.45-.7,4.23,4.23,0,0,1,1.5.14,8.69,8.69,0,0,1,1.26.36,9.68,9.68,0,0,1,2.18,1.1,10.2,10.2,0,0,1,2.91,2.87c1.29,2,1.34,3.47,1.17,3.5s-.68-1.24-2.05-2.83a11.09,11.09,0,0,0-2.79-2.32,9.6,9.6,0,0,0-1.92-.87,7.8,7.8,0,0,0-1.08-.29,3.1,3.1,0,0,0-1-.11,1.68,1.68,0,0,0-.74.4l-1,.71c-.62.47-1.21.94-1.77,1.39-1.1.91-2.07,1.77-2.87,2.51C139.27,209.28,138.3,210.24,138.12,210.1Z" style="fill:#263238"></path><path d="M141.25,224.9s.44.41,1.26,1.09a23.47,23.47,0,0,0,3.8,2.5c.85.46,1.79.93,2.81,1.45a24.06,24.06,0,0,0,3.27,1.47,36.72,36.72,0,0,0,8,2.08,61.15,61.15,0,0,0,8.27.16c2.55-.09,4.86-.14,6.8-.05a31.58,31.58,0,0,1,4.57.53,11.65,11.65,0,0,1,1.62.45,10.2,10.2,0,0,1-1.66-.25,38.2,38.2,0,0,0-4.54-.36c-1.93,0-4.22.05-6.77.16a57.51,57.51,0,0,1-8.35-.12,24.17,24.17,0,0,1-4.26-.87c-1.34-.42-2.59-.84-3.81-1.28a22.59,22.59,0,0,1-3.31-1.54c-1-.53-1.95-1-2.79-1.51a21.17,21.17,0,0,1-3.75-2.66,9.46,9.46,0,0,1-.87-.9C141.32,225,141.23,224.91,141.25,224.9Z" style="fill:#263238"></path><path d="M174.51,233.52c0-.08.35-.14.85-.36a3.92,3.92,0,0,0,1.6-1.31,3.84,3.84,0,0,0,.62-2c0-.55-.05-.9,0-.92s.27.3.34.9a3.35,3.35,0,0,1-2.47,3.63C174.89,233.66,174.51,233.58,174.51,233.52Z" style="fill:#263238"></path><path d="M171.33,233.23c0-.15.67-.35,1.18-1s.56-1.38.71-1.4.16.19.15.52a2,2,0,0,1-.45,1.2,2.1,2.1,0,0,1-1,.73C171.54,233.34,171.33,233.3,171.33,233.23Z" style="fill:#263238"></path><path d="M151.62,230.82a2.64,2.64,0,0,1,.07-2.32c.5-1.26,1.48-1.86,1.55-1.74s-.63.81-1.06,1.93S151.77,230.81,151.62,230.82Z" style="fill:#263238"></path><path d="M149.41,229.34c-.06,0-.22-.08-.35-.37a1.92,1.92,0,0,1-.11-1.2,2,2,0,0,1,.61-1c.24-.2.44-.24.47-.18s-.41.58-.57,1.34S149.53,229.27,149.41,229.34Z" style="fill:#263238"></path><path d="M141.25,224.9s.21.58.69,1.58a19.92,19.92,0,0,0,2.61,3.87,22.42,22.42,0,0,0,2.19,2.37c.84.78,1.92,1.41,3,2.21,2.13,1.55,4.36,3.41,6.78,5.24,1.2.92,2.42,1.75,3.61,2.56s2.33,1.56,3.46,2.21a30.94,30.94,0,0,0,6.39,2.71,31.28,31.28,0,0,1,4.43,1.68,10.29,10.29,0,0,1,1.11.64,1.63,1.63,0,0,1,.35.28s-.54-.29-1.55-.74a37.13,37.13,0,0,0-4.45-1.51,29.65,29.65,0,0,1-6.51-2.64c-1.16-.65-2.33-1.41-3.52-2.21s-2.42-1.64-3.63-2.57c-2.44-1.84-4.65-3.7-6.76-5.26-1-.8-2.12-1.45-3-2.28a21.67,21.67,0,0,1-2.19-2.46,17.92,17.92,0,0,1-2.51-4,9.44,9.44,0,0,1-.42-1.22A1.33,1.33,0,0,1,141.25,224.9Z" style="fill:#263238"></path><path d="M170.58,251c0-.14.61-.37.82-1.11s-.11-1.29,0-1.39.24,0,.41.32a1.52,1.52,0,0,1,.1,1.23,1.57,1.57,0,0,1-.8.94C170.8,251.13,170.59,251.08,170.58,251Z" style="fill:#263238"></path><path d="M168,249.5c0-.15.5-.29.84-.79s.32-1,.46-1.06.18.11.22.37a1.41,1.41,0,0,1-.25,1,1.45,1.45,0,0,1-.84.57C168.12,249.63,168,249.56,168,249.5Z" style="fill:#263238"></path><path d="M177.17,219.36c.1-.11.74.34,1.43,1s1.18,1.27,1.08,1.37-.74-.34-1.43-1S177.07,219.46,177.17,219.36Z" style="fill:#263238"></path><path d="M165.26,214.48c.2-.46.55-.84.78-1.29.62-1.25,0-2.62-.53-3.93,2.77,1.78,5.46,3.53,7,4.72a2.83,2.83,0,0,1-1.17,3,6.14,6.14,0,0,0-.81.51,3.07,3.07,0,0,0-.79,2.15c-.09.82-.17,1.64-.25,2.46s-.33,1.94-1.18,2.15a.44.44,0,0,1-.4,0c-.16-.12-.14-.38-.11-.59a6.39,6.39,0,0,0,0-2.65,11.74,11.74,0,0,0-1.82-3.1A3.7,3.7,0,0,1,165.26,214.48Z" style="fill:#263238"></path><path d="M91.33,197.62c9.86-5.45,9.86-8.3,28.27-7a132.82,132.82,0,0,1,15.82,1.94c-2,1.53-4.76,1.68-7.3,1.64a1.13,1.13,0,0,0-.73.16,1,1,0,0,0-.29.66,13.69,13.69,0,0,0,.52,6.72,7.9,7.9,0,0,1,.65,2.71c-.05,1.4-1,2.56-2,3.6.31-1.53-.68-3-1.72-4.18s-2.24-2.35-2.49-3.89c-.33-1.94.83-4.32-.57-5.69a3.91,3.91,0,0,0-1.65-.83,33.17,33.17,0,0,0-3.41-.82,6.56,6.56,0,0,0-2.68-.07,2.56,2.56,0,0,0-1.92,1.71c-.43,1.73,1.57,3.1,2,4.85a9.76,9.76,0,0,1-.08,2.64,2.62,2.62,0,0,0,.85,2.39c-1.62.16-2.81-1.47-3.47-2.95s-1.36-3.22-2.9-3.74-3.28.3-4.49-.64a10.55,10.55,0,0,1-.92-1,3.5,3.5,0,0,0-4.08-.35A5.94,5.94,0,0,0,96.17,199a1.43,1.43,0,0,0-.08.84,1.64,1.64,0,0,0,.7.8c2.4,1.72,4.92,3.5,6.35,6.08.73,1.33,1.19,2.87,2.33,3.87,1.86,1.63,4.76,1.2,7,2.33a7.64,7.64,0,0,1-5.85,1.39,12.29,12.29,0,0,1-5.57-2.55,4.37,4.37,0,0,0-1.94-1.06c-1.3-.17-2.36.94-3.26,1.88-1.29,1.33-2.9,2.56-4.75,2.54-.94,0-1.86-.34-2.8-.33s-2,.58-2.08,1.52a2.27,2.27,0,0,0,1,1.77c3.17,2.71,7.74,3,11.9,2.68.25.45-.3.91-.76,1.13A23.09,23.09,0,0,1,82.41,223C82.56,210.23,84.32,201.49,91.33,197.62Z" style="fill:#263238"></path><g style="opacity:0.30000000000000004"><path d="M158.84,255.64a29.83,29.83,0,0,0-13-4.15c-3.58-.28-7.27.08-10.7-1-4.51-1.44-7.86-5.17-10.88-8.81a18.3,18.3,0,0,1-3.64-5.76c-1-3.06-.37-6.41.58-9.49s2.22-6.1,2.49-9.31c.74,0,.65.59.69,1.32a32.09,32.09,0,0,1-.48,7.32c-.39,2.36-1.36,4.91-1,7.26s2.12,4.57,4.67,7.58c1,1.21,3.56,5.32,5,6a13.6,13.6,0,0,0,5,1.12c7.21.8,14.41,2.73,20.49,6.68.15.1.3.22.3.38s-.28.27-.32.11"></path></g><g style="opacity:0.30000000000000004"><path d="M227.76,343.28a26.36,26.36,0,0,1,4.74-21.58,13,13,0,0,0-8.13,5.77,15.78,15.78,0,0,0-2,5.57,11.53,11.53,0,0,0,.47,6.46,6.32,6.32,0,0,0,4.87,3.94"></path></g><g style="opacity:0.30000000000000004"><path d="M138.58,323.27c.26-.64.51-1.27.77-1.9a10,10,0,0,1,1.11-2.22,18.82,18.82,0,0,1,1.69-1.77,22.85,22.85,0,0,0,2.06-2.54l3.75-5.16c-3.23,1.59-6.69,3.43-8.14,6.72a15.66,15.66,0,0,0-.81,6.72"></path></g><g style="opacity:0.30000000000000004"><path d="M150.6,196.13a6.53,6.53,0,0,0-2-1.07,7.1,7.1,0,0,0-2.38-.33,20,20,0,0,0-11.43,3.45,6.55,6.55,0,0,0-2.71,3.27c-.39,1.39.27,3.16,1.68,3.5a4.21,4.21,0,0,0,1.83-.12l5.26-1.11a9,9,0,0,0,2.49-.79c.48-.27.91-.63,1.41-.86,1.58-.74,3.48-.09,4.95.86s2.76,2.22,4.39,2.85a3,3,0,0,0,1.58.24l.42-3.83A27.94,27.94,0,0,0,150.6,196.13Z"></path></g><path d="M404.69,181s-.13.14-.4.39-.69.62-1.2,1.08c-1,1-2.56,2.43-4.43,4.38-3.76,3.9-9,9.77-15.09,17.25-3.06,3.75-6.37,7.9-9.71,12.5-.82,1.16-1.67,2.33-2.44,3.57a19.85,19.85,0,0,0-1.09,1.9c-.32.68-.65,1.37-1,2-1.39,2.7-2.87,5.45-4.39,8.27-3.05,5.63-6.3,11.51-9.68,17.6-1.67,3-3.45,6.13-5.14,9.29s-3.24,6.48-4.93,9.77c-6.83,13.11-13.81,25.35-20.38,36.35l-4.84,8a47.23,47.23,0,0,1-5.1,7.23,34.62,34.62,0,0,1-6.37,5.27l-6.34,4.2c-4.06,2.65-7.78,5-11.12,6.88s-6.29,3.44-8.74,4.59a67,67,0,0,1-7.77,3.23l.51-.23,1.5-.61c1.31-.56,3.25-1.37,5.67-2.57s5.36-2.73,8.68-4.66,7-4.27,11.07-6.94l6.31-4.22a34.47,34.47,0,0,0,6.28-5.23,46.07,46.07,0,0,0,5-7.18l4.82-8c6.54-11,13.5-23.24,20.32-36.34,1.7-3.29,3.35-6.53,4.94-9.77s3.47-6.24,5.16-9.3l9.7-17.58c1.53-2.81,3-5.56,4.4-8.25.35-.67.68-1.34,1-2a18.78,18.78,0,0,1,1.12-2c.79-1.25,1.64-2.42,2.47-3.58,3.37-4.6,6.69-8.74,9.77-12.48,6.18-7.47,11.43-13.3,15.23-17.16,1.9-1.93,3.44-3.37,4.51-4.32.53-.45.94-.8,1.24-1S404.69,181,404.69,181Z" style="fill:#263238"></path><path d="M153.48,356.35l-.19-.06-.55-.22c-.48-.19-1.19-.47-2.1-.88a60.44,60.44,0,0,1-7.64-3.92,37.62,37.62,0,0,1-4.92-3.54,27.9,27.9,0,0,1-4.83-5.2,25.94,25.94,0,0,1-3.54-7.17c-.79-2.69-1.46-5.54-2.24-8.48l0,.11-6.84-8.06c-1.19-1.39-2.35-2.85-3.55-4.31s-2.33-3-3.45-4.6c-2.58-3.54-4.86-7.16-7-10.69s-4.06-7-5.78-10.41c-3.49-6.73-6.31-13-8.6-18.21s-4.05-9.55-5.26-12.52l-1.38-3.43c-.14-.37-.26-.66-.35-.89a2.23,2.23,0,0,1-.1-.31s.06.09.15.29l.4.87c.35.81.84,1.94,1.46,3.39,1.27,2.94,3.09,7.21,5.42,12.45s5.18,11.43,8.69,18.14c1.73,3.37,3.7,6.82,5.79,10.37s4.43,7.12,7,10.65c1.1,1.58,2.29,3.07,3.42,4.58s2.35,2.91,3.54,4.3l6.83,8.08,0,0,0,.07c.77,2.92,1.42,5.77,2.19,8.43a25.42,25.42,0,0,0,3.45,7.07,27.55,27.55,0,0,0,4.72,5.17,38,38,0,0,0,4.85,3.56,68.49,68.49,0,0,0,7.54,4l2.07.95.54.25A.81.81,0,0,1,153.48,356.35Z" style="fill:#263238"></path><path d="M233.93,374.73c0,.14-9.48-2-21.1-4.81s-21-5.18-21-5.32,9.48,2,21.11,4.81S234,374.59,233.93,374.73Z" style="fill:#263238"></path><path d="M270.93,315.77a1.75,1.75,0,0,1,.29.36c.17.24.41.61.7,1.1a22.15,22.15,0,0,1,1.92,4.43,32,32,0,0,1,1.35,7,68.22,68.22,0,0,1,.09,8.75c-.06,1.55-.18,3.06-.29,4.52s-.19,2.87-.35,4.21a50.32,50.32,0,0,1-1.43,7,44.59,44.59,0,0,1-1.52,4.57c-.22.52-.39.93-.51,1.2s-.2.41-.22.4a12.29,12.29,0,0,1,.54-1.67c.36-1.08.86-2.64,1.36-4.6a55,55,0,0,0,1.3-7c.15-1.33.21-2.74.32-4.19s.22-2.95.28-4.5a73.47,73.47,0,0,0-.05-8.69,33.86,33.86,0,0,0-1.22-7,25.34,25.34,0,0,0-1.75-4.44C271.23,316.33,270.89,315.79,270.93,315.77Z" style="fill:#263238"></path><path d="M236.17,318s-.51.39-1.38,1.15a18.24,18.24,0,0,0-3.12,3.72,29.42,29.42,0,0,0-4.28,15.28,50.6,50.6,0,0,0,.74,8.83c.51,2.68,1.11,5.09,1.55,7.11s.81,3.67,1,4.81c.1.57.18,1,.21,1.32a1.41,1.41,0,0,1,0,.47s-.17-.62-.44-1.75-.69-2.81-1.17-4.77-1.13-4.4-1.67-7.1a48.69,48.69,0,0,1-.79-8.92,28.83,28.83,0,0,1,4.49-15.48,16.61,16.61,0,0,1,3.3-3.67,9.65,9.65,0,0,1,1.1-.78C236,318.07,236.16,318,236.17,318Z" style="fill:#263238"></path></g></svg>