<svg xmlns="http://www.w3.org/2000/svg" xmlns:xlink="http://www.w3.org/1999/xlink" viewBox="0 0 500 500"><defs><clipPath id="freepik--clip-path--inject-7"><path d="M402,358.85s-.35,5.94,2.45,7,6.64,1.05,6.64,5.59-5.25,21.32-7,26.56,1.05,13.29-5.25,17.83-15.72,5.24-18.87,2.1,4.2-7.34,4.89-11.89,6.3-23.76,6.3-26.21-6.3-3.49-14-11.53-8-12.59-8-12.59Z" style="fill:#8758FF;stroke:#263238;stroke-linecap:round;stroke-linejoin:round"></path></clipPath><clipPath id="freepik--clip-path-2--inject-7"><path d="M446.46,298.93c3.15,9.46,2.8,31.51,2.8,31.51s.7,7-2.1,18.91-2.1,8.4-1.05,12.6,1.05,30.81,1.05,39.56-1.75,18.91-7,20.31-14,2.8-17.51,1.4-3.5-4.55-2.1-7.35,3.85-2.8,6.65-10.15S429,383.31,429,383.31a13.85,13.85,0,0,1-9.8-5.95C415.3,371.75,416,356,416,356l-10.5,4.2c-21,7.7-41.32,3.5-41.32,3.5a58,58,0,0,1-26.25-8.4C325,347.25,319.37,328,319.37,328l-5.6-9.8s-8.75-20.31-8-38.51,3.15-53.22,0-75.63-22.06-48.66-22.06-48.66-1.4,2.1-6.3,3.85-14.71.35-20-2.1A38,38,0,0,0,243.05,154a1.65,1.65,0,0,1-1.75-2.45s-5.61-.7-5.26-4.56,4.21-11.9,11.56-13.3a43.34,43.34,0,0,0,12.25-4.2s11.2-5.6,21.36-3.5,27.31,16.1,38.16,38.86,18.21,43.06,21.36,61.62,7.7,41.31,7.7,41.31l4.9-7a1.3,1.3,0,0,1,1.75-.37l3.5,2.16,2.39-8a2.7,2.7,0,0,1,3.32-1.83l3.75,1,5.27-9.44a2.61,2.61,0,0,1,3.72-.9l4,2.64,5.52-7.27a1.64,1.64,0,0,1,2.46-.16l4.62,4.62,7.42-5.83a2.39,2.39,0,0,1,3.65.89l2.59,5.65,7.06-2.72a2.18,2.18,0,0,1,2.82,1.26l2,5.31,3.82-.51a1.86,1.86,0,0,1,2,1.14l1.9,4.62,3.09.44a2.3,2.3,0,0,1,2,2.08l.55,6.58h1.59a1.88,1.88,0,0,1,1.84,1.53l.77,4.07,2.42.22a2.05,2.05,0,0,1,1.8,1.51l.68,2.47.43.08a2.33,2.33,0,0,1,1.93,1.95l.79,5s2.1,9.8,1.75,14" style="fill:#8758FF;stroke:#263238;stroke-linecap:round;stroke-linejoin:round"></path></clipPath><clipPath id="freepik--clip-path-3--inject-7"><path d="M258.1,151.19a97,97,0,0,1,0,11.37c-.35,7,3,.88,3,.88s.87,8.4,2.45,6.13.17-11.73.17-11.73,2.1,5.43,2.28,1.75a9.41,9.41,0,0,0-2.28-6.3Z" style="fill:#8758FF;stroke:#263238;stroke-linecap:round;stroke-linejoin:round"></path></clipPath><clipPath id="freepik--clip-path-4--inject-7"><path d="M292.46,379.81a169.29,169.29,0,0,1-17.5-2.1c-7-1.4-21.36-2.1-27,2.45s-12.61,14.35-24.16,17.51-38.86,0-49.71-2.81-35.37-21.7-42-27.65-16.1-11.56-22.4-9.11S82.4,366.16,64.54,363s-41-14-52.51-30.46,0-2.8,9.45,2.46,28.36,15.05,45.86,10.85,44.82-28.71,64.42-36.41,29.06-9.11,42-5.95,16.1,4.55,16.1,4.55,26.61,1.75,35,7.7,18.91,14.7,18.91,14.7,2.1,9.46,16.45,21,14.36,12.6,21,16.11S292.09,374.77,292.46,379.81Z" style="fill:#8c8c8c;stroke:#263238;stroke-linecap:round;stroke-linejoin:round"></path></clipPath><clipPath id="freepik--clip-path-5--inject-7"><path d="M167.56,341s16.28,26.79,13.39,41.49a32.84,32.84,0,0,1-14.7,21.27s2.17,17,3.41,18.38c4.87,5.44,10.12,5.05,10.9,7.41a14.41,14.41,0,0,0,1.36,3.2s-6.48-.37-11.21-.37-7.09-.78-7.61-2.62-2.63-4.47-4.73-4.73-3.68,3.68-3.94,1.31,1-9.71,1-9.71-2.1-3.94-3.67-7.88-.27-6.83,1.05-12.08-.53-11.81-6.31-16.54-14.7-15.23-16.54-25.73" style="fill:#8c8c8c;stroke:#263238;stroke-linecap:round;stroke-linejoin:round"></path></clipPath></defs><g id="freepik--Dinosaur-1--inject-7"><ellipse cx="186" cy="432" rx="89" ry="9" style="fill:#263238"></ellipse><path d="M256.1,431.35s-.62-2.72-2.23-3.47a13.64,13.64,0,0,0-4.63-.62c-1.25-.57-2.27-1.68-5.27-5.09C240,417.71,235,406.68,235,406.68l3.42-20.74c-5.25-2.37-20.22,1.57-18.12,6.3s-.26,15.49,2.1,18.9,8.67,11.56,8.67,11.56a22.09,22.09,0,0,0,.52,3.67c.53,2.63,2.63.27,4.73.53s5.51,5.25,7.61,5.78a24.36,24.36,0,0,0,5.78.26s3.91,0,4.44-1.1C255.13,431.62,256.1,431.35,256.1,431.35Z" style="fill:#666;stroke:#263238;stroke-linecap:round;stroke-linejoin:round"></path><path d="M136.31,366.51s4.21,10.76-1.05,18.64-11.81,8.66-10.5,13.13-2.36,22.05-2.36,26,2.36,1.05,2.36,1.05,4.73,3.42,5.78,4.73,16,1.05,16,1.05h1.32a9.09,9.09,0,0,0-1.58-4.2c-1.31-1.58-3.41-1.58-5.25-2.36s-4.46-4.21-4.73-5.78,1.84-11,3.15-13.39,13.66-7.35,17.86-11.29,7.88-13.92,6.56-17.07S142.35,359.15,136.31,366.51Z" style="fill:#666;stroke:#263238;stroke-linecap:round;stroke-linejoin:round"></path><path d="M292.46,379.81a169.29,169.29,0,0,1-17.5-2.1c-7-1.4-21.36-2.1-27,2.45s-12.61,14.35-24.16,17.51-38.86,0-49.71-2.81-35.37-21.7-42-27.65-16.1-11.56-22.4-9.11S82.4,366.16,64.54,363s-41-14-52.51-30.46,0-2.8,9.45,2.46,28.36,15.05,45.86,10.85,44.82-28.71,64.42-36.41,29.06-9.11,42-5.95,16.1,4.55,16.1,4.55,26.61,1.75,35,7.7,18.91,14.7,18.91,14.7,2.1,9.46,16.45,21,14.36,12.6,21,16.11S292.09,374.77,292.46,379.81Z" style="fill:#8c8c8c"></path><g style="clip-path:url(#freepik--clip-path-4--inject-7)"><path d="M186.47,328.69c.26,9.19,1.83,34.4,3.94,34.93s5.51-17.07,6.82-25.21,6.57-16.28,9.46-21.53c1.43-2.61,3.32-4.51,4.31-6a176.11,176.11,0,0,0-21-2.82C189,311.36,186.25,321.17,186.47,328.69Z" style="fill:#8758FF"></path><path d="M176.75,352.33c1.84-.79,0-12.61.26-21,.21-6.44,4.1-19.64,5.91-25.47-2.29-.64-5.27-1.42-9.14-2.36a55.6,55.6,0,0,0-7.33-1.31c-.48,4.56-.61,20.92,2.16,31.24C171.5,344.19,174.91,353.11,176.75,352.33Z" style="fill:#8758FF"></path><path d="M151.28,326.33c8.4,6.83,8.14,10,7.62,6-.42-3.13-3.16-22.19-4.27-29.87a88.6,88.6,0,0,0-16.3,4.47C139.42,310.47,143.38,319.91,151.28,326.33Z" style="fill:#8758FF"></path><path d="M104.33,325.26c-3.47,2.3-7,4.63-10.38,6.87,2.68,3.27,4.84,4.68,10.07,9.17,5.51,4.72,8.4,3.94,8.4,3.94S110.06,338.93,108,334Z" style="fill:#8758FF"></path><path d="M278.56,370.81c-10.88-3.35-27.63-4.6-35.17,2.51s-23,18.92-44,18.84-41.85-16.46-60.29-26.37-14.65-17.17-20.93-17.17-27.63,9.63-51.5,9.63c-9.29,0-17.16,0-23.59-1.93A93.89,93.89,0,0,0,64.54,363c17.86,3.16,38.86-2.45,45.17-4.9s15.75,3.15,22.4,9.11,31.16,24.85,42,27.65,38.16,6,49.71,2.81,18.56-13,24.16-17.51,19.95-3.85,27-2.45a163.1,163.1,0,0,0,17,2.06C287.73,375.84,282.91,372.15,278.56,370.81Z" style="fill:#fff"></path><path d="M224.89,315.74a23.1,23.1,0,0,0-5.65-2.68c-3,5.58-10.19,20.19-8.72,29,1.84,11,.79,24.42,2.1,25.21s6.3-10.51,7.61-18.38c1.06-6.33,8.54-19.77,12-27.67C229.8,319.32,227.26,317.42,224.89,315.74Z" style="fill:#8758FF"></path><path d="M84.06,348.65c2.36,1.31,10,5,12.34,5s-1.31-2.63-3.94-6.3c-1.47-2.06-4.42-6.51-6.74-10-2.78,1.68-5.48,3.2-8.08,4.51C79.44,344.17,81.86,347.43,84.06,348.65Z" style="fill:#8758FF"></path><path d="M130.54,338.93s-1.32-3.93-3.15-10.5c-1.18-4.19-3-10.74-4.15-14.93-4.13,2.25-8.45,4.92-12.84,7.76a63.43,63.43,0,0,0,7,10.06A24.86,24.86,0,0,0,130.54,338.93Z" style="fill:#8758FF"></path><path d="M44.22,344.8c-1.62-.44-3.21-.94-4.76-1.48a13.72,13.72,0,0,0,2.32,5.33C43,350,43.78,347.31,44.22,344.8Z" style="fill:#8758FF"></path><path d="M51,346.27c1.13,2.07,4.2,7.11,4.2,7.11a4,4,0,0,0,0-1.84,22.31,22.31,0,0,1,.68-4.75C54.22,346.7,52.59,346.52,51,346.27Z" style="fill:#8758FF"></path><path d="M66.73,350.75a25.77,25.77,0,0,0-.87-4.58,38.82,38.82,0,0,1-6.86.69l.38.74c.52,1,7.61,8.14,7.61,8.14S66.73,352.85,66.73,350.75Z" style="fill:#8758FF"></path><path d="M199.07,357.32s-3.41,4.2-1.57,6,3.67-.52,3.67-4.46S199.07,357.32,199.07,357.32Z" style="fill:#8758FF"></path><path d="M181,338.76s-2.28,4.91,0,6.24,3.44-1.41,2.47-5.23S181,338.76,181,338.76Z" style="fill:#8758FF"></path><path d="M218,358.51s-1.58,3.42,0,4.34,2.38-1,1.71-3.64S218,358.51,218,358.51Z" style="fill:#8758FF"></path><path d="M196.6,352.67s-1.58,3.42,0,4.34,2.39-1,1.71-3.63S196.6,352.67,196.6,352.67Z" style="fill:#8758FF"></path></g><path d="M292.46,379.81a169.29,169.29,0,0,1-17.5-2.1c-7-1.4-21.36-2.1-27,2.45s-12.61,14.35-24.16,17.51-38.86,0-49.71-2.81-35.37-21.7-42-27.65-16.1-11.56-22.4-9.11S82.4,366.16,64.54,363s-41-14-52.51-30.46,0-2.8,9.45,2.46,28.36,15.05,45.86,10.85,44.82-28.71,64.42-36.41,29.06-9.11,42-5.95,16.1,4.55,16.1,4.55,26.61,1.75,35,7.7,18.91,14.7,18.91,14.7,2.1,9.46,16.45,21,14.36,12.6,21,16.11S292.09,374.77,292.46,379.81Z" style="fill:none;stroke:#263238;stroke-linecap:round;stroke-linejoin:round"></path><path d="M278.55,343.54s-4.61,6.77,2.46,9.22,21.51-4.91,24-17.21A35.68,35.68,0,0,1,278.55,343.54Z" style="fill:#fff;stroke:#263238;stroke-linecap:round;stroke-linejoin:round"></path><path d="M251,314.83s-6.39-6.39-6.69-4.75a35,35,0,0,0,.15,6.09l-1.78,1.93s-5.5-4.9-5.8-3,3.42,8.62,3.42,8.62l-1.79,1.79s-9.51-1.19-9.21,1,5.94,5.94,5.94,5.94l-.89,4.31s-6.54,1.34-7,2.83,6.24,4,6.24,4v5.2s-6.54,2.08-5.2,3.87S234.6,355,234.6,355l.74,4.6s-5.79,3-5.5,4.61,6.4,1.64,6.84,1.64-1.78,5.49-.3,6.24,3.87-2.83,3.87-2.83-4-18.58.44-30.91S249.91,319,249.91,319Z" style="fill:#fff;stroke:#263238;stroke-linecap:round;stroke-linejoin:round"></path><path d="M282.69,349.51s.62-6.45-4.3-10.14a24.78,24.78,0,0,0-11.06-4.3s-4-4.61-7.69-8.61-7.06-12.6-10.75-12.6-12.3,3.07-16,22.74,4.91,35,7.07,33.81,4.61-4.92,9.52-6.15,7.07,0,7.07,0l.62,7.07,7.06-3.07s2.16,3.07,11.38,5.53,11.67,2.15,13.82,4.92a25.55,25.55,0,0,1,3.39,6.14s5.53-3.07,6.14-8.6,1.54-7.38-.31-11.07a9.79,9.79,0,0,0-7.06-4.91,16.71,16.71,0,0,1-3.69-1.23S282.69,351.35,282.69,349.51Z" style="fill:#8c8c8c;stroke:#263238;stroke-linecap:round;stroke-linejoin:round"></path><path d="M270.85,336.21s-2.94,4,.17,9.18" style="fill:none;stroke:#263238;stroke-linecap:round;stroke-linejoin:round"></path><path d="M295.12,374.37a1,1,0,1,1-.36-1.25A.92.92,0,0,1,295.12,374.37Z" style="fill:#fff;stroke:#263238;stroke-linecap:round;stroke-linejoin:round"></path><path d="M269.79,353.2s-.93-3.08,3.07-2.46,2.15,3.69,2.15,3.69Z" style="fill:#fff;stroke:#263238;stroke-linecap:round;stroke-linejoin:round"></path><path d="M274.7,355.66s-5.53,2.46-8.29-.62" style="fill:none;stroke:#263238;stroke-linecap:round;stroke-linejoin:round"></path><path d="M273,350.76a2.31,2.31,0,0,0-1,1.92,2.52,2.52,0,0,0,.27,1.1l2.76.65S276.81,351.41,273,350.76Z" style="fill:#263238;stroke:#263238;stroke-linecap:round;stroke-linejoin:round"></path><path d="M274.4,337.83s-4.61,6.76,2.45,9.22,21.52-4.92,24-17.21A35.68,35.68,0,0,1,274.4,337.83Z" style="fill:#fff;stroke:#263238;stroke-linecap:round;stroke-linejoin:round"></path><path d="M303.23,357.06a13.89,13.89,0,0,1-5.39,4.24c-3.26,1.31-3.59,2.45-2.12,4.73s3.59,1.31,5.22-.16S304.05,361.14,303.23,357.06Z" style="fill:#fff;stroke:#263238;stroke-linecap:round;stroke-linejoin:round"></path><path d="M205.57,374.86s-5.5,16.74-9.09,21.28-2.15,6.93-.23,9.32,6.93,10.76,6.93,12.68-3.11,5.73-1.67,6.21,3.34-1.43,3.34-1.43-.72,6.45,1.2,8.13,8.13,2.39,9.56-1.92,0-14.34-.72-17.21-2.87-9.8-2.87-9.8,12.2-1.44,16.5-18.89" style="fill:#8c8c8c;stroke:#263238;stroke-linecap:round;stroke-linejoin:round"></path><path d="M206.84,428.24S205,432,205.38,432.8s2.65-.18,3.19-2.28S208.66,428.15,206.84,428.24Z" style="fill:#fff;stroke:#263238;stroke-linecap:round;stroke-linejoin:round"></path><path d="M210.85,429.79s-.55,4-.18,4.19,2.28-1.18,2.73-3S210.85,429.79,210.85,429.79Z" style="fill:#fff;stroke:#263238;stroke-linecap:round;stroke-linejoin:round"></path><path d="M215,430.52s.73,3.37,1.28,2.55.73-4.37.18-5.1S215,429.06,215,430.52Z" style="fill:#fff;stroke:#263238;stroke-linecap:round;stroke-linejoin:round"></path><path d="M175.15,426.75a30.25,30.25,0,0,1,6.52,3c2.59,1.72,2.34,3,2.34,3l-5.91-.25S176.62,427.37,175.15,426.75Z" style="fill:#fff;stroke:#263238;stroke-linecap:round;stroke-linejoin:round"></path><path d="M167.56,341s16.28,26.79,13.39,41.49a32.84,32.84,0,0,1-14.7,21.27s2.17,17,3.41,18.38c4.87,5.44,10.12,5.05,10.9,7.41a14.41,14.41,0,0,0,1.36,3.2s-6.48-.37-11.21-.37-7.09-.78-7.61-2.62-2.63-4.47-4.73-4.73-3.68,3.68-3.94,1.31,1-9.71,1-9.71-2.1-3.94-3.67-7.88-.27-6.83,1.05-12.08-.53-11.81-6.31-16.54-14.7-15.23-16.54-25.73" style="fill:#8c8c8c"></path><g style="clip-path:url(#freepik--clip-path-5--inject-7)"><path d="M169.92,345.76s-10-2.36-16.8.26-12.34,6.83-8.67,6.83,8.93-3.41,18.65-.26,11.81,2.89,11.81,2.89S170.45,347.34,169.92,345.76Z" style="fill:#8758FF"></path><path d="M178.59,365.19S175.7,362,167,362s-14.45,6-12.35,6,15-.52,18.65,1.31,6.3,4.47,7.09,3.94S178.33,366.77,178.59,365.19Z" style="fill:#8758FF"></path><path d="M181,382.52s-3.67-3.67-10.24-2.62-4.72,2.36-2.89,2.36,7.36,2.36,8.67,3.41,1,3.42,2.62,2.1S181,382.52,181,382.52Z" style="fill:#8758FF"></path><path d="M163.1,374.65s-9.46-.27-5.52,1.05,9.19,1.57,9.46-.27S163.1,374.65,163.1,374.65Z" style="fill:#8758FF"></path><path d="M148.13,355.21s-8.14,2.89-5.25,3.68,9.19-1.05,9.19-2.63S148.13,355.21,148.13,355.21Z" style="fill:#8758FF"></path></g><path d="M167.56,341s16.28,26.79,13.39,41.49a32.84,32.84,0,0,1-14.7,21.27s2.17,17,3.41,18.38c4.87,5.44,10.12,5.05,10.9,7.41a14.41,14.41,0,0,0,1.36,3.2s-6.48-.37-11.21-.37-7.09-.78-7.61-2.62-2.63-4.47-4.73-4.73-3.68,3.68-3.94,1.31,1-9.71,1-9.71-2.1-3.94-3.67-7.88-.27-6.83,1.05-12.08-.53-11.81-6.31-16.54-14.7-15.23-16.54-25.73" style="fill:none;stroke:#263238;stroke-linecap:round;stroke-linejoin:round"></path><path d="M172.07,428.72s-2.09,1.11-1.72,2.22,1.72,1.72,3.81,1.84,5.29.13,5.29.13S177.12,427.74,172.07,428.72Z" style="fill:#fff;stroke:#263238;stroke-linecap:round;stroke-linejoin:round"></path></g></svg>