<svg xmlns="http://www.w3.org/2000/svg" viewBox="0 0 500 500"><g id="freepik--dinosaur-1--inject-4"><g id="freepik--Stegosaurus--inject-4"><path d="M214.48,407.64c-3.55-4-4.16-5.91-1.72-9.63s8.17-13.92,8.05-16.46-6.11-13.75-8.17-18.82c-.83-2.06-3.33-2.38-7.19-.4-7.66,3.95-3,16.42-4.07,17.06s-3.29,10.12-4.91,15.21c-1.39,4.39-.92,5.73.62,11.83l2.66,10.44h0c.29,3.67,6.83,7.44,8.73,7.17,2.37-.34,1.9-1.38,3.07-1.93s3.53.53,5.33-.55-.18-2.4.72-3.1,2.72-.47,3.2-1.85a.37.37,0,0,0,0-.25C220.55,414.19,217.91,411.45,214.48,407.64Z" style="fill:#8758FF"></path><path d="M214.48,407.64c-3.55-4-4.16-5.91-1.72-9.63s8.17-13.92,8.05-16.46-6.11-13.75-8.17-18.82c-.83-2.06-3.33-2.38-7.19-.4-7.66,3.95-3,16.42-4.07,17.06s-3.29,10.12-4.91,15.21c-1.39,4.39-.92,5.73.62,11.83l2.66,10.44h0c.29,3.67,6.83,7.44,8.73,7.17,2.37-.34,1.9-1.38,3.07-1.93s3.53.53,5.33-.55-.18-2.4.72-3.1,2.72-.47,3.2-1.85a.37.37,0,0,0,0-.25C220.55,414.19,217.91,411.45,214.48,407.64Z" style="opacity:0.30000000000000004"></path><g style="opacity:0.15"><path d="M208.76,417.09c-1.25-1.78-3.12,1.7-4.36.78-.42-.32-.25-1.32-.73-1.77-.31-.3-.88-.19-1.17-.51s-.17-1-.35-1.29c-.28-.54-1.47-1-1.58-1.44s1-1.49,1.34-1.7,6.07,0,4-1.68c-.54-.45-2.17,0-2.93-.35-.53-.25-.69-.57-1.28-.7s-1.34.14-2,0-2.29-.6-1.88-1.72,2.81-.43,3.67-.56c.46-.06,4.64-1,4.72-1.45s-.44-.58-.81-.79c-1.58-.91-4.52-.65-6.34-.85-.27-1.62-1.8-.79-1.94-2.15-.21-1.94,2.71-1.85,3.78-2.33,1.59-.71.75-1.14-.51-1.28-1.64-.17-3.18.72-4.75.69-.22,2.25.34,4.19,1.4,8.41l2.66,10.44h0c.29,3.67,6.83,7.44,8.73,7.17a6.37,6.37,0,0,0,.9-.21,5.69,5.69,0,0,1-1.55-1.23c-.85-1.18-1.07-.59-2.2-1.33C203,419.56,207.61,417.54,208.76,417.09Z"></path><path d="M199.81,388.05c.55-.69,1.47-1.43.71-2.34a2.66,2.66,0,0,0-1.33-.56c-.59,2-1.21,4.32-1.8,6.39A32.37,32.37,0,0,1,199.81,388.05Z"></path><path d="M197,392.83c-.18.63-.36,1.23-.54,1.77s-.23.78-.33,1.14c.16-.16.33-.3.48-.44.46-.41,1.77-1,1.47-1.79C198,393.2,197.39,393.05,197,392.83Z"></path></g><path d="M208.94,424.41c1.65-.61,2.27-1.53,2.1-2.53s-2.52-3.69-3.37-3.35a5,5,0,0,0-2.24,4.07C205.46,424.06,208,424.73,208.94,424.41Z" style="fill:#37474f"></path><path d="M217.12,422.4c1-.42,1.09-1.64.52-3s-2.84-4.31-3.8-4.17-1.73,5.3-1.11,6.39C213.2,422.46,215.3,423.17,217.12,422.4Z" style="fill:#37474f"></path><path d="M218.36,418.09c.4.46,2.81.1,2.94-1.18.1-.91-1.26-3.58-2.26-4S217.6,417.21,218.36,418.09Z" style="fill:#37474f"></path><path d="M207.06,422.72a4.39,4.39,0,0,1,.74-4.21.27.27,0,0,0-.13,0,5,5,0,0,0-2.24,4.07c0,1.46,2.61,2.13,3.51,1.81l.2-.09A2.76,2.76,0,0,1,207.06,422.72Z" style="fill:#263238"></path><path d="M217.35,422.27c-1,.07-1.9-.49-2.95-1.68-1.41-1.6-.9-4.23-.33-5.32a.62.62,0,0,0-.23,0c-1,.13-1.73,5.3-1.11,6.39.47.82,2.57,1.53,4.39.76A2.36,2.36,0,0,0,217.35,422.27Z" style="fill:#263238"></path><path d="M219.43,417.07c-1.12-.78-1-2.88-.55-4.2-.88.12-1.24,4.39-.52,5.22.32.37,1.94.21,2.63-.53A2.88,2.88,0,0,1,219.43,417.07Z" style="fill:#263238"></path><path d="M145.29,378.48c-3.77-4.2-4.42-6.27-1.83-10.22S158.11,350.71,158,348a138.29,138.29,0,0,0-2.39-16.78c-1.23-5.67-12-5.5-19.88-.82s-3.2,17.42-4.33,18.1-3.48,10.74-5.2,16.14c-1.48,4.65-1,6.07.66,12.54.88,3.51,2.81,11.09,2.81,11.09h0c.31,3.89,7.25,7.88,9.26,7.6,2.51-.36,2-1.46,3.26-2.05s3.74.57,5.65-.58-.19-2.55.77-3.29,2.88-.5,3.39-2a.4.4,0,0,0,0-.26C151.73,385.43,148.92,382.52,145.29,378.48Z" style="fill:#8758FF"></path><path d="M145.29,378.48c-3.77-4.2-4.42-6.27-1.83-10.22S158.11,350.71,158,348a138.29,138.29,0,0,0-2.39-16.78c-1.23-5.67-12-5.5-19.88-.82s-3.2,17.42-4.33,18.1-3.48,10.74-5.2,16.14c-1.48,4.65-1,6.07.66,12.54.88,3.51,2.81,11.09,2.81,11.09h0c.31,3.89,7.25,7.88,9.26,7.6,2.51-.36,2-1.46,3.26-2.05s3.74.57,5.65-.58-.19-2.55.77-3.29,2.88-.5,3.39-2a.4.4,0,0,0,0-.26C151.73,385.43,148.92,382.52,145.29,378.48Z" style="opacity:0.30000000000000004"></path><g style="opacity:0.15"><path d="M132.39,383.34c1.1-.2,1.85.88,3,.83a11.29,11.29,0,0,0,4.52-2c-.51-2.74-4.35.15-6-.23-.46-.1-.47-.9-1-1-.76-.16-1.75.93-2.58.55-.51-.24-.66-1.58-.65-2.25a3.89,3.89,0,0,1,1.54-3.45,14.88,14.88,0,0,1,2.12-1.24c1.43-.71,2.8-.14,4.21-.62.79-.26,1.69-.37.85-1.27-1.14-1.23-4.19,1-4.43-1.57-2.72,0-5.88,1.37-4.82-2.86.89-.07,1.8,0,2.7-.09,1.17-.12,5.25-.68,6.06-1.66s-.11-.94-.73-1.57-.41-.93-1.14-1.16c-1.39-.43-3.28,1.42-4.77,1-1-.3-.87-1.44-2.38-1.18a3.35,3.35,0,0,1,1.31-2.44c1.33-1.07,5.19-1.51,5.13-3.72s-3.18-1.79-3.67-3c-.16-.39.6-1.22.27-1.76s-.94,0-1.3-.35a2.44,2.44,0,0,1-.59-.82c-1.18,3.56-2.67,9.48-3.85,13.2-1.48,4.65-1,6.07.66,12.54.88,3.51,2.81,11.09,2.81,11.09h0c.29,3.6,6.25,7.28,8.73,7.58.1-1.07-.48-2.21-2.06-3.18-.86-.52-2.64-.4-2.56-1.7,0-.81,1.15-1.27,1.77-1.51-.13-1.43-2.15-.05-3-1.07-.61-.76.16-1.85-.3-2.9S130,383.77,132.39,383.34Z"></path><path d="M131.07,342.26c.15,2.76.62,5.07.47,5.92,1.32-1.35,3.47-3,2.75-4.47C133.88,342.85,132.3,342.46,131.07,342.26Z"></path></g><path d="M139.41,396.27c1.75-.64,2.41-1.62,2.23-2.68s-2.68-3.91-3.58-3.56a5.29,5.29,0,0,0-2.38,4.32C135.72,395.9,138.46,396.62,139.41,396.27Z" style="fill:#37474f"></path><path d="M148.09,394.14c1.06-.45,1.16-1.74.54-3.16s-3-4.57-4-4.43-1.84,5.62-1.18,6.78C143.93,394.21,146.16,395,148.09,394.14Z" style="fill:#37474f"></path><path d="M149.4,389.57c.42.49,3,.1,3.13-1.26.1-1-1.35-3.79-2.4-4.26S148.6,388.63,149.4,389.57Z" style="fill:#37474f"></path><path d="M137.32,394.18c-.71-1.52.22-3.15,1-4.17a.47.47,0,0,0-.24,0,5.29,5.29,0,0,0-2.38,4.32c0,1.55,2.78,2.27,3.73,1.92a4.77,4.77,0,0,0,1.26-.66A3,3,0,0,1,137.32,394.18Z" style="fill:#263238"></path><path d="M148.09,394.14a1.42,1.42,0,0,0,.64-.54c-1.67.64-3.17-.21-4.15-1.85a5.15,5.15,0,0,1,.26-5.18.62.62,0,0,0-.23,0c-1,.14-1.84,5.62-1.18,6.78C143.93,394.21,146.16,395,148.09,394.14Z" style="fill:#263238"></path><path d="M152.43,388.65a2.09,2.09,0,0,1-2.14-.24c-1.06-1-.83-2.93-.34-4.39-.93.15-1.31,4.67-.55,5.55C149.79,390,151.94,389.73,152.43,388.65Z" style="fill:#263238"></path><path d="M55.84,330.94c1.22-1.28,3-16.55-2-27,1.63,8.11.83,18.91-2.7,26,0,0,.18.91,2,1.35A3,3,0,0,0,55.84,330.94Z" style="fill:#e0e0e0"></path><path d="M55.81,324.4A4,4,0,0,1,52,328.05c-.26.67-.54,1.33-.85,1.95,0,0,.18.91,2,1.35a3,3,0,0,0,2.73-.41c1-1.09,2.48-12.22-.18-21.95A52,52,0,0,1,55.81,324.4Z" style="opacity:0.15"></path><path d="M35.72,325c.9-.95,2.23-12.27-1.52-20,1.21,6,.62,14-2,19.3,0,0,.13.67,1.49,1A2.25,2.25,0,0,0,35.72,325Z" style="fill:#e0e0e0"></path><path d="M35.66,309.08c.93,4.23.68,10.77,0,12-.59,1-1.46,1.37-2.36.69a19.45,19.45,0,0,1-1,2.59s.13.67,1.5,1a2.23,2.23,0,0,0,2-.3C36.47,324.23,37.52,316.21,35.66,309.08Z" style="opacity:0.15"></path><path d="M228,410c2,1.76,7.23,7.2,14.07,4.28a10.4,10.4,0,0,0,2.67-.29c.49-.3.82-1.46.95-2,.37-1.49.77-3.06-.13-4.42-1.18-1.8-2.95-3-2-5.31a3.86,3.86,0,0,0,.55-2.55,3.2,3.2,0,0,0-1.21-1.52c-2.77-2.18-6.12-3.4-9.21-5.06a28.72,28.72,0,0,1-6.74-4.83c-1.92-1.92-2.87-4.34-4.12-6.7a104,104,0,0,1-6.85-15.23c-1.33-4-8.15-15.07-15.24-28.55-7-13.2-14.62-27.23-27.51-33.7C147.24,291,124.83,305.26,113.9,314c-6.43,5.12-15.71,15.56-31.49,17.21s-30.13.15-38.76-3.15c-9-3.45-12.26-5.43-21.15-10.22-6.09-3.28-4.52.26,1.55,5.75a88.39,88.39,0,0,0,18.63,12.69A217.57,217.57,0,0,0,69.1,348.51c9.87,4,24.32,7.33,32.31,7.57A39.12,39.12,0,0,0,127.9,371a47,47,0,0,0,7.57,11.17c4.74,5,14,18.06,35.27,18.8s28.5.54,36.59,1.57a50.45,50.45,0,0,1,11.07,2.84C221.53,406.55,225.5,407.75,228,410Z" style="fill:#8758FF"></path><path d="M228,410c2,1.76,7.23,7.2,14.07,4.28a10.4,10.4,0,0,0,2.67-.29c.49-.3.82-1.46.95-2,.37-1.49.77-3.06-.13-4.42-1.18-1.8-2.95-3-2-5.31a3.86,3.86,0,0,0,.55-2.55,3.2,3.2,0,0,0-1.21-1.52c-2.77-2.18-6.12-3.4-9.21-5.06a28.72,28.72,0,0,1-6.74-4.83c-1.92-1.92-2.87-4.34-4.12-6.7a104,104,0,0,1-6.85-15.23c-1.33-4-8.15-15.07-15.24-28.55-7-13.2-14.62-27.23-27.51-33.7C147.24,291,124.83,305.26,113.9,314c-6.43,5.12-15.71,15.56-31.49,17.21s-30.13.15-38.76-3.15c-9-3.45-12.26-5.43-21.15-10.22-6.09-3.28-4.52.26,1.55,5.75a88.39,88.39,0,0,0,18.63,12.69A217.57,217.57,0,0,0,69.1,348.51c9.87,4,24.32,7.33,32.31,7.57A39.12,39.12,0,0,0,127.9,371a47,47,0,0,0,7.57,11.17c4.74,5,14,18.06,35.27,18.8s28.5.54,36.59,1.57a50.45,50.45,0,0,1,11.07,2.84C221.53,406.55,225.5,407.75,228,410Z" style="opacity:0.15"></path><g id="freepik--face--inject-4"><path d="M235.91,411.42a13,13,0,0,0-4.56-2.71,12.85,12.85,0,0,1,4.26,3.05c2,1.88,2.47,2.37,4.6,3.08a10.65,10.65,0,0,0,1.9-.6C239.41,414.35,236.92,412.38,235.91,411.42Z" style="fill:#37474f"></path><path d="M242.38,410.64c-.12-.79-.75-1.76-1.35-1.23a.56.56,0,0,0-.16.49,1.55,1.55,0,0,0,.18.51l.37.76c.09.19.22.41.43.43a.51.51,0,0,0,.44-.27A1,1,0,0,0,242.38,410.64Z" style="fill:#37474f"></path><path d="M236.09,404.77A2,2,0,0,0,233.5,403s-.22,1.48.52,2A1.67,1.67,0,0,0,236.09,404.77Z" style="fill:#263238"></path><path d="M234.59,403.74a.37.37,0,0,1-.36.37.35.35,0,0,1-.37-.35.37.37,0,0,1,.36-.37A.35.35,0,0,1,234.59,403.74Z" style="fill:#fafafa"></path><path d="M235.35,405.57l-.3.14a2.14,2.14,0,0,1-.35.06,2.27,2.27,0,0,1-.78,0,2.33,2.33,0,0,1-.65-.19l-.3-.16-.12-.08a.44.44,0,0,1-.15-.05s0,0,0,0a2.31,2.31,0,0,0,.14.19l.15.12a1.65,1.65,0,0,0,.31.2,2.44,2.44,0,0,0,.74.27,2.63,2.63,0,0,0,.74,0,2.66,2.66,0,0,0,.39-.07,1.4,1.4,0,0,0,.4-.11C235.72,405.87,235.51,405.51,235.35,405.57Z" style="opacity:0.25"></path><path d="M235.83,401.94a2.12,2.12,0,0,0-1-.41,2.28,2.28,0,0,0-1,.09,6.29,6.29,0,0,0-1,.47c-.07,0,0,.22.07.18a2.94,2.94,0,0,1,.95-.31,3.11,3.11,0,0,1,1,0,1.86,1.86,0,0,1,.71.3c.22.16.35.41.58.56a.07.07,0,0,0,.11,0C236.46,402.48,236.06,402.12,235.83,401.94Z" style="opacity:0.25"></path><path d="M230.83,407.34c-.52-.07-.71.5-.76.92a2.16,2.16,0,0,0,0,.67,2.53,2.53,0,0,0,.12.36.59.59,0,0,0,.13.19.68.68,0,0,0,.12.13.07.07,0,0,0,.09-.05.35.35,0,0,0,0-.2,1.33,1.33,0,0,0-.05-.19,2.1,2.1,0,0,1-.06-.24,1.46,1.46,0,0,1,0-.51.88.88,0,0,1,.48-.82C231,407.56,230.93,407.35,230.83,407.34Z" style="opacity:0.25"></path></g><path d="M227.6,407.35c-.09-1.4,0-2.9-.69-4.1-1-1.73-3.25-2.19-5.23-2.51a56.17,56.17,0,0,1-13-3.32c-3.28-1.38-6-3.55-9.4-4.57s-7.3-1-11-1a94.11,94.11,0,0,0-10.08.09,5.77,5.77,0,0,1-6-2.81,7.13,7.13,0,0,1-.68-6.05c.77-2.17,2.61-4.34,1.73-6.45-.71-1.7-2.79-2.27-4.19-3.45a5.61,5.61,0,0,1-1.63-6c.47-1.33,1.48-2.62,1.16-4a3.85,3.85,0,0,0-1.82-2.16c-4.72-3.12-10.23-1.73-15.39-3.25a10.48,10.48,0,0,1-6.17-4.39c-2.85-4.79-3.93-10.4-9.75-12.69-4.77-1.88-9.84-2.3-14.92-2.51C113,337.85,105.4,339.34,98,341a13,13,0,0,1-7.91-.35c-3.08-1-6-3.47-9.39-3.08-2.37.27-4.33,1.94-6.53,2.88a11.22,11.22,0,0,1-8.59.06c-1.63-.67-3.07-1.71-4.7-2.35A20.41,20.41,0,0,0,58,337.13a3.79,3.79,0,0,0-2.59.25,8.81,8.81,0,0,1-3.23.44,14.21,14.21,0,0,1-3.38-.34,6.11,6.11,0,0,1-2.72-1.18c-.32-.29-.45-.66-.79-.93s-.9-.6-1.33-.91a3.79,3.79,0,0,1-1.49-1.76,3.7,3.7,0,0,0-.37-1.06,1.85,1.85,0,0,0-.92-.6,30.2,30.2,0,0,0-3.75-.93,9.43,9.43,0,0,1-3-1.16,14.33,14.33,0,0,0-2.78-1,30.26,30.26,0,0,1-3-1.31,14.68,14.68,0,0,1-2.81-1.6,92.39,92.39,0,0,0,16.92,11.19A217.57,217.57,0,0,0,69.1,348.51c9.87,4,24.32,7.33,32.31,7.57A39.12,39.12,0,0,0,127.9,371a47,47,0,0,0,7.57,11.17c4.74,5,14,18.06,35.27,18.8s28.5.54,36.59,1.57a50.45,50.45,0,0,1,11.07,2.84c3.13,1.16,7.1,2.36,9.64,4.57l1.33,1.19A5.76,5.76,0,0,1,227.6,407.35Z" style="fill:#e0e0e0"></path><g style="opacity:0.15"><path d="M136.65,381.2c-.15-5.91,2-11.81,4.92-16.86a51.6,51.6,0,0,1,6-8.39.11.11,0,0,0,0-.08l-.1-.08c-1.1,1.14-2.21,2.25-3.22,3.46a43.93,43.93,0,0,0-2.71,3.67,36.85,36.85,0,0,0-4.08,8.13,27.8,27.8,0,0,0-1.68,11.47l1.12,1.24A21.75,21.75,0,0,1,136.65,381.2Z"></path><path d="M212.87,403.64l-2.08-.65a23.8,23.8,0,0,1-3.68-1.44c-2.48-1.27-4.71-3.83-4.37-6.8,0-.09-.08-.14-.11,0-.82,2.77.93,5.41,3.18,6.91a11.64,11.64,0,0,0,1.73.95A43.72,43.72,0,0,1,212.87,403.64Z"></path><path d="M136,345.37a36.28,36.28,0,0,0-7.27,9.9,27.4,27.4,0,0,0-3.06,12.56,14.88,14.88,0,0,0,.42,2.95c.3.05.6.08.91.12a13.22,13.22,0,0,1-.44-2.37,20.19,20.19,0,0,1,.65-6.52,39,39,0,0,1,5-11.39,32.2,32.2,0,0,1,3.91-5C136.2,345.52,136.13,345.27,136,345.37Z"></path><path d="M60.68,343.29a6.15,6.15,0,0,1,.3-3.12c0-.09-.06-.31-.17-.2a3.91,3.91,0,0,0-.77,3.08A5.63,5.63,0,0,0,60.6,345l1.16.49A6,6,0,0,1,60.68,343.29Z"></path><path d="M157.41,397.91a14.66,14.66,0,0,1-2.94-8.5c-.45-6.51,1.2-12.88,3.81-18.8q1.11-2.52,2.43-4.94c.92-1.69,1.92-3.34,2.77-5.07,0,0,0-.09,0-.05a30.43,30.43,0,0,0-2.7,3.84c-.91,1.45-1.74,3-2.53,4.48a46.29,46.29,0,0,0-3.75,9.77A34.67,34.67,0,0,0,153.31,389a16,16,0,0,0,2.74,9l.15.18c.69.26,1.39.51,2.12.74A10.67,10.67,0,0,1,157.41,397.91Z"></path><path d="M92.36,353.32a12.27,12.27,0,0,1-2.67-9.14c0-.1-.08-.11-.1,0A11.05,11.05,0,0,0,91.91,354a9.19,9.19,0,0,0,1.31,1.18l1.87.3A9.35,9.35,0,0,1,92.36,353.32Z"></path><path d="M74.67,342.69c0-.12-.11-.31-.17-.13a9.32,9.32,0,0,0-.51,4.5,10,10,0,0,0,1.37,3.71l1.3.41A10.29,10.29,0,0,1,74.67,342.69Z"></path></g><path d="M69.76,336.94c1.39-.14,3-.11,3.13,1a1.42,1.42,0,0,1-.51,1.13,2.5,2.5,0,0,1-1.16.52,6.43,6.43,0,0,1-3.33-.34,2.53,2.53,0,0,1-.88-.45.94.94,0,0,1-.33-.89,1,1,0,0,1,.57-.61,2.75,2.75,0,0,1,.85-.18C68.44,337.11,69.07,337,69.76,336.94Z" style="fill:#e0e0e0"></path><path d="M102.56,334.66c.57-.38,1.22-.94,1.06-1.61a1.35,1.35,0,0,0-1.4-.85,4.68,4.68,0,0,0-2.68,1.08c-.78.58-1.48,1.28-2.31,1.8a6.71,6.71,0,0,1-3.39,1c-.89,0-3.3.71-2,2s4.62.6,6.08-.36Z" style="fill:#e0e0e0"></path><path d="M134.5,338.78l1,.19c2.21.43,4.62,1.29,5.63,3.31a2.17,2.17,0,0,0,.66,1,1.23,1.23,0,0,0,1.59-.65,2.92,2.92,0,0,0-.39-2.94,17.46,17.46,0,0,0-2.15-2.24c-.83-.85-1.54-1.82-2.43-2.6-2.22-2-5.84-1.65-8.58-1.21a2.32,2.32,0,0,0-1.54.71,1.57,1.57,0,0,0,.14,1.83C129.91,338,132.29,338.39,134.5,338.78Z" style="fill:#e0e0e0"></path><path d="M152.21,352.94c1.2-2.54-2.36-3.83-3.36-5.45-.27-.43-.54-1-1-1a1.08,1.08,0,0,0-.91.44c-.9,1-.17,2,.55,2.88s.54,2.5,1.3,3.51a2,2,0,0,0,3.46-.36Z" style="fill:#e0e0e0"></path><path d="M170.82,367a1.84,1.84,0,0,0-.75,2c.29.73,1.15,1,1.9,1.27a9.48,9.48,0,0,1,5.46,3.91,4.85,4.85,0,0,0,.89,1.36,1.12,1.12,0,0,0,1.48.09,1.44,1.44,0,0,0,0-1.49,9.55,9.55,0,0,0-1.57-2.71,10.3,10.3,0,0,1-1.84-2.44c-.63-1.53-.08-3.42-.93-4.84a1.33,1.33,0,0,0-1.07-.73c-.79,0-1,.84-1.27,1.42C172.63,366,171.76,366.3,170.82,367Z" style="fill:#e0e0e0"></path><path d="M242,397.46c-2.57-1.76-5.51-2.88-8.25-4.36a28.72,28.72,0,0,1-6.74-4.83c-1.92-1.92-2.87-4.34-4.12-6.7a104,104,0,0,1-6.85-15.23c-1.33-4-8.15-15.07-15.24-28.55-7-13.2-14.62-27.23-27.51-33.7C147.24,291,124.83,305.26,113.9,314c-6.43,5.12-15.71,15.56-31.49,17.21s-30.13.15-38.76-3.15a113.34,113.34,0,0,1-15.45-7.13,2.53,2.53,0,0,0,.31.33c1.18,1,3,1.5,4.35,2.46,1.64,1.22,2.65,3.12,4.19,4.32,1.07.84,3.07.9,4.39,1.56a40.46,40.46,0,0,0,9.9,3.19c1.72.36,3.45.65,5.16,1,1.06.24,2.12,1.16,3.17,1,.8-.11,1.13-.44,1.91-.34,1.17.14,1.87,1.42,2.85,1.61,1.74.35,3.46-2.12,5.34-2.1-.61,1-1,3.24.64,2.25.31-.19.48-1.06.75-1.33.86-.9,2.63-1.73,3.87-1.29.91.32,1.62,1.61,2.6,1.83,1.44.33,2.74-1.38,4.33-.92,1.29.38,1.41,1.55,3,1,1.4-.44,2.82-2.77,4-2.79-.2,0,.2,1.57.58,1.74.53.22,1-.24,1.41-.55,1-.83,1.5-2.15,2.51-2.95s1.27-.12,1.53.84c.12.44-.19.85.41,1,.31.07.77-.27.94-.5.48-.68.39-1.53.91-2.25a24.27,24.27,0,0,1,1.86-2.3c.85-.91,1.3-1.33,1.55.13.22,1.25,1.46,5.89,2.39,2.53a12.76,12.76,0,0,1,1-3c.43-.77,3.83-5,4.79-3.93.47.53-.39,2.75-.46,3.38s-.33,3,.38,3.54c1,.76,1.3-.41,1.52-1A5.86,5.86,0,0,1,111.9,327c.87-.74,1.8-.92,2-2.13.3-1.84.62-4.82,3.33-4.18,2.5.58,0,4.87,2.36,5.26.39-.68.34-1.73.71-2.51a9.91,9.91,0,0,1,1.22-1.74c.62-.83,2.16-3.06,3.41-1.57.88,1,.35,3,.14,4.1-.37,1.94-1.33,4.65-.66,6.59a10.65,10.65,0,0,0,1.28,2.7c1,1.07,1.28-1.72,1-2.37a4.76,4.76,0,0,1-.27-1.6,11.4,11.4,0,0,1,2.52-8c.51-.69,1.11-1.31,2-.93,1.08.44.84,1.78.9,2.79.07,1.18-.61,2.11-.67,3.29,0,.46-.22,3.61.86,3.38.59-.12.5-2,.63-2.41a28.86,28.86,0,0,1,2.72-4.87c.44-.76.85-1.55,1.82-1.4,1.51.24,1.72,2.47,1.64,3.71a6.21,6.21,0,0,1-1,3.06c-.35.53-2.65,3.24-1.14,3.38.88.08,2.15-1.4,2.7-2,.89-.9,1.62-2.1,2.56-2.94,1.29-1.14,2.27.18,2,1.54-.25,1.17-1,2-1.11,3.28s-.13,3.57,1.71,3.22c.39-2.33,1-7.34,4.44-7.27a5.6,5.6,0,0,1-.25,1.82,21.7,21.7,0,0,0,.27,4.35c.11,1.41-.76,2.76-1.47,3.93-1.09,1.78-1.84,3.77-3,5.56a4.69,4.69,0,0,0,0,4.91c.38-1.07,0-2,.86-3a20.65,20.65,0,0,0,2.14-2.77c1.42-2.39,1.89-5.05,4.76-5.9a5.09,5.09,0,0,0,3.39-2.79c1.79,2.16-.57,5.6-1.94,7.26-.74.9-1.08,2.1-1.89,2.93-.44.45-1.59.68-1.52,1.4a6.16,6.16,0,0,0,3.68-.68c.7-.45,1-1.31,1.6-1.72a10.48,10.48,0,0,1,1.77-.58,16.34,16.34,0,0,1,1.8-.8c.88-.25,3.79-1.39,4.45-.38.42.66-.32,2.49.07,3.46s1.33,1.51,1.08,2.51c-.37,1.5-2.9,3.66-.24,4.24,1.53.33,3.15-.77,4.54-1.12s5.26-.41,3.82,1.9c-.45.73-1.68,1.22-2.37,1.67a18.47,18.47,0,0,0-3.38,2.5c-.6.63-1.36,1.6-.52,2.36.59.52,1.85.42,2.62.67a7.72,7.72,0,0,0,3.09.68c2.28-.24,4.16-2.4,6.64-2.08,2.27.3-.17,2.33-.37,3.59-.47,2.92,2.47-.59,3-1s1.46-1.35,2.13-.7-.6,1.93-1,2.33c-1.13,1.19-4.53,4-4.13,5.78.24,1.05.59.72,1.15.13a14.71,14.71,0,0,1,3-2.68c1.2-.75,5.71-2.76,5.74-.11,0,1.24-3.6,3.23-2.75,4.62.66,1.06,3.51-1.51,4.2-1.91,1.61-.93,4.18-1.84,5.74-.36-1,.74-2.83.77-4,1.37a10.64,10.64,0,0,0-3.24,2.75,8.38,8.38,0,0,1-3.16,2.18c-.77.3-2.75-.13-3.24.51s.82.91,1.17,1c2,.36,3.8-.5,5.59-1.27,1.09-.47,2.24-.85,3.36-1.26a24.33,24.33,0,0,1,2.92-1.3,4.89,4.89,0,0,1,2.59.39,13.67,13.67,0,0,0,2.49.31c-.76,2.87-3.17,3.89-4.75,6.21-.87,1.27-3,4.66-1.81,6.17a4,4,0,0,0,.74-.11c0-1.61,1.09-1.7,2.12-2.68a15.3,15.3,0,0,1,7.15-4.05c1.79-.39,8.27-.66,6.3,2.5-.63,1-1.55,1.1-2.53,1.64a13.11,13.11,0,0,0-4.43,4c-.38.53-1.63,2.37-.73,3,1.16.82,2.36-1.73,3-2.29,1.37-1.25,3.89-1,5.6-1.28.72-.1,3,.06,3.5.52.85.74-1.16,2.26-1.66,2.76s-1,1.52-.23,1.87,1.79-.63,2.34-.94c2-1.14,5.25-2,7.44-.81,1.05.58,1.13,1.74,1.9,2.55.94,1,2.31.87,3.53,1.22.89.25,2.29.67,2.32,1.78,0,1-1.18,1.48-1,2.5.31,1.45,2.26.36,3.27.25s2.46-.42,3.39.33l.25.22c.56.53.63.83,1.68.9C239.28,398.49,240.48,397.63,242,397.46Z" style="opacity:0.15"></path><path d="M223.25,382.23c-2.47-.39-4.77-1.17-5.22-3.84a4.15,4.15,0,0,0,2.6-1.26c-.55-1.12-1.09-2.24-1.61-3.38-3.33,0-8.11-.34-7.88-2.59,1-.65,2-.18,3.07-.45a20.62,20.62,0,0,0,3-1.33c-.34-.89-.67-1.78-1-2.68a6.6,6.6,0,0,0-1.95.24c-1.22.37-3.07,2.22-4.56.67-1.34-1.38.27-2.48-1.79-3.58-1.23-.65-3.62-.28-4.3-1.46,2.64-1.45,5.76.48,8-2,.32-.35.69-.78,1.06-1.21-.83-1.52-1.77-3.22-2.8-5.06a27.54,27.54,0,0,0-3.45-.66c-1.3-.1-7.21.72-3.29-1.12,1.83-.86,3.47-1.23,4.57-2.1-.67-1.2-1.36-2.44-2.06-3.72a39,39,0,0,0-4.53.29c-1.41.18-6.6,1.35-7.34-.37-.53-1.25,1.3-1.43,2.17-1.52,2.56-.28,2.87.38,4.89-1.12.61-.45.72-1,1.52-1.29a2.14,2.14,0,0,1,1.14.08q-1-1.75-1.92-3.57c-2.27.47-4.51,1.36-6.77.9-1.8-.36-2.7-1.42-4.75-1.37-1.11,0-2.09.32-3.15.44-.25-3.74,7.44-5.42,11.47-6-.54-1-1.09-2-1.65-3a17.56,17.56,0,0,1-3.08.42c-1-.06-2.2-.92-3.26-1.13-1.32-.26-2.79-.15-4.08-.54-5.4-1.65,3.43-4.29,5.69-6.61q-.76-1.17-1.56-2.31c-2.71-.12-7.28,1.34-8.82,1.31-2.21-.05-4.29.5-6.58-.12,2.21-2.08,5.38-2.3,8.27-2.49,2.1-.14,2.3-.57,3.55-2.41a5.65,5.65,0,0,1,.39-.51c-.45-.55-.9-1.1-1.36-1.63-.84.25-1.67.52-2.52.74-2.38.6-3.93.93-4.91-1.84,1.9-1.13,3.46-1,4.67-1.79-.88-.87-1.79-1.71-2.74-2.49-1.62.84-3.13,2.22-4.53,3.08-2.29,1.4-2.7.9-4.52-.24a5.72,5.72,0,0,0-2.8-1.14c-.74-.07-1.48.43-2,0-2.54-2.36,4.31-4.58,5.43-7-.69-.33-1.37-.63-2.06-.92-2.42.46-4.12,2.94-6.71,3.61-.85.22-5.52,1.86-4.74-.73.26-.86,4.37-2.68,5.07-3.05s1.65-.74,2.67-1.22c-1-.33-2-.61-3-.87l-.27.14c-1.07.6-1.71,1.6-2.68,2.24-1.54,1-3.31,3.26-5.26,2.88-1.29-2.28,2.26-3,3.23-4.33-1.58-.91-4.14,1.52-6.05,1.43-.67-2.28,2.49-2.77,4.78-3.53a45.23,45.23,0,0,0-6.33-.28,17.67,17.67,0,0,1-4,1.37c-1.33.25-3.21,1-4.13-.32l-.08-.13c-12.29,2.46-22.3,9.23-28.55,14.21l-.28.23c.07.57.48,1.05,1.45,1.28,3.12.73,9-4.35,11.74-5.83.76-.41,8.06-5.63,8.63-3.31.22.9-3.61,2.25-4.21,2.65a9,9,0,0,0-3,3.78c3.83.56,7.07-4,10.45-4.11,5-.22.47,2,.45,3.71,1.4.19,2.46-.9,3.54-.25-.29-.17,1.16,1.95,1.11,1.77.48,1.94-1.91,2.82-1.56,5.15,3.37.54,5.17-4,8.2-5.12,2.72-1,6.33-2.79,9.22-2.85.75,0,2-.45,1.77.71s-5.58,1.78-6.59,2.35c-1.42.79-6.19,5.45-4.08,7.37,3.7-3.57,7.92-5,12.18-7.17,1.46-.74,2.58-1.51,4.41-1.43,1.6.08,2.79.33,1.48,1.9-1.09,1.31-3.94,1.21-5.38,2.07s-2.78,2.66-4.19,3.9c-.87.76-3.81,2.88-2.49,4,1.53,1.3,4.21-1.9,5.41-2.38a14.64,14.64,0,0,1,2.78-.59c1.4-.26,3.88-1,5,.28-2.26,1.62-5.23,2.18-5.85,5.23,1.82.06,4.56-1.79,6.35-2.45,2.47-.9,4.54-.58,7.18,0,.09,2.22-8.32,4.6-10.14,6.31-1.07,1-3.82,5.1-.72,5.22.73,0,2.84-1.93,3.41-2.25a18.09,18.09,0,0,1,5.76-1.87c.95-.19.26.41,1.35,0,.93-.33,1.6-1.23,2.64-1.48,1.64-.39,5.74-.08,5.8,2.19.1,3.61-8.66,3.74-10.68,6-.4.44-1.75,3.05-1.45,3.73,1.09,2.44,4.24-.84,5.42-1.19,1.88-.56,2.46.65,4.18.84,1.33.15,2.87-.25,4.31-.08s3.06.93,4.3.76c0,2.49-4.25,3.7-6.26,3.86-2.65.21-3.41.4-4.68,2.85,1.62.71,3.94-.64,5.91-.23.74.16,1.13.61,2,.66,1.56.11,3.25-.64,4.86-.65,1.32,0,6.13-.21,6.31,1.64-1.45.39-2.56,1.41-3.94,1.88-1.07.37-2.31.09-3.35.61-1.21.61-2.43,1.89-2.08,3.38,4.07.81,10.27-2.71,14-.43,2.47,1.51.06,2.74-2,3.81-3.36,1.73-5.11.79-5.33,5,2.65.37,5.58-.22,8.16,1.1,3.65,1.87-2.5,2-1.91,4.73.86.24,2.14-.07,2.9.42.53.34.38,1.3.94,1.69,1.13.8,3.18,1,4.49,1.72a4.52,4.52,0,0,1,2.47,2.61c.4,1,.46,2.82,1.5,3.62s2.27.36,3.29,1,1.74,2,2.65,2.81a12.34,12.34,0,0,0,4.76,2.53A25.82,25.82,0,0,1,223.25,382.23Z" style="opacity:0.15"></path><path d="M223.23,407.19c-4.49-3.47-9.84-5.18-17.67-6.64s-10.21-2.75-11-5.71L179,380.32s-7.14,2.26-10.32,6.91-8.67,5.22-13,3.54-21.84-15.23-21.92-20.3,1.05-14.55-3-22.87-21.21-15.18-21.21-15.18c-5.22,3.94-9,8.78-10.56,13.62s-13.8,4.55-28.43.89c-10-2.49-25.65-9.51-25.76-9.56a215.15,215.15,0,0,0,24.3,11.14c9.87,4,24.32,7.33,32.31,7.57A39.12,39.12,0,0,0,127.9,371a47,47,0,0,0,7.57,11.17c4.74,5,14,18.06,35.27,18.8s28.5.54,36.59,1.57a50.45,50.45,0,0,1,11.07,2.84c1.5.56,3.2,1.13,4.84,1.81Z" style="opacity:0.15"></path><path d="M90,329.6l-2.76-10.23L77,316.61l-1.2,9L81,331.31A40.36,40.36,0,0,0,90,329.6Z" style="fill:#263238"></path><path d="M68.63,331.79l.24-5.48-4.75-2.93-3.22,4.1,1.51,4.13A31.39,31.39,0,0,0,68.63,331.79Z" style="fill:#263238"></path><path d="M133.52,302.44s-4.9-12.27-5-12.38-12.42-6.23-12.42-6.23l-1.38.56-1.43,15.37,8.32,8.69c.4-.26.8-.49,1.21-.73l.17.18A59.89,59.89,0,0,1,133.52,302.44Z" style="fill:#263238"></path><path d="M132.14,303s-4.9-12.27-5-12.38-12.42-6.23-12.42-6.23l-1.43,15.37,8.32,8.69A60.5,60.5,0,0,1,132.14,303Z" style="fill:#455a64"></path><path d="M123.92,296.05c-4.49-3.76-7.26-9.59-3-8.84h0c-3.16-1.44-6.24-2.82-6.24-2.82l-1.43,15.37,8.32,8.69A60.5,60.5,0,0,1,132.14,303S128.41,299.8,123.92,296.05Z" style="fill:#37474f"></path><path d="M154.5,299.47l-.94-17.33-16-19.42-2.79,1.4-8.52,17.76,9.61,20a39.61,39.61,0,0,1,15.89-1S153.53,299.33,154.5,299.47Z" style="fill:#263238"></path><path d="M151.72,300.87l-.94-17.33-16-19.42-8.52,17.76,9.61,20A39.61,39.61,0,0,1,151.72,300.87Z" style="fill:#455a64"></path><path d="M140.32,296c-4.92-3.63-7.89-11.39-7.22-16.09s4.74-10.18,9.79-5.9h0l-8.15-9.86-8.52,17.76,9.61,20a39.61,39.61,0,0,1,15.89-1C149.84,298.44,145.24,299.6,140.32,296Z" style="fill:#37474f"></path><path d="M96.64,314.14l-14.36-4L81,311,82.88,323l10.94,6.05a45.08,45.08,0,0,0,9.93-5.83l.88-1.21Z" style="fill:#455a64"></path><path d="M103.75,323.25l-8.42-8.32L81,311,82.88,323l10.94,6.05A45.23,45.23,0,0,0,103.75,323.25Z" style="fill:#37474f"></path><path d="M93.82,329.08a45.23,45.23,0,0,0,9.93-5.83,18.3,18.3,0,0,1-11.55.46c-6.6-1.8-9.5-7.92-11.23-12.76L82.88,323Z" style="fill:#263238"></path><path d="M88.73,330l-4-5.68-12.95-4-.68,1.17.14,7.67,3.9,4.16c3.68.12,11-1.51,12.89-2.18Z" style="fill:#455a64"></path><path d="M88,331.19c-1.91.67-9.21,2.3-12.89,2.18l-3.9-4.16-.14-7.67,12.94,4Z" style="fill:#37474f"></path><path d="M75.15,333.37c3.68.12,11-1.51,12.89-2.18,0,0-6.07,1-11-1.06s-5.16-5-5.9-8.59l.14,7.67Z" style="fill:#263238"></path><path d="M67.6,332.56l-1.32-4.09-5.49-3.08-.66.66-1.44,2.74,1.56,3.59a25.88,25.88,0,0,0,6.7.85Z" style="fill:#455a64"></path><path d="M60.25,332.38a25.88,25.88,0,0,0,6.7.85l-1.32-4.1-5.5-3.08-1.44,2.74Z" style="fill:#37474f"></path><path d="M62.16,331.62c-2.63-1.52-2.46-3.73-2-5.57l-1.44,2.74,1.56,3.59a25.88,25.88,0,0,0,6.7.85A11.35,11.35,0,0,1,62.16,331.62Z" style="fill:#263238"></path><polygon points="227.38 381.87 224.09 381.61 223.21 382.14 222.07 383.61 224.49 387.27 226.58 386.13 227.46 385.6 227.38 381.87" style="fill:#263238"></polygon><polygon points="224.49 387.27 226.58 386.13 226.51 382.4 223.21 382.14 222.07 383.61 224.49 387.27" style="fill:#455a64"></polygon><path d="M223.21,382.14l-1.14,1.47,2.42,3.66a5,5,0,0,1-.73-2.88c.14-1.55,2.77-.72,2.8.61l-.05-2.6Z" style="fill:#37474f"></path><polygon points="224.4 378.88 223.83 373.12 219.57 371.54 218.37 372.22 217.19 375.7 219.99 380.29 223.19 379.56 224.4 378.88" style="fill:#263238"></polygon><polygon points="219.99 380.29 223.19 379.56 222.62 373.8 218.37 372.22 217.19 375.7 219.99 380.29" style="fill:#455a64"></polygon><path d="M219.62,375.14c.88-1.95,3.13,0,3.27,1.38l-.27-2.72-4.25-1.58-1.18,3.48,2.8,4.59S218.74,377.1,219.62,375.14Z" style="fill:#37474f"></path><polygon points="220.49 365.46 219.48 352.39 208.93 347.15 207.36 348 204.69 354.3 213.19 368.97 218.92 366.31 220.49 365.46" style="fill:#263238"></polygon><polygon points="213.19 368.97 218.92 366.31 217.91 353.25 207.36 348 204.69 354.3 213.19 368.97" style="fill:#455a64"></polygon><path d="M210.28,355.05c1.66-2.83,6.84.59,8,2.87l-.36-4.67L207.36,348l-2.67,6.3,8.5,14.67C213.06,364.75,208.61,357.87,210.28,355.05Z" style="fill:#37474f"></path><path d="M208.13,335.08,204.91,316l-13.79.26-2.08,1-1.82,8.57c3.51,5,7.38,11.22,11.37,18l2.08-1Z" style="fill:#263238"></path><path d="M198.59,343.72l7.46-7.66-3.22-19.13-13.79.26-1.82,8.57C190.73,330.72,194.6,337,198.59,343.72Z" style="fill:#455a64"></path><path d="M195,322.4c2.13-3.66,9.21.47,9.57,4.87h0l-1.74-10.34-13.79.26-1.82,8.57c3.51,5,7.38,11.22,11.37,18a74.7,74.7,0,0,0-2.28-9.21C194.72,329.48,192.87,326.05,195,322.4Z" style="fill:#37474f"></path><path d="M190.71,305.94l-12-28.06-2.47,1.27-13,13.94-.5,11.05a55.24,55.24,0,0,1,18.88,14.21l2.47-1.27Z" style="fill:#263238"></path><path d="M181.58,318.35l6.66-11.14-12-28.06-13,13.94-.5,11.05A55.24,55.24,0,0,1,181.58,318.35Z" style="fill:#455a64"></path><path d="M169.47,295.93c.77-4.46,8.4-8.06,12.76-2.76l-6-14-13,13.94-.5,11.05a55.24,55.24,0,0,1,18.88,14.21,37.69,37.69,0,0,0-6-9.18C171.13,304,168.7,300.38,169.47,295.93Z" style="fill:#37474f"></path><polygon points="219.87 388.54 218.2 385.69 216.13 385.22 215.61 385.53 215.44 386.78 218.55 389.59 219.07 389.27 219.87 388.54" style="fill:#455a64"></polygon><polygon points="218.54 389.59 219.35 388.86 217.68 386 215.61 385.53 215.44 386.78 218.54 389.59" style="fill:#37474f"></polygon><path d="M216.45,387.16c-.29-.74.8-1,1.77-.24l-.54-.92-2.07-.47-.17,1.25,3.11,2.81A12.69,12.69,0,0,1,216.45,387.16Z" style="fill:#263238"></path><polygon points="214.34 381.24 211.09 376.28 210.31 376.75 208.66 378.72 209.82 381.84 212.9 384.59 213.71 384.08 214.34 381.24" style="fill:#455a64"></polygon><polygon points="212.9 384.59 209.82 381.84 208.66 378.72 210.31 376.75 213.56 381.71 212.9 384.59" style="fill:#37474f"></polygon><path d="M210.31,376.75l-1.65,2,1.16,3.12,3.08,2.75a12.79,12.79,0,0,1-2.3-3.28A6.89,6.89,0,0,1,210.31,376.75Z" style="fill:#263238"></path><path d="M207,372.71l-7.75-12.5-8.25-4-1.66,1,1.31,7,12,11.16Z" style="fill:#455a64"></path><path d="M202.64,375.33l2.69-1.62-7.75-12.5-8.25-4,1.31,7Z" style="fill:#37474f"></path><path d="M199.07,363.61l-1.49-2.4-8.25-4,1.31,7,10,9.28h0c-3.05-3.6-7.79-8.93-7-10.91S197.31,361.48,199.07,363.61Z" style="fill:#263238"></path><path d="M185.71,351.19l-1.78,1.07-3.18,1.92c-1.72-1.89-8.45-9.33-13-13.86-.21-.37-2.76-6.09-2.76-6.09l1.78-1.08,10,1.93Z" style="fill:#455a64"></path><path d="M183.93,352.26l-3.18,1.92c-1.72-1.89-8.45-9.33-13-13.86-.21-.37-2.76-6.09-2.76-6.09l10,1.92Z" style="fill:#37474f"></path><path d="M170.85,339.92c-.39-1.95,2.47-3.33,5.24-1.86h0L175,336.15l-10-1.92s2.55,5.72,2.76,6.09c4.53,4.53,11.26,12,13,13.86C176.43,347,171.25,341.88,170.85,339.92Z" style="fill:#263238"></path><path d="M160.88,321.72l-19.25-22.49-2.92,1.54-4.22,7L139,319.85a141.79,141.79,0,0,1,19.6,12.07l2-1.21Z" style="fill:#455a64"></path><path d="M158.62,331.92l-.17-8.73-19.74-22.42-4.22,7A41,41,0,0,0,139,319.85,141.79,141.79,0,0,1,158.62,331.92Z" style="fill:#37474f"></path><path d="M144.5,307.35h0l-5.79-6.58-4.22,7A41,41,0,0,0,139,319.85a141.79,141.79,0,0,1,19.6,12.07c-1.1-1.94-9.75-7.5-13.28-11.21s-5.82-7.7-6.24-11S141.71,305.14,144.5,307.35Z" style="fill:#263238"></path><path d="M114.12,316.5l-5.6-13.7s-15.77-4-15.82-4l-1.63,1s4.51,14.48,4.51,14.48l11.15,6.87a39.86,39.86,0,0,1,6.23-3.29Z" style="fill:#455a64"></path><path d="M113,317.88l-6.06-14.1s-15.78-4-15.83-4,4.51,14.48,4.51,14.48l11.15,6.87A39.86,39.86,0,0,1,113,317.88Z" style="fill:#37474f"></path><path d="M106.73,321.17a39.86,39.86,0,0,1,6.23-3.29s-3.77.76-9.57-2.3S93.16,305,91.07,299.82c0,0,4.51,14.48,4.51,14.48Z" style="fill:#263238"></path><path d="M133.08,315.58,126.35,300l-19.75-19.1-3.09,1.78-.72,13,15.14,20.65a25,25,0,0,1,12.79.6Z" style="fill:#455a64"></path><path d="M130.72,317a25,25,0,0,0-12.79-.6,179,179,0,0,1-15.14-20.65l.72-13,20,18.86A102.72,102.72,0,0,1,130.72,317Z" style="fill:#37474f"></path><path d="M119.25,311.17c-4.54-2.59-6.63-5.58-9.94-11.33s-1.34-10.11,5.48-6.5l-11.28-10.62-.72,13a179,179,0,0,0,15.14,20.65,25.08,25.08,0,0,1,12.42.5C129.18,316.34,123.33,313.5,119.25,311.17Z" style="fill:#263238"></path><path d="M194,403.73c.58-4.26.84-13.38-.33-18.73s-12.2-10.45-20.75.4c-5.33,6.77-3.68,17.33-4,18.8-.25,1.22-3.28,10.12-4.9,15.21-1.39,4.38-.92,5.73.62,11.83l2.66,10.44h0c.29,3.67,6.83,7.43,8.73,7.17,2.37-.34,1.9-1.38,3.07-1.93s3.53.53,5.33-.55-.18-2.4.72-3.1,2.72-.47,3.2-1.85a.37.37,0,0,0,0-.25c-.23-2.17-2.87-4.92-6.3-8.72-3.55-4-4.16-5.92-1.72-9.64S193.69,406.26,194,403.73Z" style="fill:#8758FF"></path><path d="M194,403.73c.58-4.26.84-13.38-.33-18.73s-12.2-10.45-20.75.4c-5.33,6.77-3.68,17.33-4,18.8-.25,1.22-3.28,10.12-4.9,15.21-1.39,4.38-.92,5.73.62,11.83l2.66,10.44h0c.29,3.67,6.83,7.43,8.73,7.17,2.37-.34,1.9-1.38,3.07-1.93s3.53.53,5.33-.55-.18-2.4.72-3.1,2.72-.47,3.2-1.85a.37.37,0,0,0,0-.25c-.23-2.17-2.87-4.92-6.3-8.72-3.55-4-4.16-5.92-1.72-9.64S193.69,406.26,194,403.73Z" style="opacity:0.15"></path><g style="opacity:0.15"><path d="M179.12,425.28a2.45,2.45,0,0,1-2.27.88c-1-.06-2.46-.85-2.3.76.08.84,2.87,2,5.08,2.3A4.64,4.64,0,0,1,179.12,425.28Z"></path><path d="M182.08,432.45c-.47-.53-.89-1-1.25-1.49a5.73,5.73,0,0,1-1.08.47c-.6.19-3.47.72-3,1.84.6,1.33,3.32.52,4.47,1.05.79.36,1.26,1.13,2,1.55a12.7,12.7,0,0,0,2.49.73C184.74,435.37,183.48,434,182.08,432.45Z"></path><path d="M194,392.74a5,5,0,0,1-1.88,2,14.17,14.17,0,0,0-2.33,1.62c-1,1.76,1.54,1.21,2.46,1.49,1.28.4.55.25,1.15,1.5-1.68,1.73-.91,3.95-3.22,5.15-1.56.82-2.89.17-4.55.39s-1.71,1.25.21,1.55c1.12.18,4.36,0,6.27.84a12.09,12.09,0,0,0,1.94-3.52,76.45,76.45,0,0,0,.26-14.59C194.22,390.33,194.47,391.73,194,392.74Z"></path><path d="M185.43,413.27c-.88,0-2.24-.32-2.74.52-1,1.67,2,1.44,3.18,1.75.73-.93,1.47-1.88,2.19-2.82A5.62,5.62,0,0,1,185.43,413.27Z"></path><path d="M180,421.73a5.89,5.89,0,0,0,.81.48c.38-.53.85-1.18,1.4-1.9C180.49,420.2,178.23,420,180,421.73Z"></path></g><path d="M169.34,413.55c.78.31,1.18,1.13,2,1.31a7.18,7.18,0,0,0,2.5-.36c1-.16,6.41-.15,5.22-2.36-.31-.58-2.49-1.05-3.16-1.23-2.31-.61-2.56-.34-4.22-2.16a9.28,9.28,0,0,1-2-3.44c1,.84,1.58,1.6,3,1.43,1.88-.22,1.78-.95,1.32-2.24-.87-2.44-4-3.61-3.23-6.61a10.45,10.45,0,0,1,2.44,1.17c.71.38,1.46,1.57,2.25,1.85,2.6.91.91-2,.16-2.75-1.59-1.68-2.05-2.1-2.18-4.49-.08-1.39-.78-3.58.5-4.69a1.46,1.46,0,0,1,1.55-.41c.91.35.24.48.71,1.37.74,1.41,3.34,3.6,4.88,3.6,2.45,0,1.2-2.33-.15-3.23-2.08-1.4-2.3-2-2.92-4.41-.34-1.31-1-2.85-.46-4.17a3.84,3.84,0,0,1,.58-1A18.59,18.59,0,0,0,173,385.4c-5.33,6.77-3.68,17.33-4,18.8-.25,1.22-3.28,10.12-4.9,15.21-1.39,4.38-.92,5.73.62,11.83l2.66,10.44h0c.22,2.7,3.82,5.45,6.46,6.61a3.19,3.19,0,0,0,1.14-.77c-.52-.69-1.24-.45-1.92-.85-.42-.24-.51-.63-.86-.94s-1.8-1-2.08-1.43c-.68-1,.15-1.94-.05-3-.09-.46-.67-1.14-.67-1.45,0-.9.86-1.16,1-1.78.39-2.12-4.89-4.33-2.18-5.89,1-.57,5,.67,5-1.44,0-1.2-2.56-1.38-3.4-1.61-1.92-.53-6.55-3.76-5.17-6.32.66-1.23,1.26-.79,2.6-.49,1.14.26,4.27.8,4.59-1s-2.52-1.58-3.28-2.15c-.91-.67-1.06-2.47-1.13-3.5C167.28,414,167.7,412.88,169.34,413.55Z" style="opacity:0.15"></path><path d="M176.54,449.21c1.65-.6,2.27-1.52,2.1-2.52s-2.52-3.69-3.38-3.35a5,5,0,0,0-2.24,4.07C173.06,448.87,175.64,449.54,176.54,449.21Z" style="fill:#455a64"></path><path d="M184.72,447.21c1-.42,1.09-1.64.52-3s-2.84-4.31-3.8-4.17-1.73,5.3-1.11,6.39C180.8,447.27,182.9,448,184.72,447.21Z" style="fill:#455a64"></path><path d="M186,442.9c.4.46,2.81.09,2.94-1.18.1-.91-1.26-3.58-2.26-4S185.2,442,186,442.9Z" style="fill:#455a64"></path><path d="M174.76,447.7a3.58,3.58,0,0,1,.77-4.38.6.6,0,0,0-.27,0,5,5,0,0,0-2.24,4.07c0,1.46,2.62,2.13,3.52,1.8l.4-.16A3.78,3.78,0,0,1,174.76,447.7Z" style="fill:#37474f"></path><path d="M184.73,447.2a4.48,4.48,0,0,1-2.93-1.49,5.13,5.13,0,0,1-.31-5.65h-.05c-.95.13-1.73,5.3-1.11,6.39.47.82,2.57,1.53,4.39.76Z" style="fill:#37474f"></path><path d="M186.87,442.08c-.78-.78-.75-3.05-.19-4.36l0,0c-1-.45-1.44,4.32-.68,5.2.27.32,1.51.24,2.29-.26A2.69,2.69,0,0,1,186.87,442.08Z" style="fill:#37474f"></path><path d="M131.38,348.51c-6.61-22-18.95-18.14-18.95-18.14-7.29,3.34-11.52,18.21-11.3,28.88.16,7.45,3.92,21.25,2.83,23.6s-5.4,10.94-6.35,14.21-1.15,11.7-1.1,14.59h0c.21,4.34,8,8.84,10.24,8.52,2.78-.39,2.23-1.61,3.6-2.26s4.15.63,6.25-.64-.2-2.81.85-3.63,3.19-.56,3.75-2.18a.41.41,0,0,0,0-.32c-.4-4.23-7.07-10-5.51-12.3s10.47-9.91,11.83-13.91.41-13.92.41-13.92S135.78,363.17,131.38,348.51Z" style="fill:#8758FF"></path><path d="M131.38,348.51c-6.61-22-18.95-18.14-18.95-18.14-7.29,3.34-11.52,18.21-11.3,28.88.16,7.45,3.92,21.25,2.83,23.6s-5.4,10.94-6.35,14.21-1.15,11.7-1.1,14.59h0c.21,4.34,8,8.84,10.24,8.52,2.78-.39,2.23-1.61,3.6-2.26s4.15.63,6.25-.64-.2-2.81.85-3.63,3.19-.56,3.75-2.18a.41.41,0,0,0,0-.32c-.4-4.23-7.07-10-5.51-12.3s10.47-9.91,11.83-13.91.41-13.92.41-13.92S135.78,363.17,131.38,348.51Z" style="opacity:0.15"></path><path d="M115.77,376.06c-2.56-.9-5.8-2.42-7.19-5a16.91,16.91,0,0,0-1.86-3.38c-.6-.73-1.3-1.27-1.08-2.27,1.35.17,2.86,1.26,4.3,1.55,2.45.49,2.1-.93.64-1.88a9.19,9.19,0,0,1-3.57-3.81c-.63-1.49-2.8-4-1.13-5.55,1.28,1,4.36,4.83,6.42,3.35s-2.13-3.45-3-4.14c-1.35-1.11-1-1.47-1.1-3a11.44,11.44,0,0,0-1.17-3.84c-.21-.51-1.79-5.37,0-4.31.38.22.41,1.93.72,2.43a8.6,8.6,0,0,0,2.91,2.55c.94.51,4.31,2.06,4,.07-.18-1-2-1.63-2.61-2.4-1.14-1.39-.36-2.91-.72-4.59-.49-2.32-2.71-3.54-1.86-6.21a14,14,0,0,1,4.23-5.46,7.82,7.82,0,0,0-1.29.22c-7.29,3.34-11.52,18.21-11.3,28.88.16,7.45,3.92,21.25,2.83,23.6s-5.4,10.94-6.35,14.21-1.15,11.7-1.1,14.59h0a6.78,6.78,0,0,0,2.08,4c-.65-1.29.1-2,.86-3.61.66-1.38.28-2-.24-3.15a2.86,2.86,0,0,1,0-3.19c.59-1.21,1.22-1.67,1.24-3,0-.74-.47-1.37-.06-2.26.14-.28.69-1,1-1.11,1.08-.24.32.35,1.06.86.58.41,2.48,1.64,3,.62.23-.47-.53-1.16-.64-1.56-.7-2.5-.9-5.65.33-8.05,1.43-.38,6.29,5.42,7.53,2.55.18-.43-1-2.51-1.26-2.95-1.08-1.64-3.31-1.74-4.39-3.46-.43-.68-1-2.73-.09-3.25,1.17-.64,2.33,1.32,3.7,1.11,2.05-.31.94-1.16.05-2.25-1.15-1.4-2.53-3-2.34-4.93,1.23-.26,2.27.67,3.42.94,1.62.38,2.86-.09,4.41-.32.88-.13,3.39,0,2.5-1.7C118.13,376,116.55,376.34,115.77,376.06Z" style="opacity:0.15"></path><g style="opacity:0.15"><path d="M123.36,390.7a4.44,4.44,0,0,0-1.29.4c-.55.32-.84.94-1.42,1.25a7.63,7.63,0,0,1-3,.44c-1.23.09-2.82.69-1.45,1.95.48.45.93.26,1,1s-.48.86-1,1.14c-.89.49-1.22,1.47-2.19,1.8-.79.27-2.31.12-2.88.81-1.35,1.63,3,2.07,3.75,2.46a4.93,4.93,0,0,1,1.64,1.14c.41.63-.12,1.41.45,1.93a4.32,4.32,0,0,0,1.86.94c-1.91-2.91-4.12-5.69-3.15-7.11S120.33,394,123.36,390.7Z"></path><path d="M127.07,368.59c-.53.5-.27,1.2-.58,1.73a7,7,0,0,1-3.1,2.11c-1.17.28-2.25-.22-3.4,0-.55.1.46,1,.51,1.06a13.4,13.4,0,0,0,1.67.78,3.9,3.9,0,0,0,2.94.72c.62-.22.82-1,1.54-.65a2.73,2.73,0,0,1-1,2.29c-.55.59-2.25.83-2.17,1.92,0,.83,1.26.87,1.94.74a13.21,13.21,0,0,1,2.29-.44c0,.21.09.5,0,.71l.4,0a79.54,79.54,0,0,0-.3-8.52,19,19,0,0,0,4.43-9.53c-.33.39-.68.76-1,1.15a10.49,10.49,0,0,1-5.43,3.41c-.23,1.92,2.47.15,3.23.47C128.94,367.79,127.81,367.9,127.07,368.59Z"></path><path d="M127.71,384.17a6.46,6.46,0,0,1-3,1.3c-.84.09-3-.85-3.71-.22-.51.47-.1,1.35.29,1.66.86.67,2.1.14,3.07.31a4.23,4.23,0,0,1,1.55.51,11.13,11.13,0,0,0,1.63-2.8C127.57,384.7,127.64,384.44,127.71,384.17Z"></path></g><path d="M107.3,420.6c1.94-.7,2.66-1.79,2.46-3s-3-4.33-4-3.94-2.68,2.66-2.62,4.78C103.22,420.2,106.25,421,107.3,420.6Z" style="fill:#455a64"></path><path d="M116.89,418.26c1.17-.5,1.28-1.93.6-3.5s-3.32-5.05-4.44-4.89-2,6.21-1.31,7.49C112.3,418.33,114.75,419.16,116.89,418.26Z" style="fill:#455a64"></path><path d="M118.34,413.2c.47.54,3.3.11,3.45-1.38.11-1.07-1.48-4.2-2.65-4.72S117.45,412.17,118.34,413.2Z" style="fill:#455a64"></path><path d="M106.53,420.7c-2.93-1.42-2.17-4.78-.73-7-1,.39-2.68,2.66-2.62,4.78C103.21,419.88,105.22,420.66,106.53,420.7Z" style="fill:#37474f"></path><path d="M113.77,416.9c-2.13-1.89-1.37-4.95-.37-7a.76.76,0,0,0-.35-.05c-1.13.16-2,6.21-1.31,7.49.54.94,2.89,1.74,5,.95A5.59,5.59,0,0,1,113.77,416.9Z" style="fill:#37474f"></path><path d="M119.15,407.11h0c-1.16-.52-1.69,5.07-.8,6.1.25.29,1.19.3,2,0C119,412,118.4,408.58,119.15,407.11Z" style="fill:#37474f"></path><path d="M52.66,331.85c-5-.87-9.51-7.26-10.35-15.28,0,0-.47,8.49,2.41,14.19S51,336.37,51,336.37C53,336.76,54.54,332.58,52.66,331.85Z" style="fill:#ebebeb"></path><path d="M53.5,333.48c-.54,1.7-2.31,1.45-4.77.09s-5.92-7-6.33-12.53a26.66,26.66,0,0,0,2.32,9.72c2.88,5.71,6.25,5.61,6.25,5.61C52.29,336.63,53.42,334.9,53.5,333.48Z" style="opacity:0.15"></path><path d="M33.66,324.93c-3.59-1.7-5.6-7.43-4.56-13.61,0,0-2.12,6.26-1.16,11.13S31.46,328,31.46,328C32.87,328.67,34.92,325.86,33.66,324.93Z" style="fill:#ebebeb"></path><path d="M29.81,325a15.78,15.78,0,0,1-2-7.56,17.36,17.36,0,0,0,.12,5c1,4.88,3.51,5.51,3.51,5.51,1,.49,2.27-.71,2.55-1.81C33.1,327.41,30.8,326.46,29.81,325Z" style="opacity:0.15"></path></g></g></svg>