<svg id="visual" viewBox="0 0 900 600" width="900" height="600" xmlns="http://www.w3.org/2000/svg" xmlns:xlink="http://www.w3.org/1999/xlink" version="1.1"><rect x="0" y="0" width="900" height="600" fill="#140021"></rect><path d="M0 477L180 477L180 481L360 481L360 464L540 464L540 484L720 484L720 466L900 466L900 483L900 601L900 601L720 601L720 601L540 601L540 601L360 601L360 601L180 601L180 601L0 601Z" fill="#9900ff"></path><path d="M0 509L180 509L180 515L360 515L360 514L540 514L540 504L720 504L720 512L900 512L900 522L900 601L900 601L720 601L720 601L540 601L540 601L360 601L360 601L180 601L180 601L0 601Z" fill="#7700c6"></path><path d="M0 548L180 548L180 547L360 547L360 548L540 548L540 554L720 554L720 552L900 552L900 555L900 601L900 601L720 601L720 601L540 601L540 601L360 601L360 601L180 601L180 601L0 601Z" fill="#560090"></path></svg>