<svg id="Ñëîé_1" data-name="Ñëîé 1" xmlns="http://www.w3.org/2000/svg" viewBox="0 0 1266.06 842.23"><defs><style>.cls-1{fill:#5b3828;}.cls-2{fill:#886653;}.cls-3{fill:#6b4a39;}.cls-4{fill:#c6b3ac;}.cls-5{fill:#e5d8d3;}</style></defs><path class="cls-1" d="M109.94,432.23c3.53,0,6.92-3.11,6.76-6.75a6.88,6.88,0,0,0-6.76-6.76c-3.53,0-6.92,3.11-6.75,6.76a6.87,6.87,0,0,0,6.75,6.75Z"/><path class="cls-2" d="M34.18,401.21c6.8-50.7,30.26-103.42,75.52-125.4,50.47-24.5,114.92-5,162.7-34.58,29.48-18.25,46.17-51.37,63.84-81.6,25.7-44,65.72-89.53,115.66-84.69,11.69,1.14,23.12,5.1,34.86,4.88,25-.46,45.55-19.23,68.27-29.93a112.4,112.4,0,0,1,97.88,1.71c48.77,25.06,73.67,82.17,118.29,114.29C822.7,203,891.16,201,954,195.4s129.66-12.72,185.66,16.81c50.73,26.76,84.46,81.87,91.59,139.71s-10.68,117.35-43.42,165.1c-17.26,25.18-38.75,47.83-50.61,76.08-11.72,27.92-13.08,59-18.25,88.95s-15.71,61.18-39.8,79c-24.25,17.95-57.16,18.32-86.39,11.67s-56.86-19.5-86.16-25.81c-72.48-15.62-146.5,9.66-218.27,28.35S535.43,804.91,472.53,765c-52.38-33.26-80.12-94.27-120.42-142-11.42-13.5-25.15-26.67-42.4-29.51S272.05,603.2,272.6,621c.3,9.85,6.64,19,5.87,28.77-1.39,17.66-24,24.86-41,20.91s-32.45-14.38-49.8-14.62c-25.74-.36-48.94,16.58-71.47-2.9C96.75,636.32,80.1,607,68,584.37,38.46,528.93,25.78,463.89,34.18,401.21Zm201.67-184c9.21-7,14-18.58,16.88-30,3-11.88,3.93-25.84-3.92-35.12-5.52-6.53-14.42-9.27-22.85-9s-16.56,3.24-24.36,6.51c-16.13,6.76-32.43,15.73-41.6,30.87C128.1,233.25,208.7,238,235.85,217.25Zm570.33-53.92c3.21,1.94,6.68,3.87,10.42,3.75,5.31-.17,9.77-4.64,11.6-9.74s1.52-10.71.95-16.1c-2.26-21.49-8.92-43.39-23.75-58.8-19.58-20.36-49.29-25.76-77-29.23-41.72-5.22,2.44,44.09,12.57,55.57A282,282,0,0,0,806.18,163.33Zm197.6,65.1c-5.64,7.11,8.3,35.81,11.59,43,5.25,11.45,12.15,22.56,22.36,29.72s24.25,9.64,35.1,3.56c14.22-8,18.27-28.53,11.52-43.58s-21.69-24.85-37.23-29.6C1038.73,228.93,1010.14,220.43,1003.78,228.43ZM856,183.06c5.4,2.73,11.61,3.16,17.63,3.4a405.26,405.26,0,0,0,95.8-7.51c5-1,10.23-2.19,14.35-5.31,7.11-5.37,9.37-15,11.14-23.87,2.21-11,4.38-22.65.7-33.24-4-11.44-14.09-19.46-24.44-25.43a137.84,137.84,0,0,0-107.4-12.51c-6.27,1.89-12.83,4.56-16.42,10.13-3.16,4.89-3.43,11.09-3.47,16.94C843.72,122.71,838.67,174.33,856,183.06ZM569.82,769c23.27-.53,46.18-5.73,68.71-11.7,13.76-3.65,27.85-7.8,38.94-16.86S696,716.07,692,702.15c-3.63-12.68-15.83-21.27-28.47-24.09s-25.79-.91-38.56,1.2c-40.51,6.67-83.21,16.42-112.43,45.85C476.8,761.16,548.43,769.43,569.82,769Zm238,19.17c3.46,44.06,77.35,14.16,96.88,3.21,5.79-3.23,12.2-8.75,10.55-15.27-1.05-4.19-5.11-6.75-8.93-8.63C884.59,756.73,804.3,743.66,807.79,788.12Z"/><path class="cls-3" d="M1162,367.12c-31.47-31.62-84.78-29-120.27-56-25.68-19.55-38.74-52.21-64.27-71.94-35.82-27.69-85.82-23.39-131-21-46.31,2.41-95,.68-137.21-16.84a146.23,146.23,0,0,1-23.2-8.59,206.7,206.7,0,0,1-36.15-22.23c-10.49-7.84-20.57-16.22-31.07-24-20-14.89-43.36-29.47-69.36-27.42-13.74,1.08-26.78,7-37.72,15.22a66.6,66.6,0,0,0-14.74,15.14c-4.3,6.2-7.72,12.88-11.3,19.51-6.41,11.87-14.42,23.49-28,27.53a32.59,32.59,0,0,1-11.47,1.27,17.52,17.52,0,0,1-4.09.08c-10.54-1.05-19.22-8.32-27.87-14.42s-19.39-11.52-29.48-8.29c-6.4,2-11.31,7.3-14.83,13-9.08,14.76-10.53,33-18.06,48.62-11.21,23.27-35,38.36-59.72,45.83s-50.86,8.44-76.58,10.8-52,6.37-74.48,19.1c-22.08,12.52-39,32.75-51.31,55A205.62,205.62,0,0,0,68.16,505.8c4.55,22.88,11.54,27.83,34,34.33s47.4,5.92,67.12,18.38c9.3,5.89,16.78,14.34,26.13,20.14,24.9,15.45,60.55,7.67,79.07-15s19.86-56.93,5.81-82.65c-6.1-11.17-13.38-28-2.08-33.84,7.46-3.87,16.23,2.17,21.57,8.66,27.35,33.22,29,88.69,68.23,106.46C403,578.14,447.1,552,481.53,569.16c23.21,11.61,36.43,40.77,61.94,45.49,21.55,4,41.19-11.35,60.72-21.32a134.66,134.66,0,0,1,111.49-4.26c16,6.68,30.6,16.45,46.86,22.41s35.49,7.61,50.13-1.66c16.85-10.67,22.9-33.62,18.24-53s-18-35.6-33-48.81c-12.82-11.3-27.15-21.06-38.24-34.06s-18.75-30.47-14.89-47.12,18.66-29.08,34.86-34.54,33.72-5.06,50.77-3.92c46,3.08,97.47,14.84,121.11,54.41,26,43.54,4.59,102.4-33,136.37-9.64,8.7-21.33,19-19.35,31.79,2,13.15,17.2,19.43,30.31,21.69,52.84,9.13,109.65-8.8,147.67-46.62s56.27-94.52,47.44-147.42c-1.91-11.38-.36-28.47,11.14-27.6,4.75.36,8.37,4.26,12.7,6.22,11.19,5.06,24.86-5.07,26.87-17.19S1170.62,375.83,1162,367.12Z"/><path class="cls-1" d="M289.22,387.92a69.17,69.17,0,0,1,3.93-14.42,67,67,0,0,1,4-7.64,11.27,11.27,0,0,0-4-15.4,11.37,11.37,0,0,0-8.68-1.13,11.92,11.92,0,0,0-6.72,5.17,78.64,78.64,0,0,0-11.43,42.87,84.82,84.82,0,0,0,1.6,13.76c.51,2.65,2.92,5.41,5.17,6.73a11.55,11.55,0,0,0,8.68,1.14c6.56-2.13,9.07-7.62,7.86-13.85A61.72,61.72,0,0,1,289.22,387.92Z"/><path class="cls-1" d="M333.51,474.19a82.13,82.13,0,0,0,16.17,5.61,83.42,83.42,0,0,0,17.11,2,11.59,11.59,0,0,0,8-3.3,11.26,11.26,0,0,0-8-19.21,71.39,71.39,0,0,1-8.64-.6l3,.4a69.17,69.17,0,0,1-17.45-4.77l2.69,1.13c-.5-.21-1-.43-1.51-.66a8.43,8.43,0,0,0-4.18-1.34,8.57,8.57,0,0,0-4.49.21,11.26,11.26,0,0,0-7.87,13.84c.85,2.62,2.56,5.55,5.18,6.73Z"/><path class="cls-1" d="M429.11,490.43a11.27,11.27,0,0,0,11.26-11.26,11.38,11.38,0,0,0-3.3-8,11.27,11.27,0,0,0-15.92,0,11.5,11.5,0,0,0-3.3,8,11.35,11.35,0,0,0,3.3,8,11.66,11.66,0,0,0,8,3.3Z"/><path class="cls-1" d="M636,502.71a11.28,11.28,0,0,0-8-3.29,12.17,12.17,0,0,0-8,3.29,22.2,22.2,0,0,1-4.86,3.08,31,31,0,0,1-4.82,1.33,29.05,29.05,0,0,1-4.57,0,31.56,31.56,0,0,1-4.66-1.29,31.21,31.21,0,0,1-4-2.31,30.62,30.62,0,0,1-2.8-2.67,11.26,11.26,0,0,0-19.22,8,12.21,12.21,0,0,0,3.3,8c14.74,16.16,40.47,17.51,57.55,1.86a11.25,11.25,0,0,0,0-15.92Z"/><path class="cls-1" d="M577.68,548.35a11.65,11.65,0,0,0,8-3.3,11.27,11.27,0,0,0,0-15.92,11.25,11.25,0,0,0-15.92,0,11.25,11.25,0,0,0,0,15.92,11.7,11.7,0,0,0,8,3.3Z"/><path class="cls-1" d="M665.08,379a63.67,63.67,0,0,0,36.7,26.95,11.7,11.7,0,0,0,8.67-1.14,11.24,11.24,0,0,0,4-15.4,11.64,11.64,0,0,0-6.72-5.17,53,53,0,0,1-6.64-2.26l2.69,1.13a53.5,53.5,0,0,1-11.5-6.68l2.28,1.76a53.33,53.33,0,0,1-9.42-9.39l1.76,2.28c-.85-1.11-1.66-2.26-2.42-3.44a11.88,11.88,0,0,0-6.73-5.17,11.54,11.54,0,0,0-8.68,1.13,11.25,11.25,0,0,0-4,15.4Z"/><path class="cls-1" d="M658.88,351.94a11.61,11.61,0,0,0,8-3.3,11.25,11.25,0,0,0,0-15.92,11.25,11.25,0,0,0-15.92,0,11.27,11.27,0,0,0,0,15.92,11.72,11.72,0,0,0,8,3.3Z"/><path class="cls-1" d="M999.09,346.46a11.33,11.33,0,0,0-8-3.3c-2.77.12-6.18,1-8,3.3a83.57,83.57,0,0,1-13.55,13.69,85.63,85.63,0,0,1-16.45,9.6,83.16,83.16,0,0,1-15.81,4.56c-2.63.49-5.42,2.94-6.72,5.18a11.25,11.25,0,0,0,4,15.4l2.69,1.13a11.28,11.28,0,0,0,6,0,94.59,94.59,0,0,0,55.74-33.64,8.46,8.46,0,0,0,2.32-3.63C1003.5,354.78,1002,349.13,999.09,346.46Z"/><path class="cls-1" d="M1059.43,443.89c-13.86-9.12-32.89-9.37-47.11-.93-3,1.8-4.41,6.16-2.43,9.24a6.87,6.87,0,0,0,9.24,2.43,31.81,31.81,0,0,1,33.48.92,6.81,6.81,0,0,0,9.25-2.42A6.91,6.91,0,0,0,1059.43,443.89Z"/><path class="cls-1" d="M947.89,584.51c29.51-13.41,51.45-42.3,56.46-74.33,2.83-18.12,2.07-39.87,17-50.51,11.36-8.1,27.75-5.43,39.13,2.64,19.62,13.88,26.84,41.09,21.37,64.49s-21.7,43.1-40.76,57.74a166.27,166.27,0,0,1-91,33.87c-8.53.5-42.44.19-40.31-11.88C911.79,595.31,939.44,588.35,947.89,584.51Z"/><path class="cls-1" d="M677.74,239.77c13.85-9.22,32.17-5.42,48.53-2.41a356.88,356.88,0,0,0,64,5.88c42,0,84.36-7.3,125.76-.27,24.51,4.16,50.14,15.09,61.47,37.21,11.63,22.71,4.22,52-13.38,70.52-14.84,15.59-37.09,24.68-58.32,21.19-14.18-2.34-27-9.85-40.93-13.27C821.52,348,777,378.25,732.81,371.71A81.66,81.66,0,0,1,680.58,341C662.81,317.8,647.52,259.89,677.74,239.77Z"/><path class="cls-1" d="M296.35,396.23c-1.12-19.45,5.6-38.57,14.57-55.87,22.16-42.74,58.47-77.4,100.49-100.9S501,203.28,548.94,198.89c15-1.37,30.26-1.94,45,1.25s29,10.5,38.11,22.46c6.3,8.25,9.88,18.24,12.58,28.26,4.38,16.28,6.69,33.41,3.9,50-1.83,10.87-5.78,21.24-9,31.79-6,19.66-9.4,40.23-8.53,60.76.7,16.45,4.13,32.69,4.74,49.14s-2,33.8-11.85,47c-3.55,4.7-8.42,9-14.28,9.5-8.34.76-15.22-6-21.2-11.81s-17.25-15.93-22-9c-8.39,12.13.08,31.5-10.85,41.39-4.78,4.32-11,6.69-17.24,8.26-10.87,2.74-22.54,3.31-33.19-.2-38.19-12.55-47.11-68.87-85-82.24-16.69-5.89-35-1.79-52.64-.65-14,.91-35.62,2.26-48.46-4.67C304.56,432.3,297.22,411.49,296.35,396.23Z"/><path class="cls-1" d="M105.66,394.53c10.22-15.84,23-30.79,40.06-38.87s39-7.89,53.29,4.39c9.22,7.91,14.24,19.63,22.23,28.78,9.66,11.06,23.79,18.56,30,31.86,8.08,17.22.13,37.16-4.26,55.67a144.48,144.48,0,0,0-3.42,45.17c.67,8.16,2,16.48.1,24.44-4.05,16.66-24.24,27.28-40.25,21.16-16.67-6.35-24.83-25.82-40.56-34.22-12.83-6.85-28.29-5.19-42.75-6.75C54.43,519.09,83.31,429.16,105.66,394.53Z"/><path class="cls-4" d="M204.05,511.58c-.18-9.49-3.4-18.65-4.68-28.06-1.66-12.12-.1-24.43,1.94-36.49,2.33-13.71,5.61-28,14.82-38.41,2.51-2.85,6-5.52,9.73-4.9,4.43.73,6.8,5.52,8.24,9.77,6.17,18.12,8.4,38.31,1.87,56.31-2,5.42-4.68,10.52-6.88,15.84-4.32,10.43-6.65,21.56-8.78,32.64-1.26,6.52-2.5,13.17-5.69,19-2.42,4.42-6.21,8.44-11,10.34-3.76,1.5-11.95,2.32-11.53-3.61.29-4.23,6.59-10.11,8.32-14.19A44.44,44.44,0,0,0,204.05,511.58Z"/><path class="cls-4" d="M310.22,395.54c-.35-3.72,1.69-7.3,4.37-9.91s6-4.46,9-6.63c9.81-7,16.89-17.16,22.64-27.74s10.37-21.76,16.44-32.15c2.14-3.66,4.52-7.29,7.85-9.92s7.78-4.16,11.88-3.09c7.42,1.92,10.51,11.47,8.32,18.81s-8,12.94-13.35,18.39c-8,8.06-15.5,16.51-23,25-5.7,6.42-11.61,13.26-13.36,21.67-1.41,6.76-.91,21.64-11.71,20.16C322.82,409.22,310.88,402.61,310.22,395.54Z"/><path class="cls-4" d="M331.5,408.12c3.64-4,10-5,15-2.8,4,1.76,7.07,5.23,11.15,6.77,7.16,2.69,15.13-1.3,20.88-6.34s10.62-11.34,17.5-14.68c2.44-1.19,5.51-1.91,7.75-.36,3,2.08,2.47,6.71.9,10-5.31,11.22-17.66,17.2-29.54,20.79a146.91,146.91,0,0,1-21.23,4.73c-7.05,1-14.05,1-20.22-2.89C328.42,420,326.89,413.25,331.5,408.12Z"/><path class="cls-4" d="M364.36,439.08c7.2-16.37,17.11-33.36,33.79-39.81a9.24,9.24,0,0,1,5.5-.76c3.33.85,5,4.76,4.87,8.19-.17,6-4,11.23-8.35,15.28s-9.47,7.33-13.49,11.73-6.94,10.45-5.61,16.26c.59,2.61,2,5,2.77,7.53,2.12,6.93-.5,14.39-3.68,20.91-2,4.06-4.26,8.1-7.69,11s-8.22,4.64-12.56,3.37c-9.45-2.77-5.77-15.54-5-22.67C356.1,459.33,360,449,364.36,439.08Z"/><path class="cls-4" d="M360.09,496.58c-1.32-7.38,3.08-15.19,9.78-18.55s15.13-2.46,21.42,1.61c3.92,2.54,7.68,6.39,12.35,6,4.22-.36,7.3-4.19,9.05-8.05s2.76-8.15,5.42-11.45c.84-1,2.27-2,3.41-1.33a3,3,0,0,1,1.09,1.72,46.74,46.74,0,0,1,1.47,24.15c-1.2,5.88-4.09,12.06-9.64,14.3-3.79,1.53-8.06.92-12.13,1.18-7.1.45-13.75,3.57-20.75,4.79S361,501.52,360.09,496.58Z"/><path class="cls-4" d="M518.67,449.68c-4.41-2.39-7.07-7.4-5.15-12s6.66-7.32,10.84-10.11c15.92-10.67,27.21-27.52,32.8-45.85s5.73-38.05,2.26-56.89c-1.91-10.41-4.91-20.66-5.56-31.22s1.37-21.8,8.3-29.79c6-6.93,15-10.59,24-12.52,18-3.88,36.86-1.67,54.67,3,16,4.2,32,10.82,42.8,23.31,4,4.59,7.13,11.46,3.71,16.46-3,4.38-9.15,4.7-14.39,5.45-6.35.91-13,3.46-16.27,9-4.88,8.25-.17,18.79-1.36,28.3-.57,4.48-2.47,8.81-2.17,13.31.33,4.93,3.26,9.29,6.38,13.13,11.83,14.59,27.88,26,36.57,42.63,1.76,3.38,3.21,7.07,3,10.87s-2.41,7.71-6,8.89c-5.37,1.75-10.66-2.9-13.68-7.67-5.24-8.28-7.74-18-12-26.82a75.52,75.52,0,0,0-31.92-33.59c-12-6.48-27.27-9.39-38.87-2.28-6.41,3.94-10.82,10.41-14.53,17a147.18,147.18,0,0,0-13.24,31.44c-.61,2.1-1.12,4.54.13,6.33s3.82,2.16,6,2.32l14.11,1c3.26.24,6.91.66,9,3.21,1.84,2.28,1.74,5.66.47,8.3s-3.5,4.66-5.76,6.51a93.37,93.37,0,0,1-46.52,20.1C535.55,452.83,528.55,455,518.67,449.68Z"/><path class="cls-4" d="M623.9,313.2c5.89,4.13,9.27,11,11.24,17.92,4.28,15,3,31,2.89,46.58s1.19,32.05,9.74,45.11c6,9.11,15.32,16.36,18.2,26.86,1.9,6.93.62,14.47-2.45,21A27.06,27.06,0,0,1,655,481.42a16.35,16.35,0,0,1-13.21,2.8c-6.44-1.66-10.68-7.71-13.86-13.56-17.06-31.37-20.35-68.19-22.28-103.85-.46-8.41-.86-16.86-2.47-25.13-1-5-2.38-9.91-2.67-15-.3-5.36.5-11.89,5.49-14.74C611.51,308.78,618.74,309.59,623.9,313.2Z"/><path class="cls-4" d="M673.69,473.22c11.26-4.76,24.47-2.74,35.52,2.49S729.63,489.09,739,497c29.78,25.25,61.25,49.4,97.39,64.15,8.83,3.6,18,6.7,25.73,12.3s13.86,14.41,13.44,23.93c-.09,1.91-1,4.32-2.93,4.23-1.41-.07-2.29-1.5-3-2.71a22.07,22.07,0,0,0-9.34-8.28,3.79,3.79,0,0,0-2.75-.46,3.93,3.93,0,0,0-2,2.13c-5.86,11.34-3.81,25.1-.14,37.33a13.77,13.77,0,0,0,2.75,5.64c2.94,3.11,8.53,3.47,10.21,7.41,1.75,4.12-3.07,8.72-7.51,8.18s-7.77-4.42-9.66-8.48c-4.31-9.27-3.33-20-5.24-30.08-3-15.76-13.08-29.34-24.76-40.33-20.25-19.06-45.68-31.84-71.91-41.06-18.82-6.6-38.17-11.49-57.51-16.28-11.89-2.95-39-4-34.57-21.95A28.89,28.89,0,0,1,673.69,473.22Z"/><path class="cls-4" d="M474.48,420.72c.62-8.31,5-15.83,9.49-22.81,7.81-12,16.64-23.51,27.57-32.77,15.32-13,34.14-21,53-28,7.33-2.71,14.88-5.31,22.69-5.39s16,2.78,20.62,9.11,4.1,16.4-2.22,21c-4.29,3.11-10,3.19-15.25,3.54a108.31,108.31,0,0,0-65.8,28.42c-6.33,5.87-12,12.65-15.38,20.61-2.71,6.43-3.88,13.59-7.81,19.36C490.25,450.1,473.3,436.54,474.48,420.72Z"/><path class="cls-4" d="M482.77,461.48c3.52,5.18,9.9,7.42,15.66,9.87C530,484.8,554,514.83,560,548.61c.94,5.26,1.56,10.79,4.49,15.25a15.83,15.83,0,0,0,15.66,6.92c5.94-1.12,10.93-6.52,11.17-12.56.29-7.54-5.83-13.52-10.57-19.38-11.25-13.92-16.25-31.71-21.45-48.83s-11.25-34.79-23.92-47.43c-9.63-9.61-24.42-15.73-38.08-13C484.1,432.19,474.29,449,482.77,461.48Z"/><path class="cls-4" d="M550.9,670.71c-9.1-2.64-16.57-9-23.75-15.19l-12-10.34a23.69,23.69,0,0,1-5.7-6.25c-2.48-4.55-1.69-10.29.65-14.91s6-8.39,9.49-12.22a149.33,149.33,0,0,0,20.33-27.75c4.09-7.35,7.44-15.19,12.6-21.83s12.65-12.13,21.06-12.37,17.18,6.37,17.09,14.79c-.12,9.82-10.52,15.71-19.07,20.56a134.36,134.36,0,0,0-32,25.23c-4.84,5.19-9.51,11.44-9.28,18.54.29,9,8.4,15.84,16.83,18.9,6.5,2.35,32.55,3.31,31.78,12.6C578.11,671.17,557.93,672.76,550.9,670.71Z"/><path class="cls-4" d="M199.64,411.93a38.76,38.76,0,0,0-20.14-26,44.37,44.37,0,0,0-33.08-2.6,37.93,37.93,0,0,0-18.47,12c-3.83,4.79-6.16,10.56-8.77,16.11-5.44,11.55-12.3,22.39-17.56,34s-8.92,24.4-7.41,37.08c1.22,10.34,6.33,20.34,14.78,26.59,9.05,6.68,18.38,5.62,27.35-1.47,6.32-5,10.85-11.83,15.41-18.46q9.84-14.31,20.46-28.05a77.77,77.77,0,0,1,9.3-10.55c2.86-2.56,6.08-4.72,8.84-7.4C198.5,435.3,201.94,423,199.64,411.93Zm-85.92,81.28c-11.91,1.24-10.27-22.53-3-22.16C118.26,471.44,125.85,492,113.72,493.21Zm20.13-17.12c-.42,1.16-1.76,1.35-3.07,1.18a21.84,21.84,0,0,1-4.88-2.69c-2-1.68-3.17-4.93-1.46-6.92,1.58-1.83,4.72-1.43,6.48.23s2.45,4.13,2.92,6.5A3.17,3.17,0,0,1,133.85,476.09Zm10.58-18.85c-7.1,11.38-18.49.32-18.38-9.52a38.13,38.13,0,0,1,4.48-17.46c1-1.84,2.55-3.83,4.63-3.64a5.13,5.13,0,0,1,2.62,1.28C146.07,434.41,150.34,447.74,144.43,457.24Zm22.78-17.6c-2,3.33-9.16.29-11.47-1.18a20.92,20.92,0,0,1-8.25-11.37c-1.1-3.51-1.43-7.48.27-10.73s5.94-5.33,9.23-3.71a8.18,8.18,0,0,1,3.86,5.12,44.52,44.52,0,0,1,1.08,6.5,22.62,22.62,0,0,0,3.52,9.6C166.67,435.63,168.29,437.8,167.21,439.64Zm18.19-7.47c-2.54,1.44-5.85.83-8.29-.78-5.2-3.41-8.25-10.38-10.52-15.94a23.21,23.21,0,0,1-2.1-8.93,10.48,10.48,0,0,1,3.6-8.17,2.45,2.45,0,0,1,1.46-.64,2.4,2.4,0,0,1,2,1.74c.75,1.94.4,4.12.66,6.18.6,4.79,4.35,8.56,8.28,11.36a37.78,37.78,0,0,1,5.34,4.15,8.52,8.52,0,0,1,2.66,6A6.17,6.17,0,0,1,185.4,432.17Z"/><path class="cls-4" d="M184.57,365.41c-.77-2.76-2.27-3.88-4.58-6.19a8.77,8.77,0,0,0-12.37,0c-3.07,4-2.67,5.33-2.25,8.51.78,2.75,2.27,3.88,4.59,6.19,1.52,1.64,5.77,3.79,9.55,1.8a6.54,6.54,0,0,0,2.81-1.8C184.37,371.26,185.24,370.38,184.57,365.41Z"/><path class="cls-4" d="M193.23,343.94c-1.07-1.92-1.6-3.24-3.3-4.34-3.46-3.17-8.38-1.54-9.72-.68-3.88,3-3.87,4.18-4.33,7.55,0,2.63,1,4,2.25,6.3a8.79,8.79,0,0,0,12,3.13C196.1,351.26,194.5,346.13,193.23,343.94Z"/><path class="cls-4" d="M213.83,337.64a47.3,47.3,0,0,0-4.24-11.11c-1.24-2.29-4.89-5-8.71-4.18-3.4.16-6.6,3.3-7.27,6.27-.11.77-.21,1.55-.31,2.32,0,2.74,1,3.81,2.16,6.39,1.86,4.86,1.21,5.89,3.07,7.93,1.26,1.94,4.79,5,11.28,2.25A8.91,8.91,0,0,0,213.83,337.64Z"/><path class="cls-4" d="M232.49,326.73a31.56,31.56,0,0,1-1.5-8.8c-.13-4-2.59-7.09-5.38-8-3-1.6-7.44-.5-9.55,1.8a8.9,8.9,0,0,0-2.56,6.19,52.88,52.88,0,0,0,2.13,13.45c1.11,3.7,4.29,6.13,7.27,6.26,3.36.76,7.27-1.45,8.71-4.17A9,9,0,0,0,232.49,326.73Z"/><path class="cls-4" d="M254.56,307.64a6.53,6.53,0,0,0-1.81-2.82,6.65,6.65,0,0,0-2.81-1.81,6.75,6.75,0,0,0-3.37-.75l-2.33.31a8.79,8.79,0,0,0-3.85,2.25L239,306.59a8.77,8.77,0,0,0-1.2,4.41l-.21,8.19a6.75,6.75,0,0,0,.75,3.37,6.65,6.65,0,0,0,1.81,2.81,9.73,9.73,0,0,0,6.18,2.56l2.33-.31a8.82,8.82,0,0,0,3.86-2.25l1.36-1.77a8.64,8.64,0,0,0,1.2-4.41l.21-8.19A6.48,6.48,0,0,0,254.56,307.64Z"/><path class="cls-4" d="M282.39,306.79a6.65,6.65,0,0,0-1.81-2.81,6.53,6.53,0,0,0-2.82-1.81c-3-1.6-7.44-.49-9.55,1.81l-1.36,1.77a8.64,8.64,0,0,0-1.2,4.41,9.7,9.7,0,0,1-.58,2.65,18.55,18.55,0,0,1-1.7,2.84,6.44,6.44,0,0,0-1,3.25,7.82,7.82,0,0,0,1.72,6.46c1.87,2.88,6.22,4.09,9.19,3.13l2.09-.88a8.72,8.72,0,0,0,3.13-3.14,25.43,25.43,0,0,0,4.09-9.38,34,34,0,0,0,.59-4.93A6.75,6.75,0,0,0,282.39,306.79Z"/><path class="cls-4" d="M301.38,308.76c-1.3-1.19-5.66-3.82-11.48.68a8.64,8.64,0,0,0-2.25,3.86c-1,6.82-3.4,6.82-3.56,10.38a7.6,7.6,0,0,0,1.72,6.46c1.87,2.89,6.23,4.09,9.19,3.13,1.64-.69,3.59-1.25,5.23-4a33.49,33.49,0,0,0,4.28-11.3C305.43,315,304.34,310.68,301.38,308.76Z"/><path class="cls-4" d="M324.8,304.7c-.51-2.12-3.15-6.08-7.27-6.26-3.37-.76-7.27,1.45-8.71,4.17l-.89,2.09a8.94,8.94,0,0,0,0,4.65c.08.37.13.75.19,1.12.67,6.8-.84,7.64.73,10.62a7.58,7.58,0,0,0,4.62,4.62c3,1.6,7.44.49,9.55-1.81a8.94,8.94,0,0,0,2.56-6.18A42.52,42.52,0,0,0,324.8,304.7Z"/><path class="cls-4" d="M344.9,291.29a6.71,6.71,0,0,0-2.25-2.45,6.64,6.64,0,0,0-3-1.56,6.55,6.55,0,0,0-3.48-.16c-3.4.15-6.6,3.29-7.27,6.26l-.31,2.33c0,4,2,4,3.21,10.88a8.43,8.43,0,0,0,5.36,7.79c3.05,1.6,7.45.49,9.56-1.81l1.36-1.77a8.8,8.8,0,0,0,1.2-4.41A37.14,37.14,0,0,0,344.9,291.29Z"/><path class="cls-4" d="M367.86,292.31c-1.63-5.88-.35-6.44-1.7-9a6.65,6.65,0,0,0-1.81-2.81,9.73,9.73,0,0,0-6.18-2.56l-2.33.31a8.82,8.82,0,0,0-3.86,2.25l-1.36,1.77a8.74,8.74,0,0,0-1.2,4.41A53.28,53.28,0,0,0,351,297a6.57,6.57,0,0,0,1.57,3,6.66,6.66,0,0,0,2.45,2.26,6.59,6.59,0,0,0,3.25,1,6.68,6.68,0,0,0,3.49-.15l2.09-.88a8.8,8.8,0,0,0,3.13-3.14l.89-2.09A8.94,8.94,0,0,0,367.86,292.31Z"/><path class="cls-4" d="M386.11,274.89a9.71,9.71,0,0,0-4-5.22,6.44,6.44,0,0,0-3.25-1,6.55,6.55,0,0,0-3.48.16l-2.09.88a8.75,8.75,0,0,0-3.14,3.14l-.88,2.08a8.74,8.74,0,0,0-.06,4.34c.67,5.86.07,6,1.13,8.07a9,9,0,0,0,8,5.38l2.32-.32a8.66,8.66,0,0,0,3.86-2.24l1.37-1.77a8.7,8.7,0,0,0,1.19-4.42A83.43,83.43,0,0,0,386.11,274.89Z"/><path class="cls-4" d="M409.77,264.72a7.84,7.84,0,0,0-3.29-5.7c-2.55-2.34-7.1-2.37-9.71-.68L395,259.7a8.64,8.64,0,0,0-2.25,3.86,42.74,42.74,0,0,0-2.34,13.87c0,3.54,2.32,7,5.37,8,3.05,1.6,7.44.49,9.55-1.81a9,9,0,0,0,2.57-6.18,34.62,34.62,0,0,1,.17-3.53C409.06,268.33,410.44,267.73,409.77,264.72Z"/><path class="cls-4" d="M432.38,262.19a6.57,6.57,0,0,0-1-3.25,6.66,6.66,0,0,0-2.25-2.46c-2.56-2.33-7.1-2.36-9.71-.68l-1.77,1.37a8.64,8.64,0,0,0-2.25,3.86,60.92,60.92,0,0,0-2.55,13,6.6,6.6,0,0,0,.75,3.37,6.68,6.68,0,0,0,1.81,2.82,6.54,6.54,0,0,0,2.81,1.8c3.05,1.6,7.45.49,9.56-1.8l1.36-1.77a8.81,8.81,0,0,0,1.2-4.42,48.17,48.17,0,0,1,1.92-8.39A6.59,6.59,0,0,0,432.38,262.19Z"/><path class="cls-4" d="M453.76,258.33A6.59,6.59,0,0,0,453,255a6.51,6.51,0,0,0-1.8-2.82,6.68,6.68,0,0,0-2.82-1.81c-3-1.6-7.44-.49-9.55,1.81a8.7,8.7,0,0,0-2.56,6.18,31,31,0,0,1-.06,4.62c-.93,5.27-2.32,5.91-1.65,8.93a7.84,7.84,0,0,0,3.29,5.7c2.56,2.34,7.1,2.37,9.71.68l1.77-1.36a8.64,8.64,0,0,0,2.25-3.86A39.75,39.75,0,0,0,453.76,258.33Z"/><path class="cls-4" d="M474.51,253.09a6.52,6.52,0,0,0-.75-3.37c-1-3.2-4.87-5.51-8-5.37a8.8,8.8,0,0,0-6.18,2.56,8.6,8.6,0,0,0-2.56,6.18,44.69,44.69,0,0,1-.44,10.48,6.58,6.58,0,0,0-.16,3.49c.15,3.41,3.32,6.6,6.26,7.27a8.82,8.82,0,0,0,6.74-.89,8.6,8.6,0,0,0,4-5.22A58.2,58.2,0,0,0,474.51,253.09ZM457,261.25Z"/><path class="cls-4" d="M497.7,251.09a9,9,0,0,0-6.26-7.27l-2.32-.31a8.7,8.7,0,0,0-4.42,1.19l-1.77,1.37a8.82,8.82,0,0,0-2.25,3.86,35.86,35.86,0,0,0-1.37,10.92,6.63,6.63,0,0,0,.76,3.37,9,9,0,0,0,8,5.37l2.32-.31a8.64,8.64,0,0,0,3.86-2.25l1.37-1.77a8.63,8.63,0,0,0,1.19-4.41C496.45,255.07,498.46,254.47,497.7,251.09Z"/><path class="cls-4" d="M518.63,250.15a6.63,6.63,0,0,0-.76-3.37,9,9,0,0,0-8-5.37l-2.32.31a8.82,8.82,0,0,0-6.42,8.43,44.35,44.35,0,0,1-.19,6.72,10,10,0,0,0,.94,6.5,9.78,9.78,0,0,0,5.23,4l2.32.31a8.7,8.7,0,0,0,4.42-1.19l1.77-1.37a8.66,8.66,0,0,0,2.24-3.86A56.07,56.07,0,0,0,518.63,250.15Z"/><path class="cls-4" d="M541.39,256.64a37.75,37.75,0,0,1-.31-7.33,9,9,0,0,0-8.74-8.74l-2.32.31a8.64,8.64,0,0,0-3.86,2.25l-1.37,1.77a8.63,8.63,0,0,0-1.19,4.41,51.28,51.28,0,0,0,.93,12,8.44,8.44,0,0,0,7.27,6.26c3.35.75,7.27-1.43,8.71-4.17.3-.7.59-1.4.88-2.09A8.74,8.74,0,0,0,541.39,256.64Z"/><path class="cls-4" d="M560.91,238.3A8.74,8.74,0,0,0,546,244.49a30.08,30.08,0,0,1-1.7,11.53,8.74,8.74,0,0,0,6.1,10.75c5.41,1.24,9.31-1.75,10.76-6.1a52.34,52.34,0,0,0,2.32-16.18A9.12,9.12,0,0,0,560.91,238.3Z"/><path class="cls-4" d="M587.87,256.43l-1.26-8.5a8.37,8.37,0,0,0-7.26-6.26,6.68,6.68,0,0,0-3.49.15l-2.09.88a8.91,8.91,0,0,0-3.14,3.14c-.29.7-.58,1.39-.88,2.09a8.94,8.94,0,0,0,0,4.65l1.26,8.5a9,9,0,0,0,10.76,6.1l2.09-.88a8.77,8.77,0,0,0,3.13-3.13c.3-.7.59-1.4.88-2.09A8.74,8.74,0,0,0,587.87,256.43Z"/><path class="cls-4" d="M608.21,246.26a7.88,7.88,0,0,0-4.62-4.63,6.75,6.75,0,0,0-3.37-.75l-2.33.31a8.88,8.88,0,0,0-3.86,2.25l-1.36,1.77a8.8,8.8,0,0,0-1.2,4.41c-.1,2.1-.21,4.2-.31,6.3a9,9,0,0,0,8.74,8.74l2.33-.31a8.6,8.6,0,0,0,3.85-2.25l1.37-1.77a8.74,8.74,0,0,0,1.2-4.41c.1-2.1.21-4.2.31-6.3A6.58,6.58,0,0,0,608.21,246.26Z"/><path class="cls-4" d="M629.93,245.31a6.65,6.65,0,0,0-1.81-2.81,9.73,9.73,0,0,0-6.18-2.56l-2.33.31a8.64,8.64,0,0,0-3.86,2.25l-1.36,1.77a8.64,8.64,0,0,0-1.2,4.41c-.1,2.1-.21,4.2-.31,6.3a9.73,9.73,0,0,0,2.56,6.18,6.65,6.65,0,0,0,2.81,1.81,6.72,6.72,0,0,0,3.37.75l2.32-.31a8.77,8.77,0,0,0,3.86-2.25l1.37-1.77a8.69,8.69,0,0,0,1.19-4.41c.11-2.1.21-4.2.32-6.3A6.72,6.72,0,0,0,629.93,245.31Z"/><path class="cls-4" d="M652.4,252.14a6.65,6.65,0,0,0-.76-3.37,6.54,6.54,0,0,0-1.8-2.81,6.68,6.68,0,0,0-2.82-1.81,6.5,6.5,0,0,0-3.37-.75l-2.32.31a8.82,8.82,0,0,0-3.86,2.25l-1.37,1.77a8.73,8.73,0,0,0-1.19,4.41l.63,7.56a9,9,0,0,0,8.74,8.74l2.33-.31a8.88,8.88,0,0,0,3.86-2.25l1.36-1.77a8.74,8.74,0,0,0,1.2-4.41Z"/><path class="cls-4" d="M676,251.71c-1-3.36-4-6.12-7.27-6.27-3.37-.75-7.27,1.45-8.71,4.18a9,9,0,0,0-.88,6.74c2.05,7.2,0,9.1,1.69,12.37a7.83,7.83,0,0,0,4.62,4.62c3,1.6,7.45.49,9.56-1.8l1.36-1.77a8.81,8.81,0,0,0,1.2-4.42A46.67,46.67,0,0,0,676,251.71Z"/><path class="cls-4" d="M705,248.56a6.64,6.64,0,0,0-1.56-3c-1.87-2.88-6.23-4.09-9.19-3.13l-2.09.88a8.75,8.75,0,0,0-3.14,3.14,32.51,32.51,0,0,0-3.66,7.49,33.11,33.11,0,0,0-1.61,8.26,8.44,8.44,0,0,0,5.38,8c3,1.6,7.44.49,9.55-1.81l1.36-1.77a8.66,8.66,0,0,0,1.19-4.27,24.36,24.36,0,0,1,1-3.66,24.83,24.83,0,0,1,1.92-3.41,9.75,9.75,0,0,0,.88-6.73Z"/><path class="cls-4" d="M730.73,250.42a6.5,6.5,0,0,0-1.81-2.82l-1.77-1.36a8.74,8.74,0,0,0-4.41-1.2l-2.32.32a8.66,8.66,0,0,0-3.86,2.24,31.86,31.86,0,0,0-6.73,11.67,6.65,6.65,0,0,0-.15,3.48,6.44,6.44,0,0,0,1,3.25,6.66,6.66,0,0,0,2.25,2.46,6.55,6.55,0,0,0,3,1.56l2.33.31a8.66,8.66,0,0,0,4.41-1.19l1.77-1.37a10,10,0,0,0,2.45-4.38,23.5,23.5,0,0,1,2-3.42,6.47,6.47,0,0,0,1.81-2.81,7.95,7.95,0,0,0,0-6.74Z"/><path class="cls-4" d="M751.55,255.8a9.91,9.91,0,0,0-4-5.23l-2.09-.88a8.94,8.94,0,0,0-4.65,0l-2.08.88a8.83,8.83,0,0,0-3.14,3.14q-1.43,3.15-2.83,6.3a6.44,6.44,0,0,0-1,3.25,9,9,0,0,0,4.17,8.71l2.09.88a8.74,8.74,0,0,0,4.65,0l2.09-.88a8.72,8.72,0,0,0,3.13-3.14c.95-2.1,1.89-4.2,2.84-6.29a6.6,6.6,0,0,0,1-3.25A6.68,6.68,0,0,0,751.55,255.8Z"/><path class="cls-4" d="M773.47,253.18a9,9,0,0,0-8-5.37l-2.33.31a8.6,8.6,0,0,0-3.85,2.25l-1.37,1.77a8.67,8.67,0,0,0-1.18,4.24c-.83,4.67-2.1,5.36-1.45,8.26a6.5,6.5,0,0,0,1,3.25,9.75,9.75,0,0,0,5.22,4l2.33.32a8.74,8.74,0,0,0,4.41-1.2l1.77-1.36a8.78,8.78,0,0,0,2.25-3.86,36.5,36.5,0,0,0,1.9-9.25A6.52,6.52,0,0,0,773.47,253.18Z"/><path class="cls-4" d="M796.56,255.48a9.71,9.71,0,0,0-4-5.22l-2.09-.88a8.7,8.7,0,0,0-4.64,0l-2.09.88a8.75,8.75,0,0,0-3.14,3.14,34.22,34.22,0,0,0-3.72,9.32,6.69,6.69,0,0,0-.15,3.49,6.47,6.47,0,0,0,1,3.25,6.56,6.56,0,0,0,2.25,2.45,6.48,6.48,0,0,0,3,1.57l2.33.31a8.69,8.69,0,0,0,4.41-1.19l1.77-1.37a8.82,8.82,0,0,0,2.25-3.86c1.07-5.26,2.84-5.2,3-8.4A6.69,6.69,0,0,0,796.56,255.48Z"/><path class="cls-4" d="M817.21,257.59a9,9,0,0,0-8-5.38l-2.33.31a8.79,8.79,0,0,0-3.85,2.25l-1.37,1.77a8.81,8.81,0,0,0-1.2,4.42l-.31,6.29a9.67,9.67,0,0,0,2.56,6.18,6.47,6.47,0,0,0,2.81,1.81,6.54,6.54,0,0,0,3.37.75l2.33-.31a8.69,8.69,0,0,0,3.86-2.25l1.36-1.77a8.74,8.74,0,0,0,1.2-4.41c.1-2.1.21-4.2.31-6.29A6.5,6.5,0,0,0,817.21,257.59Z"/><path class="cls-4" d="M825.76,257.66a36,36,0,0,0-1.86,6.93,8.71,8.71,0,0,0,.77,5.9,5.88,5.88,0,0,0,2,2.14,5.67,5.67,0,0,0,2.61,1.37l2,.28a7.69,7.69,0,0,0,3.86-1l1.55-1.19a7.71,7.71,0,0,0,2-3.38,35.26,35.26,0,0,1,1.85-6.93,5.87,5.87,0,0,0,.14-3.05,7.87,7.87,0,0,0-5.48-6.36l-2-.28a7.69,7.69,0,0,0-3.86,1.05l-1.55,1.19a7.7,7.7,0,0,0-2,3.38Z"/><path class="cls-4" d="M863.32,259.94a7.87,7.87,0,0,0-5.48-6.36l-2-.27a7.58,7.58,0,0,0-3.86,1l-1.55,1.2a7.57,7.57,0,0,0-2,3.37l-1.89,5.35a7.37,7.37,0,0,0,2.74,8,5.64,5.64,0,0,0,2.6,1.37l2,.28a7.75,7.75,0,0,0,3.87-1l1.54-1.19a7.62,7.62,0,0,0,2-3.38l1.89-5.35A5.86,5.86,0,0,0,863.32,259.94Z"/><path class="cls-4" d="M888,263.9a6.9,6.9,0,0,0,0-5.89c-.64-2-1.89-2.7-3.13-3.66a7.69,7.69,0,0,0-3.86-1l-2,.28a7.29,7.29,0,0,0-3.9,2.59,19.59,19.59,0,0,0-2.46,3.57c-.44.88-1.23,2.84-1.37,3.24a12.32,12.32,0,0,0-.44,1.61,5.76,5.76,0,0,0-.13,3.05,5.57,5.57,0,0,0,.9,2.84,8.52,8.52,0,0,0,4.58,3.52l2,.27a7.58,7.58,0,0,0,3.86-1l1.55-1.2a8.9,8.9,0,0,0,2.3-4.66c.22-.41.45-.81.71-1.2A5.68,5.68,0,0,0,888,263.9Z"/><path class="cls-4" d="M910.71,264.59a5.74,5.74,0,0,0-1.37-2.6c-1.14-1.76-2.52-2.13-4-2.75a7.77,7.77,0,0,0-4.06,0l-1.83.78a7.65,7.65,0,0,0-2.74,2.74l-1.26,2.52a5.61,5.61,0,0,0-.91,2.84,6.86,6.86,0,0,0,1.5,5.66c1.14,1.75,2.53,2.12,4,2.74a7.8,7.8,0,0,0,4.07,0l1.82-.77a7.71,7.71,0,0,0,2.75-2.75l1.26-2.52a5.6,5.6,0,0,0,.9-2.84A5.75,5.75,0,0,0,910.71,264.59Z"/><path class="cls-4" d="M940.44,266.56A7.51,7.51,0,0,0,935,260.2l-2-.28a7.72,7.72,0,0,0-3.86,1.05,29,29,0,0,0-5.56,5,28.69,28.69,0,0,0-4.1,6.25A7.69,7.69,0,0,0,928,283.45c1.43-.61,3.14-1.09,4.57-3.52a22.61,22.61,0,0,1,2-3.45A23.32,23.32,0,0,1,937,274a5.7,5.7,0,0,0,1.92-1.83,6.88,6.88,0,0,0,1.51-5.65Z"/><path class="cls-4" d="M956,267.57a7.73,7.73,0,0,0-9.27,1.2,54.65,54.65,0,0,0-6.23,7.84,7.77,7.77,0,0,0-.77,5.89,5.67,5.67,0,0,0,1.37,2.61c1.13,1.75,2.52,2.13,4,2.74a7.81,7.81,0,0,0,5.89-.77c2-1.19,2.31-2.23,4-4.61,2.75-3.39,3.5-3.38,4.14-5.35C959.39,276.6,961.7,272,956,267.57Z"/><path class="cls-4" d="M978.07,282.21a5.89,5.89,0,0,0-1.37-2.6c-1.14-1.75-2.52-2.13-4-2.74a7.77,7.77,0,0,0-4.06,0c-3.67,1.55-3.3,1.45-7.09,7.61a5.64,5.64,0,0,0-.91,2.84,6.86,6.86,0,0,0,1.5,5.66c1.14,1.75,2.53,2.12,4,2.74a7.8,7.8,0,0,0,4.07,0c3.67-1.55,3.3-1.45,7.09-7.61a5.73,5.73,0,0,0,.9-2.84A5.79,5.79,0,0,0,978.07,282.21Z"/><path class="cls-4" d="M998.53,290.4a5.83,5.83,0,0,0-1.37-2.6c-1.14-1.76-2.52-2.13-4-2.75a7.77,7.77,0,0,0-4.06,0l-1.83.78a7.68,7.68,0,0,0-2.75,2.74c-.81,1.41-1.84,2.91-2.47,3.79-1.9,2.33-2.4,2.38-3,4.05a6.9,6.9,0,0,0,0,5.89c.65,2,1.89,2.7,3.13,3.66a7.72,7.72,0,0,0,3.86,1.05l2-.28a7.66,7.66,0,0,0,3.37-2,54.77,54.77,0,0,0,6.24-8.48,5.67,5.67,0,0,0,.9-2.84A5.76,5.76,0,0,0,998.53,290.4Z"/><path class="cls-4" d="M1015.14,304.28c-.65-2-1.89-2.7-3.13-3.66a7.6,7.6,0,0,0-3.86-1l-2,.27a7.59,7.59,0,0,0-3.37,2l-2.52,3.14a7.4,7.4,0,0,0-1.58,8.36c.64,2,1.89,2.7,3.13,3.66a7.58,7.58,0,0,0,3.86,1l2-.27a7.62,7.62,0,0,0,3.38-2l2.52-3.14a5.86,5.86,0,0,0,1.58-2.47,6.9,6.9,0,0,0,0-5.89Z"/><path class="cls-4" d="M1033.46,318.73a5.67,5.67,0,0,0-1.36-2.6c-1.14-1.76-2.53-2.13-4-2.75a7.8,7.8,0,0,0-4.07,0l-1.82.77a7.71,7.71,0,0,0-2.75,2.75c-1.32,1.85-2.38,2.93-2.48,5.05a5.76,5.76,0,0,0,.14,3.05,5.69,5.69,0,0,0,1.37,2.6c1.13,1.75,2.52,2.13,4,2.74a7.6,7.6,0,0,0,4.07,0l1.83-.77a7.82,7.82,0,0,0,2.74-2.74c1.35-1.9,2.39-2.94,2.48-5.05A5.75,5.75,0,0,0,1033.46,318.73Z"/><path class="cls-4" d="M1042.51,341.59l5-6a5.67,5.67,0,0,0,1.58-2.46,6.9,6.9,0,0,0,0-5.89c-.64-2-1.89-2.7-3.13-3.66a7.69,7.69,0,0,0-3.86-1.05l-2,.28a7.7,7.7,0,0,0-3.38,2l-5,6a5.86,5.86,0,0,0-1.58,2.47,6.9,6.9,0,0,0,0,5.89c.65,2,1.89,2.7,3.13,3.66a7.6,7.6,0,0,0,3.86,1l2-.27a7.59,7.59,0,0,0,3.37-2Z"/><path class="cls-4" d="M1064.46,347.15c-.09-2.12-1.15-3.16-2.1-4.39a7.71,7.71,0,0,0-3.38-2l-2-.27a7.58,7.58,0,0,0-3.86,1l-5.67,3.14a7.39,7.39,0,0,0-3.66,7.63c.1,2.12,1.16,3.16,2.11,4.39a7.68,7.68,0,0,0,3.37,2l2,.27a7.58,7.58,0,0,0,3.86-1l5.67-3.14a7.35,7.35,0,0,0,3.65-7.63Z"/><path class="cls-4" d="M1072.11,363.77c-.64-2-1.89-2.7-3.13-3.66a7.58,7.58,0,0,0-3.86-1l-2,.27a7.59,7.59,0,0,0-3.37,2c-2,1.67-3.16,2.41-3.79,4.35a6.9,6.9,0,0,0,0,5.89c.65,2,1.89,2.7,3.13,3.66a7.6,7.6,0,0,0,3.86,1l2-.27a7.59,7.59,0,0,0,3.37-2l2.21-1.88a5.86,5.86,0,0,0,1.58-2.47,6.9,6.9,0,0,0,0-5.89Z"/><path class="cls-4" d="M1082.88,385.77c-.25-.61-.51-1.22-.77-1.83a7.65,7.65,0,0,0-2.74-2.74l-1.83-.77a7.6,7.6,0,0,0-4.07,0c-2.62.75-3.58.87-4.8,2a5.71,5.71,0,0,0-2,2.14,5.65,5.65,0,0,0-.91,2.85,5.86,5.86,0,0,0,.13,3.05l.78,1.83a7.73,7.73,0,0,0,2.74,2.74l1.83.77c2.44.66,4,0,6.27-.63a5.69,5.69,0,0,0,2.6-1.37,7.88,7.88,0,0,0,2.74-8Z"/><path class="cls-4" d="M1081.8,416.86c4,0,7.84-3.52,7.65-7.65a7.77,7.77,0,0,0-7.65-7.65c-4,0-7.84,3.52-7.65,7.65a7.79,7.79,0,0,0,7.65,7.65Z"/><path class="cls-4" d="M1085,438.58h2.52a5.73,5.73,0,0,0,2.94-.66,6.83,6.83,0,0,0,4-4.05,5.73,5.73,0,0,0,.66-2.94c-.09-.68-.19-1.36-.28-2a7.66,7.66,0,0,0-2-3.37l-1.55-1.2a7.6,7.6,0,0,0-3.86-1H1085a5.74,5.74,0,0,0-3,.66,5.59,5.59,0,0,0-2.46,1.58A5.67,5.67,0,0,0,1078,428a5.74,5.74,0,0,0-.66,2.95l.27,2a7.62,7.62,0,0,0,2,3.38l1.55,1.19a7.69,7.69,0,0,0,3.86,1.05Z"/><path class="cls-4" d="M1095.47,453.44a7.66,7.66,0,0,0-2-3.37l-1.55-1.2a7.6,7.6,0,0,0-3.86-1l-2.52-.32a8.52,8.52,0,0,0-5.41,2.24,8.58,8.58,0,0,0-2.24,5.41l.27,2a7.59,7.59,0,0,0,2,3.37l1.55,1.2a7.58,7.58,0,0,0,3.86,1l2.52.32a5.73,5.73,0,0,0,2.94-.66,6.85,6.85,0,0,0,4-4,5.79,5.79,0,0,0,.66-2.95C1095.65,454.8,1095.56,454.12,1095.47,453.44Z"/><path class="cls-4" d="M1082.35,480.65l1.88,1a5.75,5.75,0,0,0,2.85.91,5.86,5.86,0,0,0,3.05-.14,5.74,5.74,0,0,0,2.6-1.37c1.76-1.14,2.13-2.52,2.74-4a7.6,7.6,0,0,0,0-4.07c-.25-.61-.51-1.22-.77-1.83-1.29-2.19-2.79-2.77-4.63-3.69a5.63,5.63,0,0,0-2.85-.9,6.83,6.83,0,0,0-5.65,1.5c-1.75,1.14-2.13,2.52-2.74,4a7.77,7.77,0,0,0,0,4.06l.77,1.83a7.68,7.68,0,0,0,2.75,2.74Z"/><path class="cls-4" d="M1083.37,501.21c4,0,7.84-3.51,7.65-7.65a7.78,7.78,0,0,0-7.65-7.65c-4,0-7.83,3.52-7.65,7.65a7.79,7.79,0,0,0,7.65,7.65Z"/><path class="cls-4" d="M215.37,381.85c-6.8-.4-11.37-1.86-17-4-2-.95-3.6-1.91-5.77-1.36a5.58,5.58,0,0,0-3.3,2.46c-1.31,2.39-.92,6.18,1.83,7.51a64,64,0,0,0,24.14,6.33,5.51,5.51,0,0,0,5.51-5.42A5.58,5.58,0,0,0,215.37,381.85Z"/><path class="cls-4" d="M227.43,369.28a87,87,0,0,1-23-8.36c-2.53-1.33-6.06-.72-7.48,2s-.73,6.05,2,7.48a101.82,101.82,0,0,0,25.65,9.46c2.79.61,6-.84,6.72-3.82C231.87,373.24,230.41,369.93,227.43,369.28Z"/><path class="cls-4" d="M249.06,366.92a77.47,77.47,0,0,0-25.62-18.61,6,6,0,0,0-4.21-.55,5.58,5.58,0,0,0-3.27,2.52c-1.26,2.38-.82,6.23,2,7.47a67.75,67.75,0,0,1,23.41,16.9,5.51,5.51,0,0,0,7.73,0A5.6,5.6,0,0,0,249.06,366.92Z"/><path class="cls-4" d="M270.53,363.71a83.1,83.1,0,0,0-22.08-26.41,5.92,5.92,0,0,0-3.87-1.61,5.54,5.54,0,0,0-3.86,1.61c-1.8,2-2.41,5.84,0,7.72a73.67,73.67,0,0,1,20.38,24.2,5.51,5.51,0,0,0,7.47,2A5.59,5.59,0,0,0,270.53,363.71Z"/><path class="cls-4" d="M291.1,367.13a96.94,96.94,0,0,0-14.41-27.76,6,6,0,0,0-3.27-2.51,5.59,5.59,0,0,0-4.21.55c-2.25,1.45-3.79,5-2,7.47A86.33,86.33,0,0,1,280.56,370c.9,2.7,3.81,4.76,6.72,3.81C290,373,292.07,370,291.1,367.13Z"/><path class="cls-4" d="M308.94,365.59a89.43,89.43,0,0,0-10.53-23.7c-1.53-2.41-4.93-3.6-7.48-2s-3.6,4.9-2,7.48a85.1,85.1,0,0,1,6.37,12.08,80.4,80.4,0,0,1,3.06,9,5.47,5.47,0,0,0,10.54-2.91Z"/><path class="cls-4" d="M358.73,397.55a177.43,177.43,0,0,0-38.38-59.12,5.52,5.52,0,0,0-7.73,0,5.58,5.58,0,0,0,0,7.73A168.9,168.9,0,0,1,325.67,361a170.49,170.49,0,0,1,21.75,37.53c.91,2.23,1.36,4.06,3.28,5.18a5.63,5.63,0,0,0,4.21.55C357.48,403.45,359.85,400.4,358.73,397.55Z"/><path class="cls-4" d="M376.18,400.48a197.22,197.22,0,0,0-32.84-70.81,5.94,5.94,0,0,0-3.27-2.51,5.57,5.57,0,0,0-4.21.55c-2.27,1.47-3.77,5-2,7.48a186.45,186.45,0,0,1,31.74,68.19,5.51,5.51,0,0,0,6.72,3.82A5.58,5.58,0,0,0,376.18,400.48Z"/><path class="cls-4" d="M391.9,396.4a192.16,192.16,0,0,0-31.78-75.3,5.91,5.91,0,0,0-3.27-2.51,5.59,5.59,0,0,0-4.21.55c-2.31,1.49-3.72,5-2,7.48a181.67,181.67,0,0,1,30.68,72.69c.52,2.81,4.08,4.67,6.72,3.81A5.61,5.61,0,0,0,391.9,396.4Z"/><path class="cls-4" d="M392.57,360.73h0C392.45,360.45,392.06,359.61,392.57,360.73Z"/><path class="cls-4" d="M418.06,410.83a234.78,234.78,0,0,0-41.29-100.41,5.94,5.94,0,0,0-3.27-2.51,5.62,5.62,0,0,0-4.21.55c-2.29,1.48-3.75,5-2,7.48a224.81,224.81,0,0,1,40.19,97.79A5.49,5.49,0,0,0,410,417a5.63,5.63,0,0,0,4.21.55C417.15,416.61,418.61,414.34,418.06,410.83Z"/><path class="cls-4" d="M399.09,297.35a5.47,5.47,0,0,0-9.44,5.52,230.59,230.59,0,0,1,31.41,107c.12,2.86,2.43,5.6,5.46,5.47,2.86-.13,5.59-2.41,5.47-5.47A243.17,243.17,0,0,0,399.09,297.35Z"/><path class="cls-4" d="M418.26,295.16a5.47,5.47,0,1,0-9.44,5.52A194.72,194.72,0,0,1,420,322.45,199.26,199.26,0,0,1,434.46,375a194.25,194.25,0,0,1,1.4,19.39c.07,2.85,2.47,5.6,5.47,5.46a5.55,5.55,0,0,0,5.46-5.46A203.46,203.46,0,0,0,418.26,295.16Z"/><path class="cls-4" d="M460.67,362.91c-1.61-24.07-5.13-49.51-18.18-70.07-1.53-2.41-4.93-3.6-7.47-2a5.53,5.53,0,0,0-2,7.47c7.85,12.38,11.66,25.86,14.06,40.48,2.35,14.33,4.17,36.23,2.24,52a82,82,0,0,1-4.29,17.54c-1,2.68,1.1,6.1,3.81,6.72a5.62,5.62,0,0,0,6.73-3.82C461.29,395.89,461.76,379.09,460.67,362.91Z"/><path class="cls-4" d="M462,286.7c-1.51-2.43-4.95-3.59-7.48-2a5.56,5.56,0,0,0-2,7.48,120.27,120.27,0,0,1,16.6,44.72,127.27,127.27,0,0,1,.32,37.35c-1.63,10.88-5.05,21.93-7,26.27a40.55,40.55,0,0,1-4.73,8.14,5.49,5.49,0,0,0-.55,4.21,5.55,5.55,0,0,0,2.51,3.26c2.95,1.56,5.48.66,7.48-2,4.93-6.45,8.39-17,10.39-24.83A134.13,134.13,0,0,0,462,286.7Zm-1.07,21.51s0,.08,0,.12A.54.54,0,0,1,460.88,308.21Z"/><path class="cls-4" d="M481.68,284.23c-1.64-2.34-4.86-3.65-7.48-2-2.32,1.5-3.71,5-2,7.48a99.8,99.8,0,0,1,16.94,73.31c-.54,3.3-1.25,6.56-2.11,9.78a5.46,5.46,0,1,0,10.53,2.9C506.22,343.59,499.13,309.17,481.68,284.23Z"/><path class="cls-4" d="M503.85,278.8c-1.55-2.4-4.91-3.62-7.47-2-2.39,1.54-3.63,4.91-2,7.47a114.87,114.87,0,0,1,18.75,64.15,5.47,5.47,0,0,0,10.93,0A127.05,127.05,0,0,0,503.85,278.8Z"/><path class="cls-4" d="M529.31,275.41A5.43,5.43,0,0,0,526,272.9c-4.12-1.14-8.51,2.82-6.17,8a126.52,126.52,0,0,1,9.41,32.92c0,.12.05.25.07.38s0,.18,0,.33a127.13,127.13,0,0,1,.64,26.36c-.23,2.86,2.67,5.59,5.46,5.47a5.61,5.61,0,0,0,5.47-5.47A132.86,132.86,0,0,0,529.31,275.41Z"/><path class="cls-4" d="M553,277.7c-.86-2.72-3.83-4.75-6.72-3.82-2.72.88-4.74,3.81-3.81,6.72,4.52,14.25,7.28,27.1,5.66,41.49-.06.55,0,.28,0,0a16.61,16.61,0,0,1-.51,2.76,53.68,53.68,0,0,1-2.55,8.95c-1,2.68,1.12,6.11,3.81,6.72a5.6,5.6,0,0,0,6.72-3.81C562.77,318,559.12,296.8,553,277.7Z"/><path class="cls-4" d="M694.06,275.81c-2.45-1.29-6.13-.78-7.47,2a48.9,48.9,0,0,0-4.82,27.91,6,6,0,0,0,1.6,3.86,5.46,5.46,0,0,0,7.72,0,5.18,5.18,0,0,0,1.6-3.86,38.34,38.34,0,0,1,1.38-17.43,30,30,0,0,1,2-5C697.28,280.73,696.81,277.26,694.06,275.81Z"/><path class="cls-4" d="M714.7,284.76c1.31-2.54.75-6.05-2-7.48-2.5-1.32-6.08-.75-7.48,2a41.5,41.5,0,0,0-4.68,20.11c.08,2.86,2.46,5.6,5.47,5.47a5.54,5.54,0,0,0,5.46-5.47A30.08,30.08,0,0,1,714.7,284.76Z"/><path class="cls-4" d="M734.23,278.68a5.6,5.6,0,0,0-6.73,3.82A53.33,53.33,0,0,0,725,304.72a5.91,5.91,0,0,0,1.6,3.86,5.54,5.54,0,0,0,3.86,1.6c2.71-.12,5.77-2.42,5.47-5.46a53.24,53.24,0,0,1,0-10.72c0-.34.13-.68.18-1a50.37,50.37,0,0,1,1.92-7.6A5.5,5.5,0,0,0,734.23,278.68Z"/><path class="cls-4" d="M761.9,284.75a5.5,5.5,0,0,0-3.82-6.72,5.6,5.6,0,0,0-6.72,3.81,50.08,50.08,0,0,0-2.45,20.36,5.86,5.86,0,0,0,1.6,3.86,5.54,5.54,0,0,0,3.86,1.6c2.75-.12,5.74-2.41,5.47-5.46A40.63,40.63,0,0,1,761.9,284.75Z"/><path class="cls-4" d="M783.72,284.72c-1.36-4.93-8.14-5.11-10-1.3a39.11,39.11,0,0,0-4,21.29,5.91,5.91,0,0,0,1.6,3.86,5.53,5.53,0,0,0,3.86,1.6,5.47,5.47,0,0,0,3.86-1.6,5.31,5.31,0,0,0,1.61-3.86,29.31,29.31,0,0,1,1.84-14.37C783.08,288.91,784.39,287.16,783.72,284.72Z"/><path class="cls-4" d="M804.85,289.23a5.88,5.88,0,0,0,.55-4.21c-1.36-4.94-8.15-5.11-10-1.31a44.14,44.14,0,0,0-4.56,19.74,5.47,5.47,0,0,0,10.93,0A32.78,32.78,0,0,1,804.85,289.23Z"/><path class="cls-4" d="M828.12,290a5.82,5.82,0,0,0,.5-4.08,5.6,5.6,0,0,0-2.51-3.27,5.54,5.54,0,0,0-4.21-.55,5.32,5.32,0,0,0-3.27,2.51,36.15,36.15,0,0,0-3.53,14.74,5.59,5.59,0,0,0,1.6,3.86,5.49,5.49,0,0,0,9.33-3.86A27.26,27.26,0,0,1,828.12,290Z"/><path class="cls-4" d="M849.21,285a5.5,5.5,0,0,0-10,1.3A63.35,63.35,0,0,0,836.8,300a5.47,5.47,0,0,0,9.33,3.86c2.65-2.88.61-4.54,3.63-14.68A5.63,5.63,0,0,0,849.21,285Z"/><path class="cls-4" d="M870,287a5.36,5.36,0,0,0-3.91-4.54,5.52,5.52,0,0,0-4.21.55l-1.11.86a5.39,5.39,0,0,0-1.4,2.41,38.58,38.58,0,0,0-2.52,8.81,4.15,4.15,0,0,0-.1,2.18,5.36,5.36,0,0,0,3.91,4.54,5.55,5.55,0,0,0,4.22-.55,5.33,5.33,0,0,0,2.51-3.26,38.66,38.66,0,0,1,2.52-8.82A4.14,4.14,0,0,0,870,287Z"/><path class="cls-4" d="M899.48,287.15a5.35,5.35,0,0,0-5-3.36L893,284a5.41,5.41,0,0,0-2.41,1.41,19.92,19.92,0,0,0-3.51,4.12,19.39,19.39,0,0,0-2.26,4.94,4.14,4.14,0,0,0-.1,2.18,4.78,4.78,0,0,0,2.06,3.56,5.39,5.39,0,0,0,6.07.43,5.83,5.83,0,0,0,2.51-3.27c.07-.22.16-.43.23-.64,1.76-3.66,3.15-3.18,3.85-5.35A4.76,4.76,0,0,0,899.48,287.15Z"/><path class="cls-4" d="M919,292.28a5.11,5.11,0,0,0-2.84-2,5.53,5.53,0,0,0-2.91,0l-1.3.55a5.49,5.49,0,0,0-2,2l-3.15,4.41a4,4,0,0,0-.65,2,4.78,4.78,0,0,0,1.07,4,5.11,5.11,0,0,0,2.84,1.95,5.53,5.53,0,0,0,2.91,0l1.3-.55a5.42,5.42,0,0,0,2-2l3.16-4.4a4,4,0,0,0,.64-2A4.75,4.75,0,0,0,919,292.28Z"/><path class="cls-4" d="M941.69,297.57a5.08,5.08,0,0,0-2.24-2.62,5.43,5.43,0,0,0-2.75-.74l-1.46.19a5.46,5.46,0,0,0-2.41,1.41l-4.09,4.72a4.08,4.08,0,0,0-1.13,1.76,4.79,4.79,0,0,0,0,4.21,5.05,5.05,0,0,0,2.24,2.61,5.44,5.44,0,0,0,2.75.75l1.46-.2a5.54,5.54,0,0,0,2.41-1.4l4.09-4.72a4.2,4.2,0,0,0,1.13-1.76A4.79,4.79,0,0,0,941.69,297.57Z"/><path class="cls-4" d="M963.41,302.92a5.42,5.42,0,0,0-8.86-1.76,45.74,45.74,0,0,0-5.26,7.4,5.5,5.5,0,0,0,6.17,8,5.71,5.71,0,0,0,3.27-2.51,34,34,0,0,1,3.55-5.19,4.14,4.14,0,0,0,1.13-1.76A4.79,4.79,0,0,0,963.41,302.92Z"/><path class="cls-4" d="M983.53,311.08a5.12,5.12,0,0,0-2.23-2.61,5.49,5.49,0,0,0-2.76-.74l-1.45.19a5.5,5.5,0,0,0-2.42,1.41l-3.45,4.41a4.08,4.08,0,0,0-1.13,1.76,4.79,4.79,0,0,0,0,4.21,5.05,5.05,0,0,0,2.24,2.61,5.44,5.44,0,0,0,2.75.75l1.46-.2a5.54,5.54,0,0,0,2.41-1.4l3.45-4.42a4,4,0,0,0,1.13-1.75A4.78,4.78,0,0,0,983.53,311.08Z"/><path class="cls-4" d="M1000.24,323.06a5.05,5.05,0,0,0-2.24-2.61,5.45,5.45,0,0,0-2.76-.75l-1.45.2a5.48,5.48,0,0,0-2.41,1.4l-3.15,3.47a4.11,4.11,0,0,0-1.13,1.75,4.79,4.79,0,0,0,0,4.21,5.08,5.08,0,0,0,2.24,2.62,5.43,5.43,0,0,0,2.75.74l1.46-.19a5.46,5.46,0,0,0,2.41-1.41l3.15-3.46a4.17,4.17,0,0,0,1.13-1.76A4.82,4.82,0,0,0,1000.24,323.06Z"/><path class="cls-4" d="M1009.63,343.71a57.26,57.26,0,0,0,5.6-4.21,4.14,4.14,0,0,0,1.13-1.76,4.82,4.82,0,0,0,0-4.21,5,5,0,0,0-2.24-2.61,5.35,5.35,0,0,0-2.76-.75l-1.45.19c-2,.57-1.72,1.25-5.8,3.91a4,4,0,0,0-1.53,1.41,4.77,4.77,0,0,0-1.08,4,5,5,0,0,0,1.5,3.14,5.5,5.5,0,0,0,2.42,1.41l1.45.19a5.49,5.49,0,0,0,2.76-.74Z"/><path class="cls-4" d="M1029.57,349a5.05,5.05,0,0,0-1.51-3.14,5.48,5.48,0,0,0-2.41-1.4l-1.45-.2a5.55,5.55,0,0,0-2.76.75l-2.52,1.89a4.14,4.14,0,0,0-1.53,1.41,4.77,4.77,0,0,0-1.08,4,5,5,0,0,0,1.51,3.14,5.41,5.41,0,0,0,2.41,1.41l1.45.19a5.44,5.44,0,0,0,2.76-.74l2.52-1.89a4.24,4.24,0,0,0,1.53-1.41A4.79,4.79,0,0,0,1029.57,349Z"/><path class="cls-4" d="M1041.53,361.9a5,5,0,0,0-1.51-3.14,5.41,5.41,0,0,0-2.41-1.41l-1.45-.19c-1.83,0-2.77.75-4.33,1.69a4,4,0,0,0-1.53,1.41,4.74,4.74,0,0,0-1.08,4,5,5,0,0,0,1.5,3.14,5.46,5.46,0,0,0,2.41,1.41l1.46.19a5.43,5.43,0,0,0,2.75-.74c1.83-1.1,2.46-1.36,3.11-2.36A4.77,4.77,0,0,0,1041.53,361.9Z"/><path class="cls-4" d="M1045.6,385.4a5.47,5.47,0,1,0-5.46-5.46,5.53,5.53,0,0,0,5.46,5.46Z"/><path class="cls-4" d="M1063.89,391.84a5,5,0,0,0-1.5-3.14,5.46,5.46,0,0,0-2.41-1.41l-1.46-.19a5.43,5.43,0,0,0-2.75.74L1051,390a4.07,4.07,0,0,0-1.53,1.41,4.74,4.74,0,0,0-1.08,4,5,5,0,0,0,1.51,3.14,5.41,5.41,0,0,0,2.41,1.41l1.45.19a5.44,5.44,0,0,0,2.76-.74l4.72-2.2a4.1,4.1,0,0,0,1.54-1.41A4.76,4.76,0,0,0,1063.89,391.84Z"/><path class="cls-4" d="M1069.84,410.54a5.58,5.58,0,0,0-2-2l-1.31-.55a5.49,5.49,0,0,0-2.9,0l-3.78,1.57a4.18,4.18,0,0,0-1.86,1,4.78,4.78,0,0,0-2.06,3.57,5.07,5.07,0,0,0,.65,3.48,5.49,5.49,0,0,0,2,2l1.31.55a5.49,5.49,0,0,0,2.9,0l3.78-1.57a4.18,4.18,0,0,0,1.86-1,4.76,4.76,0,0,0,2.06-3.56A5.09,5.09,0,0,0,1069.84,410.54Z"/><path class="cls-4" d="M1066.26,439.34c2.42-.69,3.14-.77,4.06-1.6a4.74,4.74,0,0,0,2-3.57,5.07,5.07,0,0,0-.64-3.48,5.44,5.44,0,0,0-2-2l-1.3-.55c-1.84-.5-3,0-5.11.62a4.18,4.18,0,0,0-1.86,1,4.74,4.74,0,0,0-2,3.57,5.07,5.07,0,0,0,.64,3.48,5.44,5.44,0,0,0,2,2l1.3.55A5.29,5.29,0,0,0,1066.26,439.34Z"/><path class="cls-4" d="M1073.85,453.4a5.5,5.5,0,0,0-1.41-2.42l-1.1-.85c-1.59-.92-2.81-.75-5-.75a4.22,4.22,0,0,0-2.11.47,4.78,4.78,0,0,0-2.89,2.89,5.08,5.08,0,0,0-.27,3.56,5.48,5.48,0,0,0,1.4,2.41l1.11.86a5.44,5.44,0,0,0,2.76.74c2.46,0,3.19.12,4.31-.47a4.72,4.72,0,0,0,2.88-2.89A5.05,5.05,0,0,0,1073.85,453.4Z"/><path class="cls-4" d="M1064.29,478.69l2.21.31a4.14,4.14,0,0,0,2.18.1,4.75,4.75,0,0,0,3.56-2.05,5.09,5.09,0,0,0,1.18-3.32,5.54,5.54,0,0,0-.75-2.75l-.85-1.11a5.5,5.5,0,0,0-2.42-1.41l-2.2-.31a4.15,4.15,0,0,0-2.18-.1,4.74,4.74,0,0,0-3.56,2.06,5.06,5.06,0,0,0-1.18,3.31,5.45,5.45,0,0,0,.75,2.76l.85,1.1A5.47,5.47,0,0,0,1064.29,478.69Z"/><path class="cls-4" d="M1062.09,497.26c3.82,1,4.4,1.32,5.64,1a4.77,4.77,0,0,0,3.57-2.05,5.13,5.13,0,0,0,1.17-3.32,5.43,5.43,0,0,0-.74-2.75l-.86-1.11a5.3,5.3,0,0,0-2.41-1.4c-3.82-1.05-4.4-1.33-5.64-1.05a4.78,4.78,0,0,0-3.57,2.06,5.1,5.1,0,0,0-1.17,3.31,5.35,5.35,0,0,0,.75,2.76l.85,1.1A5.47,5.47,0,0,0,1062.09,497.26Z"/><path class="cls-4" d="M1058.63,513.94c2.44.7,3.12,1,4.38.73a4.75,4.75,0,0,0,3.57-2.06,5.09,5.09,0,0,0,1.17-3.31,5.4,5.4,0,0,0-.75-2.76l-.85-1.1c-1.26-1.25-2.39-1.4-4.62-2a4.11,4.11,0,0,0-2.17-.09,4.74,4.74,0,0,0-3.57,2.05,5,5,0,0,0-1.17,3.31,5.44,5.44,0,0,0,.74,2.76l.86,1.11A5.44,5.44,0,0,0,1058.63,513.94Z"/><path class="cls-4" d="M1050.4,528.81c1.69,1.13,2.46,1.85,3.92,1.91a4.75,4.75,0,0,0,4-1.07,5.14,5.14,0,0,0,2-2.84,5.53,5.53,0,0,0,0-2.91c-1-2.4-.92-2.2-4.4-4.52a4.06,4.06,0,0,0-2-.65,4.76,4.76,0,0,0-4,1.07,5.13,5.13,0,0,0-2,2.84,5.53,5.53,0,0,0,0,2.91l.55,1.3A5.41,5.41,0,0,0,1050.4,528.81Z"/><path class="cls-4" d="M1042.05,541.49c2,2,2.49,2.64,3.65,3a4.76,4.76,0,0,0,4.21,0,5,5,0,0,0,2.61-2.23,5.38,5.38,0,0,0,.75-2.76c-.06-.49-.13-1-.19-1.45-.51-1.79-1.5-2.51-3.3-4.3a4,4,0,0,0-1.76-1.13,4.76,4.76,0,0,0-4.21,0,5.08,5.08,0,0,0-2.61,2.23,5.45,5.45,0,0,0-.75,2.76c.07.48.13,1,.2,1.45a5.48,5.48,0,0,0,1.4,2.41Z"/><path class="cls-4" d="M1033.33,558.52a5.47,5.47,0,1,0-5.47-5.47,5.53,5.53,0,0,0,5.47,5.47Z"/><path class="cls-4" d="M1020.11,570.16a5.46,5.46,0,1,0-5.47-5.46,5.52,5.52,0,0,0,5.47,5.46Z"/><path class="cls-4" d="M1009.09,581.81a5.47,5.47,0,1,0-5.46-5.46,5.53,5.53,0,0,0,5.46,5.46Z"/><path class="cls-4" d="M996.82,591.25a5.47,5.47,0,1,0-5.47-5.46,5.53,5.53,0,0,0,5.47,5.46Z"/><path class="cls-4" d="M981.71,599.44a5.47,5.47,0,1,0-5.47-5.47,5.53,5.53,0,0,0,5.47,5.47Z"/><path class="cls-4" d="M966.28,605.73a5.47,5.47,0,1,0-5.46-5.46,5.53,5.53,0,0,0,5.46,5.46Z"/><path class="cls-4" d="M951.8,609.19a5.46,5.46,0,1,0-5.46-5.46,5.53,5.53,0,0,0,5.46,5.46Z"/><path class="cls-4" d="M938.27,610.77a5.47,5.47,0,1,0-5.46-5.47,5.51,5.51,0,0,0,5.46,5.47Z"/><path class="cls-4" d="M923.16,611.71a5.47,5.47,0,1,0-5.46-5.46,5.53,5.53,0,0,0,5.46,5.46Z"/><path class="cls-4" d="M694.41,324.69a91.87,91.87,0,0,1,14.1,29.13,3.28,3.28,0,0,0,6.32-1.74,97.8,97.8,0,0,0-14.76-30.7,3.37,3.37,0,0,0-4.48-1.18,3.31,3.31,0,0,0-1.18,4.49Z"/><path class="cls-4" d="M714.23,319.77a99.32,99.32,0,0,1,13.22,29.4,3.28,3.28,0,1,0,6.32-1.75,106.13,106.13,0,0,0-13.88-31,3.36,3.36,0,0,0-4.49-1.17,3.3,3.3,0,0,0-1.17,4.48Z"/><path class="cls-4" d="M736.17,319.74a130.83,130.83,0,0,1,8.57,25.1,3.28,3.28,0,0,0,6.32-1.74,138.21,138.21,0,0,0-9.23-26.67,3.3,3.3,0,0,0-4.48-1.18,3.36,3.36,0,0,0-1.18,4.49Z"/><path class="cls-4" d="M755.3,319.12a93.88,93.88,0,0,1,7,22.4,3.31,3.31,0,0,0,4,2.29,3.35,3.35,0,0,0,2.29-4,99.52,99.52,0,0,0-7.7-24,3.3,3.3,0,0,0-4.48-1.17,3.34,3.34,0,0,0-1.18,4.48Z"/><path class="cls-4" d="M775,320.63a97.77,97.77,0,0,0,13,31.07,3.36,3.36,0,0,0,4.49,1.17,3.31,3.31,0,0,0,1.18-4.48,91.41,91.41,0,0,1-12.39-29.51,3.28,3.28,0,1,0-6.32,1.75Z"/><path class="cls-4" d="M797.49,325.05a45.56,45.56,0,0,1,6.1,19.26,3.28,3.28,0,0,0,6.56,0,52.34,52.34,0,0,0-7-22.57,3.28,3.28,0,0,0-5.66,3.31Z"/><path class="cls-4" d="M827,316.9a3.28,3.28,0,1,0-6.32,1.74A72,72,0,0,1,824.82,339a3.28,3.28,0,1,0,6.55,0A78.32,78.32,0,0,0,827,316.9Z"/><path class="cls-4" d="M842.52,317a73.2,73.2,0,0,1,2.55,28.3,3.29,3.29,0,0,0,3.28,3.27,3.36,3.36,0,0,0,3.28-3.27,78.79,78.79,0,0,0-2.79-30,3.28,3.28,0,0,0-6.32,1.74Z"/><path class="cls-4" d="M861.76,315A69.72,69.72,0,0,1,864,333.69a3.28,3.28,0,0,0,6.56,0,80.43,80.43,0,0,0-2.48-20.43,3.32,3.32,0,0,0-4-2.29,3.36,3.36,0,0,0-2.29,4Z"/><path class="cls-4" d="M884,315a60.74,60.74,0,0,1,.73,9.41,59.29,59.29,0,0,1-.74,9.4,3.36,3.36,0,0,0,2.29,4c1.58.36,3.74-.48,4-2.29a68.39,68.39,0,0,0,0-22.3,3.28,3.28,0,0,0-4-2.29,3.36,3.36,0,0,0-2.29,4Z"/><path class="cls-4" d="M903.44,317.78a56.7,56.7,0,0,1-1.64,21.64,3.28,3.28,0,1,0,6.33,1.75A62.37,62.37,0,0,0,910,317.78c-.2-1.7-1.37-3.37-3.28-3.28-1.61.07-3.49,1.45-3.28,3.28Z"/><path class="cls-4" d="M925.38,322.08a55.13,55.13,0,0,1-1.6,19.69,3.28,3.28,0,1,0,6.33,1.75,61.51,61.51,0,0,0,1.83-21.44,3.36,3.36,0,0,0-3.28-3.28c-1.64.08-3.45,1.45-3.28,3.28Z"/><path class="cls-4" d="M945.52,326.73a41.07,41.07,0,0,1-6.67,21.32,3.28,3.28,0,1,0,5.66,3.31,47.69,47.69,0,0,0,7.57-24.63,3.31,3.31,0,0,0-3.28-3.28,3.35,3.35,0,0,0-3.28,3.28Z"/><path class="cls-4" d="M965.31,330.54c-1.57-.36-3.74.47-4,2.29a36.8,36.8,0,0,1-7.34,17.1c-1,1.37-.26,3.73,1.18,4.49a3.37,3.37,0,0,0,4.48-1.18,41.94,41.94,0,0,0,8-18.67A3.34,3.34,0,0,0,965.31,330.54Z"/><path class="cls-4" d="M980.18,337.82a3.35,3.35,0,0,0-4,2.29A37.16,37.16,0,0,1,965.48,356a3.3,3.3,0,0,0,0,4.63,3.35,3.35,0,0,0,4.64,0,44.65,44.65,0,0,0,12.35-18.78A3.3,3.3,0,0,0,980.18,337.82Zm-4.9,4.6Z"/><path class="cls-4" d="M996,346.13c-1.43-.75-3.73-.49-4.48,1.18A28.35,28.35,0,0,1,979,361a3.28,3.28,0,0,0,3.31,5.67,34.73,34.73,0,0,0,14.86-16A3.36,3.36,0,0,0,996,346.13Z"/><path class="cls-4" d="M1013.14,356.38a3.37,3.37,0,0,0-4.49,1.18,33.07,33.07,0,0,1-6.29,6.51,34.43,34.43,0,0,1-5.59,3.45c-.11.05-1.48.71-1.6.74.29-.06,0,0-.14.05a3.35,3.35,0,0,0-2.29,4c.49,1.54,2.33,3,4,2.29a39.13,39.13,0,0,0,17.54-13.76A3.3,3.3,0,0,0,1013.14,356.38Z"/><path class="cls-4" d="M1024.48,369.89a3.32,3.32,0,0,0-4.64,0,31.47,31.47,0,0,1-13.86,9.38,3.28,3.28,0,1,0,1.74,6.32,38.53,38.53,0,0,0,16.76-11.06A3.34,3.34,0,0,0,1024.48,369.89Z"/><path class="cls-4" d="M1036.77,384.51a3.35,3.35,0,0,0-4.64,0,34.36,34.36,0,0,1-16.22,8.31,3.31,3.31,0,0,0-2.29,4,3.35,3.35,0,0,0,4,2.29,41.72,41.72,0,0,0,19.11-10A3.32,3.32,0,0,0,1036.77,384.51Z"/><path class="cls-4" d="M1043.73,402.43a3.38,3.38,0,0,0-4.64,0l-.58.44a32.69,32.69,0,0,1-15.75,6.11,3.36,3.36,0,0,0-3.28,3.28c.08,1.63,1.45,3.46,3.28,3.28a39.92,39.92,0,0,0,21-8.47C1045.09,406,1044.93,403.53,1043.73,402.43Z"/><path class="cls-4" d="M1044.11,417.24a28.57,28.57,0,0,1-12.63,5.32,3.3,3.3,0,0,0-2.29,4,3.36,3.36,0,0,0,4,2.29,35,35,0,0,0,14.2-6,3.5,3.5,0,0,0,1.51-1.95C1049.76,417.92,1046.17,415.77,1044.11,417.24Z"/><path class="cls-4" d="M1051.44,436.55a3.34,3.34,0,0,0-4-2.29,77.81,77.81,0,0,1-11.72,1.61,3.28,3.28,0,0,0,0,6.55,92.11,92.11,0,0,0,13.46-1.84A3.3,3.3,0,0,0,1051.44,436.55Zm-10-1.23Z"/><path class="cls-4" d="M1055.81,452.68a3.34,3.34,0,0,0-4-2.29,21.77,21.77,0,0,1-7.57.55,22.86,22.86,0,0,1-4.28-.86,3.3,3.3,0,0,0-4,2.29,3.34,3.34,0,0,0,2.29,4,29.46,29.46,0,0,0,15.34.31A3.32,3.32,0,0,0,1055.81,452.68Z"/><path class="cls-4" d="M1051,468.82a21.94,21.94,0,0,1-5.4-.41,28.51,28.51,0,0,1-4.38-1.3c-.36,0-1.69-1.15-3.34-.7-3,.83-3,4.94-.78,6a30.1,30.1,0,0,0,13.9,3,3.28,3.28,0,1,0,0-6.55Z"/><path class="cls-4" d="M1049.49,482.73a26.5,26.5,0,0,1-10.49-4,3.31,3.31,0,0,0-4.48,1.18,3.34,3.34,0,0,0,1.17,4.48,32.26,32.26,0,0,0,12.06,4.65,3.59,3.59,0,0,0,2.53-.33C1053,487.15,1051.92,483.12,1049.49,482.73Z"/><path class="cls-4" d="M1047.14,500.15a3.18,3.18,0,0,0-1.62-1.36,20.63,20.63,0,0,1-6.5-4.3,3.28,3.28,0,0,0-5.6,2.32,3.42,3.42,0,0,0,1,2.32,26.23,26.23,0,0,0,9.06,5.84,3.27,3.27,0,0,0,2.52-.33,3.28,3.28,0,0,0,1.18-4.49Z"/><path class="cls-4" d="M1043.5,518.49a3.4,3.4,0,0,0-1.51-2,17,17,0,0,1-3.35-3.17,4.39,4.39,0,0,0-2.41-2.13,2.4,2.4,0,0,0-1.3-.06,3.22,3.22,0,0,0-2.73,2.35,3.26,3.26,0,0,0,.33,2.52,21.48,21.48,0,0,0,6.15,6.16,2.53,2.53,0,0,0,1.22.38,3.22,3.22,0,0,0,3.27-1.56A3.34,3.34,0,0,0,1043.5,518.49Z"/><path class="cls-4" d="M1027.41,531.3l1.65,1.32a2.45,2.45,0,0,0,1.06.68,2.88,2.88,0,0,0,2.53,0,3,3,0,0,0,1.56-1.34,3.21,3.21,0,0,0,.45-1.66l-.12-.87a3.19,3.19,0,0,0-.84-1.44l-1.66-1.33a2.36,2.36,0,0,0-1-.68,2.88,2.88,0,0,0-2.53,0,3.06,3.06,0,0,0-1.57,1.34,3.35,3.35,0,0,0-.44,1.66l.11.87a3.28,3.28,0,0,0,.85,1.45Z"/><path class="cls-4" d="M1025,543.64a17.37,17.37,0,0,1-4-5.38,3.28,3.28,0,0,0-4.49-1.18,3.33,3.33,0,0,0-1.51,2c0,.29-.08.58-.11.87a3.3,3.3,0,0,0,.44,1.66,24.7,24.7,0,0,0,5.08,6.71,3.47,3.47,0,0,0,2.32,1,3.37,3.37,0,0,0,2.32-1,3.28,3.28,0,0,0,0-4.64Z"/><path class="cls-4" d="M1011.33,555.18l-2.65-3.65a2.51,2.51,0,0,0-.85-.92,2.83,2.83,0,0,0-2.42-.64,3.2,3.2,0,0,0-2.72,2.34l-.12.88a3.2,3.2,0,0,0,.45,1.65l2.64,3.65a2.51,2.51,0,0,0,.85.92,2.87,2.87,0,0,0,2.42.65,3.25,3.25,0,0,0,2.73-2.35c0-.29.08-.58.11-.87A3.3,3.3,0,0,0,1011.33,555.18Z"/><path class="cls-4" d="M1005,567.59c-.43-1.55-1.17-1.37-2.92-3.5-1.15-1.61-1-2-1.85-2.55a2.86,2.86,0,0,0-2.43-.65,3.22,3.22,0,0,0-2.72,2.35l-.12.87a3.23,3.23,0,0,0,.45,1.66,16.23,16.23,0,0,0,4.11,5,2.45,2.45,0,0,0,1.06.68,2.88,2.88,0,0,0,2.53,0,3.23,3.23,0,0,0,2-3Z"/><path class="cls-4" d="M986.62,576.35a3.28,3.28,0,1,0-3.28-3.27,3.31,3.31,0,0,0,3.28,3.27Z"/><path class="cls-4" d="M973.69,585.64a3.28,3.28,0,1,0-3.28-3.28,3.31,3.31,0,0,0,3.28,3.28Z"/><path class="cls-3" d="M428.14,168.08c-6.4-11-7.4-24.68-4-36.94A35.51,35.51,0,0,1,431,117.39c4.44-5.16,10.84-8.37,17.49-9.86a37.83,37.83,0,0,1,26.31,3.41c7.91,4.38,14,12.26,15.48,21.17,2.13,12.54-4.48,24.81-11.49,35.43-5.21,7.88-13.79,19.66-24.43,19.12S433.14,176.68,428.14,168.08Z"/><path class="cls-3" d="M792,491.6c8.13,4.55,16.78,8.6,26,9.57a8.49,8.49,0,0,0,4.64-.48c2.59-1.28,3.42-4.55,3.56-7.44.66-13.05-7-25.59-17.55-33.28S785,448.88,772,447.56c-5.94-.6-12.76-.21-14.85,6.44-1.63,5.21,2.55,9.84,5.53,13.79C770.31,478,781,485.43,792,491.6Z"/><path class="cls-3" d="M850.61,418.93a18.07,18.07,0,0,0,6.18,3.46,8.72,8.72,0,0,0,6.88-.7c2.42-1.49,3.69-4.37,4.06-7.19a16.7,16.7,0,0,0-7-15.62,24.14,24.14,0,0,0-9.17-3.46c-3.26-.61-6.83-.82-9.69.85C832.62,401.69,845.85,415.11,850.61,418.93Z"/><path class="cls-3" d="M495.93,115.86c-.68-5.07,1-10.8,5.32-13.51,3.67-2.28,8.44-2,12.52-.52a16.56,16.56,0,0,1,7.57,5,9.66,9.66,0,0,1,1.91,8.66,12.58,12.58,0,0,1-2.44,4.14,32.33,32.33,0,0,1-11.58,8.92C500.23,132.68,497,123.83,495.93,115.86Z"/><path class="cls-3" d="M691.22,674.76c-5.56-7.22-8.51-17.06-5.44-25.65,4.51-12.58,21.45-17.84,33.46-12s18.41,20.18,17.39,33.51C734.19,702.47,704.7,692.25,691.22,674.76Z"/><path class="cls-5" d="M105.56,449.44c3.72-6.27,8.59-11.79,12.35-18,4-6.7,6.71-14.12,10-21.2s7.49-14,13.71-18.77,14.87-6.92,22.05-3.83a5.75,5.75,0,0,1,2.8,2.15,5,5,0,0,1,.47,3c-.55,5.2-5,9.05-9.4,11.89-9.4,6.09-20.24,10.44-27.6,18.88-12,13.73-12.42,35.78-26.78,47-3.93,3.07-2.89-5.51-2.71-7.26A35.15,35.15,0,0,1,105.56,449.44Z"/><path class="cls-5" d="M208.91,474.31c1.14,20.6,2.44,42.45-7.34,60.61-.72,1.35-1.5,3-.64,4.31,1.32,1.94,4.37.38,5.83-1.46,4.38-5.5,6.27-12.61,6.86-19.61s0-14,0-21.08a126,126,0,0,1,5.56-36.79c4.46-14.51,11.64-29.48,7.81-44.17-1.51-5.79-5.93-6.4-8.93-1.84-3.36,5.12-5.58,12.25-7.05,18.16C207.66,446.09,208.15,460.39,208.91,474.31Z"/><path class="cls-5" d="M361.52,453.86a45.2,45.2,0,0,1,5.15-10.74,1.79,1.79,0,0,1,.94-.84c.85-.23,1.51.73,1.85,1.54a44.87,44.87,0,0,1,3.25,20.93,30.11,30.11,0,0,1-4,13.17c-3.18,5.19-11,8.4-11.62.26C356.55,470.39,359,461.14,361.52,453.86Z"/><path class="cls-5" d="M386.39,504.66c2.07-.29,4.36-1.1,5.14-3s-.47-4.36-2-6c-4.39-4.65-18-9.7-23.32-3.52C359.71,499.64,381.4,505.35,386.39,504.66Z"/><path class="cls-5" d="M318.54,394.41c.57-3.22,3.14-5.65,5.48-7.94,16.19-15.87,27.13-36.17,40-54.8,3-4.38,6.33-8.8,11-11.42,1.4-.79,3.43-1.29,4.41,0a3,3,0,0,1,.44,2.17c-.29,2.72-2.07,5-3.81,7.12-17,20.58-38.61,38.94-46.65,64.43-.85,2.69-2.75,8.22-6.38,8.09C319.71,401.93,318.06,397.17,318.54,394.41Z"/><path class="cls-5" d="M568,313.3c.53-14.89,2.49-30.95,12.68-41.82,6.6-7,15.94-11,25.39-12.92a77.09,77.09,0,0,1,51.64,7.59c3.07,1.66,6.11,3.6,8.18,6.41s3,6.69,1.59,9.88c-1,2.3-3.09,3.95-5.2,5.33-10,6.53-23.12,9.6-29.16,19.87-3.12,5.3-3.73,11.81-2.57,17.85a47.35,47.35,0,0,0,7.34,16.77c1.48,2.26,3,5.43,1.13,7.36-1.58,1.6-4.26.87-6.36,0-6.58-2.61-13.26-5.13-20.25-6.19s-14.4-.6-20.73,2.55c-6.81,3.39-11.84,9.59-15.58,16.21s-6.39,13.81-9.79,20.62c-.83,1.65-4,5.34-5.56,2.8-.69-1.11,2.37-8.29,2.73-9.81A141.34,141.34,0,0,0,566.62,355C567.78,341.11,567.49,327.19,568,313.3Z"/><path class="cls-5" d="M494.28,396.54a166.22,166.22,0,0,1,43.94-39.26c2.8-1.72,7.92-5.14,9.23-2.13,1.43,3.31-9.51,12.84-15.21,18.49a185.21,185.21,0,0,0-31.79,42.15c-2,3.58-3.88,7.31-6.87,10.1-2,1.88-7.68,5.3-10.62,3.27-2.72-1.88-1.21-7.25-.63-9.93C484.15,410.81,489,403.25,494.28,396.54Z"/><path class="cls-5" d="M520.8,473.79a43.07,43.07,0,0,0,2.06-18c-.51-5-2-10.09-5.09-14.07s-8.08-6.71-13.12-6.31c-3.95.32-7.54,2.48-10.58,5-4.47,3.75-8.28,9-8.19,14.81a10.16,10.16,0,0,0,5.64,8.58c3.25,1.78,7,2.43,10.67,2.88,4.09.51,8.63,1,11.34,4.13a20.06,20.06,0,0,0,2.63,3.08C517.25,474.73,520.37,475.08,520.8,473.79Z"/><path class="cls-5" d="M688.84,408.19c1.12,2.56,2.07,5.3,1.82,8.08-.2,2.25-1.74,4.76-4,4.63-1.65-.1-2.86-1.56-3.79-2.93-3.12-4.59-10.78-15.61-7.2-21.26C680.66,388.83,687.21,404.46,688.84,408.19Z"/><path class="cls-5" d="M554,572c4.21-5.93,9.12-11.74,15.76-14.71,2.11-.94,4.8-1.49,6.56,0,2.16,1.85,1.35,5.39-.11,7.83-2.46,4.12-6.17,7.32-9.94,10.29-3.52,2.79-12.32,11.67-17,11.38C541.88,586.33,552.09,574.65,554,572Z"/><path class="cls-5" d="M734.16,520c-19.67-7.37-42.35-5.66-60.73-15.83-4.69-2.6-9.39-6.66-9.58-12-.22-6,9-9.38,15-9.32s11.69,2.42,17.15,4.88c16.53,7.43,33.16,16.58,43.49,31.48C738.74,520.09,735.25,520.43,734.16,520Z"/><path class="cls-5" d="M664.65,379.61A48.78,48.78,0,0,1,671.9,393a2.25,2.25,0,0,0,4.34-1.2,53.38,53.38,0,0,0-8.41-15.32,2.25,2.25,0,0,0-3.18,0,2.31,2.31,0,0,0,0,3.18Z"/><path class="cls-5" d="M557.15,392.47a109,109,0,0,1-25.61,31.75,2.26,2.26,0,0,0,0,3.18,2.3,2.3,0,0,0,3.19,0A112.42,112.42,0,0,0,561,394.74c1.36-2.55-2.52-4.83-3.89-2.27Z"/><path class="cls-5" d="M524.53,480.29c1.35,1.38,2.66,2.81,3.9,4.3.3.36.59.73.89,1.1.11.14.42.41.46.59,0-.12-.23-.31,0-.07l.2.27c.61.79,1.19,1.6,1.76,2.42a2.25,2.25,0,1,0,3.88-2.27,71.71,71.71,0,0,0-7.86-9.53,2.25,2.25,0,0,0-3.18,3.19Z"/><path class="cls-5" d="M528.36,474.08c2.9,0,2.91-4.5,0-4.5s-2.9,4.5,0,4.5Z"/><path class="cls-5" d="M545.75,588.42a2.29,2.29,0,0,0-1.74.23,15.89,15.89,0,0,0-4.79,4.8,2.25,2.25,0,0,0,2.54,3.31c1-.32,1.23-.91,1.8-1.69,2.15-2.68,3.35-2.4,3.76-3.88A2.28,2.28,0,0,0,545.75,588.42Z"/><path class="cls-5" d="M520.77,639.53a12.55,12.55,0,0,1-3.36-9.69,2.27,2.27,0,0,0-2.26-2.25,2.31,2.31,0,0,0-2.25,2.25,17.17,17.17,0,0,0,4.69,12.87,2.25,2.25,0,1,0,3.18-3.18Z"/><path class="cls-5" d="M528.39,650.37c7.59,8.93,16.54,18.58,29.17,18.81,2.89.05,2.89-4.45,0-4.51-11.28-.2-19.27-9.59-26-17.49a2.27,2.27,0,0,0-3.18,0,2.3,2.3,0,0,0,0,3.19Z"/><path class="cls-5" d="M565.09,667.55c2.89,0,2.9-4.5,0-4.5s-2.91,4.5,0,4.5Z"/><path class="cls-5" d="M516.4,625.8c2.9,0,2.9-4.51,0-4.51s-2.9,4.51,0,4.51Z"/><path class="cls-5" d="M718.37,515.67a108.1,108.1,0,0,1,22.83,8.49c2.58,1.31,4.86-2.57,2.27-3.89a113.16,113.16,0,0,0-23.9-8.94c-2.81-.7-4,3.64-1.2,4.34Z"/><path class="cls-5" d="M750,527.3c.47.17.94.36,1.41.55l-.54-.23c.66.28,1.31.59,1.95.92a2.37,2.37,0,0,0,1.73.23,2.34,2.34,0,0,0,1.35-1,2.27,2.27,0,0,0,.22-1.73,2.23,2.23,0,0,0-1-1.35,32.1,32.1,0,0,0-3.9-1.69,1.72,1.72,0,0,0-.9,0,1.6,1.6,0,0,0-.83.27,2.32,2.32,0,0,0-1,1.34,2.29,2.29,0,0,0,.23,1.74l.35.45a2.24,2.24,0,0,0,1,.58Z"/><path class="cls-5" d="M814.63,562.37c11.58,7.42,24.15,15.85,29.43,29.17a2.32,2.32,0,0,0,2.77,1.57,2.27,2.27,0,0,0,1.57-2.77c-5.77-14.56-18.78-23.71-31.5-31.85-2.44-1.57-4.71,2.33-2.27,3.88Z"/><path class="cls-5" d="M850.89,587.08c2.9,0,2.9-4.5,0-4.5s-2.9,4.5,0,4.5Z"/><path class="cls-5" d="M176.5,388c-.54-.54-.91-.56-3.06-1.2a1.62,1.62,0,0,0-.9,0,2.22,2.22,0,0,0-1.64,3.34,2.31,2.31,0,0,0,1.34,1c2.15.64,2.41.79,3,.66a2,2,0,0,0,1.47-.85,2,2,0,0,0,.48-1.36A2.22,2.22,0,0,0,176.5,388Z"/><path class="cls-5" d="M225.61,410.3c2.9,0,2.91-4.51,0-4.51s-2.9,4.51,0,4.51Z"/><path class="cls-5" d="M201.82,472.61a119.52,119.52,0,0,0,1.61,21.29,2.27,2.27,0,0,0,2.77,1.57,2.3,2.3,0,0,0,1.57-2.77,113.55,113.55,0,0,1-1.45-20.09c0-2.9-4.46-2.9-4.5,0Z"/><path class="cls-5" d="M374.83,435.83a65.22,65.22,0,0,1,22.63-25.3c2.42-1.57.17-5.47-2.27-3.89A69.75,69.75,0,0,0,371,433.56c-1.31,2.58,2.58,4.86,3.88,2.27Z"/><path class="cls-5" d="M388.51,492.05a3.65,3.65,0,0,1,.67.5c-.09-.12-.27-.22-.06-.05l.32.27c.41.34.81.69,1.19,1.06s.78.79,1.16,1.2l.49.57.26.33c0,.05.33.43.14.17l.07.1c.09.11.17.23.25.34l.47.69c.29.44.56.9.82,1.36s.5.93.73,1.41l.17.38.07.16c.07.15,0,.1-.06-.16a5.31,5.31,0,0,1,.3.78,2.3,2.3,0,0,0,2.77,1.57,2.26,2.26,0,0,0,1.57-2.76,25.28,25.28,0,0,0-9.06-11.81,2.27,2.27,0,0,0-3.08.81,2.31,2.31,0,0,0,.81,3.08Z"/><path class="cls-5" d="M386.15,312.34a13.43,13.43,0,0,0-16,2.91,2.25,2.25,0,0,0,3.19,3.18,8.11,8.11,0,0,1,3-2.3,12.75,12.75,0,0,1,2.5-.71,8.63,8.63,0,0,1,5,.81,2.25,2.25,0,1,0,2.27-3.89Zm-5,3.07Z"/><path class="cls-5" d="M552.5,353.42c2.89,0,2.9-4.5,0-4.5s-2.91,4.5,0,4.5Z"/><path class="cls-5" d="M613.74,408.78c3.35,15.53,6.85,31.33,14.38,45.47a78.38,78.38,0,0,0,7.37,11.34,2.27,2.27,0,0,0,3.19,0,2.3,2.3,0,0,0,0-3.18c-9.42-12.12-14.13-27.09-17.67-41.81-1-4.33-2-8.67-2.93-13-.61-2.83-5-1.63-4.34,1.2Z"/><path class="cls-5" d="M644.83,474.29c2.89,0,2.9-4.5,0-4.5s-2.91,4.5,0,4.5Z"/><path class="cls-5" d="M660.35,373.57c2.9,0,2.91-4.51,0-4.51s-2.9,4.51,0,4.51Z"/><path class="cls-5" d="M108.75,501.14c4.49,4.56,11.59,5.39,17.44,3.27,6.23-2.25,11.25-7,15.33-12.09,8.28-10.32,13.13-22.78,20.58-33.65,3.89-5.68,8.6-10.9,14.56-14.46,2.49-1.48.22-5.38-2.27-3.88-10.7,6.38-17.43,17.23-23.28,27.89-3.08,5.61-6.05,11.3-9.64,16.61-3.4,5-7.49,10.07-12.7,13.34-5,3.16-12.23,4.46-16.83-.22-2-2.06-5.22,1.12-3.19,3.19Z"/><path class="cls-5" d="M182.2,439.53c2.9,0,2.91-4.5,0-4.5s-2.9,4.5,0,4.5Z"/><path class="cls-5" d="M177.27,368.41c-.22-.78-.63-.8-1.35-2.33a7.43,7.43,0,0,1-.44-1.79,2.25,2.25,0,0,0-3.84-1.6,2.29,2.29,0,0,0-.66,1.6,10.17,10.17,0,0,0,2.52,6.31,2.26,2.26,0,0,0,3.85-1.59C177.32,368.81,177.29,368.61,177.27,368.41Z"/><path class="cls-5" d="M181.12,347.88l1.26,3.47a1.71,1.71,0,0,0,.41.76,1.54,1.54,0,0,0,.63.58,2.24,2.24,0,0,0,3.08-.81,2.19,2.19,0,0,0,.22-1.73c-.42-1.16-.84-2.31-1.25-3.46a1.69,1.69,0,0,0-.41-.77,1.76,1.76,0,0,0-.63-.58,2.24,2.24,0,0,0-3.08.81,2.24,2.24,0,0,0-.23,1.73Z"/><path class="cls-5" d="M203.18,340.68a25.94,25.94,0,0,0-2.54-9,2.27,2.27,0,0,0-3.08-.81,2.31,2.31,0,0,0-.81,3.08,21,21,0,0,1,1.93,6.73,2.42,2.42,0,0,0,.66,1.59A2.27,2.27,0,0,0,203.18,340.68Z"/><path class="cls-5" d="M222.9,327.81a19.25,19.25,0,0,1-.9-3.13,6.27,6.27,0,0,1-.2-1.12,20.48,20.48,0,0,1-.06-4,2.26,2.26,0,0,0-2.25-2.25,2.31,2.31,0,0,0-2.25,2.25,22.48,22.48,0,0,0,1.32,9.42,2.42,2.42,0,0,0,1,1.34A2.27,2.27,0,0,0,222.9,327.81Z"/><path class="cls-5" d="M246.72,311.48a2,2,0,0,0-1.19-1.19,2.24,2.24,0,0,0-3.12,2.06c-.32,2.82-.44,3.09-.12,3.7a2,2,0,0,0,1.19,1.19,2.24,2.24,0,0,0,3.12-2.06C246.91,312.36,247,312.1,246.72,311.48Z"/><path class="cls-5" d="M274,308.07a2.27,2.27,0,0,0-4.12.53,23.35,23.35,0,0,1-2.29,7,2.25,2.25,0,0,0,3.89,2.28,27.06,27.06,0,0,0,2.74-8.09A2.46,2.46,0,0,0,274,308.07Z"/><path class="cls-5" d="M295.83,312.6a2.31,2.31,0,0,0-3.08.81,28.29,28.29,0,0,0-4.29,10.31,2.25,2.25,0,1,0,4.34,1.19,24.2,24.2,0,0,1,3.84-9.23A2.26,2.26,0,0,0,295.83,312.6Z"/><path class="cls-5" d="M312.44,304.23a21.7,21.7,0,0,0,.14,15.37,2.31,2.31,0,0,0,2.77,1.57,2.27,2.27,0,0,0,1.57-2.77,17.49,17.49,0,0,1-.14-13,2.27,2.27,0,0,0-1.57-2.77,2.31,2.31,0,0,0-2.77,1.58Z"/><path class="cls-5" d="M333.41,297.22a44.2,44.2,0,0,1,.91,11.35,2.28,2.28,0,0,0,2.25,2.26,2.31,2.31,0,0,0,2.25-2.26A50.42,50.42,0,0,0,337.75,296a2.27,2.27,0,0,0-2.77-1.57,2.3,2.3,0,0,0-1.57,2.77Z"/><path class="cls-5" d="M353.21,287.8a21,21,0,0,0,1,7.21,2.38,2.38,0,0,0,1,1.35,2.27,2.27,0,0,0,3.31-2.54,15.87,15.87,0,0,1-.85-6,2.26,2.26,0,0,0-2.25-2.25,2.29,2.29,0,0,0-2.25,2.25Z"/><path class="cls-5" d="M378.09,278a2.25,2.25,0,0,0-4.34-1.2,23.69,23.69,0,0,0-.34,8.76,2.24,2.24,0,0,0,1,1.34,2.27,2.27,0,0,0,3.08-.8,2.62,2.62,0,0,0,.23-1.72A19.61,19.61,0,0,1,378.09,278Z"/><path class="cls-5" d="M398.35,277.72a23.63,23.63,0,0,1,.36-6.88,22.64,22.64,0,0,1,2.39-6.48,2.25,2.25,0,0,0-3.89-2.28,27.69,27.69,0,0,0-3.36,15.64,2.25,2.25,0,0,0,4.5,0Z"/><path class="cls-5" d="M421.84,273c.52-1.58,1.05-3.15,1.57-4.73a2.27,2.27,0,0,0-1.57-2.77,2.31,2.31,0,0,0-2.77,1.58q-.79,2.35-1.57,4.72a2.28,2.28,0,0,0,.22,1.73,2.25,2.25,0,0,0,4.12-.53Z"/><path class="cls-5" d="M442.37,270.36a39.71,39.71,0,0,0,4.16-14,2.25,2.25,0,0,0-2.25-2.25,2.31,2.31,0,0,0-2.25,2.25,34.55,34.55,0,0,1-3.55,11.75,2.25,2.25,0,1,0,3.89,2.28Z"/><path class="cls-5" d="M462.14,251.93a37.94,37.94,0,0,0-2.22,15.41,2.26,2.26,0,0,0,4.51,0,33.91,33.91,0,0,1,2.05-14.21,2.25,2.25,0,0,0-1.57-2.77,2.3,2.3,0,0,0-2.77,1.57Z"/><path class="cls-5" d="M488.25,261c.11-.73.21-1.46.32-2.2a1.83,1.83,0,0,0,0-.9,1.74,1.74,0,0,0-.27-.83,1.71,1.71,0,0,0-.58-.64,1.78,1.78,0,0,0-.77-.4l-.59-.08a2.17,2.17,0,0,0-1.14.31l-.46.35a2.26,2.26,0,0,0-.58,1c-.1.74-.21,1.47-.31,2.21a1.69,1.69,0,0,0,0,.89,1.61,1.61,0,0,0,.27.84,2.6,2.6,0,0,0,1.34,1l.6.08a2.27,2.27,0,0,0,1.14-.31l.45-.35a2.24,2.24,0,0,0,.58-1Z"/><path class="cls-5" d="M509.14,258.53a27.66,27.66,0,0,1,1.86-7.89c.36-.84.73-1.59,1.15-2.37a2.25,2.25,0,0,0-3.89-2.27,30.46,30.46,0,0,0-3.62,12.53,2.26,2.26,0,0,0,2.25,2.25,2.3,2.3,0,0,0,2.25-2.25Z"/><path class="cls-5" d="M532.1,258.21a33.34,33.34,0,0,0-.13-9.09,2.22,2.22,0,0,0-1-1.35,2.28,2.28,0,0,0-3.08.81,2.82,2.82,0,0,0-.21,1.87,31,31,0,0,1,0,7.76,2.25,2.25,0,0,0,.66,1.6c1.12,1.12,3.51,1,3.84-1.6Z"/><path class="cls-5" d="M555,245.91a2.27,2.27,0,0,0-1.58-2.77,2.32,2.32,0,0,0-2.77,1.57,49.88,49.88,0,0,0-2.87,13.51,2.27,2.27,0,0,0,2.25,2.25,2.31,2.31,0,0,0,2.25-2.25A45.19,45.19,0,0,1,555,245.91Z"/><path class="cls-5" d="M695,248.72a2.32,2.32,0,0,0-3.08.8,24.15,24.15,0,0,0-4.74,14,2.25,2.25,0,1,0,4.5,0,19.62,19.62,0,0,1,4.13-11.76A2.26,2.26,0,0,0,695,248.72Z"/><path class="cls-5" d="M718.64,253.3a30.14,30.14,0,0,0-4,8.1,2.26,2.26,0,0,0,1.57,2.76,2.29,2.29,0,0,0,2.77-1.57c.25-.77.53-1.52.84-2.27l-.22.54a27.53,27.53,0,0,1,2.93-5.28,2.25,2.25,0,0,0,.22-1.74,2.29,2.29,0,0,0-1-1.35,2.31,2.31,0,0,0-3.08.81Z"/><path class="cls-5" d="M736.84,258.53l-1.47,6.63a2.25,2.25,0,1,0,4.34,1.2l1.47-6.64a2.25,2.25,0,1,0-4.34-1.19Z"/><path class="cls-5" d="M764.93,253.84a2.24,2.24,0,0,0-4.35,1.08c0-.1,0,.19.07.71a15.37,15.37,0,0,1-.77,6.37,2.28,2.28,0,0,0,1.57,2.77,2.31,2.31,0,0,0,2.77-1.58A20.29,20.29,0,0,0,764.93,253.84Z"/><path class="cls-5" d="M788,253.15a2.29,2.29,0,0,0-3.18,0,16.54,16.54,0,0,0-5,11.36,2.26,2.26,0,0,0,4.51,0,11.73,11.73,0,0,1,3.68-8.17A2.29,2.29,0,0,0,788,253.15Z"/><path class="cls-5" d="M807.43,256.67a2.3,2.3,0,0,0-2.77,1.58,30.9,30.9,0,0,0-1,7.83,2.25,2.25,0,1,0,4.5,0,25.28,25.28,0,0,1,.9-6.64A2.3,2.3,0,0,0,807.43,256.67Z"/><path class="cls-5" d="M833.21,266.05a35.46,35.46,0,0,1,1.63-5.65,2.25,2.25,0,0,0-1.58-2.77,2.27,2.27,0,0,0-1.73.22,2.59,2.59,0,0,0-1,1.35,37.15,37.15,0,0,0-1.62,5.65,2.36,2.36,0,0,0,.23,1.73,2.24,2.24,0,0,0,3.08.81,2.2,2.2,0,0,0,1-1.34Z"/><path class="cls-5" d="M855.65,266.08l0-.27-.08.6a19.72,19.72,0,0,1,1.33-4.88l-.23.54a20.38,20.38,0,0,1,1.2-2.38,2.25,2.25,0,1,0-3.88-2.28,22.29,22.29,0,0,0-2.88,8.67,2.26,2.26,0,0,0,3.85,1.59,2.64,2.64,0,0,0,.66-1.59Z"/><path class="cls-5" d="M877,267.07c2.9,0,2.91-4.5,0-4.5s-2.9,4.5,0,4.5Z"/><path class="cls-5" d="M927.39,275.54l5-5.66a2.25,2.25,0,1,0-3.18-3.19l-5,5.67a2.25,2.25,0,0,0,1.59,3.84,2.19,2.19,0,0,0,1.59-.66Z"/><path class="cls-5" d="M948.18,270.22a15,15,0,0,0-5.45,10,2.29,2.29,0,0,0,.66,1.6c1.11,1.1,3.5,1,3.85-1.6a11.07,11.07,0,0,1,4.12-6.84,2.27,2.27,0,0,0,.66-1.59A2.24,2.24,0,0,0,948.18,270.22Z"/><path class="cls-5" d="M967.66,286.9c2.9,0,2.91-4.5,0-4.5s-2.9,4.5,0,4.5Z"/><path class="cls-5" d="M987.18,300.39a20.27,20.27,0,0,0,3.24-5.14,1.61,1.61,0,0,0,.27-.84,2.21,2.21,0,0,0-1.08-2.24,2.23,2.23,0,0,0-1.73-.23,2.18,2.18,0,0,0-1.35,1,24.09,24.09,0,0,1-2,3.52c-.62.81-1.23,1.32-1.23,2.3a2.26,2.26,0,0,0,3.85,1.59Z"/><path class="cls-5" d="M1008.32,311.28c1.62-2.26,1.82-2.38,1.85-3a2,2,0,0,0-.45-1.66,2.06,2.06,0,0,0-1.17-.81,2.31,2.31,0,0,0-1.73.23c-.5.29-.46.31-2.38,3a1.61,1.61,0,0,0-.27.84,2.23,2.23,0,0,0,2.81,2.47,2.26,2.26,0,0,0,1.34-1Z"/><path class="cls-5" d="M564.07,308.13a39.62,39.62,0,0,1,16.33-44.55c2.41-1.58.16-5.48-2.28-3.89a44.17,44.17,0,0,0-18.39,49.64c.82,2.77,5.16,1.59,4.34-1.2Z"/><path class="cls-5" d="M588.59,259c2.9,0,2.9-4.5,0-4.5s-2.9,4.5,0,4.5Z"/><path class="cls-3" d="M600.89,122.78a128,128,0,0,1,20.88,13.11L619,133.78A127.15,127.15,0,0,1,631.64,145a13.93,13.93,0,0,0,9.55,4,13.77,13.77,0,0,0,9.56-4,13.62,13.62,0,0,0,4-9.55,14.18,14.18,0,0,0-4-9.56,138.81,138.81,0,0,0-36.22-26.39,14.39,14.39,0,0,0-10.41-1.36,13.77,13.77,0,0,0-8.07,6.21c-1.66,3.13-2.49,6.93-1.36,10.41,1,3.22,3.07,6.5,6.2,8.07Z"/><path class="cls-3" d="M658.12,121l3.31,4.56A13,13,0,0,0,674.89,132a10,10,0,0,0,5-1.61l2.73-2.11a13.39,13.39,0,0,0,3.48-6l.48-3.59a13.5,13.5,0,0,0-1.84-6.82l-3.31-4.56a15.15,15.15,0,0,0-8.07-6.21,10.3,10.3,0,0,0-5.39-.24,10,10,0,0,0-5,1.61l-2.74,2.11a13.47,13.47,0,0,0-3.47,6l-.48,3.59a13.5,13.5,0,0,0,1.84,6.82Z"/><path class="cls-3" d="M733,166.86c-2.47-2.27-6.06-4.35-9.55-4a26.14,26.14,0,0,1-4.68.07c-12.07-2.2-25.09-9.07-35-16.47a10,10,0,0,0-5-1.6c-5.24-1.18-11.26,2.28-13.46,6.45-1.66,3.13-2.49,6.93-1.36,10.41.45,1.07.9,2.15,1.36,3.22a13.55,13.55,0,0,0,4.84,4.85,106.81,106.81,0,0,0,22,12.61A127.53,127.53,0,0,0,707,187.92c4.76,1.35,12,2.49,16.49,2,7,.26,13.83-6.36,13.51-13.51C736.8,172.92,735.66,169.29,733,166.86Z"/><path class="cls-3" d="M585.66,92.87a13.47,13.47,0,0,0-3.47-6l-2.74-2.11A13.37,13.37,0,0,0,572.64,83a54.86,54.86,0,0,0-15.34.89,10.19,10.19,0,0,0-4.59,2.42,10.24,10.24,0,0,0-3.48,3.79,10,10,0,0,0-1.6,5,10.09,10.09,0,0,0,.24,5.39c.45,1.07.9,2.15,1.36,3.23a13.52,13.52,0,0,0,4.84,4.84l3.23,1.36a13.66,13.66,0,0,0,7,0,41.86,41.86,0,0,1,8.3,0,15,15,0,0,0,9.55-4,10,10,0,0,0,2.79-4.35,10,10,0,0,0,1.16-5.2Z"/><path class="cls-3" d="M349.31,193.89a13.53,13.53,0,0,0-19.11,0c-4,4.36-3.79,8.41-4.15,12a58.48,58.48,0,0,1-3.12,11.25,63.27,63.27,0,0,1-6,10.29,62.42,62.42,0,0,1-8.76,8.82,57.26,57.26,0,0,1-9.94,5.78,10.31,10.31,0,0,0-4.51,2.39c-4.49,2.91-6.3,9.67-4.84,14.2a13.7,13.7,0,0,0,6.21,8.08c3,1.6,7.06,2.63,10.41,1.36a71.75,71.75,0,0,0,14.82-7.4,74.25,74.25,0,0,0,29.62-39,70.58,70.58,0,0,0,3.31-18.17A13.71,13.71,0,0,0,349.31,193.89Z"/><path class="cls-3" d="M149.9,580.83c-1.78-2.76-4.67-5.67-8.07-6.21a59.78,59.78,0,0,1-12.05-3.25,59.89,59.89,0,0,1-10.57-6.21,60.61,60.61,0,0,1-5.29-5,13.5,13.5,0,0,0-19.1,0,13.56,13.56,0,0,0-4,9.55,14.41,14.41,0,0,0,4,9.55A79,79,0,0,0,113,593.18a69.88,69.88,0,0,0,21.66,7.5,10.29,10.29,0,0,0,5.39.24c5.27-.24,10.19-5.14,11.23-9.68C152.05,587.78,151.88,583.9,149.9,580.83Z"/><path class="cls-3" d="M182.34,618.59a13.94,13.94,0,0,0,9.55-4,13.5,13.5,0,0,0,0-19.1,13.51,13.51,0,0,0-19.11,0,13.52,13.52,0,0,0,0,19.1,14.06,14.06,0,0,0,9.56,4Z"/><path class="cls-3" d="M457.36,593.67a13.66,13.66,0,0,0-6.2-8.07l-3.23-1.36a13.67,13.67,0,0,0-7.18,0,155.62,155.62,0,0,1-39,.42,118,118,0,0,1-26.5-7.12,103.42,103.42,0,0,1-19.65-11.45,91.61,91.61,0,0,1-13.72-13.63,81.81,81.81,0,0,1-6.47-10.18,13.5,13.5,0,0,0-18.48-4.85c-2.89,1.86-5.43,4.63-6.21,8.08a14.5,14.5,0,0,0,1.36,10.4c8.88,16.62,23.13,30.32,39.33,39.76,18.1,10.55,38.75,15.7,59.57,16.85a180.64,180.64,0,0,0,36.94-2.23,10.09,10.09,0,0,0,4.59-2.42C457,605,458.84,598.24,457.36,593.67Z"/><path class="cls-3" d="M482,616.07a13.94,13.94,0,0,0,9.55-4,13.73,13.73,0,0,0,4-9.55c-.16-3.49-1.31-7.12-4-9.55a13.5,13.5,0,0,0-19.1,0,13.7,13.7,0,0,0-4,9.55c.16,3.49,1.3,7.12,4,9.55a14,14,0,0,0,9.55,4Z"/><path class="cls-3" d="M914.35,424.71c-11.88-6.38-23.1,5.19-19.85,15.26,3.61,11.15,10.48,5.38,18.13,21.53,6.36,16.86,1.9,37.83-8.33,52.15-4.62,5.64-8,8.09-13,10.46C884.5,525.8,879.77,534,882,540.7a13.69,13.69,0,0,0,6.21,8.08c3.05,1.61,7,2.61,10.41,1.36C949,531.41,958.42,448.42,914.35,424.71Z"/><path class="cls-3" d="M879.51,519.46A13.55,13.55,0,0,0,866,506c-11,0-13.64,10.56-13.51,13.51A13.54,13.54,0,0,0,866,533C877,533,879.64,522.42,879.51,519.46Z"/><path class="cls-3" d="M1091.79,621.28a13.59,13.59,0,0,0-9.55-4,14.72,14.72,0,0,0-9.56,4c-9.15,8.23-20.52,15-31.65,19.86-33.83,13.76-68.81,13.11-103.53,3.27a14,14,0,0,0-10.41,1.36,13.71,13.71,0,0,0-6.21,8.08c-.79,3.45-.62,7.34,1.36,10.4a14.17,14.17,0,0,0,8.07,6.21c57.22,16.21,118,9,161.48-30.08a13.5,13.5,0,0,0,0-19.1Z"/><path class="cls-3" d="M941.25,684.67c-12.25-4.29-24.12-8.4-32.35-18.2-8.15-11.63-2.24-13.75-5.6-20.14-1.61-5-7.54-8.52-12.34-8.3a13.62,13.62,0,0,0-9.55,4c-1.87,2.41-3.94,4.62-4,9.56a44.23,44.23,0,0,0,2.11,16.55c9,25.08,30.35,34.16,54.5,42.63,3.18,1.12,7.59.3,10.41-1.36C954.62,703.42,952.85,687.92,941.25,684.67Z"/><path class="cls-3" d="M980.57,721.83a13.94,13.94,0,0,0,9.55-4,13.73,13.73,0,0,0,4-9.55c-.16-3.49-1.31-7.12-4-9.55a13.5,13.5,0,0,0-19.1,0,13.68,13.68,0,0,0-4,9.55c.16,3.49,1.3,7.12,4,9.55a14,14,0,0,0,9.55,4Z"/><path class="cls-3" d="M828.84,634.72a13.64,13.64,0,0,0-6.21-8.07c-3.07-1.63-7-2.59-10.41-1.37a77,77,0,0,1-14.33,3.63,79.94,79.94,0,0,1-16.94,0,77.74,77.74,0,0,1-15.78-4.29,10.29,10.29,0,0,0-5.39-.24c-5.27.24-10.19,5.14-11.23,9.68-.78,3.46-.61,7.34,1.37,10.41l2.11,2.73a13.49,13.49,0,0,0,6,3.48c19.79,7.72,43.52,7.15,61.42.71a14.48,14.48,0,0,0,8.07-6.21A13.82,13.82,0,0,0,828.84,634.72Z"/><path class="cls-3" d="M727.5,629.92a13.92,13.92,0,0,0,9.55-4,13.7,13.7,0,0,0,4-9.55c-.16-3.49-1.3-7.12-4-9.55a13.5,13.5,0,0,0-19.1,0,13.73,13.73,0,0,0-4,9.55c.16,3.49,1.31,7.12,4,9.55a14,14,0,0,0,9.55,4Z"/><path class="cls-1" d="M598.72,165.54a79.61,79.61,0,0,0-43.82-2.34,11.26,11.26,0,0,0-2.69,20.58,12.19,12.19,0,0,0,8.67,1.13c1.5-.33,3-.6,4.52-.84a69.93,69.93,0,0,1,14.68,0,69,69,0,0,1,12.65,3.19c2.63.93,6.34.23,8.68-1.14a11.48,11.48,0,0,0,5.17-6.73C608.1,172.7,604.73,167.68,598.72,165.54Z"/><path class="cls-1" d="M539,174.88a8.34,8.34,0,0,0-1.34-4.19l-1.76-2.28a11.23,11.23,0,0,0-5-2.89l-3-.4a11.23,11.23,0,0,0-5.68,1.53l-6.92,3.15a8.57,8.57,0,0,0-3.16,2.9,8.45,8.45,0,0,0-2,3.83A8.57,8.57,0,0,0,510,181a8.4,8.4,0,0,0,1.34,4.18l1.76,2.28a11.23,11.23,0,0,0,5,2.9l3,.4a11.21,11.21,0,0,0,5.68-1.54l6.93-3.15a12.6,12.6,0,0,0,5.17-6.72A8.48,8.48,0,0,0,539,174.88Z"/><path class="cls-1" d="M541.16,159.93a11.6,11.6,0,0,0,8-3.29,11.25,11.25,0,0,0,0-15.92,11.25,11.25,0,0,0-15.92,0,11.27,11.27,0,0,0,0,15.92,11.71,11.71,0,0,0,8,3.29Z"/><path class="cls-1" d="M660.49,212.3c-4-7-9.93-16.39-16.12-21.46a38.36,38.36,0,0,0-8.86-5.8,8.37,8.37,0,0,0-4.19-1.34c-4.37-1-9.38,1.91-11.22,5.37a11.37,11.37,0,0,0-1.13,8.68c.84,2.6,2.55,5.58,5.17,6.73a27.41,27.41,0,0,1,4.59,2.55,40.64,40.64,0,0,1,5.11,5.22,118.6,118.6,0,0,1,7.21,11.42,11.61,11.61,0,0,0,6.72,5.17,11.49,11.49,0,0,0,8.68-1.14,11.34,11.34,0,0,0,5.17-6.72A11.83,11.83,0,0,0,660.49,212.3Z"/><path class="cls-1" d="M387.08,208.69a11.25,11.25,0,0,0-15.92,0c-3.32,3.61-3.15,6.95-3.53,10.52a64.09,64.09,0,0,1-3.49,12.92,63.68,63.68,0,0,1-7.63,12.9c-1.65,2.15-1.82,6.2-1.14,8.68a11.28,11.28,0,0,0,13.85,7.86l2.69-1.14a11.31,11.31,0,0,0,4-4c8.74-11.4,13.44-25.51,14.43-39.75A11.38,11.38,0,0,0,387.08,208.69Z"/><path class="cls-1" d="M390.71,202.74a11.63,11.63,0,0,0,8-3.3,11.25,11.25,0,0,0,0-15.92,11.27,11.27,0,0,0-15.92,0,11.5,11.5,0,0,0-3.3,8,11.38,11.38,0,0,0,3.3,8,11.66,11.66,0,0,0,8,3.3Z"/><path class="cls-1" d="M182.43,318.61a11.25,11.25,0,0,0-13.85-7.86,130.22,130.22,0,0,0-50.31,29.43,11.25,11.25,0,0,0,0,15.92,11.29,11.29,0,0,0,8,3.3,12,12,0,0,0,8-3.3,107.47,107.47,0,0,1,40.38-23.64,11.89,11.89,0,0,0,6.73-5.18A11.47,11.47,0,0,0,182.43,318.61Z"/><path class="cls-1" d="M501.94,535.8c-8.35-2.71-14.34-4.64-21.52-9.76a63.41,63.41,0,0,1-9.61-9.7A90.77,90.77,0,0,1,460.55,498a8.45,8.45,0,0,0-2-3.83c-2.41-3.73-8-5.27-11.83-4a11.44,11.44,0,0,0-6.73,5.18c-1.32,2.51-2.23,5.91-1.13,8.67,4.92,12.39,8.76,19,15.53,27.62a66.15,66.15,0,0,0,22.91,18.71A148.44,148.44,0,0,0,496,557.51a11.5,11.5,0,0,0,8.68-1.14C512.88,551.54,511.75,539,501.94,535.8Z"/><path class="cls-1" d="M424.07,530.09a11.57,11.57,0,0,0,8-3.3,11.25,11.25,0,0,0,0-15.92,11.27,11.27,0,0,0-15.92,0,11.27,11.27,0,0,0,0,15.92,11.68,11.68,0,0,0,8,3.3Z"/><path class="cls-1" d="M733.8,400.41a11.63,11.63,0,0,0,8-3.3,11.27,11.27,0,0,0,0-15.92,11.27,11.27,0,0,0-15.92,0,11.25,11.25,0,0,0,0,15.92,11.7,11.7,0,0,0,8,3.3Z"/><path class="cls-1" d="M993.18,411.46a12.7,12.7,0,0,0,5.17-6.72,8.48,8.48,0,0,0,.2-4.49,8.34,8.34,0,0,0-1.34-4.19l-1.76-2.28a11.23,11.23,0,0,0-5-2.89l-3-.4a11.13,11.13,0,0,0-5.68,1.53l-4.4,1.89A10.84,10.84,0,0,0,972,405.13a8.3,8.3,0,0,0,1.34,4.18l1.76,2.28a11.23,11.23,0,0,0,5,2.9l3,.4a11.24,11.24,0,0,0,5.68-1.54C988.87,413.35,988.05,413.66,993.18,411.46Z"/><path class="cls-1" d="M759.61,390.87c3.53,0,6.92-3.11,6.75-6.75a6.87,6.87,0,0,0-6.75-6.76c-3.54,0-6.92,3.11-6.76,6.76a6.87,6.87,0,0,0,6.76,6.75Z"/><path class="cls-1" d="M711.13,381.43c3.54,0,6.92-3.11,6.76-6.76a6.87,6.87,0,0,0-6.76-6.75c-3.53,0-6.91,3.11-6.75,6.75a6.87,6.87,0,0,0,6.75,6.76Z"/><path class="cls-1" d="M715.54,423.61c3.53,0,6.92-3.11,6.76-6.76a6.87,6.87,0,0,0-6.76-6.75c-3.53,0-6.92,3.1-6.75,6.75a6.87,6.87,0,0,0,6.75,6.76Z"/><path class="cls-1" d="M982.46,437.46c3.53,0,6.92-3.11,6.75-6.76a6.87,6.87,0,0,0-6.75-6.75c-3.53,0-6.92,3.1-6.76,6.75a6.88,6.88,0,0,0,6.76,6.76Z"/><path class="cls-1" d="M953.5,411c3.53,0,6.92-3.11,6.75-6.76a6.86,6.86,0,0,0-6.75-6.75c-3.53,0-6.92,3.1-6.75,6.75A6.87,6.87,0,0,0,953.5,411Z"/><path class="cls-1" d="M918.25,395.91c3.53,0,6.91-3.11,6.75-6.76a6.87,6.87,0,0,0-6.75-6.75c-3.54,0-6.92,3.11-6.76,6.75a6.88,6.88,0,0,0,6.76,6.76Z"/><path class="cls-1" d="M641.26,540.07c3.53,0,6.92-3.11,6.75-6.76a6.87,6.87,0,0,0-6.75-6.75c-3.54,0-6.92,3.11-6.76,6.75a6.88,6.88,0,0,0,6.76,6.76Z"/><path class="cls-1" d="M522.91,548.88c3.53,0,6.92-3.11,6.75-6.75a6.87,6.87,0,0,0-6.75-6.76c-3.54,0-6.92,3.11-6.76,6.76a6.87,6.87,0,0,0,6.76,6.75Z"/><path class="cls-1" d="M448,548.88c3.54,0,6.92-3.11,6.76-6.75a6.88,6.88,0,0,0-6.76-6.76c-3.53,0-6.91,3.11-6.75,6.76a6.87,6.87,0,0,0,6.75,6.75Z"/><path class="cls-1" d="M269.21,437.46c3.53,0,6.92-3.11,6.76-6.76a6.87,6.87,0,0,0-6.76-6.75c-3.53,0-6.92,3.1-6.75,6.75a6.87,6.87,0,0,0,6.75,6.76Z"/><path class="cls-1" d="M195.56,316c3.53,0,6.91-3.11,6.75-6.76a6.87,6.87,0,0,0-6.75-6.75c-3.54,0-6.92,3.11-6.76,6.75a6.88,6.88,0,0,0,6.76,6.76Z"/><path class="cls-1" d="M255.36,506.07c3.53,0,6.92-3.1,6.76-6.75a6.88,6.88,0,0,0-6.76-6.76c-3.53,0-6.92,3.11-6.75,6.76a6.86,6.86,0,0,0,6.75,6.75Z"/><path class="cls-1" d="M266.69,530c3.54,0,6.92-3.11,6.76-6.76a6.87,6.87,0,0,0-6.76-6.75c-3.53,0-6.92,3.1-6.75,6.75a6.87,6.87,0,0,0,6.75,6.76Z"/><path class="cls-1" d="M245.92,522.44c3.53,0,6.92-3.11,6.75-6.75a6.87,6.87,0,0,0-6.75-6.76c-3.53,0-6.92,3.11-6.76,6.76a6.87,6.87,0,0,0,6.76,6.75Z"/><path class="cls-1" d="M603.49,552.66c3.53,0,6.91-3.11,6.75-6.76a6.87,6.87,0,0,0-6.75-6.75c-3.54,0-6.92,3.11-6.76,6.75a6.88,6.88,0,0,0,6.76,6.76Z"/><path class="cls-1" d="M691,452.56c3.53,0,6.92-3.1,6.75-6.75a6.86,6.86,0,0,0-6.75-6.75c-3.53,0-6.92,3.1-6.75,6.75a6.86,6.86,0,0,0,6.75,6.75Z"/><path class="cls-1" d="M709.25,450.05c3.53,0,6.91-3.11,6.75-6.76a6.87,6.87,0,0,0-6.75-6.75c-3.54,0-6.92,3.1-6.76,6.75a6.88,6.88,0,0,0,6.76,6.76Z"/><path class="cls-1" d="M997.57,471.45c3.53,0,6.91-3.11,6.75-6.75a6.87,6.87,0,0,0-6.75-6.76c-3.54,0-6.92,3.11-6.76,6.76a6.88,6.88,0,0,0,6.76,6.75Z"/><path class="cls-1" d="M954.5,248.3c1.34.74,2.66,1.52,3.93,2.36.59.38,1.17.78,1.75,1.19l1,.73c1.17.88-.79-.64-.25-.2a60.52,60.52,0,0,1,6.59,6.11c1,1.09,1.94,2.21,2.85,3.36.32.41.15.19-.51-.67l.42.57.62.85c.41.58.81,1.16,1.19,1.75a55.89,55.89,0,0,1,4.37,8,6.8,6.8,0,0,0,4,3.11,6.92,6.92,0,0,0,5.21-.69,6.8,6.8,0,0,0,3.1-4,7.8,7.8,0,0,0-.68-5.21,62.19,62.19,0,0,0-26.79-28.94c-3.1-1.7-7.51-.87-9.24,2.42s-.89,7.43,2.42,9.24Z"/><path class="cls-1" d="M934.61,241.67c3.54,0,6.92-3.1,6.76-6.75a6.87,6.87,0,0,0-6.76-6.75c-3.53,0-6.91,3.1-6.75,6.75a6.87,6.87,0,0,0,6.75,6.75Z"/><path class="cls-4" d="M153,506.08a20.24,20.24,0,0,1-13.8-7.3A2.25,2.25,0,0,0,136,502a24.83,24.83,0,0,0,17,8.61,2.27,2.27,0,0,0,2.25-2.25A2.29,2.29,0,0,0,153,506.08Z"/><path class="cls-4" d="M141.63,510.12c-.92-1.44-1.45-.74-4-1.79a14.42,14.42,0,0,1-2.12-1.28,12.39,12.39,0,0,1-1.24-1.18,2.29,2.29,0,0,0-3.19,0,2.31,2.31,0,0,0,0,3.19,14.24,14.24,0,0,0,8,4.37,2.45,2.45,0,0,0,1.74-.23A2.26,2.26,0,0,0,141.63,510.12Z"/><path class="cls-4" d="M150.05,500.76a2.35,2.35,0,0,0-1-1.34,24.38,24.38,0,0,1-3.5-3.25,2.25,2.25,0,1,0-3.18,3.18,26.28,26.28,0,0,0,4.41,3.95,1.61,1.61,0,0,0,.84.27,2.21,2.21,0,0,0,2.24-1.07A2.35,2.35,0,0,0,150.05,500.76Z"/><path class="cls-4" d="M156.53,494.55a12.77,12.77,0,0,1-7.49-3,2.26,2.26,0,0,0-3.19,3.19,17.65,17.65,0,0,0,10.68,4.33,2.27,2.27,0,0,0,2.25-2.25A2.3,2.3,0,0,0,156.53,494.55Z"/><path class="cls-4" d="M157.37,489.05a2.35,2.35,0,0,0-1.34-1,11.56,11.56,0,0,1-3.71-1.82,2.23,2.23,0,0,0-1.73-.23,2.26,2.26,0,0,0-1.57,2.77,2.31,2.31,0,0,0,1,1.34,14.44,14.44,0,0,0,4.78,2.28,2.32,2.32,0,0,0,1.73-.22A2.27,2.27,0,0,0,157.37,489.05Z"/><path class="cls-4" d="M164.55,480.53a13.24,13.24,0,0,1-7.21-2,2.27,2.27,0,0,0-3.08.81,2.3,2.3,0,0,0,.81,3.08,18.11,18.11,0,0,0,9.48,2.65,2.26,2.26,0,0,0,0-4.51Z"/><path class="cls-4" d="M165.3,475.61a2.31,2.31,0,0,0-1-1.35l-2.67-1.42a2.26,2.26,0,0,0-3.31,2.54,2.31,2.31,0,0,0,1,1.35l2.67,1.42A2.26,2.26,0,0,0,165.3,475.61Z"/><path class="cls-4" d="M171.14,467.84l-4.88-1.71a2.25,2.25,0,0,0-1.2,4.34l4.89,1.71a2.25,2.25,0,1,0,1.19-4.34Z"/><path class="cls-4" d="M172.46,460.71l-1.73-1.11a2.29,2.29,0,0,0-3.09.81,2.22,2.22,0,0,0,0,2.27,2.33,2.33,0,0,0,.81.81l1.73,1.1a2.24,2.24,0,0,0,2.5-.17,2.06,2.06,0,0,0,.81-1.17A2.26,2.26,0,0,0,172.46,460.71Z"/><path class="cls-4" d="M174,459.24c2.89,0,2.9-4.51,0-4.51s-2.91,4.51,0,4.51Z"/><path class="cls-4" d="M179.8,451.49c1.28,1.07,1.28,1.13,1.67,1.26a2,2,0,0,0,1.73,0,2.06,2.06,0,0,0,1.08-.93,2.31,2.31,0,0,0,.23-1.73c-.24-.86-.75-1.13-1.53-1.78a1.64,1.64,0,0,0-.72-.47,2.24,2.24,0,0,0-3.12,2.06,2.3,2.3,0,0,0,.66,1.59Z"/><path class="cls-4" d="M185.8,448.22c2.9,0,2.9-4.5,0-4.5s-2.9,4.5,0,4.5Z"/><path class="cls-4" d="M119.73,513a29.66,29.66,0,0,0,15.53-.43,2.26,2.26,0,0,0-1.2-4.35,24.83,24.83,0,0,1-13.13.44,2.25,2.25,0,0,0-1.2,4.34Z"/><path class="cls-4" d="M196,539.91a12.17,12.17,0,0,1-1.38-2.56,2.44,2.44,0,0,0-1-1.35,2.26,2.26,0,0,0-3.31,2.55,15,15,0,0,0,3.58,5.71,2.26,2.26,0,0,0,3.84-1.59C197.68,541.36,197.08,541.22,196,539.91Z"/><path class="cls-4" d="M198.51,537c-.53-1.65-1.88-1.28-5.45-5.25a2.25,2.25,0,1,0-3.18,3.18,29.23,29.23,0,0,0,5.32,4.61,2.3,2.3,0,0,0,1.74.23A2.27,2.27,0,0,0,198.51,537Z"/><path class="cls-4" d="M203,528.36a2.31,2.31,0,0,0-1.35-1c-2.39-.94-2.6-1.12-3.26-1a2,2,0,0,0-1.47.85,2,2,0,0,0-.48,1.36,2.3,2.3,0,0,0,.65,1.59c.41.4.38.34,3.36,1.52a1.83,1.83,0,0,0,.9,0,2.21,2.21,0,0,0,1.87-1.62A2.3,2.3,0,0,0,203,528.36Z"/><path class="cls-4" d="M204.4,518.15a2.25,2.25,0,0,0-1.73-.23,2.76,2.76,0,0,0-1.55.56,2,2,0,0,0-.85,1.47,2.05,2.05,0,0,0,.27,1.44,2.27,2.27,0,0,0,1.34,1,3.77,3.77,0,0,0,2-.16,1.64,1.64,0,0,0,.76-.4A2.23,2.23,0,0,0,204.4,518.15Z"/><path class="cls-4" d="M205.77,508.51a2.18,2.18,0,0,0-1.73.22,14.48,14.48,0,0,1-5.94,2.55,2.29,2.29,0,0,0-1.35,1,2.25,2.25,0,0,0,2.55,3.31,17.65,17.65,0,0,0,7-3,2.47,2.47,0,0,0,1-1.34A2.27,2.27,0,0,0,205.77,508.51Z"/><path class="cls-4" d="M208,503.09a2.3,2.3,0,0,0-2.77-1.58,25.32,25.32,0,0,0-6,2.66,2.26,2.26,0,0,0-.81,3.08,2.29,2.29,0,0,0,3.08.81,19.84,19.84,0,0,1,4.94-2.2A2.27,2.27,0,0,0,208,503.09Z"/><path class="cls-4" d="M204.9,496c-1-1.58-1.4-.62-6.38-2.29a2.26,2.26,0,0,0-2.77,1.57,2.3,2.3,0,0,0,1.57,2.77,32.28,32.28,0,0,0,5,1.25,2.42,2.42,0,0,0,1.73-.22A2.27,2.27,0,0,0,204.9,496Z"/><path class="cls-4" d="M201.5,488.49a2.24,2.24,0,0,0-1-1.34l-.54-.23c-.75-.2-1.43.18-3.59.08a2.16,2.16,0,0,0-2.05,1.38,2.23,2.23,0,0,0,2.05,3.12,18.74,18.74,0,0,0,3.59-.24,1.68,1.68,0,0,0,.77-.4A2.2,2.2,0,0,0,201.5,488.49Z"/><path class="cls-4" d="M201.66,466.14a2.27,2.27,0,0,0-1-1.34c-.78-.45-1.26-.29-2.4-.15a2.25,2.25,0,0,0-1.59,3.84c1.1.85,1.3.7,2.85.5a2.19,2.19,0,0,0,2.06-1.38A2.06,2.06,0,0,0,201.66,466.14Z"/><path class="cls-4" d="M200.44,461.91c2.89,0,2.9-4.5,0-4.5s-2.91,4.5,0,4.5Z"/><path class="cls-4" d="M202,452.31c2.9,0,2.9-4.5,0-4.5s-2.9,4.5,0,4.5Z"/><path class="cls-3" d="M1181.43,332.66a85.22,85.22,0,0,0-13.89-12,10,10,0,0,0-5-1.61c-5.25-1.17-11.26,2.29-13.46,6.45-1.66,3.14-2.49,6.93-1.37,10.41l1.37,3.23a15.21,15.21,0,0,0,5.3,5.19A70,70,0,0,1,1165.05,355a73.79,73.79,0,0,1,7.44,12.85,73,73,0,0,1,4.09,14.85,68.88,68.88,0,0,1,.39,8.12,14,14,0,0,0,4,9.56,13.52,13.52,0,0,0,19.1,0,14.13,14.13,0,0,0,4-9.56C1204.23,369.42,1195.73,348.48,1181.43,332.66Z"/><path class="cls-3" d="M1133.76,311a13.91,13.91,0,0,0,9.55-4,13.51,13.51,0,0,0,0-19.11,13.52,13.52,0,0,0-19.1,0,13.51,13.51,0,0,0,0,19.11,14,14,0,0,0,9.55,4Z"/><path class="cls-3" d="M1195.06,427.93a10,10,0,0,0-2.79-4.34l-2.73-2.12a13.5,13.5,0,0,0-6.82-1.84l-3.59.48a13.08,13.08,0,0,0-6,3.48l-5.19,6.48a10,10,0,0,0-2.79,4.35,13.88,13.88,0,0,0,2.79,14.75l2.73,2.12a13.5,13.5,0,0,0,6.82,1.84l3.59-.48a13.39,13.39,0,0,0,6-3.48l5.19-6.48a10,10,0,0,0,2.79-4.35,12.16,12.16,0,0,0,0-10.41Z"/></svg>